G04 EasyPC Gerber Version 21.0.3 Build 4286 *
G04 #@! TF.Part,Single*
G04 #@! TF.FileFunction,Soldermask,Bot *
G04 #@! TF.FilePolarity,Negative *
%FSLAX35Y35*%
%MOIN*%
G04 #@! TA.AperFunction,ComponentPad*
%ADD114R,0.05661X0.05661*%
%ADD110R,0.05724X0.05724*%
%ADD112R,0.07496X0.07496*%
%ADD10R,0.08677X0.08677*%
%ADD116C,0.05449*%
%ADD115C,0.05661*%
%ADD111C,0.05724*%
%ADD12C,0.07000*%
%ADD113C,0.07496*%
%ADD11C,0.08677*%
X0Y0D02*
D02*
D10*
X23230Y453785D03*
D02*
D11*
X42915D03*
X62600D03*
X82285D03*
D02*
D12*
X42574Y70889D03*
Y110889D03*
X48689Y370603D03*
Y410603D03*
X59672Y69765D03*
Y109765D03*
X68345Y360057D03*
X74672Y70514D03*
Y110514D03*
X89672Y70514D03*
Y110514D03*
X108345Y360057D03*
X121329Y65826D03*
Y105826D03*
X137924Y67121D03*
Y107121D03*
X154013Y66723D03*
Y106723D03*
X166615Y65772D03*
Y105772D03*
X222415Y59781D03*
Y99781D03*
X235395Y59531D03*
Y99531D03*
X250246Y59781D03*
Y99781D03*
X266096Y60031D03*
Y100031D03*
X297935Y57636D03*
Y97636D03*
X308793Y56388D03*
Y96388D03*
X320649Y56138D03*
Y96138D03*
X335113Y55288D03*
Y95288D03*
X339730Y403739D03*
X340854Y333350D03*
X341478Y368544D03*
X361696Y351196D03*
Y419713D03*
X362320Y384893D03*
X379730Y403739D03*
X380854Y333350D03*
X381478Y368544D03*
X401696Y351196D03*
Y419713D03*
X402320Y384893D03*
D02*
D110*
X225886Y320043D03*
X291283Y319169D03*
D02*
D111*
X225886Y260043D03*
Y270043D03*
Y280043D03*
Y290043D03*
Y300043D03*
Y310043D03*
X255886Y260043D03*
Y270043D03*
Y280043D03*
Y290043D03*
Y300043D03*
Y310043D03*
Y320043D03*
X291283Y259169D03*
Y269169D03*
Y279169D03*
Y289169D03*
Y299169D03*
Y309169D03*
X321283Y259169D03*
Y269169D03*
Y279169D03*
Y289169D03*
Y299169D03*
Y309169D03*
Y319169D03*
D02*
D112*
X168625Y13230D03*
X173118Y444924D03*
X316392Y13479D03*
X399511Y251229D03*
D02*
D113*
X80043Y13230D03*
X89885D03*
X99728D03*
X103118Y444924D03*
X109570Y13230D03*
X113118Y444924D03*
X119413Y13230D03*
X123118Y444924D03*
X129255Y13230D03*
X133118Y444924D03*
X139098Y13230D03*
X143118Y444924D03*
X148940Y13230D03*
X153118Y444924D03*
X158783Y13230D03*
X163118Y444924D03*
X227809Y13479D03*
X237652D03*
X247494D03*
X257337D03*
X267180D03*
X277022D03*
X286865D03*
X296707D03*
X306550D03*
X399511Y261229D03*
Y271229D03*
Y281229D03*
Y291229D03*
Y301229D03*
Y311229D03*
Y321229D03*
D02*
D114*
X129639Y270674D03*
D02*
D115*
Y301674D03*
X139639Y270674D03*
Y301674D03*
X149639Y270674D03*
Y301674D03*
X159639Y270674D03*
Y301674D03*
X169639Y270674D03*
Y301674D03*
X179639Y270674D03*
Y301674D03*
X189639Y270674D03*
Y301674D03*
D02*
D116*
X263752Y370248D03*
Y389460D03*
X357203Y197443D03*
Y216655D03*
X0Y0D02*
M02*
