G04 EasyPC Gerber Version 21.0.3 Build 4286 *
G04 #@! TF.Part,Single*
G04 #@! TF.FileFunction,Soldermask,Top *
G04 #@! TF.FilePolarity,Negative *
%FSLAX35Y35*%
%MOIN*%
G04 #@! TA.AperFunction,SMDPad*
%ADD88R,0.01700X0.06400*%
%ADD98R,0.03159X0.07687*%
%ADD101R,0.06100X0.06600*%
G04 #@! TA.AperFunction,ComponentPad*
%ADD96R,0.05261X0.05261*%
%ADD92R,0.05324X0.05324*%
%ADD94R,0.07096X0.07096*%
%ADD90R,0.08277X0.08277*%
%ADD99C,0.05049*%
%ADD97C,0.05261*%
%ADD93C,0.05324*%
G04 #@! TA.AperFunction,ViaPad*
%ADD103C,0.05400*%
%ADD104C,0.06200*%
G04 #@! TA.AperFunction,ComponentPad*
%ADD89C,0.06600*%
%ADD95C,0.07096*%
%ADD91C,0.08277*%
G04 #@! TA.AperFunction,SMDPad*
%ADD87R,0.06400X0.01700*%
%ADD102R,0.03553X0.02569*%
%ADD100R,0.06600X0.06100*%
X0Y0D02*
D02*
D87*
X142524Y361870D03*
Y363870D03*
Y365770D03*
Y367770D03*
Y369770D03*
Y371670D03*
Y373670D03*
Y375670D03*
Y377570D03*
Y379570D03*
Y381570D03*
Y383570D03*
Y385470D03*
Y387470D03*
Y389470D03*
Y391370D03*
Y393370D03*
Y395370D03*
Y397270D03*
Y399270D03*
X195724Y361870D03*
Y363870D03*
Y365770D03*
Y367770D03*
Y369770D03*
Y371670D03*
Y373670D03*
Y375670D03*
Y377570D03*
Y379570D03*
Y381570D03*
Y383570D03*
Y385470D03*
Y387470D03*
Y389470D03*
Y391370D03*
Y393370D03*
Y395370D03*
Y397270D03*
Y399270D03*
D02*
D88*
X150424Y353970D03*
Y407170D03*
X152424Y353970D03*
Y407170D03*
X154324Y353970D03*
Y407170D03*
X156324Y353970D03*
Y407170D03*
X158324Y353970D03*
Y407170D03*
X160224Y353970D03*
Y407170D03*
X162224Y353970D03*
Y407170D03*
X164224Y353970D03*
Y407170D03*
X166124Y353970D03*
Y407170D03*
X168124Y353970D03*
Y407170D03*
X170124Y353970D03*
Y407170D03*
X172124Y353970D03*
Y407170D03*
X174024Y353970D03*
Y407170D03*
X176024Y353970D03*
Y407170D03*
X178024Y353970D03*
Y407170D03*
X179924Y353970D03*
Y407170D03*
X181924Y353970D03*
Y407170D03*
X183924Y353970D03*
Y407170D03*
X185824Y353970D03*
Y407170D03*
X187824Y353970D03*
Y407170D03*
D02*
D89*
X42574Y70889D03*
Y110889D03*
X48689Y370603D03*
Y410603D03*
X59672Y69765D03*
Y109765D03*
X68345Y360057D03*
X74672Y70514D03*
Y110514D03*
X89672Y70514D03*
Y110514D03*
X108345Y360057D03*
X121329Y65826D03*
Y105826D03*
X137924Y67121D03*
Y107121D03*
X154013Y66723D03*
Y106723D03*
X166615Y65772D03*
Y105772D03*
X222415Y59781D03*
Y99781D03*
X235395Y59531D03*
Y99531D03*
X250246Y59781D03*
Y99781D03*
X266096Y60031D03*
Y100031D03*
X297935Y57636D03*
Y97636D03*
X308793Y56388D03*
Y96388D03*
X320649Y56138D03*
Y96138D03*
X335113Y55288D03*
Y95288D03*
X339730Y403739D03*
X340854Y333350D03*
X341478Y368544D03*
X361696Y351196D03*
Y419713D03*
X362320Y384893D03*
X379730Y403739D03*
X380854Y333350D03*
X381478Y368544D03*
X401696Y351196D03*
Y419713D03*
X402320Y384893D03*
D02*
D90*
X23230Y453785D03*
D02*
D91*
X42915D03*
X62600D03*
X82285D03*
D02*
D92*
X225886Y320043D03*
X291283Y319169D03*
D02*
D93*
X225886Y260043D03*
Y270043D03*
Y280043D03*
Y290043D03*
Y300043D03*
Y310043D03*
X255886Y260043D03*
Y270043D03*
Y280043D03*
Y290043D03*
Y300043D03*
Y310043D03*
Y320043D03*
X291283Y259169D03*
Y269169D03*
Y279169D03*
Y289169D03*
Y299169D03*
Y309169D03*
X321283Y259169D03*
Y269169D03*
Y279169D03*
Y289169D03*
Y299169D03*
Y309169D03*
Y319169D03*
D02*
D94*
X168625Y13230D03*
X173118Y444924D03*
X316392Y13479D03*
X399511Y251229D03*
D02*
D95*
X80043Y13230D03*
X89885D03*
X99728D03*
X103118Y444924D03*
X109570Y13230D03*
X113118Y444924D03*
X119413Y13230D03*
X123118Y444924D03*
X129255Y13230D03*
X133118Y444924D03*
X139098Y13230D03*
X143118Y444924D03*
X148940Y13230D03*
X153118Y444924D03*
X158783Y13230D03*
X163118Y444924D03*
X227809Y13479D03*
X237652D03*
X247494D03*
X257337D03*
X267180D03*
X277022D03*
X286865D03*
X296707D03*
X306550D03*
X399511Y261229D03*
Y271229D03*
Y281229D03*
Y291229D03*
Y301229D03*
Y311229D03*
Y321229D03*
D02*
D96*
X129639Y270674D03*
D02*
D97*
Y301674D03*
X139639Y270674D03*
Y301674D03*
X149639Y270674D03*
Y301674D03*
X159639Y270674D03*
Y301674D03*
X169639Y270674D03*
Y301674D03*
X179639Y270674D03*
Y301674D03*
X189639Y270674D03*
Y301674D03*
D02*
D98*
X62676Y172472D03*
Y209676D03*
X67676Y172472D03*
Y209676D03*
X72676Y172472D03*
Y209676D03*
X77676Y172472D03*
Y209676D03*
X82676Y172472D03*
Y209676D03*
X87676Y172472D03*
Y209676D03*
X92676Y172472D03*
Y209676D03*
X97676Y172472D03*
Y209676D03*
X102676Y172472D03*
Y209676D03*
X107676Y172472D03*
Y209676D03*
X133395Y172472D03*
Y209676D03*
X138395Y172472D03*
Y209676D03*
X143395Y172472D03*
Y209676D03*
X148395Y172472D03*
Y209676D03*
X153395Y172472D03*
Y209676D03*
X158395Y172472D03*
Y209676D03*
X163395Y172472D03*
Y209676D03*
X168395Y172472D03*
Y209676D03*
X173395Y172472D03*
Y209676D03*
X178395Y172472D03*
Y209676D03*
X201912Y174219D03*
Y211424D03*
X206912Y174219D03*
Y211424D03*
X211912Y174219D03*
Y211424D03*
X216912Y174219D03*
Y211424D03*
X221912Y174219D03*
Y211424D03*
X226912Y174219D03*
Y211424D03*
X231912Y174219D03*
Y211424D03*
X236912Y174219D03*
Y211424D03*
X241912Y174219D03*
Y211424D03*
X246912Y174219D03*
Y211424D03*
X273549Y173470D03*
Y210675D03*
X278549Y173470D03*
Y210675D03*
X283549Y173470D03*
Y210675D03*
X288549Y173470D03*
Y210675D03*
X293549Y173470D03*
Y210675D03*
X298549Y173470D03*
Y210675D03*
X303549Y173470D03*
Y210675D03*
X308549Y173470D03*
Y210675D03*
X313549Y173470D03*
Y210675D03*
X318549Y173470D03*
Y210675D03*
D02*
D99*
X263752Y370248D03*
Y389460D03*
X357203Y197443D03*
Y216655D03*
D02*
D100*
X289252Y369854D03*
Y389854D03*
X295917Y136410D03*
X298252Y369854D03*
Y389854D03*
X304917Y136410D03*
X377703Y192049D03*
Y217049D03*
X386703Y192049D03*
Y217049D03*
D02*
D101*
X10250Y133408D03*
Y142408D03*
X21607Y133907D03*
Y142907D03*
X45195Y122924D03*
Y131924D03*
X59797Y122425D03*
Y131425D03*
X73900Y122425D03*
Y131425D03*
X89250Y121926D03*
Y130926D03*
X94867Y146263D03*
Y155263D03*
X103228Y146512D03*
Y155512D03*
X104102Y119180D03*
Y128180D03*
X112339Y118806D03*
Y127806D03*
X117706Y151130D03*
Y160130D03*
X123197Y120054D03*
Y129054D03*
X126691Y150880D03*
Y159880D03*
X136676Y119929D03*
Y128929D03*
X151278Y119804D03*
Y128804D03*
X164756Y119555D03*
Y128555D03*
X170123Y149258D03*
Y158258D03*
X178235Y149383D03*
Y158383D03*
X179733Y122425D03*
Y131425D03*
X190840Y122675D03*
Y131675D03*
X194335Y148384D03*
Y157384D03*
X203196Y148509D03*
Y157509D03*
X204943Y114937D03*
Y123937D03*
X219794Y112940D03*
Y121940D03*
X234646Y112940D03*
Y121940D03*
X248374Y137776D03*
Y146776D03*
X249747Y113065D03*
Y122065D03*
X256736Y137402D03*
Y146402D03*
X268343Y135904D03*
Y144904D03*
X276954Y136029D03*
Y145029D03*
X295425Y109196D03*
Y118196D03*
X303787Y118307D03*
Y127307D03*
X318139Y120803D03*
Y129803D03*
X327375Y120803D03*
Y129803D03*
X337234Y120553D03*
Y129553D03*
X346844Y120054D03*
Y129054D03*
X356454Y121559D03*
Y130559D03*
X366064Y120803D03*
Y129803D03*
X375798Y121052D03*
Y130052D03*
D02*
D102*
X340392Y416469D03*
X340891Y345955D03*
X341390Y381274D03*
X349053Y413909D03*
Y419028D03*
X349552Y343396D03*
Y348514D03*
X350052Y378715D03*
Y383833D03*
D02*
D103*
X34587Y131924D03*
X38331Y431570D03*
X52683Y131425D03*
X67035D03*
X70655Y407607D03*
X72901Y386266D03*
X77269Y402116D03*
X77769Y239123D03*
X81388Y130926D03*
X82885Y234880D03*
X84268Y395570D03*
X87254Y223148D03*
X97676Y200933D03*
X99268Y390570D03*
X114585Y386266D03*
X119268Y390570D03*
X119413Y44430D03*
X123571Y402116D03*
X124268Y395570D03*
X125319Y407607D03*
X129936Y129054D03*
X130186Y327109D03*
X135552Y399994D03*
X137424Y352569D03*
X140295Y43432D03*
X143395Y244989D03*
X144164Y128929D03*
X147783Y239123D03*
X148407Y345331D03*
X149530Y31825D03*
Y43931D03*
X152650Y234880D03*
X154023Y371165D03*
Y389761D03*
X154273Y370915D03*
X157268Y223148D03*
X158142Y128804D03*
X160513Y418465D03*
X160638Y427202D03*
X165131Y284177D03*
X167752Y201433D03*
X169499Y251104D03*
X172494Y128555D03*
X175365Y327609D03*
X178110Y418840D03*
X179857Y370915D03*
X185848Y10858D03*
Y319621D03*
Y393380D03*
X192088Y22465D03*
X201698Y244365D03*
X201823Y412100D03*
X203320Y58533D03*
X207689Y190325D03*
X208437Y250356D03*
Y286174D03*
X208812Y10733D03*
X209685Y371664D03*
X212181Y123937D03*
X214303Y22465D03*
X216425Y352944D03*
X223539Y234880D03*
X227407Y121940D03*
X231027Y223148D03*
X236019Y280043D03*
Y290176D03*
X236893Y201932D03*
X237766Y229888D03*
X239752Y243117D03*
X240761Y263709D03*
Y366797D03*
X242633Y121940D03*
X253616Y218531D03*
X256237Y229888D03*
X256986Y338467D03*
X257360Y122065D03*
X259731Y193820D03*
X259856Y204303D03*
X267719Y243616D03*
X276830Y279169D03*
Y319122D03*
X281447Y236752D03*
X283194Y333100D03*
X285566Y218156D03*
X285815Y112448D03*
X296923Y225020D03*
X297172Y218780D03*
X302074Y431570D03*
X303288Y223909D03*
X306408Y158750D03*
X308654Y380650D03*
X310027Y219654D03*
X310402Y280051D03*
X311774Y136909D03*
X314270Y352944D03*
X322507Y39064D03*
X322632Y139530D03*
X331993Y137284D03*
X332367Y308139D03*
X334991Y219654D03*
X342975Y324364D03*
X345346Y39064D03*
X346470Y252477D03*
X353583Y391757D03*
X356953Y433317D03*
X371181Y377530D03*
D02*
D104*
X337074Y239961D03*
X0Y0D02*
M02*
