G04 EasyPC Gerber Version 21.0.3 Build 4286 *
G04 #@! TF.Part,Single*
G04 #@! TF.FileFunction,Legend,Top *
G04 #@! TF.FilePolarity,Positive *
%FSLAX35Y35*%
%MOIN*%
%ADD17C,0.00500*%
%ADD73C,0.00600*%
%ADD19C,0.00787*%
%ADD70C,0.01000*%
X0Y0D02*
D02*
D17*
X13750Y129908D02*
Y145908D01*
X6750*
Y129908*
X13750*
X12125Y150845D02*
X12437Y151158D01*
X13063Y151470*
X14000*
X14625Y151158*
X14937Y150845*
X15250Y150220*
Y148970*
X14937Y148345*
X14625Y148033*
X14000Y147720*
X13063*
X12437Y148033*
X12125Y148345*
X9625Y151470D02*
X8375D01*
X9000D02*
Y147720D01*
X9625Y148345*
X4937Y151158D02*
X4313Y151470D01*
X3687*
X3063Y151158*
X2750Y150533*
Y148658*
X3063Y148033*
X3687Y147720*
X4313*
X4937Y148033*
X5250Y148658*
Y150533*
X4937Y151158*
X3063Y148033*
X23230Y455347D02*
X23542Y455035D01*
X24167Y454722*
X24792Y455035*
X25105Y455347*
Y458472*
X25730*
X25105D02*
X23855D01*
X28855Y454722D02*
X30105D01*
X29480D02*
Y458472D01*
X28855Y457847*
X25107Y130407D02*
Y146407D01*
X18107*
Y130407*
X25107*
X23482Y151344D02*
X23794Y151657D01*
X24420Y151970*
X25357*
X25982Y151657*
X26294Y151344*
X26607Y150720*
Y149470*
X26294Y148844*
X25982Y148532*
X25357Y148220*
X24420*
X23794Y148532*
X23482Y148844*
X20670Y151970D02*
X20044Y151657D01*
X19420Y151032*
X19107Y150094*
Y149157*
X19420Y148532*
X20044Y148220*
X20670*
X21294Y148532*
X21607Y149157*
X21294Y149782*
X20670Y150094*
X20044*
X19420Y149782*
X19107Y149157*
X32887Y85889D02*
X29137D01*
Y88076*
X29449Y88701*
X30074Y89014*
X30699Y88701*
X31011Y88076*
Y85889*
Y88076D02*
X32887Y89014D01*
Y91514D02*
Y92764D01*
Y92139D02*
X29137D01*
X29761Y91514*
X32887Y95889D02*
X29137Y98389D01*
Y95889*
X42574Y75889D02*
Y78389D01*
X37574Y80889*
X47574Y85889*
X37574Y90889*
X47574Y95889*
X37574Y100889*
X42574Y103389*
Y105889*
X48689Y405603D02*
Y403103D01*
X53689Y400603*
X43689Y395603*
X53689Y390603*
X43689Y385603*
X53689Y380603*
X48689Y378103*
Y375603*
X48695Y119424D02*
Y135424D01*
X41695*
Y119424*
X48695*
X47070Y140362D02*
X47382Y140674D01*
X48007Y140987*
X48945*
X49570Y140674*
X49882Y140362*
X50195Y139737*
Y138487*
X49882Y137862*
X49570Y137549*
X48945Y137237*
X48007*
X47382Y137549*
X47070Y137862*
X43632Y140987D02*
Y137237D01*
X45195Y139737*
X42695*
X39570Y140987D02*
X38320D01*
X38945D02*
Y137237D01*
X39570Y137862*
X49985Y84765D02*
X46235D01*
Y86953*
X46547Y87578*
X47172Y87891*
X47797Y87578*
X48109Y86953*
Y84765*
Y86953D02*
X49985Y87891D01*
Y90391D02*
Y91641D01*
Y91015D02*
X46235D01*
X46859Y90391*
X48109Y95703D02*
Y96328D01*
X47797Y96953*
X47172Y97265*
X46547Y96953*
X46235Y96328*
Y95703*
X46547Y95078*
X47172Y94765*
X47797Y95078*
X48109Y95703*
X48422Y95078*
X49047Y94765*
X49672Y95078*
X49985Y95703*
Y96328*
X49672Y96953*
X49047Y97265*
X48422Y96953*
X48109Y96328*
X57922Y113988D02*
X57609Y113675D01*
X56984Y113363*
X56047*
X55422Y113675*
X55109Y113988*
X54797Y114613*
Y115863*
X55109Y116488*
X55422Y116800*
X56047Y117113*
X56984*
X57609Y116800*
X57922Y116488*
X61359Y113363D02*
Y117113D01*
X59797Y114613*
X62297*
X67297Y113363D02*
X64797D01*
X66984Y115550*
X67297Y116175*
X66984Y116800*
X66359Y117113*
X65422*
X64797Y116800*
X56297Y134925D02*
Y118925D01*
X63297*
Y134925*
X56297*
X58377Y395603D02*
X62127D01*
Y393415*
X61815Y392790*
X61189Y392478*
X60565Y392790*
X60252Y393415*
Y395603*
Y393415D02*
X58377Y392478D01*
Y389978D02*
Y388728D01*
Y389353D02*
X62127D01*
X61502Y389978*
X59672Y74765D02*
Y77265D01*
X54672Y79765*
X64672Y84765*
X54672Y89765*
X64672Y94765*
X54672Y99765*
X59672Y102265*
Y104765*
X64985Y85514D02*
X61235D01*
Y87702*
X61547Y88327*
X62172Y88639*
X62797Y88327*
X63109Y87702*
Y85514*
Y87702D02*
X64985Y88639D01*
Y91139D02*
Y92389D01*
Y91764D02*
X61235D01*
X61859Y91139*
X64047Y95514D02*
X63422Y95827D01*
X63109Y96452*
Y97077*
X63422Y97702*
X64047Y98014*
X64672Y97702*
X64985Y97077*
Y96452*
X64672Y95827*
X64047Y95514*
X63109*
X62172Y95827*
X61547Y96452*
X61235Y97077*
X72025Y113988D02*
X71712Y113675D01*
X71087Y113363*
X70150*
X69525Y113675*
X69212Y113988*
X68900Y114613*
Y115863*
X69212Y116488*
X69525Y116800*
X70150Y117113*
X71087*
X71712Y116800*
X72025Y116488*
X74212Y113675D02*
X74837Y113363D01*
X75462*
X76087Y113675*
X76400Y114300*
X76087Y114925*
X75462Y115238*
X74837*
X75462D02*
X76087Y115550D01*
X76400Y116175*
X76087Y116800*
X75462Y117113*
X74837*
X74212Y116800*
X79837Y113363D02*
X80462Y113675D01*
X81087Y114300*
X81400Y115238*
Y116175*
X81087Y116800*
X80462Y117113*
X79837*
X79212Y116800*
X78900Y116175*
X79212Y115550*
X79837Y115238*
X80462*
X81087Y115550*
X81400Y116175*
X70400Y134925D02*
Y118925D01*
X77400*
Y134925*
X70400*
X74672Y75514D02*
Y78014D01*
X69672Y80514*
X79672Y85514*
X69672Y90514*
X79672Y95514*
X69672Y100514*
X74672Y103014*
Y105514*
X79985Y85514D02*
X76235D01*
Y87702*
X76547Y88327*
X77172Y88639*
X77797Y88327*
X78109Y87702*
Y85514*
Y87702D02*
X79985Y88639D01*
Y91139D02*
Y92389D01*
Y91764D02*
X76235D01*
X76859Y91139*
X79672Y95514D02*
X79985Y96139D01*
Y97077*
X79672Y97702*
X79047Y98014*
X78735*
X78109Y97702*
X77797Y97077*
Y95514*
X76235*
Y98014*
X84238Y192011D02*
Y193261D01*
Y192637D02*
X80488D01*
Y192011D02*
Y193261D01*
X83613Y199199D02*
X83926Y198887D01*
X84238Y198261*
Y197324*
X83926Y196699*
X83613Y196387*
X82988Y196074*
X81738*
X81113Y196387*
X80800Y196699*
X80488Y197324*
Y198261*
X80800Y198887*
X81113Y199199*
X83926Y201074D02*
X84238Y201699D01*
Y202637*
X83926Y203261*
X83300Y203574*
X82988*
X82363Y203261*
X82050Y202637*
Y201074*
X80488*
Y203574*
X89672Y75514D02*
Y78014D01*
X84672Y80514*
X94672Y85514*
X84672Y90514*
X94672Y95514*
X84672Y100514*
X89672Y103014*
Y105514*
X92750Y118426D02*
Y134426D01*
X85750*
Y118426*
X92750*
X93345Y350370D02*
Y346620D01*
X91158*
X90533Y346932*
X90220Y347557*
X90533Y348182*
X91158Y348495*
X93345*
X91158D02*
X90220Y350370D01*
X85845D02*
X88345D01*
X86158Y348182*
X85845Y347557*
X86158Y346932*
X86783Y346620*
X87720*
X88345Y346932*
X91125Y139363D02*
X91438Y139676D01*
X92063Y139989*
X93000*
X93625Y139676*
X93938Y139363*
X94250Y138739*
Y137489*
X93938Y136863*
X93625Y136551*
X93000Y136239*
X92063*
X91438Y136551*
X91125Y136863*
X87688Y139989D02*
Y136239D01*
X89250Y138739*
X86750*
X83938Y139676D02*
X83313Y139989D01*
X82688*
X82063Y139676*
X81750Y139051*
Y137176*
X82063Y136551*
X82688Y136239*
X83313*
X83938Y136551*
X84250Y137176*
Y139051*
X83938Y139676*
X82063Y136551*
X98616Y108769D02*
X98303Y108456D01*
X97678Y108144*
X96741*
X96116Y108456*
X95803Y108769*
X95491Y109394*
Y110644*
X95803Y111269*
X96116Y111581*
X96741Y111894*
X97678*
X98303Y111581*
X98616Y111269*
X101116Y108144D02*
X102366D01*
X101741D02*
Y111894D01*
X101116Y111269*
X106428Y110019D02*
X107053D01*
X107678Y110331*
X107991Y110956*
X107678Y111581*
X107053Y111894*
X106428*
X105803Y111581*
X105491Y110956*
X105803Y110331*
X106428Y110019*
X105803Y109706*
X105491Y109081*
X105803Y108456*
X106428Y108144*
X107053*
X107678Y108456*
X107991Y109081*
X107678Y109706*
X107053Y110019*
X98367Y142763D02*
Y158763D01*
X91367*
Y142763*
X98367*
X96741Y163700D02*
X97054Y164013D01*
X97679Y164325*
X98617*
X99241Y164013*
X99554Y163700*
X99867Y163075*
Y161825*
X99554Y161200*
X99241Y160887*
X98617Y160575*
X97679*
X97054Y160887*
X96741Y161200*
X92367Y164325D02*
X94867D01*
X92679Y162137*
X92367Y161513*
X92679Y160887*
X93304Y160575*
X94241*
X94867Y160887*
X89867Y164013D02*
X89241Y164325D01*
X88304*
X87679Y164013*
X87367Y163387*
Y163075*
X87679Y162450*
X88304Y162137*
X89867*
Y160575*
X87367*
X100602Y131680D02*
Y115680D01*
X107602*
Y131680*
X100602*
X103345Y360057D02*
X100845D01*
X98345Y355057*
X93345Y365057*
X88345Y355057*
X83345Y365057*
X78345Y355057*
X75845Y360057*
X73345*
X106728Y143012D02*
Y159012D01*
X99728*
Y143012*
X106728*
X105103Y163950D02*
X105416Y164262D01*
X106041Y164575*
X106978*
X107603Y164262*
X107916Y163950*
X108228Y163325*
Y162075*
X107916Y161450*
X107603Y161137*
X106978Y160825*
X106041*
X105416Y161137*
X105103Y161450*
X100728Y164575D02*
X103228D01*
X101041Y162387*
X100728Y161762*
X101041Y161137*
X101666Y160825*
X102603*
X103228Y161137*
X98228Y163637D02*
X97916Y163012D01*
X97291Y162700*
X96666*
X96041Y163012*
X95728Y163637*
X96041Y164262*
X96666Y164575*
X97291*
X97916Y164262*
X98228Y163637*
Y162700*
X97916Y161762*
X97291Y161137*
X96666Y160825*
X108839Y131306D02*
Y115306D01*
X115839*
Y131306*
X108839*
X113467Y110369D02*
X113155Y110056D01*
X112530Y109743*
X111592*
X110967Y110056*
X110655Y110369*
X110342Y110993*
Y112243*
X110655Y112869*
X110967Y113181*
X111592Y113493*
X112530*
X113155Y113181*
X113467Y112869*
X115967Y109743D02*
X117217D01*
X116592D02*
Y113493D01*
X115967Y112869*
X120342Y109743D02*
X122842Y113493D01*
X120342*
X111641Y80826D02*
X107891D01*
Y83013*
X108204Y83638*
X108829Y83951*
X109454Y83638*
X109766Y83013*
Y80826*
Y83013D02*
X111641Y83951D01*
X111329Y85826D02*
X111641Y86451D01*
Y87388*
X111329Y88013*
X110704Y88326*
X110391*
X109766Y88013*
X109454Y87388*
Y85826*
X107891*
Y88326*
X121206Y147630D02*
Y163630D01*
X114206*
Y147630*
X121206*
X121329Y70826D02*
Y73326D01*
X116329Y75826*
X126329Y80826*
X116329Y85826*
X126329Y90826*
X116329Y95826*
X121329Y98326*
Y100826*
X119580Y168567D02*
X119893Y168880D01*
X120518Y169193*
X121456*
X122080Y168880*
X122393Y168567*
X122706Y167943*
Y166693*
X122393Y166067*
X122080Y165755*
X121456Y165443*
X120518*
X119893Y165755*
X119580Y166067*
X117393Y168880D02*
X116768Y169193D01*
X116143*
X115518Y168880*
X115206Y168255*
X115518Y167630*
X116143Y167317*
X116768*
X116143D02*
X115518Y167005D01*
X115206Y166380*
X115518Y165755*
X116143Y165443*
X116768*
X117393Y165755*
X126697Y116554D02*
Y132554D01*
X119697*
Y116554*
X126697*
X128236Y82121D02*
X124486D01*
Y84308*
X124798Y84933*
X125424Y85246*
X126048Y84933*
X126361Y84308*
Y82121*
Y84308D02*
X128236Y85246D01*
X127298Y87121D02*
X126674Y87433D01*
X126361Y88058*
Y88683*
X126674Y89308*
X127298Y89621*
X127924Y89308*
X128236Y88683*
Y88058*
X127924Y87433*
X127298Y87121*
X126361*
X125424Y87433*
X124798Y88058*
X124486Y88683*
X130191Y147380D02*
Y163380D01*
X123191*
Y147380*
X130191*
X128566Y168318D02*
X128879Y168630D01*
X129504Y168943*
X130441*
X131066Y168630*
X131379Y168318*
X131691Y167693*
Y166443*
X131379Y165818*
X131066Y165505*
X130441Y165193*
X129504*
X128879Y165505*
X128566Y165818*
X125129Y168943D02*
Y165193D01*
X126691Y167693*
X124191*
X133176Y132429D02*
Y116429D01*
X140176*
Y132429*
X133176*
X137924Y72121D02*
Y74621D01*
X132924Y77121*
X142924Y82121*
X132924Y87121*
X142924Y92121*
X132924Y97121*
X137924Y99621*
Y102121*
X144326Y81723D02*
X140576D01*
Y83910*
X140888Y84535*
X141513Y84848*
X142138Y84535*
X142451Y83910*
Y81723*
Y83910D02*
X144326Y84848D01*
Y88285D02*
X140576D01*
X143076Y86723*
Y89223*
X147778Y132304D02*
Y116304D01*
X154778*
Y132304*
X147778*
X152162Y413807D02*
X153412D01*
X152787D02*
Y417557D01*
X152162D02*
X153412D01*
X159350Y414433D02*
X159037Y414120D01*
X158412Y413807*
X157474*
X156850Y414120*
X156537Y414433*
X156224Y415057*
Y416307*
X156537Y416933*
X156850Y417245*
X157474Y417557*
X158412*
X159037Y417245*
X159350Y416933*
X161850Y413807D02*
X163100D01*
X162474D02*
Y417557D01*
X161850Y416933*
X154013Y71723D02*
Y74223D01*
X149013Y76723*
X159013Y81723*
X149013Y86723*
X159013Y91723*
X149013Y96723*
X154013Y99223*
Y101723*
X157515Y110618D02*
X157202Y110306D01*
X156577Y109993*
X155640*
X155015Y110306*
X154702Y110618*
X154390Y111243*
Y112493*
X154702Y113118*
X155015Y113431*
X155640Y113743*
X156577*
X157202Y113431*
X157515Y113118*
X161890Y109993D02*
X159390D01*
X161577Y112181*
X161890Y112806*
X161577Y113431*
X160952Y113743*
X160015*
X159390Y113431*
X164390Y109993D02*
X166890Y113743D01*
X164390*
X154958Y192011D02*
Y193261D01*
Y192637D02*
X151208D01*
Y192011D02*
Y193261D01*
X154333Y199199D02*
X154645Y198887D01*
X154958Y198261*
Y197324*
X154645Y196699*
X154333Y196387*
X153708Y196074*
X152458*
X151833Y196387*
X151520Y196699*
X151208Y197324*
Y198261*
X151520Y198887*
X151833Y199199*
X154958Y202637D02*
X151208D01*
X153708Y201074*
Y203574*
X156927Y80772D02*
X153177D01*
Y82959*
X153489Y83584*
X154115Y83897*
X154739Y83584*
X155052Y82959*
Y80772*
Y82959D02*
X156927Y83897D01*
X156615Y86084D02*
X156927Y86709D01*
Y87334*
X156615Y87959*
X155989Y88272*
X155365Y87959*
X155052Y87334*
Y86709*
Y87334D02*
X154739Y87959D01*
X154115Y88272*
X153489Y87959*
X153177Y87334*
Y86709*
X153489Y86084*
X154952Y286174D02*
X157764D01*
X158389Y286487*
X158702Y287111*
Y288361*
X158389Y288987*
X157764Y289299*
X154952*
X158702Y291799D02*
Y293049D01*
Y292424D02*
X154952D01*
X155577Y291799*
X166615Y70772D02*
Y73272D01*
X161615Y75772*
X171615Y80772*
X161615Y85772*
X171615Y90772*
X161615Y95772*
X166615Y98272*
Y100772*
X168256Y116055D02*
Y132055D01*
X161256*
Y116055*
X168256*
X168625Y11667D02*
X168313Y11980D01*
X167688Y12292*
X167063Y11980*
X166750Y11667*
Y8542*
X166125*
X166750D02*
X168000D01*
X163313Y11980D02*
X162688Y12292D01*
X162063*
X161438Y11980*
X161125Y11354*
X161438Y10730*
X162063Y10417*
X162688*
X162063D02*
X161438Y10104D01*
X161125Y9480*
X161438Y8854*
X162063Y8542*
X162688*
X163313Y8854*
X166631Y136992D02*
X166944Y137305D01*
X167569Y137617*
X168506*
X169131Y137305*
X169444Y136992*
X169756Y136367*
Y135117*
X169444Y134492*
X169131Y134180*
X168506Y133867*
X167569*
X166944Y134180*
X166631Y134492*
X162256Y137617D02*
X164756D01*
X162569Y135430*
X162256Y134805*
X162569Y134180*
X163194Y133867*
X164131*
X164756Y134180*
X158819Y135742D02*
X158194D01*
X157569Y135430*
X157256Y134805*
X157569Y134180*
X158194Y133867*
X158819*
X159444Y134180*
X159756Y134805*
X159444Y135430*
X158819Y135742*
X159444Y136055*
X159756Y136680*
X159444Y137305*
X158819Y137617*
X158194*
X157569Y137305*
X157256Y136680*
X157569Y136055*
X158194Y135742*
X173118Y443361D02*
X172806Y443674D01*
X172181Y443986*
X171556Y443674*
X171243Y443361*
Y440236*
X170618*
X171243D02*
X172493D01*
X168118Y443674D02*
X167493Y443986D01*
X166556*
X165931Y443674*
X165618Y443048*
Y442736*
X165931Y442111*
X166556Y441798*
X168118*
Y440236*
X165618*
X173623Y145758D02*
Y161758D01*
X166623*
Y145758*
X173623*
X177858Y113988D02*
X177545Y113675D01*
X176920Y113363*
X175983*
X175358Y113675*
X175045Y113988*
X174733Y114613*
Y115863*
X175045Y116488*
X175358Y116800*
X175983Y117113*
X176920*
X177545Y116800*
X177858Y116488*
X180358Y113363D02*
X181608D01*
X180983D02*
Y117113D01*
X180358Y116488*
X185358Y113363D02*
X186608D01*
X185983D02*
Y117113D01*
X185358Y116488*
X176233Y134925D02*
Y118925D01*
X183233*
Y134925*
X176233*
X181735Y145883D02*
Y161883D01*
X174735*
Y145883*
X181735*
X180110Y166820D02*
X180422Y167133D01*
X181048Y167445*
X181985*
X182610Y167133*
X182922Y166820*
X183235Y166195*
Y164945*
X182922Y164320*
X182610Y164007*
X181985Y163695*
X181048*
X180422Y164007*
X180110Y164320*
X177610Y167445D02*
X176360D01*
X176985D02*
Y163695D01*
X177610Y164320*
X172298Y167445D02*
X171672Y167133D01*
X171048Y166507*
X170735Y165570*
Y164633*
X171048Y164007*
X171672Y163695*
X172298*
X172922Y164007*
X173235Y164633*
X172922Y165257*
X172298Y165570*
X171672*
X171048Y165257*
X170735Y164633*
X183222Y166922D02*
X183535Y167235D01*
X184160Y167547*
X185097*
X185722Y167235*
X186035Y166922*
X186347Y166297*
Y165047*
X186035Y164422*
X185722Y164109*
X185097Y163797*
X184160*
X183535Y164109*
X183222Y164422*
X178847Y167547D02*
X181347D01*
X179160Y165359*
X178847Y164735*
X179160Y164109*
X179785Y163797*
X180722*
X181347Y164109*
X176035Y167235D02*
X175410Y167547D01*
X174785*
X174160Y167235*
X173847Y166609*
Y164735*
X174160Y164109*
X174785Y163797*
X175410*
X176035Y164109*
X176347Y164735*
Y166609*
X176035Y167235*
X174160Y164109*
X187340Y135175D02*
Y119175D01*
X194340*
Y135175*
X187340*
X190845Y111515D02*
X190533Y111202D01*
X189907Y110889*
X188970*
X188345Y111202*
X188033Y111515*
X187720Y112139*
Y113389*
X188033Y114015*
X188345Y114327*
X188970Y114639*
X189907*
X190533Y114327*
X190845Y114015*
X193345Y110889D02*
X194595D01*
X193970D02*
Y114639D01*
X193345Y114015*
X200220Y110889D02*
X197720D01*
X199907Y113077*
X200220Y113702*
X199907Y114327*
X199283Y114639*
X198345*
X197720Y114327*
X197835Y144884D02*
Y160884D01*
X190835*
Y144884*
X197835*
X196209Y165822D02*
X196522Y166134D01*
X197147Y166447*
X198085*
X198709Y166134*
X199022Y165822*
X199335Y165197*
Y163947*
X199022Y163322*
X198709Y163009*
X198085Y162697*
X197147*
X196522Y163009*
X196209Y163322*
X194335Y166134D02*
X193709Y166447D01*
X192772*
X192147Y166134*
X191835Y165509*
Y165197*
X192147Y164572*
X192772Y164259*
X194335*
Y162697*
X191835*
X206696Y145009D02*
Y161009D01*
X199696*
Y145009*
X206696*
X205070Y165946D02*
X205383Y166259D01*
X206008Y166572*
X206946*
X207570Y166259*
X207883Y165946*
X208196Y165322*
Y164072*
X207883Y163446*
X207570Y163134*
X206946Y162822*
X206008*
X205383Y163134*
X205070Y163446*
X203196Y165634D02*
X202883Y165009D01*
X202258Y164696*
X201633*
X201008Y165009*
X200696Y165634*
X201008Y166259*
X201633Y166572*
X202258*
X202883Y166259*
X203196Y165634*
Y164696*
X202883Y163759*
X202258Y163134*
X201633Y162822*
X208443Y111437D02*
Y127437D01*
X201443*
Y111437*
X208443*
X212728Y74781D02*
X208978D01*
Y76969*
X209290Y77594*
X209915Y77906*
X210540Y77594*
X210853Y76969*
Y74781*
Y76969D02*
X212728Y77906D01*
Y80719D02*
X212415Y81344D01*
X211790Y81969*
X210853Y82281*
X209915*
X209290Y81969*
X208978Y81344*
Y80719*
X209290Y80094*
X209915Y79781*
X210540Y80094*
X210853Y80719*
Y81344*
X210540Y81969*
X209915Y82281*
X216294Y125440D02*
Y109440D01*
X223294*
Y125440*
X216294*
X214922Y133849D02*
X215235Y134162D01*
X215860Y134474*
X216797*
X217422Y134162*
X217735Y133849*
X218047Y133224*
Y131974*
X217735Y131349*
X217422Y131037*
X216797Y130724*
X215860*
X215235Y131037*
X214922Y131349*
X212735Y134162D02*
X212110Y134474D01*
X211485*
X210860Y134162*
X210547Y133537*
X210860Y132912*
X211485Y132599*
X212110*
X211485D02*
X210860Y132287D01*
X210547Y131662*
X210860Y131037*
X211485Y130724*
X212110*
X212735Y131037*
X207735Y134162D02*
X207110Y134474D01*
X206485*
X205860Y134162*
X205547Y133537*
X205860Y132912*
X206485Y132599*
X207110*
X206485D02*
X205860Y132287D01*
X205547Y131662*
X205860Y131037*
X206485Y130724*
X207110*
X207735Y131037*
X218007Y70389D02*
X214257D01*
Y72577*
X214569Y73202*
X215194Y73515*
X215819Y73202*
X216132Y72577*
Y70389*
Y72577D02*
X218007Y73515D01*
Y76015D02*
Y77265D01*
Y76639D02*
X214257D01*
X214882Y76015*
X217694Y80702D02*
X218007Y81327D01*
Y81952*
X217694Y82577*
X217069Y82889*
X215194*
X214569Y82577*
X214257Y81952*
Y81327*
X214569Y80702*
X215194Y80389*
X217069*
X217694Y80702*
X214569Y82577*
X222415Y64781D02*
Y67281D01*
X217415Y69781*
X227415Y74781*
X217415Y79781*
X227415Y84781*
X217415Y89781*
X222415Y92281*
Y94781*
X223475Y193759D02*
Y195009D01*
Y194384D02*
X219725D01*
Y193759D02*
Y195009D01*
X222850Y200946D02*
X223162Y200634D01*
X223475Y200009*
Y199071*
X223162Y198446*
X222850Y198134*
X222225Y197821*
X220975*
X220350Y198134*
X220037Y198446*
X219725Y199071*
Y200009*
X220037Y200634*
X220350Y200946*
X223162Y203134D02*
X223475Y203759D01*
Y204384*
X223162Y205009*
X222537Y205321*
X221912Y205009*
X221600Y204384*
Y203759*
Y204384D02*
X221287Y205009D01*
X220662Y205321*
X220037Y205009*
X219725Y204384*
Y203759*
X220037Y203134*
X231149Y105751D02*
X230836Y105438D01*
X230211Y105126*
X229274*
X228649Y105438*
X228336Y105751*
X228024Y106376*
Y107626*
X228336Y108251*
X228649Y108563*
X229274Y108876*
X230211*
X230836Y108563*
X231149Y108251*
X233336Y105438D02*
X233961Y105126D01*
X234586*
X235211Y105438*
X235524Y106063*
X235211Y106688*
X234586Y107001*
X233961*
X234586D02*
X235211Y107313D01*
X235524Y107938*
X235211Y108563*
X234586Y108876*
X233961*
X233336Y108563*
X239586Y105126D02*
Y108876D01*
X238024Y106376*
X240524*
X232771Y104503D02*
X232459Y104190D01*
X231833Y103878*
X230896*
X230271Y104190*
X229959Y104503*
X229646Y105128*
Y106378*
X229959Y107003*
X230271Y107315*
X230896Y107628*
X231833*
X232459Y107315*
X232771Y107003*
X234959Y104190D02*
X235583Y103878D01*
X236209*
X236833Y104190*
X237146Y104815*
X236833Y105440*
X236209Y105753*
X235583*
X236209D02*
X236833Y106065D01*
X237146Y106690*
X236833Y107315*
X236209Y107628*
X235583*
X234959Y107315*
X240271Y103878D02*
X241521D01*
X240896D02*
Y107628D01*
X240271Y107003*
X231146Y125440D02*
Y109440D01*
X238146*
Y125440*
X231146*
X235395Y64531D02*
Y67031D01*
X230395Y69531*
X240395Y74531*
X230395Y79531*
X240395Y84531*
X230395Y89531*
X235395Y92031*
Y94531*
X240886Y291918D02*
X241199Y291293D01*
X241824Y290980*
X243074*
X243699Y291293*
X244011Y291918*
X243699Y292543*
X243074Y292856*
X241824*
X241199Y293168*
X240886Y293793*
X241199Y294418*
X241824Y294730*
X243074*
X243699Y294418*
X244011Y293793*
X248386Y290980D02*
X245886D01*
X248074Y293168*
X248386Y293793*
X248074Y294418*
X247449Y294730*
X246511*
X245886Y294418*
X244793Y78502D02*
X241043D01*
Y80689*
X241355Y81314*
X241980Y81627*
X242605Y81314*
X242917Y80689*
Y78502*
Y80689D02*
X244793Y81627D01*
X242917Y84439D02*
Y85064D01*
X242605Y85689*
X241980Y86002*
X241355Y85689*
X241043Y85064*
Y84439*
X241355Y83814*
X241980Y83502*
X242605Y83814*
X242917Y84439*
X243230Y83814*
X243855Y83502*
X244480Y83814*
X244793Y84439*
Y85064*
X244480Y85689*
X243855Y86002*
X243230Y85689*
X242917Y85064*
X250246Y64781D02*
Y67281D01*
X245246Y69781*
X255246Y74781*
X245246Y79781*
X255246Y84781*
X245246Y89781*
X250246Y92281*
Y94781*
X251874Y134276D02*
Y150276D01*
X244874*
Y134276*
X251874*
X253247Y109565D02*
Y125565D01*
X246247*
Y109565*
X253247*
X251622Y130502D02*
X251935Y130815D01*
X252560Y131128*
X253497*
X254122Y130815*
X254435Y130502*
X254747Y129878*
Y128628*
X254435Y128002*
X254122Y127690*
X253497Y127378*
X252560*
X251935Y127690*
X251622Y128002*
X249435Y130815D02*
X248810Y131128D01*
X248185*
X247560Y130815*
X247247Y130190*
X247560Y129565*
X248185Y129252*
X248810*
X248185D02*
X247560Y128940D01*
X247247Y128315*
X247560Y127690*
X248185Y127378*
X248810*
X249435Y127690*
X242247Y131128D02*
X244747D01*
X242560Y128940*
X242247Y128315*
X242560Y127690*
X243185Y127378*
X244122*
X244747Y127690*
X256409Y75031D02*
X252659D01*
Y77218*
X252971Y77843*
X253596Y78156*
X254221Y77843*
X254534Y77218*
Y75031*
Y77218D02*
X256409Y78156D01*
Y80031D02*
X252659Y82531D01*
Y80031*
X260236Y133902D02*
Y149902D01*
X253236*
Y133902*
X260236*
X266468Y127467D02*
X266156Y127154D01*
X265530Y126841*
X264593*
X263968Y127154*
X263656Y127467*
X263343Y128091*
Y129341*
X263656Y129967*
X263968Y130279*
X264593Y130591*
X265530*
X266156Y130279*
X266468Y129967*
X268968Y126841D02*
X270218D01*
X269593D02*
Y130591D01*
X268968Y129967*
X273656Y127154D02*
X274280Y126841D01*
X274906*
X275530Y127154*
X275843Y127779*
X275530Y128404*
X274906Y128717*
X274280*
X274906D02*
X275530Y129029D01*
X275843Y129654*
X275530Y130279*
X274906Y130591*
X274280*
X273656Y130279*
X264787Y378339D02*
X266663D01*
X268537Y379901*
X266663Y378339D02*
X268537Y376776D01*
X264787Y374276D02*
Y373026D01*
Y373651D02*
X268537D01*
X267913Y374276*
X264843Y148404D02*
Y132404D01*
X271843*
Y148404*
X264843*
X266096Y65031D02*
Y67531D01*
X261096Y70031*
X271096Y75031*
X261096Y80031*
X271096Y85031*
X261096Y90031*
X266096Y92531*
Y95031*
X265850Y125511D02*
X266162Y125824D01*
X266787Y126137*
X267725*
X268350Y125824*
X268662Y125511*
X268975Y124887*
Y123637*
X268662Y123011*
X268350Y122699*
X267725Y122387*
X266787*
X266162Y122699*
X265850Y123011*
X261475Y126137D02*
X263975D01*
X261787Y123949*
X261475Y123324*
X261787Y122699*
X262412Y122387*
X263350*
X263975Y122699*
X258350Y126137D02*
X257100D01*
X257725D02*
Y122387D01*
X258350Y123011*
X275080Y127591D02*
X274767Y127279D01*
X274142Y126966*
X273204*
X272580Y127279*
X272267Y127591*
X271954Y128216*
Y129466*
X272267Y130091*
X272580Y130404*
X273204Y130716*
X274142*
X274767Y130404*
X275080Y130091*
X277580Y126966D02*
X278830D01*
X278204D02*
Y130716D01*
X277580Y130091*
X283517Y126966D02*
Y130716D01*
X281954Y128216*
X284454*
X273454Y148529D02*
Y132529D01*
X280454*
Y148529*
X273454*
X280814Y371729D02*
X280502Y372041D01*
X280189Y372667*
Y373604*
X280502Y374229*
X280814Y374541*
X281439Y374854*
X282689*
X283314Y374541*
X283627Y374229*
X283939Y373604*
Y372667*
X283627Y372041*
X283314Y371729*
X280189Y369229D02*
Y367979D01*
Y368604D02*
X283939D01*
X283314Y369229*
X280814Y391729D02*
X280502Y392041D01*
X280189Y392667*
Y393604*
X280502Y394229*
X280814Y394541*
X281439Y394854*
X282689*
X283314Y394541*
X283627Y394229*
X283939Y393604*
Y392667*
X283627Y392041*
X283314Y391729*
X280189Y387354D02*
Y389854D01*
X282377Y387667*
X283002Y387354*
X283627Y387667*
X283939Y388291*
Y389229*
X283627Y389854*
X287480Y138285D02*
X287167Y138598D01*
X286855Y139223*
Y140160*
X287167Y140785*
X287480Y141098*
X288105Y141410*
X289355*
X289980Y141098*
X290293Y140785*
X290605Y140160*
Y139223*
X290293Y138598*
X289980Y138285*
X288730Y135473D02*
Y134848D01*
X289043Y134223*
X289667Y133910*
X290293Y134223*
X290605Y134848*
Y135473*
X290293Y136098*
X289667Y136410*
X289043Y136098*
X288730Y135473*
X288417Y136098*
X287793Y136410*
X287167Y136098*
X286855Y135473*
Y134848*
X287167Y134223*
X287793Y133910*
X288417Y134223*
X288730Y134848*
X288248Y72636D02*
X284498D01*
Y74823*
X284810Y75448*
X285435Y75761*
X286060Y75448*
X286372Y74823*
Y72636*
Y74823D02*
X288248Y75761D01*
Y78261D02*
Y79511D01*
Y78886D02*
X284498D01*
X285122Y78261*
X288248Y83261D02*
Y84511D01*
Y83886D02*
X284498D01*
X285122Y83261*
X293550Y100759D02*
X293238Y100446D01*
X292613Y100133*
X291675*
X291050Y100446*
X290738Y100759*
X290425Y101383*
Y102633*
X290738Y103259*
X291050Y103571*
X291675Y103883*
X292613*
X293238Y103571*
X293550Y103259*
X295738Y100446D02*
X296363Y100133D01*
X296988*
X297613Y100446*
X297925Y101071*
X297613Y101696*
X296988Y102009*
X296363*
X296988D02*
X297613Y102321D01*
X297925Y102946*
X297613Y103571*
X296988Y103883*
X296363*
X295738Y103571*
X300425Y101071D02*
X300738Y101696D01*
X301363Y102009*
X301988*
X302613Y101696*
X302925Y101071*
X302613Y100446*
X301988Y100133*
X301363*
X300738Y100446*
X300425Y101071*
Y102009*
X300738Y102946*
X301363Y103571*
X301988Y103883*
X291925Y121696D02*
Y105696D01*
X298925*
Y121696*
X291925*
X295112Y193010D02*
Y194260D01*
Y193635D02*
X291362D01*
Y193010D02*
Y194260D01*
X294487Y200198D02*
X294799Y199885D01*
X295112Y199260*
Y198322*
X294799Y197698*
X294487Y197385*
X293862Y197072*
X292612*
X291987Y197385*
X291674Y197698*
X291362Y198322*
Y199260*
X291674Y199885*
X291987Y200198*
X295112Y204572D02*
Y202072D01*
X292924Y204260*
X292299Y204572*
X291674Y204260*
X291362Y203635*
Y202698*
X291674Y202072*
X297935Y62636D02*
Y65136D01*
X292935Y67636*
X302935Y72636*
X292935Y77636*
X302935Y82636*
X292935Y87636*
X297935Y90136*
Y92636*
X299106Y71388D02*
X295356D01*
Y73575*
X295668Y74200*
X296293Y74513*
X296918Y74200*
X297230Y73575*
Y71388*
Y73575D02*
X299106Y74513D01*
Y77013D02*
Y78263D01*
Y77638D02*
X295356D01*
X295980Y77013*
X298793Y81700D02*
X299106Y82325D01*
Y82950*
X298793Y83575*
X298168Y83888*
X297543Y83575*
X297230Y82950*
Y82325*
Y82950D02*
X296918Y83575D01*
X296293Y83888*
X295668Y83575*
X295356Y82950*
Y82325*
X295668Y81700*
X301752Y373354D02*
X285752D01*
Y366354*
X301752*
Y373354*
Y393354D02*
X285752D01*
Y386354*
X301752*
Y393354*
X306283Y291044D02*
X306596Y290419D01*
X307220Y290107*
X308470*
X309096Y290419*
X309408Y291044*
X309096Y291669*
X308470Y291982*
X307220*
X306596Y292294*
X306283Y292919*
X306596Y293544*
X307220Y293857*
X308470*
X309096Y293544*
X309408Y292919*
X311908Y290107D02*
X313158D01*
X312533D02*
Y293857D01*
X311908Y293232*
X307287Y114807D02*
Y130807D01*
X300287*
Y114807*
X307287*
X308417Y139910D02*
X292417D01*
Y132910*
X308417*
Y139910*
X305662Y135744D02*
X305974Y136057D01*
X306600Y136369*
X307537*
X308162Y136057*
X308474Y135744*
X308787Y135119*
Y133869*
X308474Y133244*
X308162Y132931*
X307537Y132619*
X306600*
X305974Y132931*
X305662Y133244*
X303787Y136369D02*
X301287Y132619D01*
X303787*
X308793Y61388D02*
Y63888D01*
X303793Y66388*
X313793Y71388*
X303793Y76388*
X313793Y81388*
X303793Y86388*
X308793Y88888*
Y91388*
X310962Y71138D02*
X307212D01*
Y73326*
X307524Y73951*
X308149Y74263*
X308774Y73951*
X309087Y73326*
Y71138*
Y73326D02*
X310962Y74263D01*
Y76763D02*
Y78013D01*
Y77388D02*
X307212D01*
X307837Y76763*
X310962Y82701D02*
X307212D01*
X309712Y81138*
Y83638*
X316392Y11917D02*
X316080Y12229D01*
X315455Y12542*
X314830Y12229*
X314517Y11917*
Y8792*
X313892*
X314517D02*
X315767D01*
X309830Y12542D02*
Y8792D01*
X311392Y11292*
X308892*
X320649Y61138D02*
Y63638D01*
X315649Y66138*
X325649Y71138*
X315649Y76138*
X325649Y81138*
X315649Y86138*
X320649Y88638*
Y91138*
X321639Y117303D02*
Y133303D01*
X314639*
Y117303*
X321639*
X325500Y112365D02*
X325187Y112053D01*
X324562Y111740*
X323625*
X323000Y112053*
X322687Y112365*
X322375Y112990*
Y114240*
X322687Y114865*
X323000Y115178*
X323625Y115490*
X324562*
X325187Y115178*
X325500Y114865*
X327687Y112053D02*
X328312Y111740D01*
X328937*
X329562Y112053*
X329875Y112678*
X329562Y113303*
X328937Y113615*
X328312*
X328937D02*
X329562Y113928D01*
X329875Y114553*
X329562Y115178*
X328937Y115490*
X328312*
X327687Y115178*
X333312Y113615D02*
X333937D01*
X334562Y113928*
X334875Y114553*
X334562Y115178*
X333937Y115490*
X333312*
X332687Y115178*
X332375Y114553*
X332687Y113928*
X333312Y113615*
X332687Y113303*
X332375Y112678*
X332687Y112053*
X333312Y111740*
X333937*
X334562Y112053*
X334875Y112678*
X334562Y113303*
X333937Y113615*
X320014Y138240D02*
X320327Y138553D01*
X320952Y138865*
X321889*
X322514Y138553*
X322827Y138240*
X323139Y137615*
Y136365*
X322827Y135740*
X322514Y135428*
X321889Y135115*
X320952*
X320327Y135428*
X320014Y135740*
X317827Y138553D02*
X317202Y138865D01*
X316577*
X315952Y138553*
X315639Y137928*
X315952Y137303*
X316577Y136990*
X317202*
X316577D02*
X315952Y136678D01*
X315639Y136053*
X315952Y135428*
X316577Y135115*
X317202*
X317827Y135428*
X313139Y138865D02*
X310639Y135115D01*
X313139*
X323875Y133303D02*
Y117303D01*
X330875*
Y133303*
X323875*
X327497Y113371D02*
X327184Y113058D01*
X326559Y112746*
X325622*
X324997Y113058*
X324684Y113371*
X324372Y113996*
Y115246*
X324684Y115871*
X324997Y116183*
X325622Y116496*
X326559*
X327184Y116183*
X327497Y115871*
X329684Y113058D02*
X330309Y112746D01*
X330934*
X331559Y113058*
X331872Y113683*
X331559Y114308*
X330934Y114621*
X330309*
X330934D02*
X331559Y114933D01*
X331872Y115558*
X331559Y116183*
X330934Y116496*
X330309*
X329684Y116183*
X334372Y113058D02*
X334997Y112746D01*
X335934*
X336559Y113058*
X336872Y113683*
Y113996*
X336559Y114621*
X335934Y114933*
X334372*
Y116496*
X336872*
X326937Y69017D02*
X323187D01*
Y71204*
X323499Y71829*
X324124Y72142*
X324749Y71829*
X325061Y71204*
Y69017*
Y71204D02*
X326937Y72142D01*
Y74642D02*
Y75892D01*
Y75267D02*
X323187D01*
X323811Y74642*
X326937Y81517D02*
Y79017D01*
X324749Y81204*
X324124Y81517*
X323499Y81204*
X323187Y80579*
Y79642*
X323499Y79017*
X333734Y133053D02*
Y117053D01*
X340734*
Y133053*
X333734*
X335113Y60288D02*
Y62788D01*
X330113Y65288*
X340113Y70288*
X330113Y75288*
X340113Y80288*
X330113Y85288*
X335113Y87788*
Y90288*
X344722Y414281D02*
Y413031D01*
X344410Y412406*
X344097Y412093*
X343472Y411781*
X342847*
X342222Y412093*
X341910Y412406*
X341597Y413031*
Y414281*
X341910Y414906*
X342222Y415219*
X342847Y415531*
X343472*
X344097Y415219*
X344410Y414906*
X344722Y414281*
X342535Y414593D02*
X341597Y415531D01*
X337222D02*
X339722D01*
X337535Y413343*
X337222Y412719*
X337535Y412093*
X338160Y411781*
X339097*
X339722Y412093*
X344730Y403739D02*
X347230D01*
X349730Y408739*
X354730Y398739*
X359730Y408739*
X364730Y398739*
X369730Y408739*
X372230Y403739*
X374730*
X345222Y343767D02*
Y342517D01*
X344909Y341892*
X344596Y341580*
X343972Y341267*
X343346*
X342722Y341580*
X342409Y341892*
X342096Y342517*
Y343767*
X342409Y344392*
X342722Y344705*
X343346Y345017*
X343972*
X344596Y344705*
X344909Y344392*
X345222Y343767*
X343034Y344080D02*
X342096Y345017D01*
X339596D02*
X338346D01*
X338972D02*
Y341267D01*
X339596Y341892*
X345721Y379087D02*
Y377837D01*
X345408Y377211*
X345096Y376899*
X344471Y376587*
X343846*
X343221Y376899*
X342908Y377211*
X342596Y377837*
Y379087*
X342908Y379711*
X343221Y380024*
X343846Y380337*
X344471*
X345096Y380024*
X345408Y379711*
X345721Y379087*
X343533Y379399D02*
X342596Y380337D01*
X340408Y380024D02*
X339783Y380337D01*
X339158*
X338533Y380024*
X338221Y379399*
X338533Y378774*
X339158Y378461*
X339783*
X339158D02*
X338533Y378149D01*
X338221Y377524*
X338533Y376899*
X339158Y376587*
X339783*
X340408Y376899*
X345854Y333350D02*
X348354D01*
X350854Y338350*
X355854Y328350*
X360854Y338350*
X365854Y328350*
X370854Y338350*
X373354Y333350*
X375854*
X346478Y368544D02*
X348978D01*
X351478Y373544*
X356478Y363544*
X361478Y373544*
X366478Y363544*
X371478Y373544*
X373978Y368544*
X376478*
X350344Y116554D02*
Y132554D01*
X343344*
Y116554*
X350344*
X354457Y354505D02*
Y358255D01*
X356644*
X357270Y357943*
X357582Y357318*
X357270Y356693*
X356644Y356380*
X354457*
X356644D02*
X357582Y354505D01*
X361957D02*
X359457D01*
X361644Y356693*
X361957Y357318*
X361644Y357943*
X361020Y358255*
X360082*
X359457Y357943*
X364770Y354818D02*
X365394Y354505D01*
X366020*
X366644Y354818*
X366957Y355443*
Y357318*
X366644Y357943*
X366020Y358255*
X365394*
X364770Y357943*
X364457Y357318*
Y355443*
X364770Y354818*
X366644Y357943*
X354730Y413426D02*
Y417176D01*
X356918*
X357543Y416864*
X357856Y416239*
X357543Y415614*
X356918Y415301*
X354730*
X356918D02*
X357856Y413426D01*
X362230D02*
X359730D01*
X361918Y415614*
X362230Y416239*
X361918Y416864*
X361293Y417176*
X360356*
X359730Y416864*
X367230Y413426D02*
X364730D01*
X366918Y415614*
X367230Y416239*
X366918Y416864*
X366293Y417176*
X365356*
X364730Y416864*
X356478Y378231D02*
Y381981D01*
X358665*
X359290Y381669*
X359603Y381044*
X359290Y380419*
X358665Y380107*
X356478*
X358665D02*
X359603Y378231D01*
X363978D02*
X361478D01*
X363665Y380419*
X363978Y381044*
X363665Y381669*
X363040Y381981*
X362103*
X361478Y381669*
X368040Y378231D02*
Y381981D01*
X366478Y379481*
X368978*
X357203Y341526D02*
Y345276D01*
X359390*
X360015Y344963*
X360328Y344338*
X360015Y343713*
X359390Y343401*
X357203*
X359390D02*
X360328Y341526D01*
X362828D02*
X364078D01*
X363453D02*
Y345276D01*
X362828Y344651*
X368140Y341526D02*
X368765Y341838D01*
X369390Y342463*
X369703Y343401*
Y344338*
X369390Y344963*
X368765Y345276*
X368140*
X367515Y344963*
X367203Y344338*
X367515Y343713*
X368140Y343401*
X368765*
X369390Y343713*
X369703Y344338*
X358239Y205533D02*
X360114D01*
X361989Y207096*
X360114Y205533D02*
X361989Y203971D01*
X358239Y199596D02*
Y202096D01*
X360426Y199909*
X361051Y199596*
X361676Y199909*
X361989Y200533*
Y201471*
X361676Y202096*
X355458Y119207D02*
X355771Y119520D01*
X356396Y119832*
X357333*
X357958Y119520*
X358271Y119207*
X358583Y118582*
Y117332*
X358271Y116707*
X357958Y116394*
X357333Y116082*
X356396*
X355771Y116394*
X355458Y116707*
X351083Y119832D02*
X353583D01*
X351396Y117644*
X351083Y117020*
X351396Y116394*
X352021Y116082*
X352958*
X353583Y116394*
X347021Y119832D02*
Y116082D01*
X348583Y118582*
X346083*
X359954Y118059D02*
Y134059D01*
X352954*
Y118059*
X359954*
X358329Y138996D02*
X358641Y139309D01*
X359267Y139621*
X360204*
X360829Y139309*
X361141Y138996*
X361454Y138371*
Y137121*
X361141Y136496*
X360829Y136183*
X360204Y135871*
X359267*
X358641Y136183*
X358329Y136496*
X353954Y139621D02*
X356454D01*
X354267Y137433*
X353954Y136809*
X354267Y136183*
X354891Y135871*
X355829*
X356454Y136183*
X351141Y139309D02*
X350517Y139621D01*
X349891*
X349267Y139309*
X348954Y138683*
X349267Y138059*
X349891Y137746*
X350517*
X349891D02*
X349267Y137433D01*
X348954Y136809*
X349267Y136183*
X349891Y135871*
X350517*
X351141Y136183*
X362564Y133303D02*
Y117303D01*
X369564*
Y133303*
X362564*
X366696Y351196D02*
X369196D01*
X371696Y356196*
X376696Y346196*
X381696Y356196*
X386696Y346196*
X391696Y356196*
X394196Y351196*
X396696*
X366696Y419713D02*
X369196D01*
X371696Y424713*
X376696Y414713*
X381696Y424713*
X386696Y414713*
X391696Y424713*
X394196Y419713*
X396696*
X367320Y384893D02*
X369820D01*
X372320Y389893*
X377320Y379893*
X382320Y389893*
X387320Y379893*
X392320Y389893*
X394820Y384893*
X397320*
X373924Y112615D02*
X373611Y112302D01*
X372986Y111990*
X372048*
X371424Y112302*
X371111Y112615*
X370798Y113240*
Y114490*
X371111Y115115*
X371424Y115428*
X372048Y115740*
X372986*
X373611Y115428*
X373924Y115115*
X376424Y111990D02*
X377674D01*
X377048D02*
Y115740D01*
X376424Y115115*
X380798Y112928D02*
X381111Y113552D01*
X381736Y113865*
X382361*
X382986Y113552*
X383298Y112928*
X382986Y112302*
X382361Y111990*
X381736*
X381111Y112302*
X380798Y112928*
Y113865*
X381111Y114802*
X381736Y115428*
X382361Y115740*
X372298Y133552D02*
Y117552D01*
X379298*
Y133552*
X372298*
X374203Y188549D02*
X390203D01*
Y195549*
X374203*
Y188549*
Y213549D02*
X390203D01*
Y220549*
X374203*
Y213549*
X376696Y429401D02*
Y433151D01*
X378883*
X379508Y432839*
X379821Y432213*
X379508Y431589*
X378883Y431276*
X376696*
X378883D02*
X379821Y429401D01*
X384196D02*
X381696D01*
X383883Y431589*
X384196Y432213*
X383883Y432839*
X383258Y433151*
X382321*
X381696Y432839*
X387321Y429401D02*
X388571D01*
X387946D02*
Y433151D01*
X387321Y432526*
X377320Y394581D02*
Y398331D01*
X379507*
X380132Y398019*
X380445Y397393*
X380132Y396769*
X379507Y396456*
X377320*
X379507D02*
X380445Y394581D01*
X384820D02*
X382320D01*
X384507Y396769*
X384820Y397393*
X384507Y398019*
X383882Y398331*
X382945*
X382320Y398019*
X387632Y394893D02*
X388257Y394581D01*
X388882*
X389507Y394893*
X389820Y395519*
X389507Y396143*
X388882Y396456*
X388257*
X388882D02*
X389507Y396769D01*
X389820Y397393*
X389507Y398019*
X388882Y398331*
X388257*
X387632Y398019*
X395140Y190174D02*
X395453Y189861D01*
X395765Y189236*
Y188299*
X395453Y187674*
X395140Y187361*
X394515Y187049*
X393265*
X392640Y187361*
X392328Y187674*
X392015Y188299*
Y189236*
X392328Y189861*
X392640Y190174*
X395765Y193611D02*
X392015D01*
X394515Y192049*
Y194549*
X395453Y197361D02*
X395765Y197986D01*
Y198611*
X395453Y199236*
X394828Y199549*
X394203Y199236*
X393890Y198611*
Y197986*
Y198611D02*
X393578Y199236D01*
X392953Y199549*
X392328Y199236*
X392015Y198611*
Y197986*
X392328Y197361*
X395140Y215174D02*
X395453Y214861D01*
X395765Y214236*
Y213299*
X395453Y212674*
X395140Y212361*
X394515Y212049*
X393265*
X392640Y212361*
X392328Y212674*
X392015Y213299*
Y214236*
X392328Y214861*
X392640Y215174*
X395765Y218611D02*
X392015D01*
X394515Y217049*
Y219549*
X395765Y223611D02*
X392015D01*
X394515Y222049*
Y224549*
X397948Y251229D02*
X398261Y251542D01*
X398574Y252167*
X398261Y252792*
X397948Y253104*
X394824*
Y253729*
Y253104D02*
Y251854D01*
X398574Y258729D02*
Y256229D01*
X396386Y258417*
X395761Y258729*
X395136Y258417*
X394824Y257792*
Y256854*
X395136Y256229*
D02*
D19*
X23230Y437840D02*
X92127D01*
Y469730*
X13387*
Y453785*
X55057Y177393D02*
Y204755D01*
X115294*
Y177393*
X55057*
X60018Y168928D02*
Y176015D01*
X121135Y268343D02*
Y299174D01*
X125777Y177393D02*
Y204755D01*
X186013*
Y177393*
X125777*
X130738Y168928D02*
Y176015D01*
X168625Y19529D02*
X70200D01*
Y4568*
X178468*
Y13230*
X178512Y444924D02*
Y449924D01*
X97724*
Y439924*
X173118*
X194294Y179140D02*
Y206502D01*
X254530*
Y179140*
X194294*
X198143Y273174D02*
Y299174D01*
X199255Y170676D02*
Y177762D01*
X223524Y328921D02*
X253878D01*
X227894Y251165D02*
X253878D01*
X265931Y178391D02*
Y205754D01*
X326167*
Y178391*
X265931*
X270892Y169927D02*
Y177013D01*
X288921Y328047D02*
X319275D01*
X293291Y250291D02*
X319275D01*
X316392Y19778D02*
X217967D01*
Y4818*
X326235*
Y13479*
X346199Y412531D02*
X343246D01*
Y420406*
X346199*
Y412531*
X346698Y342018D02*
X343745D01*
Y349892*
X346698*
Y342018*
X347197Y377337D02*
X344244D01*
Y385211*
X347197*
Y377337*
X350530Y411941D02*
X347577D01*
X351029Y341427D02*
X348076D01*
X351528Y376746D02*
X348575D01*
X399511Y245835D02*
X404511D01*
Y326623*
X394511*
Y251229*
D02*
D70*
X253909Y392354D02*
G75*
G02X273594I9843D01*
G01*
Y367354*
G75*
G02X253909I-9843*
G01*
Y392354*
X347360Y219549D02*
G75*
G02X367045I9843D01*
G01*
Y194549*
G75*
G02X347360I-9843*
G01*
Y219549*
D02*
D73*
X137624Y362570D02*
Y361070D01*
X138624*
Y362570*
X137624Y382270D02*
Y380770D01*
X138624*
Y382270*
X146224Y400870D02*
X148824Y403470D01*
X148624Y356470D02*
X145024D01*
Y360070*
X148624Y404670D02*
X145024D01*
Y401070*
X149624Y411070D02*
Y412070D01*
X151124*
Y411070*
X167424Y350070D02*
Y349070D01*
X168924*
Y350070*
X169324Y411070D02*
Y412070D01*
X170824*
Y411070*
X187124Y350070D02*
Y349070D01*
X188624*
Y350070*
X189624Y356470D02*
X193224D01*
Y360070*
Y401070D02*
Y404670D01*
X189624*
X200624Y380370D02*
Y378870D01*
X199624*
Y380370*
X200624Y400070D02*
Y398570D01*
X199624*
Y400070*
X0Y0D02*
M02*
