G04 EasyPC Gerber Version 21.0.3 Build 4286 *
G04 #@! TF.Part,Single*
G04 #@! TF.FileFunction,Copper,L1,Top *
G04 #@! TF.FilePolarity,Positive *
%FSLAX35Y35*%
%MOIN*%
G04 #@! TA.AperFunction,SMDPad*
%ADD75R,0.01100X0.05800*%
%ADD82R,0.02559X0.07087*%
%ADD22R,0.05500X0.06000*%
G04 #@! TA.AperFunction,ComponentPad*
%ADD80R,0.04661X0.04661*%
%ADD76R,0.04724X0.04724*%
%ADD78R,0.06496X0.06496*%
%ADD71R,0.07677X0.07677*%
G04 #@! TD.AperFunction*
%ADD17C,0.00500*%
%ADD70C,0.01000*%
%ADD27C,0.01500*%
G04 #@! TA.AperFunction,ComponentPad*
%ADD83C,0.04449*%
%ADD81C,0.04661*%
%ADD77C,0.04724*%
G04 #@! TA.AperFunction,ViaPad*
%ADD28C,0.04800*%
%ADD86C,0.05600*%
G04 #@! TA.AperFunction,ComponentPad*
%ADD23C,0.06000*%
%ADD79C,0.06496*%
%ADD20C,0.07677*%
G04 #@! TA.AperFunction,SMDPad*
%ADD74R,0.05800X0.01100*%
%ADD85R,0.02953X0.01969*%
%ADD84R,0.06000X0.05500*%
X0Y0D02*
D02*
D17*
X49196Y133450D02*
Y132502D01*
G75*
G02X55798Y133328I3487J-1077*
G01*
Y135674*
X58047*
Y137409*
G75*
G02X58559Y138646I1750*
G01*
X72120Y152207*
G75*
G02X72537Y152874I1654J-572*
G01*
X80137Y160473*
Y164983*
G75*
G02X79755Y164409I-1620J663*
G01*
X53739Y138393*
G75*
G02X53265Y137519I-1712J364*
G01*
X49196Y133450*
G36*
Y132502*
G75*
G02X55798Y133328I3487J-1077*
G01*
Y135674*
X58047*
Y137409*
G75*
G02X58559Y138646I1750*
G01*
X72120Y152207*
G75*
G02X72537Y152874I1654J-572*
G01*
X80137Y160473*
Y164983*
G75*
G02X79755Y164409I-1620J663*
G01*
X53739Y138393*
G75*
G02X53265Y137519I-1712J364*
G01*
X49196Y133450*
G37*
X61547Y136684D02*
Y135674D01*
X63798*
Y133111*
G75*
G02X69900Y133687I3237J-1686*
G01*
Y135674*
X73522*
Y140279*
G75*
G02X74035Y141517I1750*
G01*
X85926Y153407*
Y167678*
X83637*
Y159748*
G75*
G02X83124Y158511I-1750*
G01*
X75429Y150815*
G75*
G02X75012Y150149I-1654J572*
G01*
X61547Y136684*
G36*
Y135674*
X63798*
Y133111*
G75*
G02X69900Y133687I3237J-1686*
G01*
Y135674*
X73522*
Y140279*
G75*
G02X74035Y141517I1750*
G01*
X85926Y153407*
Y167678*
X83637*
Y159748*
G75*
G02X83124Y158511I-1750*
G01*
X75429Y150815*
G75*
G02X75012Y150149I-1654J572*
G01*
X61547Y136684*
G37*
X74426Y237658D02*
Y214469D01*
X75861*
Y236011*
G75*
G02X74426Y237658I1907J3112*
G01*
G36*
Y214469*
X75861*
Y236011*
G75*
G02X74426Y237658I1907J3112*
G01*
G37*
X77022Y139554D02*
Y135674D01*
X77900*
Y132003*
G75*
G02X84591Y132676I3487J-1077*
G01*
X85251*
Y135178*
X87501*
Y150032*
X77022Y139554*
G36*
Y135674*
X77900*
Y132003*
G75*
G02X84591Y132676I3487J-1077*
G01*
X85251*
Y135178*
X87501*
Y150032*
X77022Y139554*
G37*
X79676Y233142D02*
Y214469D01*
X81135*
Y231677*
G75*
G02X79676Y233142I1750J3203*
G01*
G36*
Y214469*
X81135*
Y231677*
G75*
G02X79676Y233142I1750J3203*
G01*
G37*
X99426Y167678D02*
Y159762D01*
X106969*
Y161395*
X101439Y166926*
G75*
G02X100995Y167678I1237J1238*
G01*
X99426*
G36*
Y159762*
X106969*
Y161395*
X101439Y166926*
G75*
G02X100995Y167678I1237J1238*
G01*
X99426*
G37*
X120454Y137308D02*
Y133304D01*
X121446*
Y133415*
G75*
G02X121958Y134652I1750*
G01*
X146906Y159600*
Y167678*
X140145*
Y162584*
G75*
G02X139633Y161347I-1750*
G01*
X130692Y152406*
Y146630*
X128442*
Y146020*
G75*
G02X127927Y144780I-1750J0*
G01*
X120454Y137308*
G36*
Y133304*
X121446*
Y133415*
G75*
G02X121958Y134652I1750*
G01*
X146906Y159600*
Y167678*
X140145*
Y162584*
G75*
G02X139633Y161347I-1750*
G01*
X130692Y152406*
Y146630*
X128442*
Y146020*
G75*
G02X127927Y144780I-1750J0*
G01*
X120454Y137308*
G37*
X130692Y161406D02*
Y157356D01*
X136645Y163309*
Y167678*
X135145*
Y166584*
G75*
G02X134633Y165347I-1750*
G01*
X130692Y161406*
G36*
Y157356*
X136645Y163309*
Y167678*
X135145*
Y166584*
G75*
G02X134633Y165347I-1750*
G01*
X130692Y161406*
G37*
X134178Y141922D02*
X125559Y133304D01*
X127196*
Y131465*
G75*
G02X132676Y131466I2741J-2411*
G01*
Y133178*
X134178*
Y141922*
G36*
X125559Y133304*
X127196*
Y131465*
G75*
G02X132676Y131466I2741J-2411*
G01*
Y133178*
X134178*
Y141922*
G37*
X137678Y141676D02*
Y133178D01*
X140676*
Y130679*
X140961*
G75*
G02X147278Y130832I3203J-1750*
G01*
Y133056*
X150402*
Y149390*
G75*
G02X150915Y150627I1750*
G01*
X156646Y156359*
Y167678*
X155146*
Y159869*
G75*
G02X154634Y158632I-1750*
G01*
X137678Y141676*
G36*
Y133178*
X140676*
Y130679*
X140961*
G75*
G02X147278Y130832I3203J-1750*
G01*
Y133056*
X150402*
Y149390*
G75*
G02X150915Y150627I1750*
G01*
X156646Y156359*
Y167678*
X155146*
Y159869*
G75*
G02X154634Y158632I-1750*
G01*
X137678Y141676*
G37*
X153902Y148665D02*
Y133056D01*
X155278*
Y131068*
G75*
G02X160755Y131353I2863J-2263*
G01*
Y132804*
X161645*
Y167678*
X160146*
Y155634*
G75*
G02X159634Y154396I-1750*
G01*
X153902Y148665*
G36*
Y133056*
X155278*
Y131068*
G75*
G02X160755Y131353I2863J-2263*
G01*
Y132804*
X161645*
Y167678*
X160146*
Y155634*
G75*
G02X159634Y154396I-1750*
G01*
X153902Y148665*
G37*
X170283Y167678D02*
Y166155D01*
X171470Y164968*
G75*
G02X172030Y163617I-1347J-1350*
G01*
Y162508*
X174123*
Y160290*
X174235*
Y162634*
X182235*
Y154134*
X174235*
Y156475*
X174123*
Y154008*
X166123*
Y162508*
X168215*
Y162827*
X167028Y164014*
G75*
G02X166468Y165365I1347J1350*
G01*
Y167678*
X165145*
Y132804*
X168755*
Y130305*
X169291*
G75*
G02X175731Y130241I3203J-1750*
G01*
Y135674*
X181506*
X183474Y137641*
Y161894*
X180880Y164488*
X175989*
G75*
G02X174751Y165001I-1J1750*
G01*
X172158Y167594*
G75*
G02X172080Y167678I1237J1240*
G01*
X170283*
X174235Y153634D02*
X182235D01*
Y145134*
X174235*
Y146392*
X174123*
Y145008*
X166123*
Y153508*
X174123*
Y149892*
X174235*
Y153634*
X183224Y137391D02*
G36*
Y149321D01*
X182235*
Y145134*
X174235*
Y146392*
X174123*
Y145008*
X166123*
Y149321*
X165395*
Y132804*
X168755*
Y130491*
X169400*
G75*
G02X175588I3094J-1937*
G01*
X175731*
Y135674*
X181506*
X183224Y137391*
G37*
X182235Y149321D02*
G36*
X183224D01*
Y162144*
X180880Y164488*
X175989*
G75*
G02X174751Y165001I-1J1750*
G01*
X172324Y167428*
X170283*
Y166155*
X171470Y164968*
G75*
G02X172030Y163617I-1348J-1350*
G01*
Y162508*
X174123*
Y160290*
X174235*
Y162634*
X182235*
Y154134*
X174235*
Y156475*
X174123*
Y154008*
X166123*
Y162508*
X168215*
Y162827*
X167028Y164014*
G75*
G02X166468Y165365I1348J1350*
G01*
Y167428*
X165395*
Y149321*
X166123*
Y153508*
X174123*
Y149892*
X174235*
Y153634*
X182235*
Y149321*
G37*
X206694Y136559D02*
Y128185D01*
X208944*
Y125687*
X208978*
G75*
G02X215794Y124458I3203J-1750*
G01*
Y126189*
X218044*
Y140778*
G75*
G02X218557Y142016I1750*
G01*
X220162Y143621*
Y169426*
X217926*
Y148516*
G75*
G02X217413Y147279I-1750*
G01*
X206694Y136559*
G36*
Y128185*
X208944*
Y125687*
X208978*
G75*
G02X215794Y124458I3203J-1750*
G01*
Y126189*
X218044*
Y140778*
G75*
G02X218557Y142016I1750*
G01*
X220162Y143621*
Y169426*
X217926*
Y148516*
G75*
G02X217413Y147279I-1750*
G01*
X206694Y136559*
G37*
X208662Y169426D02*
Y166367D01*
X210673Y164356*
G75*
G02X211186Y163118I-1237J-1237*
G01*
Y154749*
G75*
G02X210673Y153512I-1750*
G01*
X207196Y150034*
Y144260*
X204946*
Y139761*
X214426Y149241*
Y169426*
X208662*
G36*
Y166367*
X210673Y164356*
G75*
G02X211186Y163118I-1237J-1237*
G01*
Y154749*
G75*
G02X210673Y153512I-1750*
G01*
X207196Y150034*
Y144260*
X204946*
Y139761*
X214426Y149241*
Y169426*
X208662*
G37*
X208944Y119685D02*
X202670D01*
X203170Y119185*
X208944*
Y116687*
X215794*
Y117189*
X223794*
Y114690*
X230644*
Y117189*
X238644*
Y114848*
X245747*
Y117315*
X253747*
Y114813*
X253758*
X257359Y118415*
G75*
G02X254157Y120315I2J3650*
G01*
X253747*
Y117815*
X245747*
Y120035*
G75*
G02X239430Y120190I-3113J1905*
G01*
X238644*
Y117689*
X230644*
Y120254*
G75*
G02X224204Y120190I-3237J1687*
G01*
X223794*
Y117689*
X215794*
Y123416*
G75*
G02X208978Y122187I-3613J521*
G01*
X208944*
Y119685*
G36*
X202670*
X203170Y119185*
X208944*
Y116687*
X215794*
Y117189*
X223794*
Y114690*
X230644*
Y117189*
X238644*
Y114848*
X245747*
Y117315*
X253747*
Y114813*
X253758*
X257359Y118415*
G75*
G02X254157Y120315I2J3650*
G01*
X253747*
Y117815*
X245747*
Y120035*
G75*
G02X239430Y120190I-3113J1905*
G01*
X238644*
Y117689*
X230644*
Y120254*
G75*
G02X224204Y120190I-3237J1687*
G01*
X223794*
Y117689*
X215794*
Y123416*
G75*
G02X208978Y122187I-3613J521*
G01*
X208944*
Y119685*
G37*
X221544Y140054D02*
Y126189D01*
X223794*
Y123690*
X224204*
G75*
G02X230644Y123627I3203J-1750*
G01*
Y126189*
X231150*
Y145420*
X225675Y150894*
G75*
G02X225162Y152131I1237J1237*
G01*
Y169426*
X223662*
Y142896*
G75*
G02X223150Y141659I-1750*
G01*
X221544Y140054*
G36*
Y126189*
X223794*
Y123690*
X224204*
G75*
G02X230644Y123627I3203J-1750*
G01*
Y126189*
X231150*
Y145420*
X225675Y150894*
G75*
G02X225162Y152131I1237J1237*
G01*
Y169426*
X223662*
Y142896*
G75*
G02X223150Y141659I-1750*
G01*
X221544Y140054*
G37*
X224789Y206630D02*
Y202157D01*
X228132Y198815*
X234994*
G75*
G02X235005Y205056I1899J3117*
G01*
Y206630*
X224789*
G36*
Y202157*
X228132Y198815*
X234994*
G75*
G02X235005Y205056I1899J3117*
G01*
Y206630*
X224789*
G37*
X228662Y169426D02*
Y152857D01*
X234138Y147383*
G75*
G02X234650Y146145I-1237J-1237*
G01*
Y126189*
X238644*
Y123690*
X239430*
G75*
G02X244023Y125315I3203J-1750*
G01*
X242021Y127317*
G75*
G02X241509Y128555I1237J1237*
G01*
Y143922*
X230675Y154755*
G75*
G02X230162Y155993I1237J1237*
G01*
Y169426*
X228662*
G36*
Y152857*
X234138Y147383*
G75*
G02X234650Y146145I-1237J-1237*
G01*
Y126189*
X238644*
Y123690*
X239430*
G75*
G02X244023Y125315I3203J-1750*
G01*
X242021Y127317*
G75*
G02X241509Y128555I1237J1237*
G01*
Y143922*
X230675Y154755*
G75*
G02X230162Y155993I1237J1237*
G01*
Y169426*
X228662*
G37*
X229499Y321859D02*
Y316878D01*
X231550*
X239399Y324728*
G75*
G02X239406Y324735I1245J-1238*
G01*
X232376*
X229499Y321859*
G36*
Y316878*
X231550*
X239399Y324728*
G75*
G02X239406Y324735I1245J-1238*
G01*
X232376*
X229499Y321859*
G37*
X233662Y169426D02*
Y156717D01*
X244373Y146008*
Y151026*
X246623*
Y153657*
X236903Y163378*
G75*
G02X236391Y164616I1237J1237*
G01*
Y169426*
X233662*
G36*
Y156717*
X244373Y146008*
Y151026*
X246623*
Y153657*
X236903Y163378*
G75*
G02X236391Y164616I1237J1237*
G01*
Y169426*
X233662*
G37*
X239891D02*
Y165341D01*
X249610Y155619*
G75*
G02X250123Y154382I-1237J-1237*
G01*
Y151026*
X252373*
Y148526*
X252735*
Y150650*
X260122*
X252649Y158124*
X249249*
G75*
G02X248011Y158637I-1J1750*
G01*
X240675Y165972*
G75*
G02X240162Y167209I1237J1237*
G01*
Y169426*
X239891*
G36*
Y165341*
X249610Y155619*
G75*
G02X250123Y154382I-1237J-1237*
G01*
Y151026*
X252373*
Y148526*
X252735*
Y150650*
X260122*
X252649Y158124*
X249249*
G75*
G02X248011Y158637I-1J1750*
G01*
X240675Y165972*
G75*
G02X240162Y167209I1237J1237*
G01*
Y169426*
X239891*
G37*
X274586Y168678D02*
Y154509D01*
X284238*
X277230Y161518*
G75*
G02X276669Y162869I1347J1350*
G01*
Y168678*
X274586*
G36*
Y154509*
X284238*
X277230Y161518*
G75*
G02X276669Y162869I1347J1350*
G01*
Y168678*
X274586*
G37*
X280484D02*
Y163659D01*
X297588Y146555*
X298795*
G75*
G02X300145Y145994J-1907*
G01*
X305730Y140410*
X305799*
X287312Y158897*
G75*
G02X286799Y160135I1237J1237*
G01*
Y168678*
X280484*
G36*
Y163659*
X297588Y146555*
X298795*
G75*
G02X300145Y145994J-1907*
G01*
X305730Y140410*
X305799*
X287312Y158897*
G75*
G02X286799Y160135I1237J1237*
G01*
Y168678*
X280484*
G37*
X313520Y228136D02*
X298824D01*
G75*
G02X300398Y226138I-1901J-3116*
G01*
G75*
G02X306938Y223909I2890J-2229*
G01*
G75*
G02X305038Y220706I-3650*
G01*
Y217704*
G75*
G02X305299Y216783I-1489J-920*
G01*
Y215469*
X306799*
Y217950*
G75*
G02X306377Y219654I3228J1704*
G01*
G75*
G02X313520Y220712I3650*
G01*
Y228136*
G36*
X298824*
G75*
G02X300398Y226138I-1901J-3116*
G01*
G75*
G02X306938Y223909I2890J-2229*
G01*
G75*
G02X305038Y220706I-3650*
G01*
Y217704*
G75*
G02X305299Y216783I-1489J-920*
G01*
Y215469*
X306799*
Y217950*
G75*
G02X306377Y219654I3228J1704*
G01*
G75*
G02X313520Y220712I3650*
G01*
Y228136*
G37*
X405499Y382073D02*
G75*
G02X403446Y380795I-3179J2821D01*
G01*
Y355069*
G75*
G02X405499Y353093I-1750J-3873*
G01*
Y382073*
G36*
G75*
G02X403446Y380795I-3179J2821*
G01*
Y355069*
G75*
G02X405499Y353093I-1750J-3873*
G01*
Y382073*
G37*
Y417817D02*
G75*
G02X404070Y416188I-3804J1897D01*
G01*
Y388766*
G75*
G02X405499Y387714I-1750J-3873*
G01*
Y417817*
G36*
G75*
G02X404070Y416188I-3804J1897*
G01*
Y388766*
G75*
G02X405499Y387714I-1750J-3873*
G01*
Y417817*
G37*
Y421610D02*
Y470256D01*
X4763*
Y4996*
X405499*
Y349300*
G75*
G02X397446Y351196I-3803J1897*
G01*
G75*
G02X399946Y355069I4250*
G01*
Y381368*
G75*
G02X400570Y388766I2374J3525*
G01*
Y415615*
G75*
G02X401696Y423963I1126J4098*
G01*
G75*
G02X405499Y421610J-4250*
G01*
X110304Y132056D02*
X116337D01*
Y123556*
X108337*
Y126430*
X108101*
Y123930*
X100101*
Y132430*
X105876*
X106969Y133523*
Y142262*
X99227*
Y144513*
X98865*
Y142012*
X91001*
Y135178*
X93251*
Y126678*
X85251*
Y129176*
X84591*
G75*
G02X77900Y129849I-3203J1750*
G01*
Y127174*
X69900*
Y129164*
G75*
G02X63798Y129739I-2865J2261*
G01*
Y127174*
X55798*
Y129523*
G75*
G02X49196Y130348I-3115J1902*
G01*
Y127674*
X41196*
Y130174*
X37790*
G75*
G02X30937Y131924I-3203J1750*
G01*
G75*
G02X37790Y133674I3650*
G01*
X41196*
Y136174*
X46969*
X50315Y139520*
G75*
G02X50790Y140393I1712J-364*
G01*
X76767Y166371*
Y167678*
X69426*
Y162385*
G75*
G02X68913Y161148I-1750*
G01*
X53047Y145282*
G75*
G02X51809Y144769I-1237J1237*
G01*
X31692*
X30471Y143548*
Y141021*
G75*
G02X29958Y139783I-1750*
G01*
X25607Y135432*
Y132382*
X31581Y126408*
G75*
G02X31994Y125753I-1237J-1237*
G01*
X32566Y125181*
X41196*
Y127174*
X49196*
Y124674*
X55798*
Y126674*
X63798*
Y124175*
X69900*
Y126674*
X77900*
Y124175*
X85251*
Y126178*
X93251*
Y123676*
X101356*
G75*
G02X102252Y123430I1J-1750*
G01*
X108101*
Y120930*
X108337*
Y123056*
X116337*
Y114556*
X108337*
Y117430*
X108101*
Y114930*
X100101*
Y120176*
X93251*
Y117678*
X85251*
Y120675*
X77900*
Y118174*
X69900*
Y120675*
X63798*
Y118174*
X55798*
Y121174*
X49196*
Y118674*
X41196*
Y121681*
X31842*
G75*
G02X30604Y122193I-1J1750*
G01*
X29106Y123691*
G75*
G02X28693Y124346I1237J1237*
G01*
X23381Y129658*
X17607*
Y131658*
X14251*
Y129158*
X6251*
Y137658*
X14251*
Y135158*
X17607*
Y138158*
X23383*
X23883Y138658*
X17607*
Y141157*
X14251*
Y138158*
X6251*
Y146658*
X14251*
Y144657*
X17607*
Y147158*
X23383*
X27102Y150876*
G75*
G02X28340Y151388I1237J-1237*
G01*
X48589*
X60926Y163726*
Y167678*
X60144*
Y177264*
X110204*
Y167678*
X105637*
X109957Y163357*
G75*
G02X110469Y162120I-1237J-1237*
G01*
Y132798*
G75*
G02X110304Y132056I-1750*
G01*
X252839Y13479D02*
G75*
G02X261835I4498D01*
G01*
G75*
G02X255644Y9312I-4498*
G01*
X253457Y7125*
G75*
G02X252219Y6612I-1237J1237*
G01*
X218672*
G75*
G02X217434Y7125I-1J1750*
G01*
X211933Y12625*
G75*
G02X205700Y8826I-3121J-1892*
G01*
X188880*
G75*
G02X182575Y12474I-3032J2032*
G01*
X176228Y6126*
G75*
G02X174989Y5614I-1237J1237*
G01*
X143841*
G75*
G02X142603Y6126I-1J1750*
G01*
X139922Y8807*
G75*
G02X139098Y8731I-823J4423*
G01*
G75*
G02Y17728J4498*
G01*
G75*
G02X142881Y10797I0J-4498*
G01*
X144565Y9114*
X147126*
G75*
G02X148940Y17728I1815J4116*
G01*
G75*
G02X150755Y9114J-4498*
G01*
X156968*
G75*
G02X155393Y16187I1815J4116*
G01*
Y23487*
X150558Y28323*
G75*
G02X145880Y31825I-1028J3502*
G01*
G75*
G02X153180I3650*
G01*
G75*
G02X153033Y30798I-3650*
G01*
X158381Y25450*
G75*
G02X158893Y24212I-1237J-1237*
G01*
Y17726*
G75*
G02X160597Y9114I-111J-4497*
G01*
X164129*
Y17729*
X173125*
Y9114*
X174265*
X188563Y23411*
G75*
G02X195738Y22465I3525J-946*
G01*
G75*
G02X189757Y19656I-3650*
G01*
X184233Y14131*
G75*
G02X189033Y12641I1615J-3273*
G01*
X205700*
G75*
G02X210704Y13855I3112J-1907*
G01*
X187245Y37314*
X111591*
G75*
G02X110353Y37826I-1J1750*
G01*
X88435Y59744*
G75*
G02X87922Y60982I1237J1237*
G01*
Y66641*
G75*
G02X85422Y70514I1750J3873*
G01*
G75*
G02X93922I4250*
G01*
G75*
G02X91422Y66641I-4250*
G01*
Y61707*
X112315Y40814*
X118919*
G75*
G02X117663Y47633I493J3617*
G01*
Y53605*
X108356Y62912*
G75*
G02X107843Y64149I1237J1237*
G01*
Y68642*
G75*
G02X108356Y69880I1750*
G01*
X115844Y77368*
G75*
G02X117082Y77880I1237J-1237*
G01*
X145911*
G75*
G02X147661Y76130J-1750*
G01*
Y60283*
X200117*
G75*
G02X206970Y58533I3203J-1750*
G01*
G75*
G02X200117Y56783I-3650*
G01*
X145911*
G75*
G02X144161Y58533J1750*
G01*
Y74380*
X117806*
X111343Y67917*
Y64874*
X120047Y56170*
G75*
G02X121163Y54539I-635J-1631*
G01*
Y47633*
G75*
G02X119906Y40814I-1750J-3203*
G01*
X137752*
G75*
G02X136793Y44459I2544J2618*
G01*
X120091Y61161*
G75*
G02X119644Y61924I1237J1238*
G01*
G75*
G02X117079Y65826I1685J3902*
G01*
G75*
G02X125579I4250*
G01*
G75*
G02X123820Y62382I-4250*
G01*
X139267Y46934*
G75*
G02X142838Y40814I1028J-3502*
G01*
X147631*
G75*
G02X146028Y44959I1899J3117*
G01*
X136686Y54300*
G75*
G02X136174Y55538I1237J1237*
G01*
Y63248*
G75*
G02X133674Y67121I1750J3873*
G01*
G75*
G02X142174I4250*
G01*
G75*
G02X139674Y63248I-4250*
G01*
Y56263*
X148503Y47433*
G75*
G02X151429Y40814I1028J-3502*
G01*
X187969*
G75*
G02X189207Y40301I1J-1750*
G01*
X219396Y10112*
X224827*
G75*
G02X227809Y17977I2983J3367*
G01*
G75*
G02X230792Y10112J-4498*
G01*
X234669*
G75*
G02X237652Y17977I2983J3367*
G01*
G75*
G02X240635Y10112J-4498*
G01*
X244512*
G75*
G02X247494Y17977I2983J3367*
G01*
G75*
G02X250477Y10112J-4498*
G01*
X251495*
X253170Y11787*
G75*
G02X252839Y13479I4167J1693*
G01*
X114915Y13230D02*
G75*
G02X123911I4498D01*
G01*
G75*
G02X114915I-4498*
G01*
X124757D02*
G75*
G02X133753I4498D01*
G01*
G75*
G02X124757I-4498*
G01*
X85422Y110514D02*
G75*
G02X93922I4250D01*
G01*
G75*
G02X85422I-4250*
G01*
X70422Y70514D02*
G75*
G02X78922I4250D01*
G01*
G75*
G02X70422I-4250*
G01*
Y110514D02*
G75*
G02X78922I4250D01*
G01*
G75*
G02X70422I-4250*
G01*
X55422Y69765D02*
G75*
G02X63922I4250D01*
G01*
G75*
G02X55422I-4250*
G01*
Y109765D02*
G75*
G02X63922I4250D01*
G01*
G75*
G02X55422I-4250*
G01*
X107878Y17397D02*
G75*
G02X114068Y13230I1693J-4167D01*
G01*
G75*
G02X105072I-4498*
G01*
G75*
G02X105403Y14922I4498J0*
G01*
X64041Y56284*
X44447*
G75*
G02X43209Y56796I-1J1750*
G01*
X41336Y58669*
G75*
G02X40824Y59906I1237J1237*
G01*
Y67016*
G75*
G02X38324Y70889I1750J3873*
G01*
G75*
G02X46824I4250*
G01*
G75*
G02X44324Y67015I-4250*
G01*
Y60631*
X45171Y59784*
X64765*
G75*
G02X66003Y59271I1J-1750*
G01*
X107878Y17397*
X75544Y13230D02*
G75*
G02X84541I4498D01*
G01*
G75*
G02X75544I-4498*
G01*
X85387D02*
G75*
G02X94383I4498D01*
G01*
G75*
G02X85387I-4498*
G01*
X95230D02*
G75*
G02X104226I4498D01*
G01*
G75*
G02X95230I-4498*
G01*
X38324Y110889D02*
G75*
G02X46824I4250D01*
G01*
G75*
G02X38324I-4250*
G01*
X203729Y415213D02*
G75*
G02X205473Y412100I-1906J-3113D01*
G01*
G75*
G02X198173I-3650*
G01*
G75*
G02X199914Y415211I3650*
G01*
Y428658*
X197538Y431034*
X158178*
Y429898*
G75*
G02X163796Y429032I2460J-2696*
G01*
G75*
G02X164609Y428549I-537J-1830*
G01*
X168100Y425057*
G75*
G02X168661Y423707I-1347J-1350*
G01*
Y418216*
G75*
G02X168610Y417778I-1908J-1*
G01*
X171019Y420187*
G75*
G02X172369Y420747I1350J-1347*
G01*
X174998*
G75*
G02X181760Y418840I3112J-1907*
G01*
G75*
G02X174998Y416932I-3650*
G01*
X173159*
X167912Y411685*
Y411319*
X189625*
Y403020*
X185759*
Y397029*
G75*
G02X189498Y393380I89J-3649*
G01*
G75*
G02X182198I-3650*
G01*
G75*
G02X182306Y394259I3650*
G01*
G75*
G02X181944Y395377I1546J1118*
G01*
Y403020*
X169875*
Y401116*
G75*
G02X169362Y399879I-1750*
G01*
X161126Y391645*
G75*
G02X159888Y391132I-1237J1237*
G01*
X157869*
X157525Y390789*
G75*
G02X157673Y389761I-3502J-1029*
G01*
G75*
G02X150373I-3650*
G01*
G75*
G02X155050Y393263I3650*
G01*
X155906Y394119*
G75*
G02X157144Y394632I1238J-1237*
G01*
X159164*
X166375Y401841*
Y403020*
X148625*
Y411319*
X152365*
Y430910*
X137709*
Y402939*
G75*
G02X139040Y401071I-2157J-2944*
G01*
X146676*
Y379320*
X147617*
G75*
G02X148856Y378807I1J-1750*
G01*
X152996Y374667*
G75*
G02X156726Y373618I1028J-3502*
G01*
G75*
G02X157923Y370915I-2453J-2703*
G01*
G75*
G02X151570Y368462I-3650*
G01*
G75*
G02X150521Y372193I2454J2703*
G01*
X146893Y375820*
X146676*
Y360071*
X138373*
Y375256*
X131922Y368804*
G75*
G02X130684Y368292I-1237J1237*
G01*
X52256*
G75*
G02X44558Y371600I-3567J2311*
G01*
X22007Y394151*
G75*
G02X21447Y395502I1347J1350*
G01*
Y448697*
X18141*
Y458874*
X28318*
Y448697*
X25262*
Y396292*
X47036Y374518*
G75*
G02X52770Y371792I1654J-3915*
G01*
X129960*
X136976Y378809*
G75*
G02X138214Y379321I1237J-1237*
G01*
X138373*
Y379821*
X113269*
G75*
G02X112031Y380333I-1J1750*
G01*
X108030Y384332*
G75*
G02X107517Y385570I1237J1238*
G01*
Y411073*
G75*
G02X108031Y412313I1750J0*
G01*
X138951Y443231*
G75*
G02X143118Y449422I4167J1693*
G01*
G75*
G02Y440426J-4498*
G01*
G75*
G02X141426Y440756I0J4498*
G01*
X111017Y410348*
Y387031*
G75*
G02X115714Y389737I3569J-765*
G01*
G75*
G02X121126Y393711I3554J833*
G01*
G75*
G02X122351Y398676I3141J1859*
G01*
G75*
G02X122310Y405541I1221J3440*
G01*
G75*
G02X121669Y407607I3009J2067*
G01*
G75*
G02X128969I3650*
G01*
G75*
G02X128821Y406580I-3650*
G01*
X131173Y404227*
G75*
G02X131686Y402990I-1237J-1237*
G01*
Y400470*
X131911Y400245*
G75*
G02X133894Y403246I3641J-250*
G01*
Y432065*
G75*
G02Y432068I951J2*
G01*
G75*
G02Y432069I1230J1*
G01*
G75*
G02X134453Y433418I1907*
G01*
X135202Y434167*
G75*
G02X136555Y434725I1349J-1349*
G01*
X154273*
G75*
G02X155171Y434500J-1907*
G01*
G75*
G02X156270Y434849I1099J-1559*
G01*
X198328*
G75*
G02X199679Y434289J-1907*
G01*
X203169Y430798*
G75*
G02X203729Y429448I-1347J-1350*
G01*
Y415213*
X285003Y393855D02*
X293503D01*
Y385855*
X285003*
Y387710*
X266753*
G75*
G02X262867Y386100I-3002J1750*
G01*
X256086Y379320*
X256428*
G75*
G02X257667Y378807I1J-1750*
G01*
X262867Y373607*
G75*
G02X266753Y371998I885J-3360*
G01*
X285003*
Y373855*
X293503*
Y365855*
X285003*
Y368498*
X266753*
G75*
G02X260392Y371133I-3002J1750*
G01*
X255704Y375820*
X243448*
X253730Y365538*
G75*
G02X254243Y364301I-1237J-1237*
G01*
Y343684*
X255958Y341969*
G75*
G02X260636Y338467I1028J-3502*
G01*
G75*
G02X253336I-3650*
G01*
G75*
G02X253483Y339494I3650*
G01*
X251256Y341722*
G75*
G02X250743Y342959I1237J1237*
G01*
Y363576*
X240399Y373920*
X212555*
G75*
G02X211584Y368547I-2870J-2256*
G01*
X237558*
G75*
G02X244411Y366797I3203J-1750*
G01*
G75*
G02X237558Y365047I-3650*
G01*
X206796*
X215397Y356446*
G75*
G02X220075Y352944I1028J-3502*
G01*
G75*
G02X212775I-3650*
G01*
G75*
G02X212922Y353971I3650*
G01*
X200874Y366020*
X199873*
Y360071*
X191574*
Y373920*
X185337*
X183360Y371943*
G75*
G02X181765Y367804I-3502J-1028*
G01*
Y367046*
G75*
G02X181205Y365696I-1907*
G01*
X174152Y358643*
Y358119*
X189625*
Y349819*
X173874*
Y344159*
G75*
G02X173362Y342922I-1750*
G01*
X133086Y302646*
G75*
G02X133220Y301674I-3447J-971*
G01*
G75*
G02X126059I-3581*
G01*
G75*
G02X130611Y305120I3581*
G01*
X170374Y344884*
Y349819*
X148625*
Y358119*
X170337*
Y359433*
G75*
G02X170897Y360784I1907*
G01*
X177930Y367816*
G75*
G02X180885Y374418I1928J3099*
G01*
X183375Y376907*
G75*
G02X184613Y377420I1237J-1237*
G01*
X191574*
Y401071*
X199873*
Y381320*
X253137*
X260392Y388575*
G75*
G02X266753Y391210I3360J885*
G01*
X285003*
Y393855*
X305004Y380650D02*
G75*
G02X312304I3650D01*
G01*
G75*
G02X310404Y377447I-3650*
G01*
Y358560*
G75*
G02X309892Y357322I-1750*
G01*
X286697Y334128*
G75*
G02X286844Y333100I-3503J-1028*
G01*
G75*
G02X279544I-3650*
G01*
G75*
G02X284222Y336602I3650*
G01*
X306904Y359285*
Y377447*
G75*
G02X305004Y380650I1750J3203*
G01*
X342761Y337148D02*
G75*
G02X340854Y329100I-1907J-3798D01*
G01*
G75*
G02X338946Y337148J4250*
G01*
Y343721*
X338164*
Y343829*
X324880*
G75*
G02X323641Y344342I-1J1750*
G01*
X317208Y350777*
G75*
G02X310620Y352944I-2937J2167*
G01*
G75*
G02X317473Y354695I3650*
G01*
X317515*
G75*
G02X318753Y354183I1J-1750*
G01*
X325604Y347329*
X338164*
Y348189*
X343617*
Y343721*
X342761*
Y337148*
X339325Y324364D02*
G75*
G02X346625I3650D01*
G01*
G75*
G02X344725Y321161I-3650*
G01*
Y318748*
G75*
G02X344213Y317510I-1750*
G01*
X335869Y309167*
G75*
G02X336017Y308139I-3503J-1028*
G01*
G75*
G02X328717I-3650*
G01*
G75*
G02X333394Y311642I3650*
G01*
X341225Y319472*
Y321161*
G75*
G02X339325Y324364I1750J3203*
G01*
X317870Y320353D02*
G75*
G02X324895Y319169I3413J-1184D01*
G01*
G75*
G02X318911Y316444I-3613J0*
G01*
X314735Y312269*
G75*
G02X313497Y311756I-1237J1237*
G01*
X293804*
G75*
G02X291283Y305557I-2521J-2587*
G01*
G75*
G02X288762Y311756J3612*
G01*
X273710*
G75*
G02X272472Y312269I-1J1750*
G01*
X266448Y318293*
X259046*
G75*
G02X252698Y321740I-3160J1750*
G01*
X241361*
X233512Y313891*
G75*
G02X232274Y313378I-1237J1237*
G01*
X227273*
G75*
G02X225886Y306431I-1387J-3335*
G01*
G75*
G02X224374Y306762J3613*
G01*
G75*
G02X224356I-9J1744*
G01*
X217524*
X210186Y299427*
Y289378*
G75*
G02X212087Y286174I-1748J-3204*
G01*
G75*
G02X204787I-3650*
G01*
G75*
G02X206686Y289376I3650*
G01*
Y300152*
G75*
G02X207199Y301390I1750J0*
G01*
X215562Y309750*
G75*
G02X216800Y310262I1237J-1237*
G01*
X222281*
G75*
G02X224500Y313378I3606J-219*
G01*
X191340*
G75*
G02X190102Y313891I-1J1750*
G01*
X187583Y316410*
G75*
G02X184820Y316119I-1735J3212*
G01*
X181389Y312688*
Y304798*
G75*
G02X183220Y301674I-1750J-3124*
G01*
G75*
G02X176059I-3581*
G01*
G75*
G02X177889Y304798I3581*
G01*
Y313413*
G75*
G02X178402Y314650I1750*
G01*
X182346Y318594*
G75*
G02X182198Y319621I3503J1028*
G01*
G75*
G02X189498I3650*
G01*
G75*
G02X189494Y319449I-3647J-3*
G01*
X192064Y316878*
X222274*
Y323654*
X226344*
X230414Y327722*
G75*
G02X231652Y328235I1237J-1237*
G01*
X283966*
G75*
G02X285204Y327722I1J-1750*
G01*
X290147Y322780*
X294896*
Y315556*
X287672*
Y320305*
X283242Y324735*
X273692*
G75*
G02X273699Y324728I-1238J-1245*
G01*
X275802Y322624*
G75*
G02X280480Y319122I1028J-3502*
G01*
G75*
G02X273180I-3650*
G01*
G75*
G02X273327Y320150I3650*
G01*
X271737Y321740*
X267599*
G75*
G02X268410Y321280I-426J-1697*
G01*
X274434Y315256*
X312773*
X317870Y320353*
X317671Y309169D02*
G75*
G02X324895I3612D01*
G01*
G75*
G02X320286Y305697I-3612*
G01*
X294755Y280166*
G75*
G02X293033Y276009I-3472J-997*
G01*
Y272329*
G75*
G02X291283Y265557I-1750J-3160*
G01*
G75*
G02X289533Y272329J3612*
G01*
Y276009*
G75*
G02X288123Y277419I1750J3160*
G01*
X280033*
G75*
G02X273180Y279169I-3203J1750*
G01*
G75*
G02X280033Y280919I3650*
G01*
X288123*
G75*
G02X292280Y282641I3160J-1750*
G01*
X317811Y308172*
G75*
G02X317671Y309169I3472J996*
G01*
X395367Y262979D02*
G75*
G02X404009Y261229I4144J-1750D01*
G01*
G75*
G02X395367Y259479I-4498*
G01*
X341338*
G75*
G02X340100Y259992I-1J1750*
G01*
X338132Y261959*
X323577*
G75*
G02X321283Y255557I-2294J-2790*
G01*
G75*
G02X318123Y257420J3612*
G01*
X300091*
G75*
G02X298853Y257932I-1J1750*
G01*
X294950Y261833*
X293723*
G75*
G02X291283Y255557I-2440J-2664*
G01*
G75*
G02X288843Y261833J3612*
G01*
X260153*
X259358Y261039*
G75*
G02X255886Y256431I-3472J-996*
G01*
G75*
G02Y263655J3612*
G01*
G75*
G02X256884Y263515J-3612*
G01*
X258191Y264821*
G75*
G02X259429Y265333I1237J-1237*
G01*
X295674*
G75*
G02X296912Y264821I1J-1750*
G01*
X300815Y260920*
X318123*
G75*
G02X318989Y261959I3160J-1751*
G01*
X312649*
G75*
G02X311411Y262472I-1J1750*
G01*
X309164Y264719*
G75*
G02X308652Y265956I1237J1237*
G01*
Y276848*
G75*
G02X306752Y280051I1750J3203*
G01*
G75*
G02X314052I3650*
G01*
G75*
G02X312152Y276848I-3650*
G01*
Y266681*
X313373Y265459*
X338856*
G75*
G02X340094Y264947I1J-1750*
G01*
X342062Y262979*
X395367*
X395015Y255729D02*
X404011D01*
Y246733*
X395015*
Y250727*
X349673*
G75*
G02X342820Y252477I-3203J1750*
G01*
G75*
G02X349673Y254227I3650*
G01*
X395015*
Y255729*
X373452Y221048D02*
X381952D01*
Y213048*
X373452*
Y214905*
X360204*
G75*
G02X353728Y216655I-3002J1750*
G01*
G75*
G02X360204Y218405I3474*
G01*
X373452*
Y221048*
X382452Y196048D02*
X390952D01*
Y188048*
X382452*
Y196048*
Y221048D02*
X390952D01*
Y213048*
X382452*
Y221048*
X376179Y196048D02*
X381952D01*
Y188048*
X373452*
Y193825*
X371584Y195693*
X360204*
G75*
G02X353843Y198328I-3002J1750*
G01*
X336019Y216152*
G75*
G02X331341Y219654I-1028J3502*
G01*
G75*
G02X338641I3650*
G01*
G75*
G02X338494Y218626I-3650*
G01*
X356318Y200802*
G75*
G02X360204Y199193I885J-3360*
G01*
X372308*
G75*
G02X373546Y198680I1J-1750*
G01*
X376179Y196048*
X333024Y239961D02*
G75*
G02X341124I4050D01*
G01*
G75*
G02X333024I-4050*
G01*
X278244Y238502D02*
G75*
G02X285097Y236752I3203J-1750D01*
G01*
G75*
G02X278244Y235002I-3650*
G01*
X274584*
G75*
G02X273346Y235515I-1J1750*
G01*
X268746Y240114*
G75*
G02X264069Y243616I-1028J3502*
G01*
G75*
G02X271369I3650*
G01*
G75*
G02X271221Y242589I-3650*
G01*
X275308Y238502*
X278244*
X315557Y215469D02*
X321078D01*
Y205882*
X295299*
Y199931*
G75*
G02X294787Y198694I-1750*
G01*
X291920Y195827*
G75*
G02X290682Y195315I-1237J1237*
G01*
X263061*
G75*
G02X256529Y192069I-3330J-1495*
G01*
X226784*
G75*
G02X225546Y192582I-1J1750*
G01*
X216935Y201194*
G75*
G02X216422Y202431I1237J1237*
G01*
Y206630*
X209439*
Y193528*
G75*
G02X211339Y190325I-1750J-3203*
G01*
G75*
G02X204485Y188575I-3650*
G01*
X138433*
G75*
G02X136915I-759J1750*
G01*
X67676*
G75*
G02X65926Y190325J1750*
G01*
Y204882*
X60144*
Y214469*
X70926*
Y287820*
G75*
G02X71438Y289058I1750*
G01*
X133922Y351542*
G75*
G02X133774Y352569I3503J1028*
G01*
G75*
G02X141074I3650*
G01*
G75*
G02X136397Y349067I-3650*
G01*
X74426Y287096*
Y240589*
G75*
G02X81290Y238163I3343J-1465*
G01*
G75*
G02X84635Y231677I1596J-3283*
G01*
Y225692*
G75*
G02X90904Y223148I2618J-2543*
G01*
G75*
G02X89004Y219945I-3650*
G01*
Y214469*
X110204*
Y204882*
X99426*
Y204137*
G75*
G02X101326Y200933I-1750J-3203*
G01*
G75*
G02X94026I-3650*
G01*
G75*
G02X95926Y204137I3650*
G01*
Y204882*
X69426*
Y192075*
X135767*
Y204882*
X130865*
Y214469*
X141645*
Y241786*
G75*
G02X139745Y244989I1750J3203*
G01*
G75*
G02X147045I3650*
G01*
G75*
G02X145145Y241786I-3650*
G01*
Y241646*
G75*
G02X151335Y238285I2638J-2522*
G01*
G75*
G02X154400Y231677I1315J-3405*
G01*
Y225406*
G75*
G02X160918Y223148I2868J-2258*
G01*
G75*
G02X159018Y219945I-3650*
G01*
Y214469*
X171645*
Y246483*
X170526Y247602*
G75*
G02X165849Y251104I-1028J3502*
G01*
G75*
G02X173149I3650*
G01*
G75*
G02X173001Y250077I-3650*
G01*
X174633Y248445*
G75*
G02X175145Y247208I-1237J-1237*
G01*
Y214469*
X180924*
Y204882*
X169659*
Y204544*
G75*
G02X171402Y201433I-1907J-3112*
G01*
G75*
G02X164102I-3650*
G01*
G75*
G02X165844Y204544I3650*
G01*
Y204882*
X139581*
Y192075*
X204485*
G75*
G02X205939Y193528I3203J-1750*
G01*
Y206630*
X199383*
Y216217*
X210162*
Y233426*
X202726Y240863*
G75*
G02X198048Y244365I-1028J3502*
G01*
G75*
G02X205348I3650*
G01*
G75*
G02X205200Y243337I-3650*
G01*
X213150Y235388*
G75*
G02X213662Y234151I-1237J-1237*
G01*
Y216217*
X215162*
Y241156*
X209465Y246853*
G75*
G02X204787Y250356I-1028J3502*
G01*
G75*
G02X212087I3650*
G01*
G75*
G02X211940Y249328I-3650*
G01*
X218150Y243118*
G75*
G02X218662Y241881I-1237J-1237*
G01*
Y216217*
X220005*
Y225156*
G75*
G02X220559Y226500I1907J0*
G01*
X235326Y241367*
X232500*
X227041Y235907*
G75*
G02X227189Y234880I-3503J-1028*
G01*
G75*
G02X219889I-3650*
G01*
G75*
G02X224566Y238382I3650*
G01*
X230538Y244354*
G75*
G02X231776Y244867I1237J-1237*
G01*
X236549*
G75*
G02X243402Y243117I3203J-1750*
G01*
G75*
G02X238913Y239565I-3650*
G01*
X223820Y224370*
Y216217*
X225162*
Y219034*
G75*
G02X225675Y220271I1750*
G01*
X227524Y222121*
G75*
G02X227377Y223148I3503J1028*
G01*
G75*
G02X234677I3650*
G01*
G75*
G02X229999Y219646I-3650*
G01*
X228662Y218309*
Y216217*
X236016*
Y226685*
G75*
G02X234116Y229888I1750J3203*
G01*
G75*
G02X241416I3650*
G01*
G75*
G02X239516Y226685I-3650*
G01*
Y216217*
X249442*
Y206630*
X238820*
Y205031*
G75*
G02X238791Y198815I-1927J-3100*
G01*
X289958*
X291799Y200656*
Y205882*
X290300*
Y205040*
G75*
G02X289787Y203803I-1750*
G01*
X288051Y202066*
G75*
G02X286813Y201554I-1237J1237*
G01*
X262257*
G75*
G02X256206Y204303I-2400J2750*
G01*
G75*
G02X263428Y205054I3650*
G01*
X286089*
X286800Y205765*
Y205882*
X271019*
Y215469*
X276799*
Y216781*
X256819*
G75*
G02X249966Y218531I-3203J1750*
G01*
G75*
G02X256819Y220281I3650*
G01*
X277591*
X280830Y223606*
G75*
G02X282199Y224182I1367J-1331*
G01*
X293370*
G75*
G02X295022Y228136I3552J838*
G01*
X259439*
G75*
G02X252587Y229888I-3202J1752*
G01*
G75*
G02X259441Y231636I3650*
G01*
X315270*
G75*
G02X317020Y229886J-1750*
G01*
Y217657*
G75*
G02X316507Y216419I-1750*
G01*
X315557Y215469*
X371798Y134304D02*
X379798D01*
Y125804*
X371798*
Y128053*
X370064*
Y125552*
X362064*
Y134052*
X363565*
Y140553*
X355230Y148888*
X331475*
X347059Y133304*
X350845*
Y130804*
X352456*
Y134807*
X360456*
Y126307*
X352456*
Y127304*
X350845*
Y124804*
X342845*
Y132568*
X311174Y164239*
X310278*
G75*
G02X309039Y164751I-1J1750*
G01*
X306918Y166873*
G75*
G02X306405Y168110I1237J1237*
G01*
Y168678*
X305299*
Y162333*
X305380Y162252*
G75*
G02X310058Y158750I1028J-3502*
G01*
G75*
G02X302758I-3650*
G01*
G75*
G02X302906Y159778I3650*
G01*
X302312Y160371*
G75*
G02X301799Y161609I1237J1237*
G01*
Y168678*
X300300*
Y159221*
X310003Y149518*
X321508*
G75*
G02X322746Y149006I1J-1750*
G01*
X330965Y140786*
G75*
G02X335495Y136256I1027J-3503*
G01*
X337948Y133804*
X341235*
Y125304*
X333235*
Y133567*
X333020Y133781*
G75*
G02X331375Y133687I-1028J3503*
G01*
Y125552*
X323375*
Y134052*
X323379*
Y135957*
G75*
G02X319130Y140557I-747J3572*
G01*
X318787Y140900*
X310259*
X310747Y140412*
G75*
G02X315277Y135881I1027J-3503*
G01*
X317106Y134052*
X322141*
Y125552*
X314141*
Y132068*
X312802Y133407*
G75*
G02X310170Y133631I-1028J3502*
G01*
X310764Y133037*
G75*
G02X311276Y131800I-1238J-1237*
G01*
Y125404*
X314128Y122554*
X314141*
Y125052*
X322141*
Y122553*
X323375*
Y125052*
X331375*
Y122553*
X333235*
Y124804*
X341235*
Y116304*
X338985*
Y113672*
X344449Y108207*
X350994*
X360094Y117307*
X352456*
Y118304*
X350845*
Y115804*
X342845*
Y124304*
X350845*
Y121804*
X352456*
Y125807*
X360456*
Y117669*
X362064Y119278*
Y125052*
X370064*
Y122802*
X371798*
Y125304*
X379798*
Y116804*
X371798*
Y119302*
X370064*
Y116552*
X364287*
X352956Y105220*
G75*
G02X351718Y104707I-1237J1237*
G01*
X343725*
G75*
G02X342487Y105220I-1J1750*
G01*
X335998Y111710*
G75*
G02X335485Y112947I1237J1237*
G01*
Y116304*
X333235*
Y119053*
X331375*
Y116552*
X323375*
Y119053*
X322141*
Y116552*
X314141*
Y116557*
X307786*
Y114056*
X299786*
Y116289*
X299424*
Y113945*
X293079*
G75*
G02X293411Y113685I-906J-1497*
G01*
X293651Y113445*
X299424*
Y107606*
G75*
G02X299685Y106686I-1489J-919*
G01*
Y101509*
G75*
G02X302185Y97636I-1750J-3873*
G01*
G75*
G02X293685I-4250*
G01*
G75*
G02X296185Y101509I4250*
G01*
Y104945*
X291424*
Y110698*
X289019*
G75*
G02X282165Y112448I-3203J1750*
G01*
G75*
G02X289019Y114198I3650*
G01*
X291424*
Y122445*
X299424*
Y120104*
X299786*
Y122556*
X307786*
Y120057*
X311676*
X308289Y123441*
G75*
G02X307786Y124493I1237J1238*
G01*
Y123056*
X299786*
Y125557*
X295300*
G75*
G02X293550Y127307J1750*
G01*
Y132410*
X291668*
Y140410*
X294167*
Y141933*
X285091Y151009*
X272836*
G75*
G02X271086Y152759J1750*
G01*
Y168678*
X271019*
Y178264*
X321078*
Y168678*
X315679*
X331969Y152388*
X355954*
G75*
G02X357192Y151875I1J-1750*
G01*
X366552Y142515*
G75*
G02X367065Y141278I-1237J-1237*
G01*
Y134052*
X370064*
Y131553*
X371798*
Y134304*
X330863Y55288D02*
G75*
G02X339363I4250D01*
G01*
G75*
G02X330863I-4250*
G01*
Y95288D02*
G75*
G02X339363I4250D01*
G01*
G75*
G02X330863I-4250*
G01*
X316399Y96138D02*
G75*
G02X324899I4250D01*
G01*
G75*
G02X316399I-4250*
G01*
X304543Y96388D02*
G75*
G02X313043I4250D01*
G01*
G75*
G02X304543I-4250*
G01*
X272956Y149280D02*
X280956D01*
Y140780*
X272956*
Y142996*
X272341*
Y140654*
X264341*
Y146431*
X260735Y150037*
Y142150*
X252735*
Y145026*
X252373*
Y142526*
X245009*
Y142026*
X252373*
Y139152*
X252735*
Y141650*
X260735*
Y133150*
X252735*
Y135652*
X252373*
Y133526*
X245009*
Y129280*
X247972Y126315*
X253747*
Y123815*
X254157*
G75*
G02X261010Y122067I3203J-1750*
G01*
X265469Y126527*
Y131654*
X264341*
Y140154*
X272341*
Y137811*
X272956*
Y140280*
X280956*
Y131780*
X272956*
Y133996*
X272341*
Y131654*
X268969*
Y125802*
G75*
G02X268457Y124565I-1750*
G01*
X255720Y111826*
G75*
G02X254482Y111313I-1237J1237*
G01*
X253747*
Y108815*
X245747*
Y111033*
X238644*
Y108689*
X230644*
Y111190*
X223794*
Y108689*
X215794*
Y113187*
X208944*
Y110685*
X200944*
Y116462*
X198714Y118692*
G75*
G02X198202Y119929I1237J1237*
G01*
Y129546*
G75*
G02X198714Y130783I1750*
G01*
X201446Y133516*
Y144260*
X199196*
Y146602*
X198333*
Y144134*
X190333*
Y152634*
X198333*
Y150417*
X199196*
Y152760*
X204972*
X205472Y153260*
X199196*
Y155477*
X198333*
Y153134*
X190333*
Y161634*
X198333*
Y159292*
X199196*
Y161760*
X201446*
Y169426*
X199383*
Y179012*
X249442*
Y169426*
X243662*
Y167934*
X249973Y161624*
X253373*
G75*
G02X254611Y161112I1J-1750*
G01*
X266568Y149154*
X272341*
Y146811*
X272956*
Y149280*
X261846Y100031D02*
G75*
G02X270346I4250D01*
G01*
G75*
G02X261846I-4250*
G01*
X245996Y99781D02*
G75*
G02X254496I4250D01*
G01*
G75*
G02X245996I-4250*
G01*
X231145Y99531D02*
G75*
G02X239645I4250D01*
G01*
G75*
G02X231145I-4250*
G01*
X218165Y99781D02*
G75*
G02X226665I4250D01*
G01*
G75*
G02X218165I-4250*
G01*
X186841Y135926D02*
X194841D01*
Y127426*
X186841*
Y129925*
X183731*
Y127174*
X175873*
G75*
G02X169291Y126805I-3379J1381*
G01*
X168755*
Y124304*
X160755*
Y126256*
G75*
G02X155278Y126541I-2613J2548*
G01*
Y124556*
X147278*
Y127026*
G75*
G02X140961Y127179I-3115J1903*
G01*
X140676*
Y124678*
X132676*
Y126642*
G75*
G02X127196Y126643I-2740J2412*
G01*
Y124804*
X120922*
X121422Y124304*
X127196*
Y121837*
X132676*
Y124178*
X140676*
Y121712*
X147278*
Y124056*
X155278*
Y121305*
X160755*
Y123804*
X166548*
G75*
G02X167628Y124175I1078J-1378*
G01*
X175731*
Y126674*
X183731*
Y124175*
X186841*
Y126926*
X194841*
Y118426*
X186841*
Y120675*
X183731*
Y118174*
X175731*
Y120675*
X168755*
Y115304*
X160755*
Y117805*
X155278*
Y115556*
X147278*
Y117897*
X140676*
Y115678*
X132676*
Y118022*
X127196*
Y115804*
X119196*
Y121580*
X117466Y123309*
G75*
G02X116954Y124547I1237J1237*
G01*
Y138033*
G75*
G02X117468Y139272I1750J0*
G01*
X124827Y146630*
X122692*
Y149130*
X121706*
Y146878*
X113706*
Y155378*
X121706*
Y152630*
X122692*
Y155130*
X128467*
X128967Y155630*
X122692*
Y158130*
X121706*
Y155878*
X113706*
Y164378*
X121706*
Y161630*
X122692*
Y164130*
X128467*
X131645Y167309*
Y167678*
X130865*
Y177264*
X180924*
Y167988*
X181604*
G75*
G02X182842Y167476I1J-1750*
G01*
X186461Y163856*
G75*
G02X186974Y162619I-1237J-1237*
G01*
Y136917*
G75*
G02X186461Y135679I-1750*
G01*
X184207Y133425*
X186841*
Y135926*
X162365Y105772D02*
G75*
G02X170865I4250D01*
G01*
G75*
G02X162365I-4250*
G01*
X317019Y58348D02*
G75*
G02X324899Y56138I3630J-2210D01*
G01*
G75*
G02X317019Y53928I-4250*
G01*
Y22198*
G75*
G02X316506Y20961I-1750*
G01*
X313522Y17977*
X320889*
Y8981*
X311893*
Y16347*
X310717Y15172*
G75*
G02X306550Y8981I-4167J-1693*
G01*
G75*
G02Y17977J4498*
G01*
G75*
G02X308242Y17646I0J-4498*
G01*
X313519Y22923*
Y61927*
X300317Y75129*
X164358*
X157827Y68598*
G75*
G02X158263Y66723I-3814J-1876*
G01*
G75*
G02X149763I-4250*
G01*
G75*
G02X155108Y70830I4250*
G01*
X162396Y78117*
G75*
G02X163634Y78629I1237J-1237*
G01*
X301041*
G75*
G02X302279Y78117I1J-1750*
G01*
X316506Y63889*
G75*
G02X317019Y62652I-1237J-1237*
G01*
Y58348*
X342143Y40814D02*
G75*
G02X348996Y39064I3203J-1750D01*
G01*
G75*
G02X342143Y37314I-3650*
G01*
X325711*
G75*
G02X318857Y39064I-3203J1750*
G01*
G75*
G02X325711Y40814I3650*
G01*
X342143*
X304543Y56388D02*
G75*
G02X313043I4250D01*
G01*
G75*
G02X304543I-4250*
G01*
X231145Y59531D02*
G75*
G02X239645I4250D01*
G01*
G75*
G02X237145Y55659I-4250*
G01*
Y43557*
G75*
G02X236632Y42319I-1750*
G01*
X217806Y23493*
G75*
G02X217953Y22465I-3503J-1028*
G01*
G75*
G02X210653I-3650*
G01*
G75*
G02X215331Y25967I3650*
G01*
X233645Y44281*
Y55659*
G75*
G02X231145Y59531I1750J3873*
G01*
X218165Y59781D02*
G75*
G02X226665I4250D01*
G01*
G75*
G02X218165I-4250*
G01*
X287940Y17847D02*
G75*
G02X286865Y8981I-1075J-4368D01*
G01*
G75*
G02X284440Y17268J4498*
G01*
Y21740*
X250631Y55548*
G75*
G02X245996Y59781I-385J4233*
G01*
G75*
G02X254496I4250*
G01*
G75*
G02X253752Y57378I-4250J0*
G01*
X287427Y23702*
G75*
G02X287940Y22465I-1237J-1237*
G01*
Y17847*
X262681Y13479D02*
G75*
G02X271678I4498D01*
G01*
G75*
G02X262681I-4498*
G01*
X272524D02*
G75*
G02X281520I4498D01*
G01*
G75*
G02X272524I-4498*
G01*
X297174Y17953D02*
G75*
G02X296707Y8981I-467J-4474D01*
G01*
G75*
G02X293674Y16801J4498*
G01*
Y28979*
X266813Y55842*
G75*
G02X261846Y60031I-717J4189*
G01*
G75*
G02X270346I4250*
G01*
G75*
G02X269748Y57856I-4250*
G01*
X296661Y30941*
G75*
G02X297174Y29704I-1237J-1237*
G01*
Y17953*
X293685Y57636D02*
G75*
G02X302185I4250D01*
G01*
G75*
G02X293685I-4250*
G01*
X162365Y65772D02*
G75*
G02X170865I4250D01*
G01*
G75*
G02X162365I-4250*
G01*
X149763Y106723D02*
G75*
G02X158263I4250D01*
G01*
G75*
G02X149763I-4250*
G01*
X133674Y107121D02*
G75*
G02X142174I4250D01*
G01*
G75*
G02X133674I-4250*
G01*
X117079Y105826D02*
G75*
G02X125579I4250D01*
G01*
G75*
G02X117079I-4250*
G01*
X126058Y274256D02*
X133219D01*
Y267095*
X126058*
Y274256*
X144757Y345331D02*
G75*
G02X152057I3650D01*
G01*
G75*
G02X147380Y341828I-3650*
G01*
X133688Y328137*
G75*
G02X133836Y327109I-3503J-1028*
G01*
G75*
G02X126536I-3650*
G01*
G75*
G02X131213Y330612I3650*
G01*
X144905Y344303*
G75*
G02X144757Y345331I3503J1028*
G01*
X395013Y271229D02*
G75*
G02X404009I4498D01*
G01*
G75*
G02X397120Y267419I-4498*
G01*
X324443*
G75*
G02X317671Y269169I-3160J1750*
G01*
G75*
G02X324443Y270919I3612*
G01*
X395024*
G75*
G02X395013Y271229I4489J309*
G01*
Y281229D02*
G75*
G02X404009I4498D01*
G01*
G75*
G02X397120Y277419I-4498*
G01*
X324443*
G75*
G02X317671Y279169I-3160J1750*
G01*
G75*
G02X324443Y280919I3612*
G01*
X395024*
G75*
G02X395013Y281229I4489J309*
G01*
X369011Y380465D02*
G75*
G02X374831Y377530I2170J-2935D01*
G01*
G75*
G02X367575Y376965I-3650*
G01*
X352778*
Y376481*
X351802*
Y363552*
G75*
G02X351289Y362315I-1750*
G01*
X347221Y358247*
Y350748*
X352278*
Y350264*
X357549*
G75*
G02X361696Y355446I4146J933*
G01*
G75*
G02Y346946J-4250*
G01*
G75*
G02X360193Y347221I0J4251*
G01*
G75*
G02X359012Y346764I-1180J1293*
G01*
X352278*
Y346280*
X348394*
X349044Y345630*
X352278*
Y341162*
X351302*
Y317439*
G75*
G02X350790Y316201I-1750*
G01*
X324755Y290166*
G75*
G02X321283Y285557I-3472J-997*
G01*
G75*
G02Y292781J3612*
G01*
G75*
G02X322280Y292641I0J-3612*
G01*
X347802Y318163*
Y341162*
X346826*
Y342899*
X344234Y345491*
G75*
G02X343721Y346728I1237J1237*
G01*
Y358972*
G75*
G02X344234Y360209I1750*
G01*
X348302Y364277*
Y376481*
X347326*
Y378966*
X344271Y382020*
G75*
G02X344117Y382197I1237J1238*
G01*
Y379040*
X343385*
Y372342*
G75*
G02X341478Y364294I-1907J-3798*
G01*
G75*
G02X339570Y372342J4250*
G01*
Y379040*
X338664*
Y383508*
X343759*
Y395664*
G75*
G02X344271Y396901I1750*
G01*
X346966Y399596*
Y411674*
X346326*
Y414162*
X343485Y417003*
G75*
G02X343117Y417544I1237J1237*
G01*
Y414233*
X341480*
Y407611*
G75*
G02X339730Y399489I-1750J-3873*
G01*
G75*
G02X337980Y407611J4250*
G01*
Y414233*
X337664*
Y418701*
X342972*
Y423232*
X339255Y426949*
X304945*
G75*
G02X303707Y427462I-1J1750*
G01*
X303101Y428067*
G75*
G02X298424Y431570I-1028J3502*
G01*
G75*
G02X305724I3650*
G01*
G75*
G02X305576Y430542I-3650*
G01*
X305669Y430449*
X339979*
G75*
G02X341217Y429937I1J-1750*
G01*
X345960Y425194*
G75*
G02X346472Y423957I-1237J-1237*
G01*
Y421260*
X347303*
Y425417*
G75*
G02X347816Y426654I1750*
G01*
X353451Y432289*
G75*
G02X353303Y433317I3503J1028*
G01*
G75*
G02X360603I3650*
G01*
G75*
G02X355926Y429815I-3650*
G01*
X350803Y424692*
Y421260*
X351778*
Y420778*
X357581*
G75*
G02X365946Y419713I4115J-1064*
G01*
G75*
G02X358213Y417278I-4250*
G01*
X351778*
Y416792*
X348646*
X349295Y416142*
X351778*
Y411674*
X350466*
Y398871*
G75*
G02X349954Y397634I-1750*
G01*
X347259Y394939*
Y383983*
X347326Y383916*
Y386067*
X348302*
Y388226*
G75*
G02X348814Y389463I1750*
G01*
X350081Y390730*
G75*
G02X349933Y391757I3503J1028*
G01*
G75*
G02X357233I3650*
G01*
G75*
G02X352556Y388255I-3650*
G01*
X351802Y387501*
Y386067*
X352778*
Y385583*
X358126*
G75*
G02X366570Y384893I4194J-690*
G01*
G75*
G02X359131Y382083I-4250*
G01*
X352778*
Y381599*
X349643*
X350292Y380949*
X352778*
Y380465*
X369011*
X317671Y299169D02*
G75*
G02X324895I3612D01*
G01*
G75*
G02X317671I-3612*
G01*
X287671D02*
G75*
G02X294895I3612D01*
G01*
G75*
G02X287671I-3612*
G01*
X252274Y310043D02*
G75*
G02X259498I3612D01*
G01*
G75*
G02X254889Y306571I-3612*
G01*
X239521Y291203*
G75*
G02X239669Y290176I-3503J-1028*
G01*
G75*
G02X232369I-3650*
G01*
G75*
G02X237046Y293678I3650*
G01*
X252414Y309046*
G75*
G02X252274Y310043I3472J996*
G01*
Y290043D02*
G75*
G02X259498I3612D01*
G01*
G75*
G02X252274I-3612*
G01*
Y300043D02*
G75*
G02X259498I3612D01*
G01*
G75*
G02X252274I-3612*
G01*
X288123Y290920D02*
G75*
G02X294895Y289169I3160J-1750D01*
G01*
G75*
G02X288123Y287420I-3612*
G01*
X266696*
X262591Y283314*
G75*
G02X261353Y282802I-1237J1237*
G01*
X258218*
G75*
G02X255886Y276431I-2332J-2759*
G01*
G75*
G02X253554Y282802J3612*
G01*
X238409*
G75*
G02X239669Y280043I-2390J-2759*
G01*
G75*
G02X232816Y278293I-3650*
G01*
X229046*
G75*
G02X227636Y276883I-3160J1750*
G01*
Y273203*
G75*
G02X225886Y266431I-1750J-3160*
G01*
G75*
G02X224136Y273203J3612*
G01*
Y276883*
G75*
G02X222736Y278276I1750J3160*
G01*
X198580*
G75*
G02X197229Y278835I-2J1907*
G01*
X188292Y287773*
G75*
G02X187733Y289122I1349J1349*
G01*
Y298643*
G75*
G02X186059Y301674I1906J3031*
G01*
G75*
G02X193220I3581*
G01*
G75*
G02X191548Y298644I-3581*
G01*
Y289912*
X199368Y282091*
X222911*
G75*
G02X229046Y281793I2976J-2048*
G01*
X232816*
G75*
G02X233629Y282802I3203J-1750*
G01*
X231378*
G75*
G02X230140Y283314I-1J1750*
G01*
X226883Y286571*
G75*
G02X222274Y290043I-997J3472*
G01*
G75*
G02X229498I3612*
G01*
G75*
G02X229358Y289046I-3612J0*
G01*
X232102Y286302*
X260629*
X264734Y290407*
G75*
G02X265972Y290920I1237J-1237*
G01*
X288123*
X252726Y271793D02*
G75*
G02X259498Y270043I3160J-1750D01*
G01*
G75*
G02X252726Y268293I-3612*
G01*
X247820*
X244264Y264737*
G75*
G02X244411Y263709I-3503J-1028*
G01*
G75*
G02X237111I-3650*
G01*
G75*
G02X241789Y267212I3650*
G01*
X245857Y271280*
G75*
G02X247096Y271793I1237J-1237*
G01*
X252726*
X222274Y260043D02*
G75*
G02X229498I3612D01*
G01*
G75*
G02X222274I-3612*
G01*
Y300043D02*
G75*
G02X229498I3612D01*
G01*
G75*
G02X222274I-3612*
G01*
X186059Y270674D02*
G75*
G02X193220I3581D01*
G01*
G75*
G02X186059I-3581*
G01*
X136059D02*
G75*
G02X143220I3581D01*
G01*
G75*
G02X136059I-3581*
G01*
Y301674D02*
G75*
G02X143220I3581D01*
G01*
G75*
G02X136059I-3581*
G01*
X146059Y270674D02*
G75*
G02X153220I3581D01*
G01*
G75*
G02X146059I-3581*
G01*
Y301674D02*
G75*
G02X153220I3581D01*
G01*
G75*
G02X146059I-3581*
G01*
X156059Y270674D02*
G75*
G02X163220I3581D01*
G01*
G75*
G02X156059I-3581*
G01*
Y301674D02*
G75*
G02X163220I3581D01*
G01*
G75*
G02X156059I-3581*
G01*
X171715Y327609D02*
G75*
G02X179015I3650D01*
G01*
G75*
G02X174337Y324106I-3650*
G01*
X166881Y316650*
Y303957*
G75*
G02X173220Y301674I2759J-2283*
G01*
G75*
G02X166881Y299391I-3581*
G01*
Y287380*
G75*
G02X168781Y284177I-1750J-3203*
G01*
G75*
G02X161481I-3650*
G01*
G75*
G02X163381Y287380I3650*
G01*
Y317375*
G75*
G02X163893Y318612I1750*
G01*
X171862Y326581*
G75*
G02X171715Y327609I3503J1028*
G01*
X176059Y270674D02*
G75*
G02X183220I3581D01*
G01*
G75*
G02X176059I-3581*
G01*
X166059D02*
G75*
G02X173220I3581D01*
G01*
G75*
G02X166059I-3581*
G01*
X64095Y360057D02*
G75*
G02X72595I4250D01*
G01*
G75*
G02X64095I-4250*
G01*
X104095D02*
G75*
G02X112595I4250D01*
G01*
G75*
G02X104095I-4250*
G01*
X37826Y453785D02*
G75*
G02X48003I5089D01*
G01*
G75*
G02X44665Y449006I-5089*
G01*
Y442677*
G75*
G02X42915Y440927I-1750*
G01*
X40081*
Y434773*
G75*
G02X41981Y431570I-1750J-3203*
G01*
G75*
G02X34681I-3650*
G01*
G75*
G02X36581Y434773I3650*
G01*
Y442677*
G75*
G02X38331Y444427I1750*
G01*
X41165*
Y449006*
G75*
G02X37826Y453785I1750J4778*
G01*
X72050Y389815D02*
G75*
G02X76551Y386266I852J-3549D01*
G01*
G75*
G02X69251I-3650*
G01*
G75*
G02X69352Y387118I3650J0*
G01*
X49931Y406538*
G75*
G02X44439Y410603I-1242J4065*
G01*
G75*
G02X52939I4250*
G01*
G75*
G02X52692Y409173I-4250*
G01*
X72050Y389815*
X57511Y453785D02*
G75*
G02X67688I5089D01*
G01*
G75*
G02X57511I-5089*
G01*
X98620Y444924D02*
G75*
G02X107616I4498D01*
G01*
G75*
G02X101426Y440756I-4498*
G01*
X72405Y411735*
Y410811*
G75*
G02X74305Y407607I-1750J-3203*
G01*
G75*
G02X67005I-3650*
G01*
G75*
G02X68905Y410811I3650*
G01*
Y412460*
G75*
G02X69417Y413698I1750*
G01*
X98951Y443231*
G75*
G02X98620Y444924I4167J1693*
G01*
X108620D02*
G75*
G02X117616I4498D01*
G01*
G75*
G02X111426Y440756I-4498*
G01*
X79019Y408350*
Y405319*
G75*
G02X80919Y402116I-1750J-3203*
G01*
G75*
G02X73619I-3650*
G01*
G75*
G02X75519Y405319I3650*
G01*
Y409075*
G75*
G02X76032Y410312I1750*
G01*
X108951Y443231*
G75*
G02X108620Y444924I4167J1693*
G01*
X118620D02*
G75*
G02X127616I4498D01*
G01*
G75*
G02X121426Y440756I-4498*
G01*
X86018Y405348*
Y398773*
G75*
G02X87918Y395570I-1750J-3203*
G01*
G75*
G02X80618I-3650*
G01*
G75*
G02X82518Y398773I3650*
G01*
Y406073*
G75*
G02X83030Y407311I1750*
G01*
X118951Y443231*
G75*
G02X118620Y444924I4167J1693*
G01*
X128620D02*
G75*
G02X137616I4498D01*
G01*
G75*
G02X131426Y440756I-4498*
G01*
X96018Y405348*
Y396295*
X98240Y394072*
G75*
G02X102918Y390570I1028J-3502*
G01*
G75*
G02X95618I-3650*
G01*
G75*
G02X95765Y391598I3650*
G01*
X93030Y394333*
G75*
G02X92518Y395570I1237J1237*
G01*
Y406073*
G75*
G02X93030Y407311I1750*
G01*
X128951Y443231*
G75*
G02X128620Y444924I4167J1693*
G01*
X77196Y453785D02*
G75*
G02X87373I5089D01*
G01*
G75*
G02X77196I-5089*
G01*
X148620Y444924D02*
G75*
G02X157616I4498D01*
G01*
G75*
G02X148620I-4498*
G01*
X158620D02*
G75*
G02X167616I4498D01*
G01*
G75*
G02X158620I-4498*
G01*
X168621Y449422D02*
X177617D01*
Y440426*
X168621*
Y449422*
X294003Y373855D02*
X302503D01*
Y365855*
X294003*
Y373855*
Y393855D02*
X302503D01*
Y385855*
X294003*
Y393855*
X381480Y372794D02*
G75*
G02X383228Y364671I-3J-4250D01*
G01*
Y336875*
G75*
G02X380854Y329100I-2374J-3525*
G01*
G75*
G02X379728Y337448J4250*
G01*
Y364671*
G75*
G02X377980Y370959I1750J3873*
G01*
Y399866*
G75*
G02X379730Y407989I1750J3873*
G01*
G75*
G02X381480Y399866J-4250*
G01*
Y372794*
X395013Y291229D02*
G75*
G02X404009I4498D01*
G01*
G75*
G02X395013I-4498*
G01*
Y301229D02*
G75*
G02X404009I4498D01*
G01*
G75*
G02X395013I-4498*
G01*
Y311229D02*
G75*
G02X404009I4498D01*
G01*
G75*
G02X395013I-4498*
G01*
Y321229D02*
G75*
G02X404009I4498D01*
G01*
G75*
G02X395013I-4498*
G01*
X320889Y13230D02*
G36*
Y8981D01*
X311893*
Y13230*
X311041*
G75*
G02X306550Y8981I-4491J250*
G01*
G75*
G02X302059Y13230J4498*
G01*
X301198*
G75*
G02X296707Y8981I-4491J250*
G01*
G75*
G02X292216Y13230I0J4498*
G01*
X291356*
G75*
G02X286865Y8981I-4491J250*
G01*
G75*
G02X282374Y13230J4498*
G01*
X281513*
G75*
G02X272531I-4491J250*
G01*
X271670*
G75*
G02X262689I-4491J250*
G01*
X261828*
G75*
G02X255644Y9312I-4491J249*
G01*
X253457Y7125*
G75*
G02X252219Y6612I-1237J1237*
G01*
X218672*
G75*
G02X217434Y7125I-1J1750*
G01*
X211933Y12625*
G75*
G02X212461Y10733I-3121J-1891*
G01*
G75*
G02X205700Y8826I-3650*
G01*
X188880*
G75*
G02X182198Y10858I-3032J2032*
G01*
G75*
G02X182575Y12474I3650*
G01*
X176228Y6126*
G75*
G02X174989Y5614I-1237J1237*
G01*
X143841*
G75*
G02X142603Y6126I-1J1750*
G01*
X139922Y8807*
G75*
G02X139098Y8731I-821J4397*
G01*
G75*
G02X134600Y13230J4498*
G01*
X133753*
G75*
G02X124757I-4498*
G01*
X123911*
G75*
G02X114915I-4498*
G01*
X114068*
G75*
G02X105072I-4498*
G01*
X104226*
G75*
G02X95230I-4498*
G01*
X94383*
G75*
G02X85387I-4498*
G01*
X84541*
G75*
G02X75544I-4498*
G01*
X5013*
Y5246*
X405249*
Y13230*
X320889*
G37*
X144442D02*
G36*
X143596D01*
G75*
G02X142881Y10797I-4498J0*
G01*
X144565Y9114*
X147126*
G75*
G02X144442Y13230I1815J4116*
G01*
G37*
X154285D02*
G36*
X153438D01*
G75*
G02X150755Y9114I-4498*
G01*
X156968*
G75*
G02X154285Y13230I1815J4116*
G01*
G37*
X164129D02*
G36*
X163281D01*
G75*
G02X160597Y9114I-4498*
G01*
X164129*
Y13230*
G37*
X178381D02*
G36*
X173125D01*
Y9114*
X174265*
X178381Y13230*
G37*
X206149D02*
G36*
X188623D01*
G75*
G02X189033Y12641I-2775J-2371*
G01*
X205700*
G75*
G02X206149Y13230I3112J-1907*
G01*
G37*
X223318D02*
G36*
X216279D01*
X219396Y10112*
X224827*
G75*
G02X223318Y13230I2983J3367*
G01*
G37*
X233161D02*
G36*
X232301D01*
G75*
G02X230792Y10112I-4491J250*
G01*
X234669*
G75*
G02X233161Y13230I2983J3367*
G01*
G37*
X243003D02*
G36*
X242143D01*
G75*
G02X240635Y10112I-4491J250*
G01*
X244512*
G75*
G02X243003Y13230I2983J3367*
G01*
G37*
X252846D02*
G36*
X251986D01*
G75*
G02X250477Y10112I-4491J250*
G01*
X251495*
X253170Y11787*
G75*
G02X252846Y13230I4167J1693*
G01*
G37*
X105072D02*
G36*
G75*
G02X105403Y14922I4498J0D01*
G01*
X78578Y41747*
X5013*
Y13230*
X75544*
G75*
G02X84541I4498*
G01*
X85387*
G75*
G02X94383I4498*
G01*
X95230*
G75*
G02X104226I4498*
G01*
X105072*
G37*
X206149D02*
G36*
G75*
G02X210704Y13855I2663J-2496D01*
G01*
X187245Y37314*
X111591*
G75*
G02X110353Y37826I-1J1750*
G01*
X106432Y41747*
X83528*
X107878Y17397*
G75*
G02X114068Y13230I1693J-4168*
G01*
X114915*
G75*
G02X123911I4498*
G01*
X124757*
G75*
G02X133753I4498*
G01*
X134600*
G75*
G02X139098Y17728I4498*
G01*
G75*
G02X143596Y13230J-4498*
G01*
X144442*
G75*
G02X148940Y17728I4498*
G01*
G75*
G02X153438Y13230J-4498*
G01*
X154285*
G75*
G02X155393Y16187I4498*
G01*
Y23487*
X150558Y28323*
G75*
G02X145880Y31825I-1028J3502*
G01*
G75*
G02X153180I3650*
G01*
G75*
G02Y31824I-3222J0*
G01*
G75*
G02X153033Y30798I-3644*
G01*
X158381Y25450*
G75*
G02X158893Y24213I-1235J-1237*
G01*
G75*
G02Y24212I-2051J0*
G01*
Y17726*
G75*
G02X163281Y13230I-111J-4497*
G01*
X164129*
Y17729*
X173125*
Y13230*
X178381*
X188563Y23411*
G75*
G02X195738Y22465I3525J-947*
G01*
G75*
G02X189757Y19656I-3650*
G01*
X184233Y14131*
G75*
G02X188623Y13230I1616J-3272*
G01*
X206149*
G37*
X116938Y41747D02*
G36*
X111382D01*
X112315Y40814*
X118919*
G75*
G02X116938Y41747I493J3617*
G01*
G37*
X137057D02*
G36*
X121887D01*
G75*
G02X119906Y40814I-2474J2684*
G01*
X137752*
G75*
G02X137057Y41747I2543J2618*
G01*
G37*
X146606D02*
G36*
X143533D01*
G75*
G02X142838Y40814I-3238J1685*
G01*
X147631*
G75*
G02X146606Y41747I1900J3117*
G01*
G37*
X282374Y13230D02*
G36*
G75*
G02X282367Y13479I4491J252D01*
G01*
G75*
G02X284440Y17268I4498*
G01*
Y21740*
X264433Y41747*
X236060*
X217806Y23493*
G75*
G02X217953Y22466I-3496J-1027*
G01*
G75*
G02Y22465I-3222J0*
G01*
G75*
G02X210653I-3650*
G01*
G75*
G02X215331Y25967I3650*
G01*
X231110Y41747*
X152455*
G75*
G02X151429Y40814I-2924J2184*
G01*
X187969*
G75*
G02X189207Y40301I1J-1750*
G01*
X216279Y13230*
X223318*
G75*
G02X223311Y13479I4491J245*
G01*
G75*
G02X227809Y17977I4498*
G01*
G75*
G02X232307Y13479J-4498*
G01*
G75*
G02X232301Y13230I-4498J-4*
G01*
X233161*
G75*
G02X233154Y13479I4491J245*
G01*
G75*
G02X237652Y17977I4498*
G01*
G75*
G02X242150Y13479J-4498*
G01*
G75*
G02X242143Y13230I-4498J-4*
G01*
X243003*
G75*
G02X242996Y13479I4491J245*
G01*
G75*
G02X247494Y17977I4498*
G01*
G75*
G02X251993Y13479J-4498*
G01*
G75*
G02X251986Y13230I-4498J-4*
G01*
X252846*
G75*
G02X252839Y13479I4491J252*
G01*
G75*
G02X261835I4498*
G01*
Y13479*
G75*
G02X261828Y13230I-4497J3*
G01*
X262689*
G75*
G02X262681Y13479I4491J252*
G01*
G75*
G02X271678I4498*
G01*
G75*
G02X271670Y13230I-4498J3*
G01*
X272531*
G75*
G02X272524Y13479I4491J252*
G01*
G75*
G02X281520I4498*
G01*
G75*
G02X281513Y13230I-4498J3*
G01*
X282374*
G37*
X292216D02*
G36*
G75*
G02X292209Y13479I4493J245D01*
G01*
G75*
G02X293674Y16801I4498*
G01*
Y28979*
X280907Y41747*
X269383*
X287427Y23702*
G75*
G02X287940Y22466I-1235J-1237*
G01*
G75*
G02Y22465I-2051J0*
G01*
Y17847*
G75*
G02X291363Y13479I-1075J-4368*
G01*
G75*
G02X291356Y13230I-4498J3*
G01*
X292216*
G37*
X313519Y41747D02*
G36*
X285856D01*
X296661Y30941*
G75*
G02X297174Y29704I-1235J-1237*
G01*
Y17953*
G75*
G02X301205Y13479I-467J-4474*
G01*
G75*
G02X301198Y13230I-4500J-4*
G01*
X302059*
G75*
G02X302052Y13479I4491J252*
G01*
G75*
G02X306550Y17977I4498*
G01*
G75*
G02X308242Y17646I0J-4498*
G01*
X313519Y22923*
Y41747*
G37*
X311893Y13230D02*
G36*
Y16347D01*
X310717Y15172*
G75*
G02X311047Y13479I-4168J-1692*
G01*
G75*
G02X311041Y13230I-4497J-4*
G01*
X311893*
G37*
X347821Y41747D02*
G36*
G75*
G02X348996Y39064I-2475J-2683D01*
G01*
G75*
G02X342143Y37314I-3650*
G01*
X325711*
G75*
G02X318857Y39064I-3203J1750*
G01*
G75*
G02X320033Y41747I3650*
G01*
X317019*
Y22198*
G75*
G02X316506Y20961I-1748J-1*
G01*
X313522Y17977*
X320889*
Y13230*
X405249*
Y41747*
X347821*
G37*
X342872D02*
G36*
X324982D01*
G75*
G02X325711Y40814I-2475J-2683*
G01*
X342143*
G75*
G02X342872Y41747I3203J-1750*
G01*
G37*
X78578D02*
G36*
X65037Y55288D01*
X5013*
Y41747*
X78578*
G37*
X106432D02*
G36*
X92891Y55288D01*
X69986*
X83528Y41747*
X106432*
G37*
X116938D02*
G36*
G75*
G02X115763Y44430I2474J2683D01*
G01*
G75*
G02X117663Y47633I3650*
G01*
Y53605*
X115980Y55288*
X97841*
X111382Y41747*
X116938*
G37*
X146606D02*
G36*
G75*
G02X145880Y43931I2925J2185D01*
G01*
G75*
G02X146028Y44959I3651J0*
G01*
X136686Y54300*
G75*
G02X136191Y55288I1235J1237*
G01*
X130913*
X139267Y46934*
G75*
G02X143945Y43432I1028J-3502*
G01*
G75*
G02X143533Y41747I-3650*
G01*
X146606*
G37*
X137057D02*
G36*
G75*
G02X136645Y43432I3238J1685D01*
G01*
G75*
G02X136793Y44459I3650*
G01*
X125964Y55288*
X120994*
G75*
G02X121163Y54540I-1581J-748*
G01*
Y54539*
Y47633*
G75*
G02X123063Y44430I-1750J-3203*
G01*
G75*
G02X121887Y41747I-3650J0*
G01*
X137057*
G37*
X233645Y55288D02*
G36*
X204992D01*
G75*
G02X201649I-1672J3245*
G01*
X140648*
X148503Y47433*
G75*
G02X153180Y43931I1028J-3502*
G01*
G75*
G02X152455Y41747I-3650*
G01*
X231110*
X233645Y44281*
Y55288*
G37*
X313519D02*
G36*
X312898D01*
G75*
G02X304688I-4105J1100*
G01*
X301478*
G75*
G02X294392I-3543J2348*
G01*
X272316*
X285856Y41747*
X313519*
Y55288*
G37*
X264433Y41747D02*
G36*
X250892Y55288D01*
X237145*
Y43557*
G75*
G02Y43556I-2051J0*
G01*
G75*
G02X236632Y42319I-1748*
G01*
X236060Y41747*
X264433*
G37*
X280907D02*
G36*
X267367Y55288D01*
X255842*
X269383Y41747*
X280907*
G37*
X324813Y55288D02*
G36*
G75*
G02X317019Y53928I-4164J850D01*
G01*
Y41747*
X320033*
G75*
G02X324982I2475J-2683*
G01*
X342872*
G75*
G02X347821I2475J-2683*
G01*
X405249*
Y55288*
X339363*
G75*
G02X330863I-4250*
G01*
X324813*
G37*
X65037D02*
G36*
X64041Y56284D01*
X44447*
G75*
G02X43209Y56796I-1J1750*
G01*
X41336Y58669*
G75*
G02X40828Y59781I1235J1237*
G01*
X5013*
Y55288*
X65037*
G37*
X92891D02*
G36*
X88435Y59744D01*
G75*
G02X88399Y59781I1236J1232*
G01*
X64864*
G75*
G02X66003Y59271I-98J-1747*
G01*
X69986Y55288*
X92891*
G37*
X115980D02*
G36*
X111487Y59781D01*
X93348*
X97841Y55288*
X115980*
G37*
X125964D02*
G36*
X121471Y59781D01*
X116437*
X120047Y56170*
G75*
G02X120994Y55288I-635J-1631*
G01*
X125964*
G37*
X144161Y59781D02*
G36*
X139674D01*
Y56263*
X140648Y55288*
X201649*
G75*
G02X200117Y56783I1672J3244*
G01*
X145911*
G75*
G02X144161Y58533J1750*
G01*
Y59781*
G37*
X136191Y55288D02*
G36*
G75*
G02X136174Y55537I1730J248D01*
G01*
G75*
G02Y55538I2051J0*
G01*
Y59781*
X126420*
X130913Y55288*
X136191*
G37*
X294266Y59781D02*
G36*
X270339D01*
G75*
G02X269748Y57856I-4243J250*
G01*
X272316Y55288*
X294392*
G75*
G02X293685Y57636I3543J2347*
G01*
G75*
G02X294266Y59781I4250*
G01*
G37*
X231152D02*
G36*
X226665D01*
G75*
G02X218165I-4250*
G01*
X206750*
G75*
G02X206970Y58533I-3430J-1248*
G01*
G75*
G02X204992Y55288I-3650*
G01*
X233645*
Y55659*
G75*
G02X231145Y59531I1749J3872*
G01*
Y59531*
G75*
G02X231152Y59781I4251J-2*
G01*
G37*
X250892Y55288D02*
G36*
X250631Y55548D01*
G75*
G02X245996Y59781I-385J4233*
G01*
X239637*
G75*
G02X239645Y59531I-4244J-252*
G01*
Y59531*
G75*
G02X237145Y55659I-4249*
G01*
Y55288*
X250892*
G37*
X267367D02*
G36*
X266813Y55842D01*
G75*
G02X261854Y59781I-716J4189*
G01*
X254496*
G75*
G02Y59780I-3759J0*
G01*
G75*
G02X253752Y57378I-4247*
G01*
X255842Y55288*
X267367*
G37*
X304688D02*
G36*
G75*
G02X304543Y56388I4106J1100D01*
G01*
G75*
G02X306234Y59781I4250*
G01*
X301604*
G75*
G02X302185Y57636I-3669J-2145*
G01*
G75*
G02X301478Y55288I-4250J0*
G01*
X304688*
G37*
X313519D02*
G36*
Y59781D01*
X311352*
G75*
G02X313043Y56388I-2559J-3393*
G01*
G75*
G02X312898Y55288I-4250J1*
G01*
X313519*
G37*
X318460Y59781D02*
G36*
X317019D01*
Y58348*
G75*
G02X318460Y59781I3630J-2210*
G01*
G37*
X324813Y55288D02*
G36*
X330863D01*
G75*
G02X339363I4250*
G01*
X405249*
Y59781*
X322838*
G75*
G02X324899Y56138I-2189J-3643*
G01*
G75*
G02X324813Y55288I-4250*
G01*
G37*
X40828Y59781D02*
G36*
G75*
G02X40824Y59905I1743J123D01*
G01*
G75*
G02Y59906I2051J0*
G01*
Y65772*
X5013*
Y59781*
X40828*
G37*
X88399D02*
G36*
G75*
G02X87922Y60981I1271J1200D01*
G01*
G75*
G02Y60982I2051J0*
G01*
Y65772*
X61126*
G75*
G02X58219I-1454J3994*
G01*
X44324*
Y60631*
X45171Y59784*
X64765*
G75*
G02X64864Y59781I1J-1749*
G01*
X88399*
G37*
X111487D02*
G36*
X108356Y62912D01*
G75*
G02X107843Y64148I1235J1237*
G01*
G75*
G02Y64149I2051J0*
G01*
Y65772*
X91422*
Y61707*
X93348Y59781*
X111487*
G37*
X121471D02*
G36*
X120091Y61161D01*
G75*
G02X119644Y61924I1241J1240*
G01*
G75*
G02X117079Y65772I1685J3902*
G01*
X111343*
Y64874*
X116437Y59781*
X121471*
G37*
X144161D02*
G36*
Y65772D01*
X141954*
G75*
G02X139674Y63248I-4030J1349*
G01*
Y59781*
X144161*
G37*
X133893Y65772D02*
G36*
X125578D01*
G75*
G02X123820Y62382I-4251J54*
G01*
X126420Y59781*
X136174*
Y63248*
G75*
G02X133893Y65772I1749J3873*
G01*
G37*
X313519Y59781D02*
G36*
Y61927D01*
X309674Y65772*
X170865*
G75*
G02X162365I-4250*
G01*
X158156*
G75*
G02X149871I-4142J951*
G01*
X147661*
Y60283*
X200117*
G75*
G02X206750Y59781I3203J-1750*
G01*
X218165*
G75*
G02X226665I4250*
G01*
X231152*
G75*
G02X239637I4243J-250*
G01*
X245996*
G75*
G02X254496I4250*
G01*
X261854*
G75*
G02X261846Y60031I4244J252*
G01*
G75*
G02X270346I4250*
G01*
G75*
G02X270339Y59781I-4251J2*
G01*
X294266*
G75*
G02X301604I3669J-2145*
G01*
X306234*
G75*
G02X311352I2559J-3394*
G01*
X313519*
G37*
X317019D02*
G36*
X318460D01*
G75*
G02X322838I2189J-3643*
G01*
X405249*
Y65772*
X314624*
X316506Y63889*
G75*
G02X317019Y62652I-1235J-1237*
G01*
Y59781*
G37*
X38341Y70514D02*
G36*
X5013D01*
Y65772*
X40824*
Y67016*
G75*
G02X38341Y70514I1750J3873*
G01*
G37*
X55489D02*
G36*
X46807D01*
G75*
G02X44324Y67015I-4234J375*
G01*
Y65772*
X58219*
G75*
G02X55422Y69765I1454J3994*
G01*
G75*
G02X55489Y70514I4250J0*
G01*
G37*
X85422D02*
G36*
X78922D01*
G75*
G02X70422I-4250*
G01*
X63856*
G75*
G02X63922Y69765I-4183J-749*
G01*
G75*
G02X61126Y65772I-4250*
G01*
X87922*
Y66641*
G75*
G02X85422Y70514I1749J3872*
G01*
Y70514*
G37*
X108991D02*
G36*
X93922D01*
Y70514*
G75*
G02X91422Y66641I-4249*
G01*
Y65772*
X107843*
Y68642*
G75*
G02Y68643I2051J0*
G01*
G75*
G02X108356Y69880I1748*
G01*
X108991Y70514*
G37*
X133893Y65772D02*
G36*
G75*
G02X133674Y67120I4030J1348D01*
G01*
Y67121*
G75*
G02X135365Y70514I4250*
G01*
X113940*
X111343Y67917*
Y65772*
X117079*
G75*
G02X117079Y65825I4237J58*
G01*
Y65826*
G75*
G02X125579I4250*
G01*
G75*
G02X125578Y65772I-4257J4*
G01*
X133893*
G37*
X144161Y70514D02*
G36*
X140483D01*
G75*
G02X142174Y67121I-2559J-3393*
G01*
Y67120*
G75*
G02X141954Y65772I-4249J0*
G01*
X144161*
Y70514*
G37*
X152093D02*
G36*
X147661D01*
Y65772*
X149871*
G75*
G02X149763Y66723I4143J952*
G01*
G75*
G02X152093Y70514I4250*
G01*
G37*
X309674Y65772D02*
G36*
X304931Y70514D01*
X159743*
X157827Y68598*
G75*
G02X158263Y66723I-3818J-1876*
G01*
G75*
G02X158156Y65772I-4250J0*
G01*
X162365*
G75*
G02X170865I4250*
G01*
X309674*
G37*
X314624D02*
G36*
X405249D01*
Y70514*
X309881*
X314624Y65772*
G37*
X324813Y95288D02*
G36*
G75*
G02X316485I-4164J850D01*
G01*
X312898*
G75*
G02X304688I-4105J1100*
G01*
X301478*
G75*
G02X294392I-3543J2348*
G01*
X235633*
G75*
G02X235156I-239J4247*
G01*
X5013*
Y70514*
X38341*
G75*
G02X38324Y70889I4235J375*
G01*
G75*
G02X46824I4250*
G01*
G75*
G02X46807Y70514I-4251*
G01*
X55489*
G75*
G02X63856I4183J-749*
G01*
X70422*
G75*
G02X78922I4250*
G01*
X85422*
G75*
G02X93922I4250*
G01*
X108991*
X115844Y77368*
G75*
G02X117082Y77880I1237J-1237*
G01*
X145911*
G75*
G02X147661Y76130J-1750*
G01*
Y70514*
X152093*
G75*
G02X155108Y70830I1921J-3792*
G01*
X162396Y78117*
G75*
G02X163634Y78629I1237J-1237*
G01*
X301041*
G75*
G02X302279Y78117I1J-1750*
G01*
X309881Y70514*
X405249*
Y95288*
X339363*
G75*
G02X330863I-4250*
G01*
X324813*
G37*
X144161Y70514D02*
G36*
Y74380D01*
X117806*
X113940Y70514*
X135365*
G75*
G02X140483I2559J-3394*
G01*
X144161*
G37*
X304931D02*
G36*
X300317Y75129D01*
X164358*
X159743Y70514*
X304931*
G37*
X231174Y100031D02*
G36*
X226658D01*
G75*
G02X226665Y99781I-4244J-252*
G01*
G75*
G02X218165I-4250*
G01*
G75*
G02X218173Y100031I4251J-2*
G01*
X5013*
Y95288*
X235156*
G75*
G02X231145Y99531I239J4243*
G01*
G75*
G02X231174Y100031I4250J-1*
G01*
G37*
X294392Y95288D02*
G36*
G75*
G02X293685Y97636I3543J2347D01*
G01*
Y97636*
G75*
G02X294424Y100031I4249*
G01*
X270346*
G75*
G02X261846I-4250*
G01*
X254489*
G75*
G02X254496Y99781I-4244J-252*
G01*
G75*
G02X245996I-4250*
G01*
G75*
G02X246004Y100031I4251J-2*
G01*
X239615*
G75*
G02X239645Y99531I-4221J-500*
G01*
G75*
G02X235633Y95288I-4250*
G01*
X294392*
G37*
X304688D02*
G36*
G75*
G02X304543Y96388I4106J1100D01*
G01*
G75*
G02X306604Y100031I4250*
G01*
X301446*
G75*
G02X302185Y97636I-3510J-2394*
G01*
Y97636*
G75*
G02X301478Y95288I-4250J0*
G01*
X304688*
G37*
X316485D02*
G36*
G75*
G02X316399Y96138I4165J850D01*
G01*
G75*
G02X318943Y100031I4250*
G01*
X310982*
G75*
G02X313043Y96388I-2189J-3643*
G01*
G75*
G02X312898Y95288I-4250J1*
G01*
X316485*
G37*
X324813D02*
G36*
X330863D01*
G75*
G02X339363I4250*
G01*
X405249*
Y100031*
X322356*
G75*
G02X324899Y96138I-1706J-3893*
G01*
G75*
G02X324813Y95288I-4250*
G01*
G37*
X294424Y100031D02*
G36*
G75*
G02X296185Y101509I3511J-2395D01*
G01*
Y104945*
X291424*
Y105772*
X170865*
G75*
G02X162365I-4250*
G01*
X158156*
G75*
G02X149871I-4142J951*
G01*
X141954*
G75*
G02X133893I-4030J1349*
G01*
X125578*
G75*
G02X117079I-4250J54*
G01*
X61126*
G75*
G02X58219I-1454J3994*
G01*
X5013*
Y100031*
X218173*
G75*
G02X226658I4243J-250*
G01*
X231174*
G75*
G02X239615I4220J-499*
G01*
X246004*
G75*
G02X254489I4243J-250*
G01*
X261846*
G75*
G02X270346I4250*
G01*
X294424*
G37*
X353508Y105772D02*
G36*
X352956Y105220D01*
G75*
G02X351718Y104707I-1237J1237*
G01*
X343725*
G75*
G02X342487Y105220I-1J1750*
G01*
X341935Y105772*
X299685*
Y101509*
G75*
G02X301446Y100031I-1750J-3873*
G01*
X306604*
G75*
G02X310982I2189J-3643*
G01*
X318943*
G75*
G02X322356I1706J-3893*
G01*
X405249*
Y105772*
X353508*
G37*
X55489Y110514D02*
G36*
X46807D01*
G75*
G02X38341I-4233J374*
G01*
X5013*
Y105772*
X58219*
G75*
G02X55422Y109765I1454J3994*
G01*
G75*
G02X55489Y110514I4250J0*
G01*
G37*
X133893Y105772D02*
G36*
G75*
G02X133674Y107121I4030J1349D01*
G01*
G75*
G02X135365Y110514I4250*
G01*
X93922*
G75*
G02X85422I-4250*
G01*
X78922*
G75*
G02X70422I-4250*
G01*
X63856*
G75*
G02X63922Y109765I-4183J-749*
G01*
G75*
G02X61126Y105772I-4250*
G01*
X117079*
G75*
G02X117079Y105826I4250J58*
G01*
G75*
G02X125579I4250*
G01*
G75*
G02X125578Y105772I-4251J4*
G01*
X133893*
G37*
X149871D02*
G36*
G75*
G02X149763Y106723I4143J952D01*
G01*
G75*
G02X152093Y110514I4250*
G01*
X140483*
G75*
G02X142174Y107121I-2559J-3393*
G01*
G75*
G02X141954Y105772I-4250J0*
G01*
X149871*
G37*
X291424D02*
G36*
Y110514D01*
X288911*
G75*
G02X282720I-3096J1934*
G01*
X253747*
Y108815*
X245747*
Y110514*
X238644*
Y108689*
X230644*
Y110514*
X223794*
Y108689*
X215794*
Y110514*
X155934*
G75*
G02X158263Y106723I-1920J-3791*
G01*
G75*
G02X158156Y105772I-4250J0*
G01*
X162365*
G75*
G02X170865I4250*
G01*
X291424*
G37*
X341935D02*
G36*
X337193Y110514D01*
X299424*
Y107606*
G75*
G02X299685Y106686I-1488J-919*
G01*
Y105772*
X341935*
G37*
X353301Y110514D02*
G36*
X342142D01*
X344449Y108207*
X350994*
X353301Y110514*
G37*
X358250D02*
G36*
X353508Y105772D01*
X405249*
Y110514*
X358250*
G37*
X199196Y145910D02*
G36*
X198333D01*
Y144134*
X190333*
Y145910*
X186974*
Y136917*
G75*
G02Y136916I-2051J0*
G01*
G75*
G02X186461Y135679I-1748*
G01*
X184207Y133425*
X186841*
Y135926*
X194841*
Y127426*
X186841*
Y129925*
X183731*
Y127174*
X175873*
G75*
G02X169291Y126805I-3379J1381*
G01*
X168755*
Y124304*
X160755*
Y126256*
G75*
G02X155278Y126541I-2613J2549*
G01*
Y124556*
X147278*
Y127026*
G75*
G02X140961Y127179I-3115J1904*
G01*
X140676*
Y124678*
X132676*
Y126642*
G75*
G02X127196Y126643I-2740J2412*
G01*
Y124804*
X120922*
X121422Y124304*
X127196*
Y121837*
X132676*
Y124178*
X140676*
Y121712*
X147278*
Y124056*
X155278*
Y121305*
X160755*
Y123804*
X166548*
G75*
G02X167628Y124175I1078J-1376*
G01*
X175731*
Y126674*
X183731*
Y124175*
X186841*
Y126926*
X194841*
Y118426*
X186841*
Y120675*
X183731*
Y118174*
X175731*
Y120675*
X168755*
Y115304*
X160755*
Y117805*
X155278*
Y115556*
X147278*
Y117897*
X140676*
Y115678*
X132676*
Y118022*
X127196*
Y115804*
X119196*
Y121580*
X117466Y123309*
G75*
G02X116954Y124546I1235J1237*
G01*
G75*
G02Y124547I2051J0*
G01*
Y138033*
G75*
G02X117468Y139272I1752J0*
G01*
X124107Y145910*
X110469*
Y132798*
G75*
G02Y132797I-1611J0*
G01*
G75*
G02X110304Y132056I-1746*
G01*
X116337*
Y123556*
X108337*
Y126430*
X108101*
Y123930*
X100101*
Y132430*
X105876*
X106969Y133523*
Y142262*
X99227*
Y144513*
X98865*
Y142012*
X91001*
Y135178*
X93251*
Y126678*
X85251*
Y129176*
X84591*
G75*
G02X77900Y129849I-3203J1750*
G01*
Y127174*
X69900*
Y129164*
G75*
G02X63798Y129739I-2865J2261*
G01*
Y127174*
X55798*
Y129523*
G75*
G02X49196Y130348I-3115J1902*
G01*
Y127674*
X41196*
Y130174*
X37790*
G75*
G02X30937Y131924I-3203J1750*
G01*
G75*
G02X37790Y133674I3650*
G01*
X41196*
Y136174*
X46969*
X50315Y139520*
G75*
G02X50790Y140393I1714J-365*
G01*
X56306Y145910*
X53675*
X53047Y145282*
G75*
G02X51809Y144769I-1237J1237*
G01*
X31692*
X30471Y143548*
Y141021*
G75*
G02Y141020I-2051J0*
G01*
G75*
G02X29958Y139783I-1748*
G01*
X25607Y135432*
Y132382*
X31581Y126408*
G75*
G02X31994Y125753I-1237J-1237*
G01*
X32566Y125181*
X41196*
Y127174*
X49196*
Y124674*
X55798*
Y126674*
X63798*
Y124175*
X69900*
Y126674*
X77900*
Y124175*
X85251*
Y126178*
X93251*
Y123676*
X101356*
G75*
G02X102252Y123430I1J-1749*
G01*
X108101*
Y120930*
X108337*
Y123056*
X116337*
Y114556*
X108337*
Y117430*
X108101*
Y114930*
X100101*
Y120176*
X93251*
Y117678*
X85251*
Y120675*
X77900*
Y118174*
X69900*
Y120675*
X63798*
Y118174*
X55798*
Y121174*
X49196*
Y118674*
X41196*
Y121681*
X31842*
G75*
G02X30604Y122193I-1J1750*
G01*
X29106Y123691*
G75*
G02X28693Y124346I1237J1237*
G01*
X23381Y129658*
X17607*
Y131658*
X14251*
Y129158*
X6251*
Y137658*
X14251*
Y135158*
X17607*
Y138158*
X23383*
X23883Y138658*
X17607*
Y141157*
X14251*
Y138158*
X6251*
Y145910*
X5013*
Y110514*
X38341*
G75*
G02X38324Y110889I4233J374*
G01*
G75*
G02X46824I4250*
G01*
G75*
G02X46807Y110514I-4250*
G01*
X55489*
G75*
G02X63856I4183J-749*
G01*
X70422*
G75*
G02X78922I4250*
G01*
X85422*
G75*
G02X93922I4250*
G01*
X135365*
G75*
G02X140483I2559J-3394*
G01*
X152093*
G75*
G02X155934I1920J-3791*
G01*
X215794*
Y113187*
X208944*
Y110685*
X200944*
Y116462*
X198714Y118692*
G75*
G02X198202Y119928I1235J1237*
G01*
G75*
G02Y119929I2051J0*
G01*
Y129546*
G75*
G02Y129547I2051J0*
G01*
G75*
G02X198714Y130783I1748*
G01*
X201446Y133516*
Y144260*
X199196*
Y145910*
G37*
X17607D02*
G36*
X14251D01*
Y144657*
X17607*
Y145910*
G37*
X230644Y110514D02*
G36*
Y111190D01*
X223794*
Y110514*
X230644*
G37*
X245747D02*
G36*
Y111033D01*
X238644*
Y110514*
X245747*
G37*
X290190Y145910D02*
G36*
X280956D01*
Y140780*
X272956*
Y142996*
X272341*
Y140654*
X264341*
Y145910*
X260735*
Y142150*
X252735*
Y145026*
X252373*
Y142526*
X245009*
Y142026*
X252373*
Y139152*
X252735*
Y141650*
X260735*
Y133150*
X252735*
Y135652*
X252373*
Y133526*
X245009*
Y129280*
X247972Y126315*
X253747*
Y123815*
X254157*
G75*
G02X261010Y122067I3203J-1750*
G01*
X265469Y126527*
Y131654*
X264341*
Y140154*
X272341*
Y137811*
X272956*
Y140280*
X280956*
Y131780*
X272956*
Y133996*
X272341*
Y131654*
X268969*
Y125802*
G75*
G02Y125801I-2051J0*
G01*
G75*
G02X268457Y124565I-1748*
G01*
X255720Y111826*
G75*
G02X254482Y111313I-1237J1237*
G01*
X253747*
Y110514*
X282720*
G75*
G02X282165Y112448I3096J1934*
G01*
G75*
G02X289019Y114198I3650*
G01*
X291424*
Y122445*
X299424*
Y120104*
X299786*
Y122556*
X307786*
Y120057*
X311676*
X308289Y123441*
G75*
G02X307786Y124493I1239J1239*
G01*
Y123056*
X299786*
Y125557*
X295300*
G75*
G02X293550Y127307J1750*
G01*
Y132410*
X291668*
Y140410*
X294167*
Y141933*
X290190Y145910*
G37*
X291424Y110514D02*
G36*
Y110698D01*
X289019*
G75*
G02X288911Y110514I-3204J1750*
G01*
X291424*
G37*
X337193D02*
G36*
X335998Y111710D01*
G75*
G02X335485Y112946I1235J1237*
G01*
G75*
G02Y112947I2051J0*
G01*
Y116304*
X333235*
Y119053*
X331375*
Y116552*
X323375*
Y119053*
X322141*
Y116552*
X314141*
Y116557*
X307786*
Y114056*
X299786*
Y116289*
X299424*
Y113945*
X293079*
G75*
G02X293411Y113685I-916J-1510*
G01*
X293651Y113445*
X299424*
Y110514*
X337193*
G37*
X358250D02*
G36*
X405249D01*
Y145910*
X363157*
X366552Y142515*
G75*
G02X367065Y141278I-1235J-1237*
G01*
Y134052*
X370064*
Y131553*
X371798*
Y134304*
X379798*
Y125804*
X371798*
Y128053*
X370064*
Y125552*
X362064*
Y134052*
X363565*
Y140553*
X358208Y145910*
X334453*
X347059Y133304*
X350845*
Y130804*
X352456*
Y134807*
X360456*
Y126307*
X352456*
Y127304*
X350845*
Y124804*
X342845*
Y132568*
X329503Y145910*
X325842*
X330965Y140786*
G75*
G02X335643Y137283I1027J-3503*
G01*
G75*
G02X335495Y136256I-3651J0*
G01*
X337948Y133804*
X341235*
Y125304*
X333235*
Y133567*
X333020Y133781*
G75*
G02X331375Y133687I-1028J3509*
G01*
Y125552*
X323375*
Y134052*
X323379*
Y135957*
G75*
G02X318982Y139530I-747J3572*
G01*
G75*
G02X319130Y140557I3649*
G01*
X318787Y140900*
X310259*
X310747Y140412*
G75*
G02X315424Y136909I1028J-3502*
G01*
G75*
G02X315277Y135881I-3651J0*
G01*
X317106Y134052*
X322141*
Y125552*
X314141*
Y132068*
X312802Y133407*
G75*
G02X310170Y133631I-1028J3501*
G01*
X310764Y133037*
G75*
G02X311276Y131800I-1238J-1237*
G01*
Y131800*
Y125404*
X314128Y122554*
X314141*
Y125052*
X322141*
Y122553*
X323375*
Y125052*
X331375*
Y122553*
X333235*
Y124804*
X341235*
Y116304*
X338985*
Y113672*
X342142Y110514*
X353301*
X360094Y117307*
X352456*
Y118304*
X350845*
Y115804*
X342845*
Y124304*
X350845*
Y121804*
X352456*
Y125807*
X360456*
Y117669*
X362064Y119278*
Y125052*
X370064*
Y122802*
X371798*
Y125304*
X379798*
Y116804*
X371798*
Y119302*
X370064*
Y116552*
X364287*
X358250Y110514*
G37*
X390952Y192048D02*
G36*
Y188048D01*
X382452*
Y192048*
X381952*
Y188048*
X373452*
Y192048*
X262922*
G75*
G02X256541I-3191J1772*
G01*
X210907*
G75*
G02X211339Y190326I-3218J-1722*
G01*
Y190325*
G75*
G02X204485Y188575I-3650*
G01*
X138433*
G75*
G02X136915I-759J1751*
G01*
X67676*
G75*
G02X65926Y190325J1750*
G01*
Y192048*
X5013*
Y145910*
X6251*
Y146658*
X14251*
Y145910*
X17607*
Y147158*
X23383*
X27102Y150876*
G75*
G02X28340Y151388I1237J-1237*
G01*
X48589*
X60926Y163726*
Y167678*
X60144*
Y177264*
X110204*
Y167678*
X105637*
X109957Y163357*
G75*
G02X110469Y162120I-1235J-1237*
G01*
Y145910*
X124107*
X124827Y146630*
X122692*
Y149130*
X121706*
Y146878*
X113706*
Y155378*
X121706*
Y152630*
X122692*
Y155130*
X128467*
X128967Y155630*
X122692*
Y158130*
X121706*
Y155878*
X113706*
Y164378*
X121706*
Y161630*
X122692*
Y164130*
X128467*
X131645Y167309*
Y167678*
X130865*
Y177264*
X180924*
Y167988*
X181604*
G75*
G02X182842Y167476I1J-1750*
G01*
X186461Y163856*
G75*
G02X186974Y162620I-1235J-1237*
G01*
G75*
G02Y162619I-2051J0*
G01*
Y145910*
X190333*
Y152634*
X198333*
Y150417*
X199196*
Y152760*
X204972*
X205472Y153260*
X199196*
Y155477*
X198333*
Y153134*
X190333*
Y161634*
X198333*
Y159292*
X199196*
Y161760*
X201446*
Y169426*
X199383*
Y179012*
X249442*
Y169426*
X243662*
Y167934*
X249973Y161624*
X253373*
G75*
G02X254611Y161112I1J-1750*
G01*
X266568Y149154*
X272341*
Y146811*
X272956*
Y149280*
X280956*
Y145910*
X290190*
X285091Y151009*
X272836*
G75*
G02X271086Y152759J1750*
G01*
Y168678*
X271019*
Y178264*
X321078*
Y168678*
X315679*
X331969Y152388*
X355954*
G75*
G02X357192Y151875I1J-1750*
G01*
X363157Y145910*
X405249*
Y192048*
X390952*
G37*
X56306Y145910D02*
G36*
X76767Y166371D01*
Y167678*
X69426*
Y162385*
G75*
G02X68913Y161148I-1748J-1*
G01*
X53675Y145910*
X56306*
G37*
X199196D02*
G36*
Y146602D01*
X198333*
Y145910*
X199196*
G37*
X264341D02*
G36*
Y146431D01*
X260735Y150037*
Y145910*
X264341*
G37*
X329503D02*
G36*
X311174Y164239D01*
X310278*
G75*
G02X309039Y164751I-1J1750*
G01*
X306918Y166873*
G75*
G02X306405Y168109I1235J1237*
G01*
G75*
G02Y168110I2051J0*
G01*
Y168678*
X305299*
Y162333*
X305380Y162252*
G75*
G02X310058Y158750I1028J-3502*
G01*
G75*
G02X302758I-3650*
G01*
G75*
G02Y158751I3222J0*
G01*
G75*
G02X302906Y159778I3644*
G01*
X302312Y160371*
G75*
G02X301799Y161608I1235J1237*
G01*
G75*
G02Y161609I2051J0*
G01*
Y168678*
X300300*
Y159221*
X310003Y149518*
X321508*
G75*
G02X322746Y149006I1J-1750*
G01*
X325842Y145910*
X329503*
G37*
X358208D02*
G36*
X355230Y148888D01*
X331475*
X334453Y145910*
X358208*
G37*
X65926Y192048D02*
G36*
Y204882D01*
X60144*
Y214469*
X70926*
Y217048*
X5013*
Y192048*
X65926*
G37*
X141645Y217048D02*
G36*
X89004D01*
Y214469*
X110204*
Y204882*
X99426*
Y204137*
G75*
G02X101326Y200934I-1749J-3203*
G01*
Y200933*
G75*
G02X94026I-3650*
G01*
Y200934*
G75*
G02X95926Y204137I3649*
G01*
Y204882*
X69426*
Y192075*
X135767*
Y204882*
X130865*
Y214469*
X141645*
Y217048*
G37*
X171645D02*
G36*
X159018D01*
Y214469*
X171645*
Y217048*
G37*
X210162D02*
G36*
X175145D01*
Y214469*
X180924*
Y204882*
X169659*
Y204544*
G75*
G02X171402Y201433I-1908J-3112*
G01*
G75*
G02X164102I-3650*
G01*
G75*
G02X165844Y204544I3651J0*
G01*
Y204882*
X139581*
Y192075*
X204485*
G75*
G02X205939Y193528I3200J-1746*
G01*
Y206630*
X199383*
Y216217*
X210162*
Y217048*
G37*
X256541Y192048D02*
G36*
G75*
G02X256529Y192069I3192J1755D01*
G01*
X226784*
G75*
G02X225546Y192582I-1J1750*
G01*
X216935Y201194*
G75*
G02X216422Y202430I1235J1237*
G01*
G75*
G02Y202431I2051J0*
G01*
Y206630*
X209439*
Y193528*
G75*
G02X210907Y192048I-1749J-3203*
G01*
X256541*
G37*
X215162Y217048D02*
G36*
X213662D01*
Y216217*
X215162*
Y217048*
G37*
X220005D02*
G36*
X218662D01*
Y216217*
X220005*
Y217048*
G37*
X225162D02*
G36*
X223820D01*
Y216217*
X225162*
Y217048*
G37*
X236016D02*
G36*
X228662D01*
Y216217*
X236016*
Y217048*
G37*
X250281D02*
G36*
X239516D01*
Y216217*
X249442*
Y206630*
X238820*
Y205031*
G75*
G02X240543Y201932I-1927J-3100*
G01*
G75*
G02X238791Y198815I-3650*
G01*
X289958*
X291799Y200656*
Y205882*
X290300*
Y205040*
G75*
G02Y205039I-2051J0*
G01*
G75*
G02X289787Y203803I-1748*
G01*
X288051Y202066*
G75*
G02X286813Y201554I-1237J1237*
G01*
X262257*
G75*
G02X256206Y204303I-2400J2750*
G01*
G75*
G02X263428Y205054I3650*
G01*
X286089*
X286800Y205765*
Y205882*
X271019*
Y215469*
X276799*
Y216781*
X256819*
G75*
G02X250281Y217048I-3203J1750*
G01*
G37*
X373452Y192048D02*
G36*
Y193825D01*
X371584Y195693*
X360204*
G75*
G02X353728Y197443I-3002J1750*
G01*
G75*
G02X353843Y198328I3475*
G01*
X336019Y216152*
G75*
G02X332436Y217048I-1028J3502*
G01*
X316911*
G75*
G02X316507Y216419I-1641J610*
G01*
X315557Y215469*
X321078*
Y205882*
X295299*
Y199931*
G75*
G02Y199930I-2051J0*
G01*
G75*
G02X294787Y198694I-1748*
G01*
X291920Y195827*
G75*
G02X290682Y195315I-1237J1237*
G01*
X263061*
G75*
G02X263381Y193820I-3330J-1494*
G01*
G75*
G02X262922Y192048I-3650*
G01*
X373452*
G37*
X390952Y217048D02*
G36*
Y213048D01*
X382452*
Y217048*
X381952*
Y213048*
X373452*
Y214905*
X360204*
G75*
G02X353728Y216655I-3002J1750*
G01*
G75*
G02X353751Y217048I3475J-2*
G01*
X340072*
X356318Y200802*
G75*
G02X360204Y199193I885J-3361*
G01*
X372308*
G75*
G02X373546Y198680I1J-1750*
G01*
X376179Y196048*
X381952*
Y192048*
X382452*
Y196048*
X390952*
Y192048*
X405249*
Y217048*
X390952*
G37*
X70926D02*
G36*
Y239961D01*
X5013*
Y217048*
X70926*
G37*
X141645D02*
G36*
Y239961D01*
X81321*
G75*
G02X81419Y239124I-3552J-837*
G01*
G75*
G02X81290Y238163I-3650*
G01*
G75*
G02X86535Y234880I1596J-3283*
G01*
G75*
G02X84635Y231677I-3650*
G01*
Y225692*
G75*
G02X90904Y223148I2618J-2543*
G01*
Y223148*
G75*
G02X89004Y219945I-3649*
G01*
Y217048*
X141645*
G37*
X210162D02*
G36*
Y233426D01*
X203627Y239961*
X175145*
Y217048*
X210162*
G37*
X171645Y239961D02*
G36*
X151336D01*
G75*
G02X151433Y239124I-3552J-837*
G01*
G75*
G02X151335Y238285I-3650J0*
G01*
G75*
G02X156300Y234880I1315J-3405*
G01*
G75*
G02X154400Y231677I-3650*
G01*
Y225406*
G75*
G02X160918Y223148I2868J-2258*
G01*
Y223148*
G75*
G02X159018Y219945I-3649*
G01*
Y217048*
X171645*
Y239961*
G37*
X215162D02*
G36*
X208576D01*
X213150Y235388*
G75*
G02X213662Y234152I-1235J-1237*
G01*
G75*
G02Y234151I-2051J0*
G01*
Y217048*
X215162*
Y239961*
G37*
X233930D02*
G36*
X231095D01*
X227041Y235907*
G75*
G02X227189Y234881I-3496J-1027*
G01*
G75*
G02Y234880I-3222J0*
G01*
G75*
G02X219889I-3650*
G01*
G75*
G02X224566Y238382I3650*
G01*
X226145Y239961*
X218662*
Y217048*
X220005*
Y225156*
G75*
G02X220559Y226500I1908J-1*
G01*
X233930Y239961*
G37*
X381952Y217048D02*
G36*
X382452D01*
Y221048*
X390952*
Y217048*
X405249*
Y239961*
X341124*
G75*
G02X333024I-4050*
G01*
X283186*
G75*
G02X285097Y236752I-1739J-3209*
G01*
G75*
G02X278244Y235002I-3650*
G01*
X274584*
G75*
G02X273346Y235515I-1J1750*
G01*
X268899Y239961*
X241586*
G75*
G02X238913Y239565I-1834J3156*
G01*
X223820Y224370*
Y217048*
X225162*
Y219034*
G75*
G02Y219035I2051J0*
G01*
G75*
G02X225675Y220271I1748*
G01*
X227524Y222121*
G75*
G02X227377Y223148I3496J1027*
G01*
G75*
G02X234677Y223148I3650J1*
G01*
G75*
G02X229999Y219646I-3650*
G01*
X228662Y218309*
Y217048*
X236016*
Y226685*
G75*
G02X234116Y229887I1749J3203*
G01*
Y229888*
G75*
G02X241416I3650*
G01*
Y229887*
G75*
G02X239516Y226685I-3649*
G01*
Y217048*
X250281*
G75*
G02X249966Y218531I3335J1483*
G01*
G75*
G02X256819Y220281I3650*
G01*
X277591*
X280830Y223606*
G75*
G02X282199Y224182I1366J-1330*
G01*
X293370*
G75*
G02X293273Y225021I3552J839*
G01*
G75*
G02X295022Y228136I3650*
G01*
X259439*
G75*
G02X252587Y229888I-3202J1752*
G01*
G75*
G02X259441Y231636I3650*
G01*
X315270*
G75*
G02X317020Y229886J-1750*
G01*
Y217657*
G75*
G02X316911Y217048I-1751*
G01*
X332436*
G75*
G02X331341Y219654I2556J2606*
G01*
G75*
G02X338641I3650*
G01*
G75*
G02Y219653I-3222J0*
G01*
G75*
G02X338494Y218626I-3644*
G01*
X340072Y217048*
X353751*
G75*
G02X360204Y218405I3452J-393*
G01*
X373452*
Y221048*
X381952*
Y217048*
G37*
X279709Y239961D02*
G36*
X273848D01*
X275308Y238502*
X278244*
G75*
G02X279709Y239961I3203J-1750*
G01*
G37*
X70926D02*
G36*
Y251430D01*
X5013*
Y239961*
X70926*
G37*
X171645D02*
G36*
Y246483D01*
X170526Y247602*
G75*
G02X165849Y251104I-1028J3502*
G01*
G75*
G02X165863Y251430I3650J0*
G01*
X74426*
Y240589*
G75*
G02X81321Y239961I3343J-1465*
G01*
X141645*
Y241786*
G75*
G02X139745Y244989I1749J3203*
G01*
Y244989*
G75*
G02X147045I3650*
G01*
Y244989*
G75*
G02X145145Y241786I-3649*
G01*
Y241646*
G75*
G02X151336Y239961I2638J-2522*
G01*
X171645*
G37*
X215162D02*
G36*
Y241156D01*
X209465Y246853*
G75*
G02X204787Y250356I-1028J3502*
G01*
G75*
G02X204949Y251430I3650J0*
G01*
X173134*
G75*
G02X173149Y251104I-3636J-326*
G01*
G75*
G02X173001Y250077I-3644J-1*
G01*
X174633Y248445*
G75*
G02X175145Y247209I-1235J-1237*
G01*
G75*
G02Y247208I-2051J0*
G01*
Y239961*
X203627*
X202726Y240863*
G75*
G02X198048Y244365I-1028J3502*
G01*
G75*
G02X205348I3650*
G01*
G75*
G02Y244364I-3222J0*
G01*
G75*
G02X205200Y243337I-3644*
G01*
X208576Y239961*
X215162*
G37*
X404011Y251430D02*
G36*
Y246733D01*
X395015*
Y250727*
X349673*
G75*
G02X342973Y251430I-3203J1750*
G01*
X211926*
G75*
G02X212087Y250356I-3488J-1075*
G01*
G75*
G02Y250355I-3222J0*
G01*
G75*
G02X211940Y249328I-3644*
G01*
X218150Y243118*
G75*
G02X218662Y241881I-1235J-1237*
G01*
Y239961*
X226145*
X230538Y244354*
G75*
G02X231776Y244867I1237J-1237*
G01*
X236549*
G75*
G02X243402Y243117I3203J-1750*
G01*
G75*
G02X241586Y239961I-3650J0*
G01*
X268899*
X268746Y240114*
G75*
G02X264069Y243616I-1028J3502*
G01*
G75*
G02X271369I3650*
G01*
G75*
G02Y243615I-3222J0*
G01*
G75*
G02X271221Y242589I-3644*
G01*
X273848Y239961*
X279709*
G75*
G02X283186I1739J-3209*
G01*
X333024*
G75*
G02X341124I4050*
G01*
X405249*
Y251430*
X404011*
G37*
X233930Y239961D02*
G36*
X235326Y241367D01*
X232500*
X231095Y239961*
X233930*
G37*
X70926Y260043D02*
G36*
X5013D01*
Y251430*
X70926*
Y260043*
G37*
X403850D02*
G36*
G75*
G02X395367Y259479I-4339J1186D01*
G01*
X341338*
G75*
G02X340100Y259992I-1J1750*
G01*
X340048Y260043*
X324788*
G75*
G02X324895Y259169I-3505J-875*
G01*
G75*
G02X321283Y255557I-3612*
G01*
G75*
G02X318123Y257420J3613*
G01*
X300091*
G75*
G02X298853Y257932J1752*
G01*
X296741Y260043*
X294788*
G75*
G02X294895Y259169I-3505J-873*
G01*
G75*
G02X291283Y255557I-3612*
G01*
G75*
G02X287671Y259169J3612*
G01*
G75*
G02X287778Y260043I3612J1*
G01*
X259498*
G75*
G02X255886Y256431I-3612*
G01*
G75*
G02X252274Y260043J3612*
G01*
X229498*
G75*
G02X222274I-3612*
G01*
X74426*
Y251430*
X165863*
G75*
G02X173134I3635J-326*
G01*
X204949*
G75*
G02X211926I3488J-1074*
G01*
X342973*
G75*
G02X342820Y252477I3497J1048*
G01*
G75*
G02X349673Y254227I3650*
G01*
X395015*
Y255729*
X404011*
Y251430*
X405249*
Y260043*
X403850*
G37*
X70926Y269629D02*
G36*
X5013D01*
Y260043*
X70926*
Y269629*
G37*
X308652D02*
G36*
X294866D01*
G75*
G02X294895Y269169I-3583J-461*
G01*
G75*
G02X291283Y265557I-3612*
G01*
G75*
G02X287671Y269169J3612*
G01*
G75*
G02X287700Y269629I3612J-2*
G01*
X259474*
G75*
G02X252726Y268293I-3588J414*
G01*
X247820*
X244264Y264737*
G75*
G02X244411Y263710I-3496J-1027*
G01*
G75*
G02Y263709I-3222J0*
G01*
G75*
G02X237111I-3650*
G01*
G75*
G02X241789Y267212I3650*
G01*
X244206Y269629*
X229474*
G75*
G02X225886Y266431I-3588J414*
G01*
G75*
G02X222298Y269629J3612*
G01*
X193064*
G75*
G02X186215I-3425J1045*
G01*
X183064*
G75*
G02X176215I-3425J1045*
G01*
X173064*
G75*
G02X166215I-3425J1045*
G01*
X163064*
G75*
G02X156215I-3425J1045*
G01*
X153064*
G75*
G02X146215I-3425J1045*
G01*
X143064*
G75*
G02X136215I-3425J1045*
G01*
X133219*
Y267095*
X126058*
Y269629*
X74426*
Y260043*
X222274*
G75*
G02X229498I3612*
G01*
X252274*
G75*
G02X255886Y263655I3612*
G01*
G75*
G02X256884Y263515I-1J-3621*
G01*
X258191Y264821*
G75*
G02X259429Y265333I1238J-1240*
G01*
X295674*
G75*
G02X296912Y264821J-1752*
G01*
X300815Y260920*
X318123*
G75*
G02X318989Y261959I3167J-1757*
G01*
X312649*
G75*
G02X311411Y262472I-1J1750*
G01*
X309164Y264719*
G75*
G02X308652Y265955I1235J1237*
G01*
G75*
G02Y265956I2051J0*
G01*
Y269629*
G37*
X287778Y260043D02*
G36*
G75*
G02X288843Y261833I3505J-874D01*
G01*
X260153*
X259358Y261039*
G75*
G02X259498Y260043I-3472J-996*
G01*
X287778*
G37*
X296741D02*
G36*
X294950Y261833D01*
X293723*
G75*
G02X294788Y260043I-2440J-2664*
G01*
X296741*
G37*
X403715Y269629D02*
G36*
G75*
G02X397120Y267419I-4204J1600D01*
G01*
X324443*
G75*
G02X317671Y269169I-3160J1750*
G01*
G75*
G02X317700Y269629I3613J-2*
G01*
X312152*
Y266681*
X313373Y265459*
X338856*
G75*
G02X340094Y264947I1J-1750*
G01*
X342062Y262979*
X395367*
G75*
G02X404009Y261229I4144J-1750*
G01*
G75*
G02X403850Y260043I-4499J0*
G01*
X405249*
Y269629*
X403715*
G37*
X340048Y260043D02*
G36*
X338132Y261959D01*
X323577*
G75*
G02X324788Y260043I-2294J-2790*
G01*
X340048*
G37*
X70926Y280642D02*
G36*
X5013D01*
Y269629*
X70926*
Y280642*
G37*
X195422D02*
G36*
X166039D01*
G75*
G02X164222I-909J3534*
G01*
X74426*
Y269629*
X126058*
Y274256*
X133219*
Y269629*
X136215*
G75*
G02X136059Y270674I3425J1045*
G01*
G75*
G02X143220I3581*
G01*
G75*
G02X143064Y269629I-3581*
G01*
X146215*
G75*
G02X146059Y270674I3425J1045*
G01*
G75*
G02X153220I3581*
G01*
G75*
G02X153064Y269629I-3581*
G01*
X156215*
G75*
G02X156059Y270674I3425J1045*
G01*
G75*
G02X163220I3581*
G01*
G75*
G02X163064Y269629I-3581*
G01*
X166215*
G75*
G02X166059Y270674I3425J1045*
G01*
G75*
G02X173220I3581*
G01*
G75*
G02X173064Y269629I-3581*
G01*
X176215*
G75*
G02X176059Y270674I3425J1045*
G01*
G75*
G02X183220I3581*
G01*
G75*
G02X183064Y269629I-3581*
G01*
X186215*
G75*
G02X186059Y270674I3425J1045*
G01*
G75*
G02X193220I3581*
G01*
G75*
G02X193064Y269629I-3581*
G01*
X222298*
G75*
G02X222274Y270043I3589J416*
G01*
G75*
G02X224136Y273203I3612*
G01*
Y276883*
G75*
G02X222736Y278276I1750J3159*
G01*
X198580*
G75*
G02X197229Y278835I-2J1910*
G01*
X195422Y280642*
G37*
X273490D02*
G36*
X259448D01*
G75*
G02X259498Y280043I-3562J-599*
G01*
G75*
G02X255886Y276431I-3612*
G01*
G75*
G02X252274Y280043J3612*
G01*
G75*
G02X252324Y280642I3612J0*
G01*
X239619*
G75*
G02X239669Y280043I-3601J-600*
G01*
G75*
G02X232816Y278293I-3650*
G01*
X229046*
G75*
G02X227636Y276883I-3165J1755*
G01*
Y273203*
G75*
G02X229498Y270043I-1750J-3160*
G01*
G75*
G02X229474Y269629I-3613J2*
G01*
X244206*
X245857Y271280*
G75*
G02X247096Y271793I1237J-1237*
G01*
X252726*
G75*
G02X259498Y270043I3160J-1750*
G01*
G75*
G02X259474Y269629I-3613J2*
G01*
X287700*
G75*
G02X289533Y272329I3583J-459*
G01*
Y276009*
G75*
G02X288123Y277419I1755J3165*
G01*
X280033*
G75*
G02X273180Y279169I-3203J1750*
G01*
G75*
G02X273490Y280642I3650J0*
G01*
G37*
X403970D02*
G36*
G75*
G02X397120Y277419I-4459J587D01*
G01*
X324443*
G75*
G02X317671Y279169I-3160J1750*
G01*
G75*
G02X317985Y280642I3612J0*
G01*
X314004*
G75*
G02X314052Y280051I-3602J-590*
G01*
Y280050*
G75*
G02X312152Y276848I-3649*
G01*
Y269629*
X317700*
G75*
G02X324443Y270919I3583J-459*
G01*
X395024*
G75*
G02X395013Y271229I4677J316*
G01*
G75*
G02X404009I4498*
G01*
G75*
G02X403715Y269629I-4498J0*
G01*
X405249*
Y280642*
X403970*
G37*
X295231D02*
G36*
X294755Y280166D01*
G75*
G02X294895Y279169I-3471J-996*
G01*
G75*
G02X293033Y276009I-3612*
G01*
Y272329*
G75*
G02X294866Y269629I-1750J-3160*
G01*
X308652*
Y276848*
G75*
G02X306752Y280050I1749J3203*
G01*
Y280051*
G75*
G02X306800Y280642I3650J1*
G01*
X295231*
G37*
X71550Y289169D02*
G36*
X5013D01*
Y280642*
X70926*
Y287820*
G75*
G02Y287821I2051J0*
G01*
G75*
G02X71438Y289058I1748*
G01*
X71550Y289169*
G37*
X163381D02*
G36*
X76499D01*
X74426Y287096*
Y280642*
X164222*
G75*
G02X161481Y284177I909J3535*
G01*
Y284178*
G75*
G02X163381Y287380I3649*
G01*
Y289169*
G37*
X195422Y280642D02*
G36*
X188292Y287773D01*
G75*
G02X187733Y289122I1350J1349*
G01*
Y289169*
X166881*
Y287380*
G75*
G02X168781Y284178I-1749J-3203*
G01*
Y284177*
G75*
G02X166039Y280642I-3650*
G01*
X195422*
G37*
X222381Y289169D02*
G36*
X210523D01*
G75*
G02X212087Y286175I-2085J-2994*
G01*
G75*
G02Y286174I-4101J0*
G01*
G75*
G02X204787I-3650*
G01*
G75*
G02X206352Y289169I3650*
G01*
X192291*
X199368Y282091*
X222911*
G75*
G02X229046Y281793I2976J-2048*
G01*
X232816*
G75*
G02X233629Y282802I3209J-1754*
G01*
X231378*
G75*
G02X230140Y283314I-1J1750*
G01*
X226883Y286571*
G75*
G02X222381Y289169I-997J3472*
G01*
G37*
X263496D02*
G36*
X259391D01*
G75*
G02X252381I-3505J874*
G01*
X239528*
G75*
G02X232510I-3509J1006*
G01*
X229391*
G75*
G02X229358Y289046I-3494J872*
G01*
X232102Y286302*
X260629*
X263496Y289169*
G37*
X252324Y280642D02*
G36*
G75*
G02X253554Y282802I3562J-599D01*
G01*
X238409*
G75*
G02X239619Y280642I-2390J-2758*
G01*
X252324*
G37*
X298808Y289169D02*
G36*
X294895D01*
G75*
G02X288123Y287420I-3612J0*
G01*
X266696*
X262591Y283314*
G75*
G02X261353Y282802I-1237J1237*
G01*
X258218*
G75*
G02X259448Y280642I-2332J-2759*
G01*
X273490*
G75*
G02X280033Y280919I3340J-1473*
G01*
X288123*
G75*
G02X292280Y282641I3160J-1749*
G01*
X298808Y289169*
G37*
X403510D02*
G36*
G75*
G02X395512I-3999J2060D01*
G01*
X324895*
G75*
G02X321283Y285557I-3612*
G01*
G75*
G02X317671Y289169J3612*
G01*
X303758*
X295231Y280642*
X306800*
G75*
G02X314004I3602J-591*
G01*
X317985*
G75*
G02X324443Y280919I3298J-1473*
G01*
X395024*
G75*
G02X395013Y281229I4677J316*
G01*
G75*
G02X404009I4498*
G01*
G75*
G02X403970Y280642I-4498J1*
G01*
X405249*
Y289169*
X403510*
G37*
X81550Y299169D02*
G36*
X5013D01*
Y289169*
X71550*
X81550Y299169*
G37*
X163381D02*
G36*
X162198D01*
G75*
G02X157080I-2559J2505*
G01*
X152198*
G75*
G02X147080I-2559J2505*
G01*
X142198*
G75*
G02X137080I-2559J2505*
G01*
X132198*
G75*
G02X127080I-2559J2505*
G01*
X86499*
X76499Y289169*
X163381*
Y299169*
G37*
X187733Y289169D02*
G36*
Y298643D01*
G75*
G02X187080Y299169I1906J3032*
G01*
X182198*
G75*
G02X177080I-2559J2505*
G01*
X172198*
G75*
G02X167081I-2559J2505*
G01*
X166881*
Y289169*
X187733*
G37*
X206352D02*
G36*
G75*
G02X206686Y289376I2086J-2994D01*
G01*
Y299169*
X192198*
G75*
G02X191548Y298644I-2558J2505*
G01*
Y289912*
X192291Y289169*
X206352*
G37*
X242538Y299169D02*
G36*
X229391D01*
G75*
G02X222381I-3505J874*
G01*
X210186*
Y289378*
G75*
G02X210523Y289169I-1747J-3202*
G01*
X222381*
G75*
G02X222274Y290043I3506J873*
G01*
G75*
G02X229498I3612*
G01*
G75*
G02Y290041I-3524J-1*
G01*
G75*
G02X229391Y289169I-3601*
G01*
X232510*
G75*
G02X232369Y290176I3509J1006*
G01*
G75*
G02X237046Y293678I3650*
G01*
X242538Y299169*
G37*
X308808D02*
G36*
X294895D01*
G75*
G02X287671I-3612*
G01*
X259391*
G75*
G02X252381I-3505J874*
G01*
X247488*
X239521Y291203*
G75*
G02X239669Y290176I-3496J-1027*
G01*
G75*
G02X239528Y289169I-3650J-1*
G01*
X252381*
G75*
G02X252274Y290043I3505J873*
G01*
G75*
G02X259498I3612*
G01*
G75*
G02X259391Y289169I-3612J0*
G01*
X263496*
X264734Y290407*
G75*
G02X265972Y290920I1237J-1237*
G01*
X288123*
G75*
G02X294895Y289169I3160J-1750*
G01*
X298808*
X308808Y299169*
G37*
X328808D02*
G36*
X324895D01*
G75*
G02X317671I-3612*
G01*
X313758*
X303758Y289169*
X317671*
G75*
G02X321283Y292781I3612*
G01*
G75*
G02X322280Y292641I2J-3600*
G01*
X328808Y299169*
G37*
X403510D02*
G36*
G75*
G02X395512I-3999J2060D01*
G01*
X333758*
X324755Y290166*
G75*
G02X324895Y289169I-3472J-996*
G01*
X395512*
G75*
G02X395013Y291229I3999J2059*
G01*
G75*
G02X404009I4498*
G01*
G75*
G02X403510Y289169I-4498J0*
G01*
X405249*
Y299169*
X403510*
G37*
X93609Y311229D02*
G36*
X5013D01*
Y299169*
X81550*
X93609Y311229*
G37*
X136720D02*
G36*
X98559D01*
X86499Y299169*
X127080*
G75*
G02X126059Y301674I2559J2504*
G01*
G75*
G02X130611Y305120I3581*
G01*
X136720Y311229*
G37*
X141669D02*
G36*
X133086Y302646D01*
G75*
G02X133220Y301674I-3462J-973*
G01*
G75*
G02X132198Y299169I-3581J0*
G01*
X137080*
G75*
G02X136059Y301674I2559J2504*
G01*
G75*
G02X143220I3581*
G01*
G75*
G02X142198Y299169I-3581J0*
G01*
X147080*
G75*
G02X146059Y301674I2559J2504*
G01*
G75*
G02X153220I3581*
G01*
G75*
G02X152198Y299169I-3581J0*
G01*
X157080*
G75*
G02X156059Y301674I2559J2504*
G01*
G75*
G02X163220I3581*
G01*
G75*
G02X162198Y299169I-3581J0*
G01*
X163381*
Y311229*
X141669*
G37*
X167081Y299169D02*
G36*
G75*
G02X166881Y299391I2559J2506D01*
G01*
Y299169*
X167081*
G37*
X177080D02*
G36*
G75*
G02X176059Y301674I2559J2504D01*
G01*
Y301674*
G75*
G02X177889Y304798I3580*
G01*
Y311229*
X166881*
Y303957*
G75*
G02X173220Y301674I2759J-2283*
G01*
G75*
G02X172198Y299169I-3581J0*
G01*
X177080*
G37*
X222474Y311229D02*
G36*
X181389D01*
Y304798*
G75*
G02X183220Y301674I-1749J-3124*
G01*
Y301674*
G75*
G02X182198Y299169I-3581J0*
G01*
X187080*
G75*
G02X186059Y301674I2559J2504*
G01*
G75*
G02X193220I3581*
G01*
G75*
G02Y301673I-5013J0*
G01*
G75*
G02X192198Y299169I-3579*
G01*
X206686*
Y300152*
G75*
G02X207199Y301390I1751J0*
G01*
X215562Y309750*
G75*
G02X216800Y310262I1238J-1240*
G01*
X222281*
G75*
G02X222474Y311229I3605J-219*
G01*
G37*
X252474D02*
G36*
X229298D01*
G75*
G02X229498Y310043I-3412J-1187*
G01*
G75*
G02X225886Y306431I-3612*
G01*
G75*
G02X224374Y306762J3612*
G01*
X224356*
X217524*
X210186Y299427*
Y299169*
X222381*
G75*
G02X222274Y300043I3505J873*
G01*
G75*
G02X229498I3612*
G01*
G75*
G02X229391Y299169I-3612J0*
G01*
X242538*
X252414Y309046*
G75*
G02X252274Y310041I3461J995*
G01*
G75*
G02Y310043I3524J1*
G01*
G75*
G02X252474Y311229I3612J0*
G01*
G37*
X318316D02*
G36*
X294250D01*
G75*
G02X294895Y309169I-2967J-2060*
G01*
G75*
G02X291283Y305557I-3612*
G01*
G75*
G02X287671Y309169J3612*
G01*
G75*
G02X288316Y311229I3612*
G01*
X259298*
G75*
G02X259498Y310043I-3412J-1187*
G01*
G75*
G02X254889Y306571I-3612*
G01*
X247488Y299169*
X252381*
G75*
G02X252274Y300043I3505J873*
G01*
G75*
G02X259498I3612*
G01*
G75*
G02X259391Y299169I-3612J0*
G01*
X287671*
G75*
G02X294895I3612*
G01*
X308808*
X317811Y308172*
G75*
G02X317671Y309167I3461J995*
G01*
G75*
G02Y309169I3524J1*
G01*
G75*
G02X318316Y311229I3612*
G01*
G37*
X340868D02*
G36*
X337931D01*
X335869Y309167*
G75*
G02X336017Y308140I-3496J-1027*
G01*
G75*
G02Y308139I-3222J0*
G01*
G75*
G02X328717I-3650*
G01*
G75*
G02X330424Y311229I3650*
G01*
X324250*
G75*
G02X324895Y309169I-2967J-2060*
G01*
G75*
G02X320286Y305697I-3612*
G01*
X313758Y299169*
X317671*
G75*
G02X324895I3612*
G01*
X328808*
X340868Y311229*
G37*
X345818D02*
G36*
X333758Y299169D01*
X395512*
G75*
G02X395013Y301229I3999J2059*
G01*
G75*
G02X404009I4498*
G01*
G75*
G02X403510Y299169I-4498J0*
G01*
X405249*
Y311229*
X404009*
G75*
G02X395013I-4498*
G01*
X345818*
G37*
X98632Y316252D02*
G36*
X5013D01*
Y311229*
X93609*
X98632Y316252*
G37*
X141742D02*
G36*
X103581D01*
X98559Y311229*
X136720*
X141742Y316252*
G37*
X146692D02*
G36*
X141669Y311229D01*
X163381*
Y316252*
X146692*
G37*
X180004D02*
G36*
X166881D01*
Y311229*
X177889*
Y313413*
G75*
G02X178402Y314650I1748J1*
G01*
X180004Y316252*
G37*
X187741D02*
G36*
X187251D01*
G75*
G02X184820Y316119I-1403J3370*
G01*
X181389Y312688*
Y311229*
X222474*
G75*
G02X224500Y313378I3411J-1186*
G01*
X191340*
G75*
G02X190102Y313891I-1J1750*
G01*
X187741Y316252*
G37*
X288316Y311229D02*
G36*
G75*
G02X288762Y311756I2967J-2060D01*
G01*
X273710*
G75*
G02X272472Y312269I-1J1750*
G01*
X268489Y316252*
X235873*
X233512Y313891*
G75*
G02X232274Y313378I-1237J1237*
G01*
X227273*
G75*
G02X229298Y311229I-1387J-3335*
G01*
X252474*
G75*
G02X259298I3412J-1186*
G01*
X288316*
G37*
X313769Y316252D02*
G36*
X294896D01*
Y315556*
X287672*
Y316252*
X279084*
G75*
G02X274575I-2254J2870*
G01*
X273439*
X274434Y315256*
X312773*
X313769Y316252*
G37*
X338004D02*
G36*
X323413D01*
G75*
G02X319153I-2130J2918*
G01*
X318719*
X314735Y312269*
G75*
G02X313497Y311756I-1237J1237*
G01*
X293804*
G75*
G02X294250Y311229I-2521J-2587*
G01*
X318316*
G75*
G02X324250I2967J-2060*
G01*
X330424*
G75*
G02X333394Y311642I1943J-3090*
G01*
X338004Y316252*
G37*
X345891D02*
G36*
X342954D01*
X337931Y311229*
X340868*
X345891Y316252*
G37*
X350838D02*
G36*
G75*
G02X350790Y316201I-1284J1186D01*
G01*
X345818Y311229*
X395013*
G75*
G02X404009I4498*
G01*
X405249*
Y316252*
X350838*
G37*
X103609Y321229D02*
G36*
X5013D01*
Y316252*
X98632*
X103609Y321229*
G37*
X146720D02*
G36*
X108559D01*
X103581Y316252*
X141742*
X146720Y321229*
G37*
X151669D02*
G36*
X146692Y316252D01*
X163381*
Y317375*
G75*
G02Y317376I2051J0*
G01*
G75*
G02X163893Y318612I1748*
G01*
X166510Y321229*
X151669*
G37*
X182571D02*
G36*
X171460D01*
X166881Y316650*
Y316252*
X180004*
X182346Y318594*
G75*
G02X182198Y319620I3496J1027*
G01*
G75*
G02Y319621I3222J0*
G01*
G75*
G02X182571Y321229I3650*
G01*
G37*
X187741Y316252D02*
G36*
X187583Y316410D01*
G75*
G02X187251Y316252I-1735J3211*
G01*
X187741*
G37*
X222274Y321229D02*
G36*
X189125D01*
G75*
G02X189498Y319621I-3277J-1608*
G01*
G75*
G02Y319607I-3123J-7*
G01*
G75*
G02X189494Y319449I-3154J-1*
G01*
X192064Y316878*
X222274*
Y321229*
G37*
X268489Y316252D02*
G36*
X266448Y318293D01*
X259046*
G75*
G02X252274Y320043I-3160J1750*
G01*
G75*
G02X252474Y321229I3612*
G01*
X240850*
X235873Y316252*
X268489*
G37*
X272248Y321229D02*
G36*
X268461D01*
X273439Y316252*
X274575*
G75*
G02X273180Y319122I2254J2871*
G01*
G75*
G02Y319123I3222J0*
G01*
G75*
G02X273327Y320150I3644*
G01*
X272248Y321229*
G37*
X318316D02*
G36*
X294896D01*
Y316252*
X313769*
X317870Y320353*
G75*
G02X318316Y321229I3413J-1183*
G01*
G37*
X286748D02*
G36*
X279810D01*
G75*
G02X280480Y319122I-2980J-2107*
G01*
G75*
G02X279084Y316252I-3650J0*
G01*
X287672*
Y320305*
X286748Y321229*
G37*
X319153Y316252D02*
G36*
G75*
G02X318911Y316444I2130J2917D01*
G01*
X318719Y316252*
X319153*
G37*
X347802Y321229D02*
G36*
X344845D01*
G75*
G02X344725Y321161I-1869J3137*
G01*
Y318748*
G75*
G02Y318747I-2051J0*
G01*
G75*
G02X344213Y317510I-1748*
G01*
X342954Y316252*
X345891*
X347802Y318163*
Y321229*
G37*
X341105D02*
G36*
X324250D01*
G75*
G02X324895Y319169I-2967J-2060*
G01*
G75*
G02X323413Y316252I-3612*
G01*
X338004*
X341225Y319472*
Y321161*
G75*
G02X341105Y321229I1749J3206*
G01*
G37*
X351302D02*
G36*
Y317439D01*
G75*
G02Y317438I-2051J0*
G01*
G75*
G02X350838Y316252I-1748*
G01*
X405249*
Y321229*
X404009*
G75*
G02X395013I-4498*
G01*
X351302*
G37*
X118600Y336220D02*
G36*
X5013D01*
Y321229*
X103609*
X118600Y336220*
G37*
X161711D02*
G36*
X141771D01*
X133688Y328137*
G75*
G02X133836Y327110I-3496J-1027*
G01*
G75*
G02Y327109I-3222J0*
G01*
G75*
G02X126536I-3650*
G01*
G75*
G02X131213Y330612I3650*
G01*
X136822Y336220*
X123550*
X108559Y321229*
X146720*
X161711Y336220*
G37*
X347802D02*
G36*
X343988D01*
G75*
G02X345104Y333350I-3135J-2870*
G01*
G75*
G02X340854Y329100I-4250*
G01*
G75*
G02X336604Y333350J4250*
G01*
G75*
G02X337719Y336220I4250*
G01*
X288789*
X286697Y334128*
G75*
G02X286844Y333101I-3496J-1027*
G01*
G75*
G02Y333100I-3222J0*
G01*
G75*
G02X279544I-3650*
G01*
G75*
G02X281300Y336220I3650*
G01*
X259863*
G75*
G02X254109I-2877J2246*
G01*
X166660*
X151669Y321229*
X166510*
X171862Y326581*
G75*
G02X171715Y327608I3496J1027*
G01*
G75*
G02Y327609I3222J0*
G01*
G75*
G02X179015I3650*
G01*
G75*
G02X174337Y324106I-3650*
G01*
X171460Y321229*
X182571*
G75*
G02X189125I3277J-1608*
G01*
X222274*
Y323654*
X226344*
X230414Y327722*
G75*
G02X231652Y328235I1238J-1240*
G01*
X283966*
G75*
G02X285204Y327722I1J-1750*
G01*
X290147Y322780*
X294896*
Y321229*
X318316*
G75*
G02X324250I2967J-2060*
G01*
X341105*
G75*
G02X339325Y324363I1869J3134*
G01*
Y324364*
G75*
G02X346625I3650*
G01*
Y324363*
G75*
G02X344845Y321229I-3649*
G01*
X347802*
Y336220*
G37*
X252474Y321229D02*
G36*
G75*
G02X252698Y321740I3412J-1186D01*
G01*
X241361*
X240850Y321229*
X252474*
G37*
X272248D02*
G36*
X271737Y321740D01*
X267599*
G75*
G02X268410Y321280I-426J-1696*
G01*
X268461Y321229*
X272248*
G37*
X286748D02*
G36*
X283242Y324735D01*
X273692*
X273699Y324728*
X275802Y322624*
G75*
G02X279810Y321229I1028J-3502*
G01*
X286748*
G37*
X383988Y336220D02*
G36*
G75*
G02X385104Y333350I-3134J-2870D01*
G01*
G75*
G02X380854Y329100I-4250*
G01*
G75*
G02X376604Y333350J4250*
G01*
G75*
G02X377720Y336220I4250J0*
G01*
X351302*
Y321229*
X395013*
G75*
G02X404009I4498*
G01*
X405249*
Y336220*
X383988*
G37*
X397764Y349582D02*
G36*
X383228D01*
Y336875*
G75*
G02X383988Y336220I-2374J-3525*
G01*
X405249*
Y348865*
G75*
G02X397764Y349582I-3553J2332*
G01*
G37*
X131963D02*
G36*
X5013D01*
Y336220*
X118600*
X131963Y349582*
G37*
X170374D02*
G36*
X139522D01*
G75*
G02X136397Y349067I-2098J2987*
G01*
X123550Y336220*
X136822*
X144905Y344303*
G75*
G02X144757Y345330I3496J1027*
G01*
G75*
G02Y345331I3222J0*
G01*
G75*
G02X152057I3650*
G01*
G75*
G02X147380Y341828I-3650*
G01*
X141771Y336220*
X161711*
X170374Y344884*
Y349582*
G37*
X254109Y336220D02*
G36*
G75*
G02X253336Y338467I2877J2246D01*
G01*
G75*
G02X253483Y339494I3644J1*
G01*
X251256Y341722*
G75*
G02X250743Y342959I1235J1237*
G01*
Y349582*
X217847*
G75*
G02X215002I-1422J3361*
G01*
X173874*
Y344159*
G75*
G02Y344158I-2051J0*
G01*
G75*
G02X173362Y342922I-1748*
G01*
X166660Y336220*
X254109*
G37*
X297202Y349582D02*
G36*
X254243D01*
Y343684*
X255958Y341969*
G75*
G02X260636Y338467I1028J-3502*
G01*
G75*
G02X259863Y336220I-3650*
G01*
X281300*
G75*
G02X284222Y336602I1894J-3120*
G01*
X297202Y349582*
G37*
X337719Y336220D02*
G36*
G75*
G02X338946Y337148I3134J-2870D01*
G01*
Y343721*
X338164*
Y343829*
X324880*
G75*
G02X323641Y344342I-2J1748*
G01*
X318402Y349582*
X315693*
G75*
G02X312848I-1422J3361*
G01*
X302152*
X288789Y336220*
X337719*
G37*
X343721Y349582D02*
G36*
X323352D01*
X325604Y347329*
X338164*
Y348189*
X343617*
Y343721*
X342761*
Y337148*
G75*
G02X343988Y336220I-1907J-3798*
G01*
X347802*
Y341162*
X346826*
Y342899*
X344234Y345491*
G75*
G02X343721Y346727I1235J1237*
G01*
G75*
G02Y346728I2051J0*
G01*
Y349582*
G37*
X377720Y336220D02*
G36*
G75*
G02X379728Y337448I3134J-2870D01*
G01*
Y349582*
X365627*
G75*
G02X361696Y346946I-3931J1614*
G01*
G75*
G02X360193Y347221J4248*
G01*
G75*
G02X359012Y346764I-1179J1290*
G01*
X352278*
Y346280*
X348394*
X349044Y345630*
X352278*
Y341162*
X351302*
Y336220*
X377720*
G37*
X399946Y360057D02*
G36*
X383228D01*
Y349582*
X397764*
G75*
G02X397446Y351196I3931J1614*
G01*
Y351197*
G75*
G02X399946Y355069I4249*
G01*
Y360057*
G37*
X170442D02*
G36*
X112595D01*
G75*
G02X104095I-4250*
G01*
X72595*
G75*
G02X64095I-4250*
G01*
X5013*
Y349582*
X131963*
X133922Y351542*
G75*
G02X133774Y352569I3496J1027*
G01*
G75*
G02X141074Y352569I3650J1*
G01*
G75*
G02X139522Y349582I-3650*
G01*
X170374*
Y349819*
X148625*
Y358119*
X170337*
Y359433*
G75*
G02X170442Y360057I1908J0*
G01*
G37*
X215002Y349582D02*
G36*
G75*
G02X212775Y352944I1422J3361D01*
G01*
G75*
G02X212922Y353971I3644J1*
G01*
X206836Y360057*
X175566*
X174152Y358643*
Y358119*
X189625*
Y349819*
X173874*
Y349582*
X215002*
G37*
X250743Y360057D02*
G36*
X211786D01*
X215397Y356446*
G75*
G02X220075Y352944I1028J-3502*
G01*
G75*
G02X217847Y349582I-3650*
G01*
X250743*
Y360057*
G37*
X306904D02*
G36*
X254243D01*
Y349582*
X297202*
X306904Y359285*
Y360057*
G37*
X318402Y349582D02*
G36*
X317208Y350777D01*
G75*
G02X315693Y349582I-2937J2167*
G01*
X318402*
G37*
X343721D02*
G36*
Y358972D01*
G75*
G02X344099Y360057I1748J1*
G01*
X310404*
Y358560*
G75*
G02Y358559I-2051J0*
G01*
G75*
G02X309892Y357322I-1748*
G01*
X302152Y349582*
X312848*
G75*
G02X310620Y352944I1423J3361*
G01*
G75*
G02X317473Y354695I3650*
G01*
X317515*
G75*
G02X318753Y354183I1J-1750*
G01*
X323352Y349582*
X343721*
G37*
X379728Y360057D02*
G36*
X349032D01*
X347221Y358247*
Y350748*
X352278*
Y350264*
X357549*
G75*
G02X357446Y351196I4147J933*
G01*
G75*
G02X361696Y355446I4250*
G01*
G75*
G02X365946Y351196J-4250*
G01*
G75*
G02X365627Y349582I-4250*
G01*
X379728*
Y360057*
G37*
X176365Y369855D02*
G36*
X157765D01*
G75*
G02X151570Y368462I-3493J1060*
G01*
G75*
G02X150617Y369855I2453J2702*
G01*
X146676*
Y360071*
X138373*
Y369855*
X132973*
X131922Y368804*
G75*
G02X130684Y368292I-1237J1237*
G01*
X52256*
G75*
G02X44506Y369855I-3567J2311*
G01*
X5013*
Y360057*
X64095*
G75*
G02X72595I4250*
G01*
X104095*
G75*
G02X112595I4250*
G01*
X170442*
G75*
G02X170897Y360784I1803J-624*
G01*
X177930Y367816*
G75*
G02X176365Y369855I1928J3099*
G01*
G37*
X191574D02*
G36*
X183350D01*
G75*
G02X181765Y367804I-3493J1061*
G01*
Y367046*
G75*
G02X181205Y365696I-1908*
G01*
X175566Y360057*
X206836*
X200874Y366020*
X199873*
Y360071*
X191574*
Y369855*
G37*
X238769D02*
G36*
X212856D01*
G75*
G02X211584Y368547I-3170J1810*
G01*
X237558*
G75*
G02X238769Y369855I3203J-1750*
G01*
G37*
X250743Y360057D02*
G36*
Y363576D01*
X244464Y369855*
X242755*
G75*
G02X244411Y366797I-1993J-3058*
G01*
G75*
G02X237558Y365047I-3650*
G01*
X206796*
X211786Y360057*
X250743*
G37*
X306904Y369855D02*
G36*
X302503D01*
Y365855*
X294003*
Y369855*
X293503*
Y365855*
X285003*
Y368498*
X266753*
G75*
G02X260300Y369855I-3002J1750*
G01*
X249414*
X253730Y365538*
G75*
G02X254243Y364302I-1235J-1237*
G01*
G75*
G02Y364301I-2051J0*
G01*
Y360057*
X306904*
Y369855*
G37*
X348302D02*
G36*
X345520D01*
G75*
G02X345728Y368544I-4043J-1311*
G01*
G75*
G02X341478Y364294I-4250*
G01*
G75*
G02X337228Y368544J4250*
G01*
G75*
G02X337435Y369855I4250*
G01*
X310404*
Y360057*
X344099*
G75*
G02X344234Y360209I1370J-1085*
G01*
X348302Y364277*
Y369855*
G37*
X377435D02*
G36*
X351802D01*
Y363552*
G75*
G02Y363551I-2051J0*
G01*
G75*
G02X351289Y362315I-1748*
G01*
X349032Y360057*
X379728*
Y364671*
G75*
G02X377228Y368544I1750J3873*
G01*
G75*
G02X377435Y369855I4250*
G01*
G37*
X399946D02*
G36*
X385520D01*
G75*
G02X385727Y368544I-4043J-1311*
G01*
G75*
G02X383228Y364671I-4250*
G01*
Y360057*
X399946*
Y369855*
G37*
X72235Y389855D02*
G36*
X72010D01*
X72050Y389815*
G75*
G02X72235Y389855I852J-3548*
G01*
G37*
X107517D02*
G36*
X102847D01*
G75*
G02X95689I-3579J715*
G01*
X73567*
G75*
G02X76551Y386266I-666J-3589*
G01*
G75*
G02X69251I-3650*
G01*
G75*
G02Y386268I4101J1*
G01*
G75*
G02X69352Y387118I3635*
G01*
X66615Y389855*
X31699*
X47036Y374518*
G75*
G02X52770Y371792I1654J-3915*
G01*
X129960*
X136976Y378809*
G75*
G02X138214Y379321I1237J-1237*
G01*
X138373*
Y379821*
X113269*
G75*
G02X112031Y380333I0J1752*
G01*
X108030Y384332*
G75*
G02X107517Y385570I1238J1238*
G01*
Y389855*
G37*
X113918D02*
G36*
X111017D01*
Y387031*
G75*
G02X113918Y389855I3569J-765*
G01*
G37*
X44506Y369855D02*
G36*
G75*
G02X44439Y370602I4183J747D01*
G01*
G75*
G02X44558Y371600I4251*
G01*
X26304Y389855*
X5013*
Y369855*
X44506*
G37*
X138373D02*
G36*
Y375256D01*
X132973Y369855*
X138373*
G37*
X115689Y389855D02*
G36*
X115253D01*
G75*
G02X115714Y389737I-668J-3588*
G01*
G75*
G02X115689Y389855I3555J837*
G01*
G37*
X150617Y369855D02*
G36*
G75*
G02X150373Y371165I3407J1310D01*
G01*
G75*
G02X150521Y372193I3649*
G01*
X146893Y375820*
X146676*
Y369855*
X150617*
G37*
X191574Y389855D02*
G36*
X186794D01*
G75*
G02X184902I-946J3526*
G01*
X157672*
G75*
G02X157673Y389761I-3669J-93*
G01*
G75*
G02X150373I-3650*
G01*
Y389761*
G75*
G02X150374Y389855I3650J1*
G01*
X146676*
Y379320*
X147617*
G75*
G02X148856Y378807I1J-1750*
G01*
X152996Y374667*
G75*
G02X156726Y373618I1028J-3502*
G01*
G75*
G02X157923Y370915I-2453J-2703*
G01*
Y370915*
G75*
G02X157765Y369855I-3650J0*
G01*
X176365*
G75*
G02X176207Y370915I3492J1061*
G01*
G75*
G02X180885Y374418I3650*
G01*
X183375Y376907*
G75*
G02X184613Y377420I1237J-1237*
G01*
X191574*
Y389855*
G37*
Y369855D02*
G36*
Y373920D01*
X185337*
X183360Y371943*
G75*
G02X183507Y370915I-3503J-1028*
G01*
G75*
G02X183350Y369855I-3650*
G01*
X191574*
G37*
X244464D02*
G36*
X240399Y373920D01*
X212555*
G75*
G02X213335Y371664I-2870J-2256*
G01*
G75*
G02X212856Y369855I-3650*
G01*
X238769*
G75*
G02X242755I1993J-3058*
G01*
X244464*
G37*
X260300D02*
G36*
G75*
G02X260277Y370248I3451J394D01*
G01*
G75*
G02X260392Y371133I3475*
G01*
X255704Y375820*
X243448*
X249414Y369855*
X260300*
G37*
Y389855D02*
G36*
X199873D01*
Y381320*
X253137*
X260392Y388575*
G75*
G02X260277Y389460I3361J885*
G01*
G75*
G02X260300Y389855I3473J0*
G01*
G37*
X343759D02*
G36*
X302503D01*
Y385855*
X294003*
Y389855*
X293503*
Y385855*
X285003*
Y387710*
X266753*
G75*
G02X262867Y386100I-3002J1751*
G01*
X256086Y379320*
X256428*
G75*
G02X257667Y378807I1J-1750*
G01*
X262867Y373607*
G75*
G02X266753Y371998I885J-3361*
G01*
X285003*
Y373855*
X293503*
Y369855*
X294003*
Y373855*
X302503*
Y369855*
X306904*
Y377447*
G75*
G02X305004Y380650I1749J3203*
G01*
Y380650*
G75*
G02X312304I3650*
G01*
Y380650*
G75*
G02X310404Y377447I-3649*
G01*
Y369855*
X337435*
G75*
G02X339570Y372342I4043J-1311*
G01*
Y379040*
X338664*
Y383508*
X343759*
Y389855*
G37*
X348302Y369855D02*
G36*
Y376481D01*
X347326*
Y378966*
X344271Y382020*
G75*
G02X344117Y382197I1250J1250*
G01*
Y379040*
X343385*
Y372342*
G75*
G02X345520Y369855I-1907J-3798*
G01*
X348302*
G37*
X349206Y389855D02*
G36*
X347259D01*
Y383983*
X347326Y383916*
Y386067*
X348302*
Y388226*
G75*
G02X348814Y389463I1748J1*
G01*
X349206Y389855*
G37*
X377435Y369855D02*
G36*
G75*
G02X377980Y370959I4043J-1311D01*
G01*
Y389855*
X356698*
G75*
G02X352556Y388255I-3115J1903*
G01*
X351802Y387501*
Y386067*
X352778*
Y385583*
X358126*
G75*
G02X366570Y384893I4194J-690*
G01*
G75*
G02X359131Y382083I-4250J0*
G01*
X352778*
Y381599*
X349643*
X350292Y380949*
X352778*
Y380465*
X369011*
G75*
G02X374831Y377530I2170J-2935*
G01*
G75*
G02X367575Y376965I-3650*
G01*
X352778*
Y376481*
X351802*
Y369855*
X377435*
G37*
X400570Y389855D02*
G36*
X381480D01*
Y372794*
G75*
G02X385520Y369855I-3J-4250*
G01*
X399946*
Y381368*
G75*
G02X398070Y384893I2374J3525*
G01*
G75*
G02X400570Y388766I4250*
G01*
Y389855*
G37*
X26304D02*
G36*
X22007Y394151D01*
G75*
G02X21447Y395502I1348J1350*
G01*
Y409473*
X5013*
Y389855*
X26304*
G37*
X66615D02*
G36*
X49931Y406538D01*
G75*
G02X44593Y409473I-1242J4065*
G01*
X25262*
Y396292*
X31699Y389855*
X66615*
G37*
X95193Y409473D02*
G36*
X90142D01*
X86018Y405348*
Y398773*
G75*
G02X87918Y395570I-1749J-3203*
G01*
Y395570*
G75*
G02X80618I-3650*
G01*
Y395570*
G75*
G02X82518Y398773I3649*
G01*
Y406073*
G75*
G02Y406074I2051J0*
G01*
G75*
G02X83030Y407311I1748*
G01*
X85193Y409473*
X80142*
X79019Y408350*
Y405319*
G75*
G02X80919Y402117I-1749J-3203*
G01*
Y402116*
G75*
G02X73619I-3650*
G01*
Y402117*
G75*
G02X75519Y405319I3649*
G01*
Y409075*
G75*
G02Y409076I2051J0*
G01*
G75*
G02X75565Y409473I1748J0*
G01*
X73792*
G75*
G02X74305Y407608I-3137J-1865*
G01*
Y407607*
G75*
G02X67005I-3650*
G01*
Y407608*
G75*
G02X67517Y409473I3650*
G01*
X52787*
G75*
G02X52692Y409173I-4089J1130*
G01*
X72010Y389855*
X72235*
G75*
G02X73567I667J-3589*
G01*
X95689*
G75*
G02X95618Y390570I3579J716*
G01*
G75*
G02Y390571I3222J0*
G01*
G75*
G02X95765Y391598I3644*
G01*
X93030Y394333*
G75*
G02X92518Y395569I1235J1237*
G01*
G75*
G02Y395570I2051J0*
G01*
Y406073*
G75*
G02Y406074I2051J0*
G01*
G75*
G02X93030Y407311I1748*
G01*
X95193Y409473*
G37*
X100142D02*
G36*
X96018Y405348D01*
Y396295*
X98240Y394072*
G75*
G02X102918Y390570I1028J-3502*
G01*
G75*
G02X102847Y389855I-3650J0*
G01*
X107517*
Y409473*
X100142*
G37*
X133894D02*
G36*
X128456D01*
G75*
G02X128969Y407607I-3137J-1865*
G01*
G75*
G02X128821Y406580I-3644J-1*
G01*
X131173Y404227*
G75*
G02X131686Y402991I-1235J-1237*
G01*
G75*
G02Y402990I-2051J0*
G01*
Y400470*
X131911Y400245*
G75*
G02X133894Y403246I3643J-251*
G01*
Y409473*
G37*
X115689Y389855D02*
G36*
G75*
G02X115618Y390570I3580J716D01*
G01*
G75*
G02X121126Y393711I3650*
G01*
G75*
G02X120617Y395570I3141J1859*
G01*
G75*
G02X122351Y398676I3650J0*
G01*
G75*
G02X119922Y402116I1221J3440*
G01*
G75*
G02X122310Y405541I3650*
G01*
G75*
G02X121669Y407607I3009J2067*
G01*
G75*
G02X122181Y409473I3650*
G01*
X111017*
Y389855*
X113918*
G75*
G02X115253I668J-3589*
G01*
X115689*
G37*
X184902D02*
G36*
G75*
G02X182198Y393380I946J3525D01*
G01*
G75*
G02X182306Y394259I3674J-3*
G01*
G75*
G02X181944Y395377I1550J1119*
G01*
Y403020*
X169875*
Y401116*
G75*
G02Y401115I-2051J0*
G01*
G75*
G02X169362Y399879I-1748*
G01*
X161126Y391645*
G75*
G02X159888Y391132I-1237J1237*
G01*
X157869*
X157525Y390789*
G75*
G02X157672Y389855I-3520J-1032*
G01*
X184902*
G37*
X148625Y409473D02*
G36*
X137709D01*
Y402939*
G75*
G02X139040Y401071I-2157J-2944*
G01*
X146676*
Y389855*
X150374*
G75*
G02X155050Y393263I3649J-94*
G01*
X155906Y394119*
G75*
G02X157144Y394632I1237J-1235*
G01*
X159164*
X166375Y401841*
Y403020*
X148625*
Y409473*
G37*
X346966D02*
G36*
X341480D01*
Y407611*
G75*
G02X343980Y403739I-1750J-3873*
G01*
G75*
G02X339730Y399489I-4250*
G01*
G75*
G02X335480Y403739J4250*
G01*
G75*
G02X337980Y407611I4250*
G01*
Y409473*
X204356*
G75*
G02X199289I-2533J2628*
G01*
X189625*
Y403020*
X185759*
Y397029*
G75*
G02X189498Y393380I89J-3649*
G01*
G75*
G02X186794Y389855I-3650*
G01*
X191574*
Y401071*
X199873*
Y389855*
X260300*
G75*
G02X266753Y391210I3452J-394*
G01*
X285003*
Y393855*
X293503*
Y389855*
X294003*
Y393855*
X302503*
Y389855*
X343759*
Y395664*
G75*
G02Y395665I2051J0*
G01*
G75*
G02X344271Y396901I1748*
G01*
X346966Y399596*
Y409473*
G37*
X400570D02*
G36*
X350466D01*
Y398871*
G75*
G02Y398870I-2051J0*
G01*
G75*
G02X349954Y397634I-1748*
G01*
X347259Y394939*
Y389855*
X349206*
X350081Y390730*
G75*
G02X349933Y391757I3496J1027*
G01*
G75*
G02X357233Y391757I3650J1*
G01*
G75*
G02X356698Y389855I-3650J0*
G01*
X377980*
Y399866*
G75*
G02X375480Y403739I1750J3873*
G01*
G75*
G02X379730Y407989I4250*
G01*
G75*
G02X383980Y403739J-4250*
G01*
G75*
G02X381480Y399866I-4250*
G01*
Y389855*
X400570*
Y409473*
G37*
X21447Y443396D02*
G36*
X5013D01*
Y409473*
X21447*
Y443396*
G37*
X98887D02*
G36*
X44665D01*
Y442677*
G75*
G02X42915Y440927I-1750*
G01*
X40081*
Y434773*
G75*
G02X41981Y431570I-1749J-3203*
G01*
Y431570*
G75*
G02X34681I-3650*
G01*
Y431570*
G75*
G02X36581Y434773I3649*
G01*
Y442677*
G75*
G02X36735Y443396I1750*
G01*
X25262*
Y409473*
X44593*
G75*
G02X44439Y410603I4097J1131*
G01*
G75*
G02X52939I4250*
G01*
G75*
G02Y410601I-4749J-1*
G01*
G75*
G02X52787Y409473I-4241J0*
G01*
X67517*
G75*
G02X68905Y410811I3137J-1865*
G01*
Y412460*
G75*
G02Y412461I2051J0*
G01*
G75*
G02X69417Y413698I1748*
G01*
X98951Y443231*
G75*
G02X98887Y443396I4167J1692*
G01*
G37*
X108887D02*
G36*
X107349D01*
G75*
G02X101426Y440756I-4231J1527*
G01*
X72405Y411735*
Y410811*
G75*
G02X73792Y409473I-1749J-3202*
G01*
X75565*
G75*
G02X76032Y410312I1702J-398*
G01*
X108951Y443231*
G75*
G02X108887Y443396I4167J1692*
G01*
G37*
X118887D02*
G36*
X117349D01*
G75*
G02X111426Y440756I-4231J1527*
G01*
X80142Y409473*
X85193*
X118951Y443231*
G75*
G02X118887Y443396I4167J1692*
G01*
G37*
X128887D02*
G36*
X127349D01*
G75*
G02X121426Y440756I-4231J1527*
G01*
X90142Y409473*
X95193*
X128951Y443231*
G75*
G02X128887Y443396I4167J1692*
G01*
G37*
X138887D02*
G36*
X137349D01*
G75*
G02X131426Y440756I-4231J1527*
G01*
X100142Y409473*
X107517*
Y411073*
G75*
G02X108031Y412313I1752J0*
G01*
X138951Y443231*
G75*
G02X138887Y443396I4169J1693*
G01*
G37*
X148625Y409473D02*
G36*
Y411319D01*
X152365*
Y430910*
X137709*
Y409473*
X148625*
G37*
X199289D02*
G36*
G75*
G02X198173Y412100I2533J2628D01*
G01*
G75*
G02X199914Y415211I3650*
G01*
Y428658*
X197538Y431034*
X158178*
Y429898*
G75*
G02X163796Y429032I2460J-2697*
G01*
G75*
G02X164609Y428549I-536J-1828*
G01*
X168100Y425057*
G75*
G02X168661Y423707I-1348J-1350*
G01*
Y418216*
G75*
G02Y418213I-2020J-1*
G01*
G75*
G02X168610Y417778I-1896*
G01*
X171019Y420187*
G75*
G02X172369Y420747I1350J-1348*
G01*
X174998*
G75*
G02X181760Y418840I3112J-1907*
G01*
G75*
G02X174998Y416932I-3650*
G01*
X173159*
X167912Y411685*
Y411319*
X189625*
Y409473*
X199289*
G37*
X346966D02*
G36*
Y411674D01*
X346326*
Y414162*
X343485Y417003*
G75*
G02X343117Y417544I1243J1241*
G01*
Y414233*
X341480*
Y409473*
X346966*
G37*
X405249Y422045D02*
G36*
Y443396D01*
X177617*
Y440426*
X168621*
Y443396*
X167349*
G75*
G02X158887I-4231J1527*
G01*
X157349*
G75*
G02X148887I-4231J1527*
G01*
X147349*
G75*
G02X143118Y440426I-4231J1527*
G01*
G75*
G02X141426Y440756I0J4498*
G01*
X111017Y410348*
Y409473*
X122181*
G75*
G02X128456I3137J-1865*
G01*
X133894*
Y432065*
Y432068*
Y432069*
G75*
G02X134453Y433418I1909J0*
G01*
X135202Y434167*
G75*
G02X136555Y434725I1349J-1349*
G01*
X154273*
G75*
G02X155171Y434500I0J-1909*
G01*
G75*
G02X156270Y434849I1098J-1557*
G01*
X198328*
G75*
G02X199679Y434289J-1908*
G01*
X203169Y430798*
G75*
G02X203729Y429448I-1348J-1350*
G01*
Y415213*
G75*
G02X205473Y412100I-1907J-3113*
G01*
G75*
G02X204356Y409473I-3650*
G01*
X337980*
Y414233*
X337664*
Y418701*
X342972*
Y423232*
X339255Y426949*
X304945*
G75*
G02X303707Y427462I-1J1750*
G01*
X303101Y428067*
G75*
G02X298424Y431570I-1028J3502*
G01*
G75*
G02X305724I3650*
G01*
G75*
G02Y431569I-3222J0*
G01*
G75*
G02X305576Y430542I-3644*
G01*
X305669Y430449*
X339979*
G75*
G02X341217Y429937I1J-1750*
G01*
X345960Y425194*
G75*
G02X346472Y423957I-1235J-1237*
G01*
Y421260*
X347303*
Y425417*
G75*
G02Y425418I2051J0*
G01*
G75*
G02X347816Y426654I1748*
G01*
X353451Y432289*
G75*
G02X353303Y433316I3496J1027*
G01*
G75*
G02Y433317I3222J0*
G01*
G75*
G02X360603I3650*
G01*
G75*
G02X355926Y429815I-3650*
G01*
X350803Y424692*
Y421260*
X351778*
Y420778*
X357581*
G75*
G02X365946Y419713I4115J-1064*
G01*
G75*
G02X358213Y417278I-4250*
G01*
X351778*
Y416792*
X348646*
X349295Y416142*
X351778*
Y411674*
X350466*
Y409473*
X400570*
Y415615*
G75*
G02X397446Y419713I1126J4098*
G01*
G75*
G02X401696Y423963I4250*
G01*
G75*
G02X405249Y422045I0J-4250*
G01*
G37*
X18141Y453785D02*
G36*
X5013D01*
Y443396*
X21447*
Y448697*
X18141*
Y453785*
G37*
X37826D02*
G36*
X28318D01*
Y448697*
X25262*
Y443396*
X36735*
G75*
G02X38331Y444427I1595J-719*
G01*
X41165*
Y449006*
G75*
G02X37826Y453785I1750J4778*
G01*
G37*
X147349Y443396D02*
G36*
X148887D01*
G75*
G02X148620Y444924I4231J1528*
G01*
G75*
G02X157616I4498*
G01*
G75*
G02X157349Y443396I-4498J0*
G01*
X158887*
G75*
G02X158620Y444924I4231J1528*
G01*
G75*
G02X167616I4498*
G01*
G75*
G02X167349Y443396I-4498J0*
G01*
X168621*
Y449422*
X177617*
Y443396*
X405249*
Y453785*
X87373*
G75*
G02X77196I-5089*
G01*
X67688*
G75*
G02X57511I-5089*
G01*
X48003*
G75*
G02X44665Y449006I-5089*
G01*
Y443396*
X98887*
G75*
G02X98620Y444924I4230J1528*
G01*
G75*
G02X107616I4498*
G01*
Y444923*
G75*
G02X107349Y443396I-4497J0*
G01*
X108887*
G75*
G02X108620Y444924I4230J1528*
G01*
G75*
G02X117616I4498*
G01*
Y444923*
G75*
G02X117349Y443396I-4497J0*
G01*
X118887*
G75*
G02X118620Y444924I4230J1528*
G01*
G75*
G02X127616I4498*
G01*
Y444923*
G75*
G02X127349Y443396I-4497J0*
G01*
X128887*
G75*
G02X128620Y444924I4230J1528*
G01*
G75*
G02X137616I4498*
G01*
Y444923*
G75*
G02X137349Y443396I-4497J0*
G01*
X138887*
G75*
G02X138620Y444924I4231J1526*
G01*
G75*
G02X143118Y449422I4498*
G01*
G75*
G02X147616Y444924J-4498*
G01*
G75*
G02X147349Y443396I-4498J0*
G01*
G37*
X48003Y453785D02*
G36*
X57511D01*
G75*
G02X67688I5089*
G01*
X77196*
G75*
G02X87373I5089*
G01*
X405249*
Y470006*
X5013*
Y453785*
X18141*
Y458874*
X28318*
Y453785*
X37826*
G75*
G02X48003I5089*
G01*
G37*
D02*
D70*
X10250Y133408D02*
X21108D01*
X21607Y133907*
X23611*
X21607Y142907D02*
X10749D01*
X10250Y142408*
X42574Y70889D02*
Y59906D01*
X44446Y58034*
X64766*
X109570Y13230*
X42915Y453785D02*
Y442677D01*
X38331*
Y431570*
X45195Y122924D02*
X59298D01*
X59797Y122425*
X45195Y122924D02*
X44689Y123431D01*
X31841*
X30343Y124928*
Y125171*
X21607Y133907*
X45195Y131924D02*
X34587D01*
X45320Y123049D02*
X45195Y122924D01*
X48689Y370603D02*
X48253D01*
X23354Y395502*
Y453660*
X23230Y453785*
X59261D02*
X57261D01*
X59797Y122425D02*
X73900D01*
X59797Y131425D02*
X52683D01*
X59797D02*
Y137409D01*
X73775Y151387*
Y151636*
X81887Y159748*
Y171683*
X82676Y172472*
X60039Y122183D02*
X59797Y122425D01*
X62600Y450446D02*
Y448446D01*
Y457123D02*
Y459123D01*
X62676Y172472D02*
Y163002D01*
X49313Y149639*
X28339*
X21607Y142907*
X65938Y453785D02*
X67938D01*
X67676Y172472D02*
Y162385D01*
X51809Y146519*
X30967*
X28721Y144273*
Y141021*
X21607Y133907*
X67676Y209676D02*
Y190325D01*
X137674*
X70655Y407607D02*
Y412460D01*
X103118Y444924*
X72676Y209676D02*
Y287820D01*
X137424Y352569*
X72901Y386266D02*
X48689Y410478D01*
Y410603*
X73151Y121676D02*
X73900Y122425D01*
X88751*
X89250Y121926*
X73900Y131425D02*
X67035D01*
X77269Y402116D02*
Y409075D01*
X113118Y444924*
X77676Y172472D02*
X78517D01*
Y165646*
X52027Y139156*
Y138757*
X45195Y131924*
X77769Y239123D02*
Y209769D01*
X77676Y209676*
X82885Y234880D02*
Y209886D01*
X82676Y209676*
X84268Y395570D02*
Y406073D01*
X123118Y444924*
X87254Y223148D02*
Y210098D01*
X87676Y209676*
Y172472D02*
Y152682D01*
X75272Y140279*
Y132798*
X73900Y131425*
X89250Y121926D02*
X101356D01*
X104102Y119180*
X89250Y130926D02*
X81388D01*
X89250D02*
Y158126D01*
X92994Y161870*
Y172153*
X92676Y172472*
X89672Y70514D02*
Y60982D01*
X111590Y39064*
X187970*
X218671Y8362*
X252220*
X257337Y13479*
X94867Y146263D02*
X102979D01*
X103228Y146512*
X97676Y172472D02*
Y158072D01*
X94867Y155263*
X97676Y209676D02*
Y200933D01*
X99268Y390570D02*
X94268Y395570D01*
Y406073*
X133118Y444924*
X102676Y172472D02*
Y168164D01*
X108720Y162120*
Y132798*
X104102Y128180*
X103228Y155512D02*
X95116D01*
X94867Y155263*
X104102Y119180D02*
X111965D01*
X112339Y118806*
X104102Y128180D02*
X111965D01*
X112339Y127806*
X107676Y206633D02*
Y204634D01*
Y212720D02*
Y214721D01*
X108455Y209676D02*
X110456D01*
X119413Y44430D02*
Y54539D01*
X119203*
X109593Y64149*
Y68642*
X117081Y76130*
X145911*
Y58533*
X203320*
X121329Y65826D02*
Y62398D01*
X140295Y43432*
X123197Y129054D02*
X129936D01*
X123197D02*
Y133415D01*
X148657Y158875*
Y172210*
X148395Y172472*
X124070Y120928D02*
X123197Y120054D01*
X126691Y150880D02*
Y146020D01*
X118704Y138033*
Y124547*
X123197Y120054*
X126691Y150880D02*
X117955D01*
X117706Y151130*
X126691Y159880D02*
X117955D01*
X117706Y160130*
X130186Y327109D02*
X148407Y345331D01*
X133395Y172472D02*
Y166584D01*
X126691Y159880*
X135552Y399994D02*
X135802D01*
Y432069*
X136551Y432818*
X154273*
Y408117*
X154324Y408065*
Y407170*
X136676Y119929D02*
X123322D01*
X123197Y120054*
X136676Y128929D02*
X144164D01*
X137293Y207555D02*
X138395D01*
Y209676*
X137300Y121302D02*
Y120553D01*
X136676Y119929*
X137674Y190325D02*
Y209678D01*
X137676Y209676*
X138395*
X137924Y67121D02*
Y55538D01*
X149530Y43931*
X138395Y172472D02*
Y162584D01*
X126691Y150880*
X142524Y377570D02*
X147618D01*
X154273Y370915*
X142524Y377570D02*
X138213D01*
X130685Y370042*
X49250*
X48689Y370603*
X142524Y381570D02*
X113268D01*
X109268Y385570*
Y411073*
X143118Y444924*
X142524Y383570D02*
X117281D01*
X114585Y386266*
X142524Y385470D02*
X124368D01*
X119268Y390570*
X142524Y387470D02*
X132368D01*
X124268Y395570*
X142524Y389470D02*
X136217D01*
X123571Y402116*
X142524Y391370D02*
X138311D01*
X129936Y399745*
Y402990*
X125319Y407607*
X143395Y209676D02*
Y244989D01*
X147783Y239123D02*
Y210289D01*
X148395Y209676*
X149530Y31825D02*
X157143Y24212D01*
Y14869*
X158783Y13230*
X151278Y119804D02*
X136800D01*
X136676Y119929*
X151278Y128804D02*
X158142D01*
X152650Y234880D02*
Y210421D01*
X153395Y209676*
Y172472D02*
Y159869D01*
X135927Y142401*
Y129678*
X136676Y128929*
X154013Y66723D02*
Y67259D01*
X163633Y76879*
X301041*
X315269Y62652*
Y22198*
X306550Y13479*
X154023Y371165D02*
X154273Y370915D01*
X157268Y223148D02*
Y210804D01*
X158395Y209676*
Y172472D02*
Y155634D01*
X152151Y149390*
Y129678*
X151278Y128804*
X160513Y418465D02*
X158267Y416219D01*
Y407478*
X158324Y407420*
Y407170*
X160638Y427202D02*
X163259D01*
X166753Y423707*
Y418216*
X161636Y413099*
X161262*
X160263Y412100*
Y407209*
X160224Y407170*
X163395Y172472D02*
Y129916D01*
X164756Y128555*
Y119555D02*
X151527D01*
X151278Y119804*
X164756Y128555D02*
X172494D01*
X165131Y284177D02*
Y317375D01*
X175365Y327609*
X167752Y201433D02*
X167876D01*
Y209157*
X168395Y209676*
X167876Y13978D02*
X168625Y13230D01*
X168124Y407170D02*
Y401116D01*
X159889Y392881*
X157143*
X154023Y389761*
X170123Y158258D02*
Y163617D01*
X168376Y165365*
Y172452*
X168395Y172472*
X171995Y353841D02*
X172124Y353970D01*
Y344159*
X129639Y301674*
X173395Y172472D02*
Y168831D01*
X175989Y166238*
X181605*
X185224Y162619*
Y136917*
X179733Y131425*
X173395Y209676D02*
Y247208D01*
X169499Y251104*
X178110Y418840D02*
X172369D01*
X166004Y412475*
Y407789*
X166124Y407669*
Y407170*
X178235Y149383D02*
X177978D01*
X176737Y148142*
X171239*
X170123Y149258*
X178235Y158383D02*
X170248D01*
X170123Y158258*
X178395Y206633D02*
Y204634D01*
Y212720D02*
Y214721D01*
X178609Y121302D02*
X179733Y122425D01*
X179175Y209676D02*
X181176D01*
X179639Y301674D02*
Y313413D01*
X185848Y319621*
X179733Y122425D02*
X167627D01*
X164756Y119555*
X179733Y122425D02*
X190591D01*
X190840Y122675*
X179857Y370915D02*
Y367046D01*
X172244Y359433*
Y354196*
X172124Y354076*
Y353970*
X185848Y393380D02*
X183851Y395377D01*
Y407097*
X183924Y407170*
X187809Y270674D02*
X185809D01*
X189639Y268843D02*
Y266843D01*
Y272505D02*
Y274505D01*
Y301674D02*
Y289122D01*
X198578Y280183*
X225746*
X225886Y280043*
X190840Y131675D02*
X179982D01*
X179733Y131425*
X191470Y270674D02*
X193470D01*
X192088Y22465D02*
X190091D01*
X174990Y7364*
X143840*
X139098Y12106*
Y13230*
X194335Y157384D02*
X203071D01*
X203196Y157509*
X195724Y367770D02*
X201598D01*
X216425Y352944*
X195724Y369770D02*
X202843D01*
X205817Y366797*
X240761*
X195724Y371670D02*
X209680D01*
X209685Y371664*
X195724Y375670D02*
X241124D01*
X252493Y364301*
Y342959*
X256986Y338467*
X195724Y375670D02*
X184612D01*
X179857Y370915*
X195724Y377570D02*
X256429D01*
X263752Y370248*
X195724Y379570D02*
X253861D01*
X263752Y389460*
X201823Y412100D02*
Y429448D01*
X198328Y432943*
X156270*
Y407599*
X156324Y407544*
Y407170*
X203196Y148509D02*
Y132791D01*
X199951Y129546*
Y119929*
X204943Y114937*
X203196Y148509D02*
X194459D01*
X194335Y148384*
X203196Y157509D02*
Y172935D01*
X201912Y174219*
X204943Y114937D02*
X217798D01*
X219794Y112940*
X204943Y123937D02*
Y137284D01*
X216175Y148516*
Y173482*
X216912Y174219*
X204943Y123937D02*
X212181D01*
X206912Y174219D02*
Y165642D01*
X209436Y163118*
Y154749*
X203196Y148509*
X206912Y211424D02*
X207314D01*
Y210800*
X207813*
X207689Y190325D02*
X137674D01*
X207689D02*
Y210313D01*
X206912Y211090*
Y211424*
X208437Y286174D02*
Y300152D01*
X216799Y308514*
X224357*
X225886Y310043*
X208812Y10733D02*
X197205D01*
Y10858*
X185848*
X211912Y211424D02*
Y234151D01*
X201698Y244365*
X216912Y211424D02*
Y241881D01*
X208437Y250356*
X219794Y112940D02*
X234646D01*
X219794Y121940D02*
X227407D01*
X221912Y174219D02*
Y142896D01*
X219794Y140778*
Y121940*
X221912Y211424D02*
X221791D01*
Y225156*
X239752Y243117*
X224024Y260043D02*
X222024D01*
X225886Y258181D02*
Y256181D01*
Y261905D02*
Y263905D01*
Y280043D02*
X236019D01*
X225886D02*
Y270043D01*
Y320043D02*
Y320721D01*
X231651Y326485*
X283967*
X291283Y319169*
X226912Y174219D02*
Y152131D01*
X232899Y146145*
Y123687*
X234646Y121940*
X226912Y211424D02*
Y219034D01*
X231027Y223148*
X227748Y260043D02*
X229748D01*
X231912Y174219D02*
Y155993D01*
X243257Y144647*
Y128555*
X249747Y122065*
X234646Y112940D02*
X249622D01*
X249747Y113065*
X234646Y121940D02*
X242633D01*
X235395Y59531D02*
Y43557D01*
X214303Y22465*
X236019Y290176D02*
X255886Y310043D01*
X236912Y211424D02*
Y206425D01*
X236893*
Y201932*
X237766Y229888D02*
Y212278D01*
X236912Y211424*
X239752Y243117D02*
X231776D01*
X223539Y234880*
X240761Y263709D02*
X247095Y270043D01*
X255886*
X241912Y174219D02*
Y167209D01*
X249248Y159873*
X253374*
X268343Y144904*
X246912Y208380D02*
Y206380D01*
Y214467D02*
Y216467D01*
X247692Y211424D02*
X249692D01*
X248374Y146776D02*
Y154382D01*
X238141Y164616*
Y172991*
X236912Y174219*
X248374Y146776D02*
X256112D01*
X256487Y146402*
X256736*
X249747Y113065D02*
X254483D01*
X267220Y125802*
Y134781*
X268343Y135904*
X249747Y122065D02*
X257360D01*
X250246Y59781D02*
Y58408D01*
X286190Y22465*
Y14154*
X286865Y13479*
X255886Y320043D02*
X267172D01*
X273709Y313506*
X313498*
X319161Y319169*
X321283*
X256736Y137402D02*
X248749D01*
X248374Y137776*
X259731Y193820D02*
X226783D01*
X218172Y202431*
Y210164*
X216912Y211424*
X263752Y370248D02*
X288858D01*
X289252Y369854*
X263752Y389460D02*
X288858D01*
X289252Y389854*
X266096Y60031D02*
Y59032D01*
X295425Y29704*
Y14761*
X296707Y13479*
X268343Y135904D02*
X276830D01*
X276954Y136029*
X268343Y144904D02*
X276830D01*
X276954Y145029*
X272961Y172881D02*
X273549Y173470D01*
X276830Y319122D02*
X272461Y323490D01*
X240637*
X232275Y315128*
X191339*
X186846Y319621*
X185848*
X278549Y210675D02*
Y218531D01*
X253616*
X278549D02*
Y218628D01*
X282196Y222275*
X294177*
X296923Y225020*
X281447Y236752D02*
X274583D01*
X267719Y243616*
X283549Y210675D02*
Y216140D01*
X285566Y218156*
X285815Y112448D02*
X292173D01*
X295425Y109196*
X288549Y173470D02*
Y160135D01*
X311774Y136909*
X288549Y173470D02*
X286564D01*
X288549Y210675D02*
Y205040D01*
X286814Y203305*
X259856*
Y204303*
X289421Y259169D02*
X287421D01*
X291283Y257307D02*
Y255307D01*
Y279169D02*
X276830D01*
X291283D02*
X321283Y309169D01*
X291283Y279169D02*
Y269169D01*
Y289169D02*
X265972D01*
X261354Y284552*
X231378*
X225886Y290043*
X293145Y259169D02*
X295145D01*
X293549Y173470D02*
Y159128D01*
X310027Y142650*
X319512*
X322632Y139530*
X293549Y210675D02*
Y199931D01*
X290683Y197065*
X227407*
X223039Y201433*
Y210296*
X221912Y211424*
X294177Y172842D02*
X293549Y173470D01*
X295425Y118196D02*
X303676D01*
X303787Y118307*
X295855Y367457D02*
X294000Y365603D01*
X295855Y372250D02*
X294003Y374103D01*
X295855Y387457D02*
X294000Y385603D01*
X295855Y392250D02*
X294003Y394103D01*
X295917Y136410D02*
Y142657D01*
X285815Y152759*
X272836*
Y172757*
X273549Y173470*
X295917Y136410D02*
Y137776D01*
X297172Y218780D02*
Y212052D01*
X298549Y210675*
X297935Y97636D02*
Y106686D01*
X295425Y109196*
X298420Y173341D02*
X298549Y173470D01*
Y158496*
X309278Y147767*
X321509*
X331993Y137284*
X300648Y367457D02*
X302503Y365603D01*
X300648Y372250D02*
X302500Y374103D01*
X300648Y387457D02*
X302503Y385603D01*
X300648Y392250D02*
X302500Y394103D01*
X302074Y431570D02*
X304944Y428699D01*
X339980*
X344722Y423957*
Y418240*
X349053Y413909*
X303549Y173470D02*
Y161609D01*
X306408Y158750*
X303549Y210675D02*
Y216783D01*
X303288*
Y223909*
X303787Y118307D02*
X315643D01*
X318139Y120803*
X303787Y127307D02*
X295300D01*
Y135793*
X295917Y136410*
X304917D02*
Y138525D01*
X298795Y144647*
X296798*
X278577Y162869*
Y173443*
X278549Y173470*
X308280Y173201D02*
X308549Y173470D01*
Y210675D02*
Y218176D01*
X310027Y219654*
X308654Y380650D02*
Y358560D01*
X283194Y333100*
X313549Y173470D02*
Y168332D01*
X331244Y150638*
X355955*
X365315Y141278*
Y130552*
X366064Y129803*
X313549Y210675D02*
Y215937D01*
X315269Y217657*
Y229888*
X256237*
X314270Y352944D02*
X317515D01*
X324879Y345580*
X340517*
X340891Y345955*
X317777Y130165D02*
X318139Y129803D01*
Y120803D02*
X313404D01*
X309528Y124679*
Y131800*
X304917Y136410*
X318139Y120803D02*
X327375D01*
X318139Y129803D02*
X317383D01*
X316267Y130919*
Y132417*
X311774Y136909*
X318549Y207631D02*
Y205630D01*
Y213718D02*
Y215717D01*
X319329Y210675D02*
X321330D01*
X321283Y259169D02*
X300090D01*
X295675Y263585*
X259428*
X255886Y260043*
X321283Y269169D02*
X397451D01*
X399511Y271229*
X321283Y279169D02*
X397451D01*
X399511Y281229*
X322632Y139530D02*
X323007D01*
X325128Y137409*
Y132049*
X327375Y129803*
Y120803D02*
X336985D01*
X337234Y120553*
X334774Y239961D02*
X332774D01*
X334991Y219654D02*
X357203Y197443D01*
X335113Y55288D02*
Y55538D01*
X333629*
Y55801*
X337074Y237661D02*
Y235661D01*
Y242261D02*
Y244261D01*
X337234Y120553D02*
Y112947D01*
X343724Y106457*
X351719*
X366064Y120803*
X337234Y129553D02*
Y132042D01*
X331993Y137284*
X339374Y239961D02*
X341374D01*
X339606Y405111D02*
Y403863D01*
X339730Y403739*
Y415807*
X340392Y416469*
X340854Y333350D02*
Y345917D01*
X340891Y345955*
X341478Y368544D02*
Y381187D01*
X341390Y381274*
X342975Y324364D02*
Y318748D01*
X332367Y308139*
X345346Y39064D02*
X322507D01*
X346470Y252477D02*
X398263D01*
X399511Y251229*
X346844Y120054D02*
X354949D01*
X356454Y121559*
X346844Y129054D02*
Y131044D01*
X311899Y165989*
X310277*
X308155Y168110*
Y173076*
X308549Y173470*
X346844Y129054D02*
X354949D01*
X356454Y130559*
X349053Y413909D02*
X348716D01*
Y398871*
X345509Y395664*
Y383258*
X350052Y378715*
X349053Y419028D02*
Y425417D01*
X356953Y433317*
X349053Y419028D02*
X361010D01*
X361696Y419713*
X349552Y343396D02*
Y317439D01*
X321283Y289169*
X349552Y348514D02*
X359013D01*
X361696Y351196*
X350052Y378715D02*
X369996D01*
X371181Y377530*
X350052Y378715D02*
Y363552D01*
X345471Y358972*
Y346728*
X348804Y343396*
X349552*
X350052Y383833D02*
Y388226D01*
X353583Y391757*
X350052Y383833D02*
X361259D01*
X362320Y384893*
X357203Y197443D02*
X372309D01*
X377703Y192049*
X357203Y216655D02*
X377309D01*
X377703Y217049*
X366064Y129803D02*
X375549D01*
X375798Y130052*
Y121052D02*
X366313D01*
X366064Y120803*
X379730Y403739D02*
Y370291D01*
X381478Y368544*
Y333974*
X380854Y333350*
X384203Y192049D02*
X382204D01*
X384203Y217049D02*
X382204D01*
X386703Y189799D02*
Y187800D01*
Y194299D02*
Y196300D01*
Y214799D02*
Y212800D01*
Y219299D02*
Y221300D01*
X389203Y192049D02*
X391204D01*
X389203Y217049D02*
X391204D01*
X396763Y291229D02*
X394763D01*
X399511Y261229D02*
X341337D01*
X338857Y263709*
X312648*
X310402Y265956*
Y280051*
X399511Y288481D02*
Y286481D01*
Y293977D02*
Y295977D01*
X401696Y351196D02*
Y384269D01*
X402320Y384893*
X402259Y291229D02*
X404259D01*
X402320Y384893D02*
Y419089D01*
X401696Y419713*
D02*
D71*
X23230Y453785D03*
D02*
D20*
X42915D03*
X62600D03*
X82285D03*
D02*
D22*
X10250Y133408D03*
Y142408D03*
X21607Y133907D03*
Y142907D03*
X45195Y122924D03*
Y131924D03*
X59797Y122425D03*
Y131425D03*
X73900Y122425D03*
Y131425D03*
X89250Y121926D03*
Y130926D03*
X94867Y146263D03*
Y155263D03*
X103228Y146512D03*
Y155512D03*
X104102Y119180D03*
Y128180D03*
X112339Y118806D03*
Y127806D03*
X117706Y151130D03*
Y160130D03*
X123197Y120054D03*
Y129054D03*
X126691Y150880D03*
Y159880D03*
X136676Y119929D03*
Y128929D03*
X151278Y119804D03*
Y128804D03*
X164756Y119555D03*
Y128555D03*
X170123Y149258D03*
Y158258D03*
X178235Y149383D03*
Y158383D03*
X179733Y122425D03*
Y131425D03*
X190840Y122675D03*
Y131675D03*
X194335Y148384D03*
Y157384D03*
X203196Y148509D03*
Y157509D03*
X204943Y114937D03*
Y123937D03*
X219794Y112940D03*
Y121940D03*
X234646Y112940D03*
Y121940D03*
X248374Y137776D03*
Y146776D03*
X249747Y113065D03*
Y122065D03*
X256736Y137402D03*
Y146402D03*
X268343Y135904D03*
Y144904D03*
X276954Y136029D03*
Y145029D03*
X295425Y109196D03*
Y118196D03*
X303787Y118307D03*
Y127307D03*
X318139Y120803D03*
Y129803D03*
X327375Y120803D03*
Y129803D03*
X337234Y120553D03*
Y129553D03*
X346844Y120054D03*
Y129054D03*
X356454Y121559D03*
Y130559D03*
X366064Y120803D03*
Y129803D03*
X375798Y121052D03*
Y130052D03*
D02*
D23*
X42574Y70889D03*
Y110889D03*
X48689Y370603D03*
Y410603D03*
X59672Y69765D03*
Y109765D03*
X68345Y360057D03*
X74672Y70514D03*
Y110514D03*
X89672Y70514D03*
Y110514D03*
X108345Y360057D03*
X121329Y65826D03*
Y105826D03*
X137924Y67121D03*
Y107121D03*
X154013Y66723D03*
Y106723D03*
X166615Y65772D03*
Y105772D03*
X222415Y59781D03*
Y99781D03*
X235395Y59531D03*
Y99531D03*
X250246Y59781D03*
Y99781D03*
X266096Y60031D03*
Y100031D03*
X297935Y57636D03*
Y97636D03*
X308793Y56388D03*
Y96388D03*
X320649Y56138D03*
Y96138D03*
X335113Y55288D03*
Y95288D03*
X339730Y403739D03*
X340854Y333350D03*
X341478Y368544D03*
X361696Y351196D03*
Y419713D03*
X362320Y384893D03*
X379730Y403739D03*
X380854Y333350D03*
X381478Y368544D03*
X401696Y351196D03*
Y419713D03*
X402320Y384893D03*
D02*
D27*
X107676Y209676D02*
Y253305D01*
X114835Y260465*
Y259965*
X177676*
X142524Y379570D02*
X86586D01*
X62600Y403557*
Y453785*
X160263Y379652D02*
X143335D01*
X143254Y379570*
X142524*
X170124Y353970D02*
Y347953D01*
X156145Y333974*
X145162*
X114835Y303646*
Y260465*
X170124Y353970D02*
Y363427D01*
X170268*
Y372767*
X170124Y407170D02*
Y397750D01*
X160263Y387889*
Y379652*
X170268Y372767D02*
X163383Y379652D01*
X160263*
X177676Y259965D02*
X178931D01*
X189639Y270674*
X178395Y209676D02*
Y234880D01*
X177676*
Y259965*
X189639Y270674D02*
X190865D01*
X200824Y260714*
X225215*
X225886Y260043*
X195724Y381570D02*
X179070D01*
X170268Y372767*
X233098Y252802D02*
X233148Y252852D01*
X233078*
X225886Y260043*
X246912Y211424D02*
Y232134D01*
X247676*
Y252852*
X233148*
X291283Y259169D02*
X291728D01*
X310936Y239961*
X337074*
X291283Y259169D02*
X288639D01*
X282321Y252852*
X247676*
X298252Y369854D02*
Y389854D01*
Y390054*
X284068Y404238*
X231900*
X209186Y381524*
X195771*
X195724Y381570*
X337074Y231600D02*
X326626Y221152D01*
X318264*
Y210675*
X318549*
X337074Y239961D02*
Y231600D01*
X386703Y217049D02*
Y219732D01*
X374800Y231635*
X339035*
X339000Y231600*
X337074*
X386703Y217049D02*
Y192049D01*
D02*
D28*
X34587Y131924D03*
X38331Y431570D03*
X52683Y131425D03*
X67035D03*
X70655Y407607D03*
X72901Y386266D03*
X77269Y402116D03*
X77769Y239123D03*
X81388Y130926D03*
X82885Y234880D03*
X84268Y395570D03*
X87254Y223148D03*
X97676Y200933D03*
X99268Y390570D03*
X114585Y386266D03*
X119268Y390570D03*
X119413Y44430D03*
X123571Y402116D03*
X124268Y395570D03*
X125319Y407607D03*
X129936Y129054D03*
X130186Y327109D03*
X135552Y399994D03*
X137424Y352569D03*
X140295Y43432D03*
X143395Y244989D03*
X144164Y128929D03*
X147783Y239123D03*
X148407Y345331D03*
X149530Y31825D03*
Y43931D03*
X152650Y234880D03*
X154023Y371165D03*
Y389761D03*
X154273Y370915D03*
X157268Y223148D03*
X158142Y128804D03*
X160513Y418465D03*
X160638Y427202D03*
X165131Y284177D03*
X167752Y201433D03*
X169499Y251104D03*
X172494Y128555D03*
X175365Y327609D03*
X178110Y418840D03*
X179857Y370915D03*
X185848Y10858D03*
Y319621D03*
Y393380D03*
X192088Y22465D03*
X201698Y244365D03*
X201823Y412100D03*
X203320Y58533D03*
X207689Y190325D03*
X208437Y250356D03*
Y286174D03*
X208812Y10733D03*
X209685Y371664D03*
X212181Y123937D03*
X214303Y22465D03*
X216425Y352944D03*
X223539Y234880D03*
X227407Y121940D03*
X231027Y223148D03*
X236019Y280043D03*
Y290176D03*
X236893Y201932D03*
X237766Y229888D03*
X239752Y243117D03*
X240761Y263709D03*
Y366797D03*
X242633Y121940D03*
X253616Y218531D03*
X256237Y229888D03*
X256986Y338467D03*
X257360Y122065D03*
X259731Y193820D03*
X259856Y204303D03*
X267719Y243616D03*
X276830Y279169D03*
Y319122D03*
X281447Y236752D03*
X283194Y333100D03*
X285566Y218156D03*
X285815Y112448D03*
X296923Y225020D03*
X297172Y218780D03*
X302074Y431570D03*
X303288Y223909D03*
X306408Y158750D03*
X308654Y380650D03*
X310027Y219654D03*
X310402Y280051D03*
X311774Y136909D03*
X314270Y352944D03*
X322507Y39064D03*
X322632Y139530D03*
X331993Y137284D03*
X332367Y308139D03*
X334991Y219654D03*
X342975Y324364D03*
X345346Y39064D03*
X346470Y252477D03*
X353583Y391757D03*
X356953Y433317D03*
X371181Y377530D03*
D02*
D74*
X142524Y361870D03*
Y363870D03*
Y365770D03*
Y367770D03*
Y369770D03*
Y371670D03*
Y373670D03*
Y375670D03*
Y377570D03*
Y379570D03*
Y381570D03*
Y383570D03*
Y385470D03*
Y387470D03*
Y389470D03*
Y391370D03*
Y393370D03*
Y395370D03*
Y397270D03*
Y399270D03*
X195724Y361870D03*
Y363870D03*
Y365770D03*
Y367770D03*
Y369770D03*
Y371670D03*
Y373670D03*
Y375670D03*
Y377570D03*
Y379570D03*
Y381570D03*
Y383570D03*
Y385470D03*
Y387470D03*
Y389470D03*
Y391370D03*
Y393370D03*
Y395370D03*
Y397270D03*
Y399270D03*
D02*
D75*
X150424Y353970D03*
Y407170D03*
X152424Y353970D03*
Y407170D03*
X154324Y353970D03*
Y407170D03*
X156324Y353970D03*
Y407170D03*
X158324Y353970D03*
Y407170D03*
X160224Y353970D03*
Y407170D03*
X162224Y353970D03*
Y407170D03*
X164224Y353970D03*
Y407170D03*
X166124Y353970D03*
Y407170D03*
X168124Y353970D03*
Y407170D03*
X170124Y353970D03*
Y407170D03*
X172124Y353970D03*
Y407170D03*
X174024Y353970D03*
Y407170D03*
X176024Y353970D03*
Y407170D03*
X178024Y353970D03*
Y407170D03*
X179924Y353970D03*
Y407170D03*
X181924Y353970D03*
Y407170D03*
X183924Y353970D03*
Y407170D03*
X185824Y353970D03*
Y407170D03*
X187824Y353970D03*
Y407170D03*
D02*
D76*
X225886Y320043D03*
X291283Y319169D03*
D02*
D77*
X225886Y260043D03*
Y270043D03*
Y280043D03*
Y290043D03*
Y300043D03*
Y310043D03*
X255886Y260043D03*
Y270043D03*
Y280043D03*
Y290043D03*
Y300043D03*
Y310043D03*
Y320043D03*
X291283Y259169D03*
Y269169D03*
Y279169D03*
Y289169D03*
Y299169D03*
Y309169D03*
X321283Y259169D03*
Y269169D03*
Y279169D03*
Y289169D03*
Y299169D03*
Y309169D03*
Y319169D03*
D02*
D78*
X168625Y13230D03*
X173118Y444924D03*
X316392Y13479D03*
X399511Y251229D03*
D02*
D79*
X80043Y13230D03*
X89885D03*
X99728D03*
X103118Y444924D03*
X109570Y13230D03*
X113118Y444924D03*
X119413Y13230D03*
X123118Y444924D03*
X129255Y13230D03*
X133118Y444924D03*
X139098Y13230D03*
X143118Y444924D03*
X148940Y13230D03*
X153118Y444924D03*
X158783Y13230D03*
X163118Y444924D03*
X227809Y13479D03*
X237652D03*
X247494D03*
X257337D03*
X267180D03*
X277022D03*
X286865D03*
X296707D03*
X306550D03*
X399511Y261229D03*
Y271229D03*
Y281229D03*
Y291229D03*
Y301229D03*
Y311229D03*
Y321229D03*
D02*
D80*
X129639Y270674D03*
D02*
D81*
Y301674D03*
X139639Y270674D03*
Y301674D03*
X149639Y270674D03*
Y301674D03*
X159639Y270674D03*
Y301674D03*
X169639Y270674D03*
Y301674D03*
X179639Y270674D03*
Y301674D03*
X189639Y270674D03*
Y301674D03*
D02*
D82*
X62676Y172472D03*
Y209676D03*
X67676Y172472D03*
Y209676D03*
X72676Y172472D03*
Y209676D03*
X77676Y172472D03*
Y209676D03*
X82676Y172472D03*
Y209676D03*
X87676Y172472D03*
Y209676D03*
X92676Y172472D03*
Y209676D03*
X97676Y172472D03*
Y209676D03*
X102676Y172472D03*
Y209676D03*
X107676Y172472D03*
Y209676D03*
X133395Y172472D03*
Y209676D03*
X138395Y172472D03*
Y209676D03*
X143395Y172472D03*
Y209676D03*
X148395Y172472D03*
Y209676D03*
X153395Y172472D03*
Y209676D03*
X158395Y172472D03*
Y209676D03*
X163395Y172472D03*
Y209676D03*
X168395Y172472D03*
Y209676D03*
X173395Y172472D03*
Y209676D03*
X178395Y172472D03*
Y209676D03*
X201912Y174219D03*
Y211424D03*
X206912Y174219D03*
Y211424D03*
X211912Y174219D03*
Y211424D03*
X216912Y174219D03*
Y211424D03*
X221912Y174219D03*
Y211424D03*
X226912Y174219D03*
Y211424D03*
X231912Y174219D03*
Y211424D03*
X236912Y174219D03*
Y211424D03*
X241912Y174219D03*
Y211424D03*
X246912Y174219D03*
Y211424D03*
X273549Y173470D03*
Y210675D03*
X278549Y173470D03*
Y210675D03*
X283549Y173470D03*
Y210675D03*
X288549Y173470D03*
Y210675D03*
X293549Y173470D03*
Y210675D03*
X298549Y173470D03*
Y210675D03*
X303549Y173470D03*
Y210675D03*
X308549Y173470D03*
Y210675D03*
X313549Y173470D03*
Y210675D03*
X318549Y173470D03*
Y210675D03*
D02*
D83*
X263752Y370248D03*
Y389460D03*
X357203Y197443D03*
Y216655D03*
D02*
D84*
X289252Y369854D03*
Y389854D03*
X295917Y136410D03*
X298252Y369854D03*
Y389854D03*
X304917Y136410D03*
X377703Y192049D03*
Y217049D03*
X386703Y192049D03*
Y217049D03*
D02*
D85*
X340392Y416469D03*
X340891Y345955D03*
X341390Y381274D03*
X349053Y413909D03*
Y419028D03*
X349552Y343396D03*
Y348514D03*
X350052Y378715D03*
Y383833D03*
D02*
D86*
X337074Y239961D03*
X0Y0D02*
M02*
