G04 EasyPC Gerber Version 21.0.3 Build 4286 *
G04 #@! TF.Part,Single*
G04 #@! TF.FileFunction,Paste,Top *
G04 #@! TF.FilePolarity,Positive *
%FSLAX35Y35*%
%MOIN*%
G04 #@! TA.AperFunction,SMDPad*
%ADD106R,0.00500X0.05200*%
%ADD107R,0.01959X0.06487*%
%ADD72R,0.04900X0.05400*%
%ADD105R,0.05200X0.00500*%
%ADD109R,0.02353X0.01369*%
%ADD108R,0.05400X0.04900*%
X0Y0D02*
D02*
D72*
X10250Y133408D03*
Y142408D03*
X21607Y133907D03*
Y142907D03*
X45195Y122924D03*
Y131924D03*
X59797Y122425D03*
Y131425D03*
X73900Y122425D03*
Y131425D03*
X89250Y121926D03*
Y130926D03*
X94867Y146263D03*
Y155263D03*
X103228Y146512D03*
Y155512D03*
X104102Y119180D03*
Y128180D03*
X112339Y118806D03*
Y127806D03*
X117706Y151130D03*
Y160130D03*
X123197Y120054D03*
Y129054D03*
X126691Y150880D03*
Y159880D03*
X136676Y119929D03*
Y128929D03*
X151278Y119804D03*
Y128804D03*
X164756Y119555D03*
Y128555D03*
X170123Y149258D03*
Y158258D03*
X178235Y149383D03*
Y158383D03*
X179733Y122425D03*
Y131425D03*
X190840Y122675D03*
Y131675D03*
X194335Y148384D03*
Y157384D03*
X203196Y148509D03*
Y157509D03*
X204943Y114937D03*
Y123937D03*
X219794Y112940D03*
Y121940D03*
X234646Y112940D03*
Y121940D03*
X248374Y137776D03*
Y146776D03*
X249747Y113065D03*
Y122065D03*
X256736Y137402D03*
Y146402D03*
X268343Y135904D03*
Y144904D03*
X276954Y136029D03*
Y145029D03*
X295425Y109196D03*
Y118196D03*
X303787Y118307D03*
Y127307D03*
X318139Y120803D03*
Y129803D03*
X327375Y120803D03*
Y129803D03*
X337234Y120553D03*
Y129553D03*
X346844Y120054D03*
Y129054D03*
X356454Y121559D03*
Y130559D03*
X366064Y120803D03*
Y129803D03*
X375798Y121052D03*
Y130052D03*
D02*
D105*
X142524Y361870D03*
Y363870D03*
Y365770D03*
Y367770D03*
Y369770D03*
Y371670D03*
Y373670D03*
Y375670D03*
Y377570D03*
Y379570D03*
Y381570D03*
Y383570D03*
Y385470D03*
Y387470D03*
Y389470D03*
Y391370D03*
Y393370D03*
Y395370D03*
Y397270D03*
Y399270D03*
X195724Y361870D03*
Y363870D03*
Y365770D03*
Y367770D03*
Y369770D03*
Y371670D03*
Y373670D03*
Y375670D03*
Y377570D03*
Y379570D03*
Y381570D03*
Y383570D03*
Y385470D03*
Y387470D03*
Y389470D03*
Y391370D03*
Y393370D03*
Y395370D03*
Y397270D03*
Y399270D03*
D02*
D106*
X150424Y353970D03*
Y407170D03*
X152424Y353970D03*
Y407170D03*
X154324Y353970D03*
Y407170D03*
X156324Y353970D03*
Y407170D03*
X158324Y353970D03*
Y407170D03*
X160224Y353970D03*
Y407170D03*
X162224Y353970D03*
Y407170D03*
X164224Y353970D03*
Y407170D03*
X166124Y353970D03*
Y407170D03*
X168124Y353970D03*
Y407170D03*
X170124Y353970D03*
Y407170D03*
X172124Y353970D03*
Y407170D03*
X174024Y353970D03*
Y407170D03*
X176024Y353970D03*
Y407170D03*
X178024Y353970D03*
Y407170D03*
X179924Y353970D03*
Y407170D03*
X181924Y353970D03*
Y407170D03*
X183924Y353970D03*
Y407170D03*
X185824Y353970D03*
Y407170D03*
X187824Y353970D03*
Y407170D03*
D02*
D107*
X62676Y172472D03*
Y209676D03*
X67676Y172472D03*
Y209676D03*
X72676Y172472D03*
Y209676D03*
X77676Y172472D03*
Y209676D03*
X82676Y172472D03*
Y209676D03*
X87676Y172472D03*
Y209676D03*
X92676Y172472D03*
Y209676D03*
X97676Y172472D03*
Y209676D03*
X102676Y172472D03*
Y209676D03*
X107676Y172472D03*
Y209676D03*
X133395Y172472D03*
Y209676D03*
X138395Y172472D03*
Y209676D03*
X143395Y172472D03*
Y209676D03*
X148395Y172472D03*
Y209676D03*
X153395Y172472D03*
Y209676D03*
X158395Y172472D03*
Y209676D03*
X163395Y172472D03*
Y209676D03*
X168395Y172472D03*
Y209676D03*
X173395Y172472D03*
Y209676D03*
X178395Y172472D03*
Y209676D03*
X201912Y174219D03*
Y211424D03*
X206912Y174219D03*
Y211424D03*
X211912Y174219D03*
Y211424D03*
X216912Y174219D03*
Y211424D03*
X221912Y174219D03*
Y211424D03*
X226912Y174219D03*
Y211424D03*
X231912Y174219D03*
Y211424D03*
X236912Y174219D03*
Y211424D03*
X241912Y174219D03*
Y211424D03*
X246912Y174219D03*
Y211424D03*
X273549Y173470D03*
Y210675D03*
X278549Y173470D03*
Y210675D03*
X283549Y173470D03*
Y210675D03*
X288549Y173470D03*
Y210675D03*
X293549Y173470D03*
Y210675D03*
X298549Y173470D03*
Y210675D03*
X303549Y173470D03*
Y210675D03*
X308549Y173470D03*
Y210675D03*
X313549Y173470D03*
Y210675D03*
X318549Y173470D03*
Y210675D03*
D02*
D108*
X289252Y369854D03*
Y389854D03*
X295917Y136410D03*
X298252Y369854D03*
Y389854D03*
X304917Y136410D03*
X377703Y192049D03*
Y217049D03*
X386703Y192049D03*
Y217049D03*
D02*
D109*
X340392Y416469D03*
X340891Y345955D03*
X341390Y381274D03*
X349053Y413909D03*
Y419028D03*
X349552Y343396D03*
Y348514D03*
X350052Y378715D03*
Y383833D03*
X0Y0D02*
M02*
