G04 EasyPC Gerber Version 21.0.3 Build 4286 *
G04 #@! TF.Part,Single*
G04 #@! TF.FileFunction,Drillmap *
G04 #@! TF.FilePolarity,Positive *
%FSLAX35Y35*%
%MOIN*%
%ADD17C,0.00500*%
G04 #@! TA.AperFunction,ComponentPad*
%ADD16C,0.10000*%
X0Y0D02*
D02*
D16*
X23230Y453785D03*
X34587Y131924D03*
X38331Y431570D03*
X42574Y70889D03*
Y110889D03*
X42915Y453785D03*
X48689Y370603D03*
Y410603D03*
X52683Y131425D03*
X59672Y69765D03*
Y109765D03*
X62600Y453785D03*
X67035Y131425D03*
X68345Y360057D03*
X70655Y407607D03*
X72901Y386266D03*
X74672Y70514D03*
Y110514D03*
X77269Y402116D03*
X77769Y239123D03*
X80043Y13230D03*
X81388Y130926D03*
X82285Y453785D03*
X82885Y234880D03*
X84268Y395570D03*
X87254Y223148D03*
X89672Y70514D03*
Y110514D03*
X89885Y13230D03*
X97676Y200933D03*
X99268Y390570D03*
X99728Y13230D03*
X103118Y444924D03*
X108345Y360057D03*
X109570Y13230D03*
X113118Y444924D03*
X114585Y386266D03*
X119268Y390570D03*
X119413Y13230D03*
Y44430D03*
X121329Y65826D03*
Y105826D03*
X123118Y444924D03*
X123571Y402116D03*
X124268Y395570D03*
X125319Y407607D03*
X129255Y13230D03*
X129639Y270674D03*
Y301674D03*
X129936Y129054D03*
X130186Y327109D03*
X133118Y444924D03*
X135552Y399994D03*
X137424Y352569D03*
X137924Y67121D03*
Y107121D03*
X139098Y13230D03*
X139639Y270674D03*
Y301674D03*
X140295Y43432D03*
X143118Y444924D03*
X143395Y244989D03*
X144164Y128929D03*
X147783Y239123D03*
X148407Y345331D03*
X148940Y13230D03*
X149530Y31825D03*
Y43931D03*
X149639Y270674D03*
Y301674D03*
X152650Y234880D03*
X153118Y444924D03*
X154013Y66723D03*
Y106723D03*
X154023Y371165D03*
Y389761D03*
X154273Y370915D03*
X157268Y223148D03*
X158142Y128804D03*
X158783Y13230D03*
X159639Y270674D03*
Y301674D03*
X160513Y418465D03*
X160638Y427202D03*
X163118Y444924D03*
X165131Y284177D03*
X166615Y65772D03*
Y105772D03*
X167752Y201433D03*
X168625Y13230D03*
X169499Y251104D03*
X169639Y270674D03*
Y301674D03*
X172494Y128555D03*
X173118Y444924D03*
X175365Y327609D03*
X178110Y418840D03*
X179639Y270674D03*
Y301674D03*
X179857Y370915D03*
X185848Y10858D03*
Y319621D03*
Y393380D03*
X189639Y270674D03*
Y301674D03*
X192088Y22465D03*
X201698Y244365D03*
X201823Y412100D03*
X203320Y58533D03*
X207689Y190325D03*
X208437Y250356D03*
Y286174D03*
X208812Y10733D03*
X209685Y371664D03*
X212181Y123937D03*
X214303Y22465D03*
X216425Y352944D03*
X222415Y59781D03*
Y99781D03*
X223539Y234880D03*
X225886Y260043D03*
Y270043D03*
Y280043D03*
Y290043D03*
Y300043D03*
Y310043D03*
Y320043D03*
X227407Y121940D03*
X227809Y13479D03*
X231027Y223148D03*
X235395Y59531D03*
Y99531D03*
X236019Y280043D03*
Y290176D03*
X236893Y201932D03*
X237652Y13479D03*
X237766Y229888D03*
X239752Y243117D03*
X240761Y263709D03*
Y366797D03*
X242633Y121940D03*
X247494Y13479D03*
X250246Y59781D03*
Y99781D03*
X253616Y218531D03*
X255886Y260043D03*
Y270043D03*
Y280043D03*
Y290043D03*
Y300043D03*
Y310043D03*
Y320043D03*
X256237Y229888D03*
X256986Y338467D03*
X257337Y13479D03*
X257360Y122065D03*
X259731Y193820D03*
X259856Y204303D03*
X263752Y370248D03*
Y389460D03*
X266096Y60031D03*
Y100031D03*
X267180Y13479D03*
X267719Y243616D03*
X276830Y279169D03*
Y319122D03*
X277022Y13479D03*
X281447Y236752D03*
X283194Y333100D03*
X285566Y218156D03*
X285815Y112448D03*
X286865Y13479D03*
X291283Y259169D03*
Y269169D03*
Y279169D03*
Y289169D03*
Y299169D03*
Y309169D03*
Y319169D03*
X296707Y13479D03*
X296923Y225020D03*
X297172Y218780D03*
X297935Y57636D03*
Y97636D03*
X302074Y431570D03*
X303288Y223909D03*
X306408Y158750D03*
X306550Y13479D03*
X308654Y380650D03*
X308793Y56388D03*
Y96388D03*
X310027Y219654D03*
X310402Y280051D03*
X311774Y136909D03*
X314270Y352944D03*
X316392Y13479D03*
X320649Y56138D03*
Y96138D03*
X321283Y259169D03*
Y269169D03*
Y279169D03*
Y289169D03*
Y299169D03*
Y309169D03*
Y319169D03*
X322507Y39064D03*
X322632Y139530D03*
X331993Y137284D03*
X332367Y308139D03*
X334991Y219654D03*
X335113Y55288D03*
Y95288D03*
X337074Y239961D03*
X339730Y403739D03*
X340854Y333350D03*
X341478Y368544D03*
X342975Y324364D03*
X345346Y39064D03*
X346470Y252477D03*
X353583Y391757D03*
X356953Y433317D03*
X357203Y197443D03*
Y216655D03*
X361696Y351196D03*
Y419713D03*
X362320Y384893D03*
X371181Y377530D03*
X379730Y403739D03*
X380854Y333350D03*
X381478Y368544D03*
X399511Y251229D03*
Y261229D03*
Y271229D03*
Y281229D03*
Y291229D03*
Y301229D03*
Y311229D03*
Y321229D03*
X401696Y351196D03*
Y419713D03*
X402320Y384893D03*
D02*
D17*
X35417Y461597D02*
X36042Y461285D01*
X36355Y460660*
X36042Y460035*
X35417Y459722*
X33230*
Y463472*
X35417*
X36042Y463160*
X36355Y462535*
X36042Y461910*
X35417Y461597*
X33230*
X46774Y139424D02*
X47712D01*
Y139112*
X47399Y138487*
X47087Y138174*
X46462Y137862*
X45837*
X45212Y138174*
X44899Y138487*
X44587Y139112*
Y140362*
X44899Y140987*
X45212Y141300*
X45837Y141612*
X46462*
X47087Y141300*
X47399Y140987*
X47712Y140362*
X50518Y439070D02*
X51456D01*
Y438757*
X51143Y438132*
X50831Y437820*
X50206Y437507*
X49581*
X48956Y437820*
X48643Y438132*
X48331Y438757*
Y440007*
X48643Y440632*
X48956Y440945*
X49581Y441257*
X50206*
X50831Y440945*
X51143Y440632*
X51456Y440007*
X52574Y76826D02*
X54137Y80576D01*
X55699Y76826*
X53199Y78389D02*
X55074D01*
X52574Y116826D02*
X54137Y120576D01*
X55699Y116826*
X53199Y118389D02*
X55074D01*
X55102Y461597D02*
X55727Y461285D01*
X56040Y460660*
X55727Y460035*
X55102Y459722*
X52915*
Y463472*
X55102*
X55727Y463160*
X56040Y462535*
X55727Y461910*
X55102Y461597*
X52915*
X58689Y376540D02*
X60252Y380290D01*
X61815Y376540*
X59315Y378103D02*
X61189D01*
X58689Y416540D02*
X60252Y420290D01*
X61815Y416540*
X59315Y418103D02*
X61189D01*
X64870Y138925D02*
X65808D01*
Y138613*
X65496Y137988*
X65183Y137675*
X64558Y137363*
X63933*
X63308Y137675*
X62996Y137988*
X62683Y138613*
Y139863*
X62996Y140488*
X63308Y140800*
X63933Y141113*
X64558*
X65183Y140800*
X65496Y140488*
X65808Y139863*
X69672Y75703D02*
X71235Y79453D01*
X72797Y75703*
X70297Y77265D02*
X72172D01*
X69672Y115703D02*
X71235Y119453D01*
X72797Y115703*
X70297Y117265D02*
X72172D01*
X74787Y461597D02*
X75412Y461285D01*
X75725Y460660*
X75412Y460035*
X74787Y459722*
X72600*
Y463472*
X74787*
X75412Y463160*
X75725Y462535*
X75412Y461910*
X74787Y461597*
X72600*
X79223Y138925D02*
X80161D01*
Y138613*
X79848Y137988*
X79535Y137675*
X78911Y137363*
X78285*
X77661Y137675*
X77348Y137988*
X77035Y138613*
Y139863*
X77348Y140488*
X77661Y140800*
X78285Y141113*
X78911*
X79535Y140800*
X79848Y140488*
X80161Y139863*
X78345Y365995D02*
X79908Y369745D01*
X81470Y365995*
X78970Y367557D02*
X80845D01*
X82842Y415107D02*
X83780D01*
Y414795*
X83467Y414170*
X83155Y413857*
X82530Y413545*
X81905*
X81280Y413857*
X80967Y414170*
X80655Y414795*
Y416045*
X80967Y416670*
X81280Y416983*
X81905Y417295*
X82530*
X83155Y416983*
X83467Y416670*
X83780Y416045*
X85089Y393766D02*
X86026D01*
Y393454*
X85714Y392829*
X85401Y392516*
X84776Y392204*
X84151*
X83526Y392516*
X83214Y392829*
X82901Y393454*
Y394704*
X83214Y395329*
X83526Y395641*
X84151Y395954*
X84776*
X85401Y395641*
X85714Y395329*
X86026Y394704*
X84672Y76452D02*
X86235Y80202D01*
X87797Y76452*
X85297Y78014D02*
X87172D01*
X84672Y116452D02*
X86235Y120202D01*
X87797Y116452*
X85297Y118014D02*
X87172D01*
X89457Y409616D02*
X90394D01*
Y409304*
X90082Y408679*
X89769Y408366*
X89144Y408054*
X88519*
X87894Y408366*
X87582Y408679*
X87269Y409304*
Y410554*
X87582Y411179*
X87894Y411491*
X88519Y411804*
X89144*
X89769Y411491*
X90082Y411179*
X90394Y410554*
X89956Y246623D02*
X90894D01*
Y246311*
X90581Y245686*
X90269Y245373*
X89644Y245061*
X89019*
X88394Y245373*
X88081Y245686*
X87769Y246311*
Y247561*
X88081Y248186*
X88394Y248498*
X89019Y248811*
X89644*
X90269Y248498*
X90581Y248186*
X90894Y247561*
X90043Y19167D02*
Y22917D01*
X91918*
X92543Y22605*
X92855Y22292*
X93168Y21667*
Y20417*
X92855Y19792*
X92543Y19480*
X91918Y19167*
X90043*
X93575Y138426D02*
X94513D01*
Y138113*
X94200Y137489*
X93888Y137176*
X93263Y136863*
X92638*
X92013Y137176*
X91700Y137489*
X91388Y138113*
Y139363*
X91700Y139989*
X92013Y140301*
X92638Y140613*
X93263*
X93888Y140301*
X94200Y139989*
X94513Y139363*
X94472Y461597D02*
X95097Y461285D01*
X95410Y460660*
X95097Y460035*
X94472Y459722*
X92285*
Y463472*
X94472*
X95097Y463160*
X95410Y462535*
X95097Y461910*
X94472Y461597*
X92285*
X95073Y242380D02*
X96011D01*
Y242067*
X95698Y241443*
X95385Y241130*
X94761Y240817*
X94135*
X93511Y241130*
X93198Y241443*
X92885Y242067*
Y243317*
X93198Y243943*
X93511Y244255*
X94135Y244567*
X94761*
X95385Y244255*
X95698Y243943*
X96011Y243317*
X96455Y403070D02*
X97393D01*
Y402757*
X97080Y402133*
X96768Y401820*
X96143Y401507*
X95518*
X94893Y401820*
X94580Y402133*
X94268Y402757*
Y404007*
X94580Y404633*
X94893Y404945*
X95518Y405257*
X96143*
X96768Y404945*
X97080Y404633*
X97393Y404007*
X99441Y230648D02*
X100379D01*
Y230336*
X100066Y229711*
X99754Y229398*
X99129Y229086*
X98504*
X97879Y229398*
X97566Y229711*
X97254Y230336*
Y231586*
X97566Y232211*
X97879Y232524*
X98504Y232836*
X99129*
X99754Y232524*
X100066Y232211*
X100379Y231586*
X99672Y76452D02*
X101235Y80202D01*
X102797Y76452*
X100297Y78014D02*
X102172D01*
X99672Y116452D02*
X101235Y120202D01*
X102797Y116452*
X100297Y118014D02*
X102172D01*
X99885Y19167D02*
Y22917D01*
X101760*
X102385Y22605*
X102698Y22292*
X103010Y21667*
Y20417*
X102698Y19792*
X102385Y19480*
X101760Y19167*
X99885*
X109863Y208433D02*
X110801D01*
Y208121*
X110488Y207496*
X110176Y207183*
X109551Y206871*
X108926*
X108301Y207183*
X107988Y207496*
X107676Y208121*
Y209371*
X107988Y209996*
X108301Y210309*
X108926Y210621*
X109551*
X110176Y210309*
X110488Y209996*
X110801Y209371*
X111455Y398070D02*
X112393D01*
Y397757*
X112080Y397133*
X111768Y396820*
X111143Y396507*
X110518*
X109893Y396820*
X109580Y397133*
X109268Y397757*
Y399007*
X109580Y399633*
X109893Y399945*
X110518Y400257*
X111143*
X111768Y399945*
X112080Y399633*
X112393Y399007*
X109728Y19167D02*
Y22917D01*
X111603*
X112228Y22605*
X112540Y22292*
X112853Y21667*
Y20417*
X112540Y19792*
X112228Y19480*
X111603Y19167*
X109728*
X113118Y450861D02*
Y454611D01*
X114993*
X115618Y454299*
X115931Y453986*
X116243Y453361*
Y452111*
X115931Y451486*
X115618Y451174*
X114993Y450861*
X113118*
X118345Y365995D02*
X119908Y369745D01*
X121470Y365995*
X118970Y367557D02*
X120845D01*
X119570Y19167D02*
Y22917D01*
X121445*
X122070Y22605*
X122383Y22292*
X122695Y21667*
Y20417*
X122383Y19792*
X122070Y19480*
X121445Y19167*
X119570*
X123118Y450861D02*
Y454611D01*
X124993*
X125618Y454299*
X125931Y453986*
X126243Y453361*
Y452111*
X125931Y451486*
X125618Y451174*
X124993Y450861*
X123118*
X126773Y393766D02*
X127711D01*
Y393454*
X127398Y392829*
X127085Y392516*
X126461Y392204*
X125835*
X125211Y392516*
X124898Y392829*
X124585Y393454*
Y394704*
X124898Y395329*
X125211Y395641*
X125835Y395954*
X126461*
X127085Y395641*
X127398Y395329*
X127711Y394704*
X131455Y398070D02*
X132393D01*
Y397757*
X132080Y397133*
X131768Y396820*
X131143Y396507*
X130518*
X129893Y396820*
X129580Y397133*
X129268Y397757*
Y399007*
X129580Y399633*
X129893Y399945*
X130518Y400257*
X131143*
X131768Y399945*
X132080Y399633*
X132393Y399007*
X129413Y19167D02*
Y22917D01*
X131288*
X131913Y22605*
X132225Y22292*
X132538Y21667*
Y20417*
X132225Y19792*
X131913Y19480*
X131288Y19167*
X129413*
X131600Y51930D02*
X132538D01*
Y51618*
X132225Y50993*
X131913Y50680*
X131288Y50368*
X130663*
X130038Y50680*
X129725Y50993*
X129413Y51618*
Y52868*
X129725Y53493*
X130038Y53806*
X130663Y54118*
X131288*
X131913Y53806*
X132225Y53493*
X132538Y52868*
X131329Y71763D02*
X132891Y75513D01*
X134454Y71763*
X131954Y73326D02*
X133829D01*
X131329Y111763D02*
X132891Y115513D01*
X134454Y111763*
X131954Y113326D02*
X133829D01*
X133118Y450861D02*
Y454611D01*
X134993*
X135618Y454299*
X135931Y453986*
X136243Y453361*
Y452111*
X135931Y451486*
X135618Y451174*
X134993Y450861*
X133118*
X135759Y409616D02*
X136696D01*
Y409304*
X136384Y408679*
X136071Y408366*
X135446Y408054*
X134821*
X134196Y408366*
X133884Y408679*
X133571Y409304*
Y410554*
X133884Y411179*
X134196Y411491*
X134821Y411804*
X135446*
X136071Y411491*
X136384Y411179*
X136696Y410554*
X136455Y403070D02*
X137393D01*
Y402757*
X137080Y402133*
X136768Y401820*
X136143Y401507*
X135518*
X134893Y401820*
X134580Y402133*
X134268Y402757*
Y404007*
X134580Y404633*
X134893Y404945*
X135518Y405257*
X136143*
X136768Y404945*
X137080Y404633*
X137393Y404007*
X137506Y415107D02*
X138444D01*
Y414795*
X138131Y414170*
X137819Y413857*
X137194Y413545*
X136569*
X135944Y413857*
X135631Y414170*
X135319Y414795*
Y416045*
X135631Y416670*
X135944Y416983*
X136569Y417295*
X137194*
X137819Y416983*
X138131Y416670*
X138444Y416045*
X139255Y19167D02*
Y22917D01*
X141130*
X141755Y22605*
X142068Y22292*
X142380Y21667*
Y20417*
X142068Y19792*
X141755Y19480*
X141130Y19167*
X139255*
X139639Y276611D02*
Y280361D01*
X142765*
X142139Y278487D02*
X139639D01*
Y276611D02*
X142765D01*
X139639Y307611D02*
Y311361D01*
X142765*
X142139Y309487D02*
X139639D01*
Y307611D02*
X142765D01*
X142124Y136554D02*
X143061D01*
Y136241*
X142749Y135617*
X142436Y135304*
X141811Y134991*
X141186*
X140561Y135304*
X140249Y135617*
X139936Y136241*
Y137491*
X140249Y138117*
X140561Y138429*
X141186Y138741*
X141811*
X142436Y138429*
X142749Y138117*
X143061Y137491*
X142373Y334609D02*
X143311D01*
Y334297*
X142998Y333672*
X142686Y333359*
X142061Y333047*
X141436*
X140811Y333359*
X140498Y333672*
X140186Y334297*
Y335547*
X140498Y336172*
X140811Y336485*
X141436Y336797*
X142061*
X142686Y336485*
X142998Y336172*
X143311Y335547*
X143118Y450861D02*
Y454611D01*
X144993*
X145618Y454299*
X145931Y453986*
X146243Y453361*
Y452111*
X145931Y451486*
X145618Y451174*
X144993Y450861*
X143118*
X147740Y407494D02*
X148678D01*
Y407182*
X148365Y406557*
X148052Y406244*
X147428Y405932*
X146802*
X146178Y406244*
X145865Y406557*
X145552Y407182*
Y408432*
X145865Y409057*
X146178Y409370*
X146802Y409682*
X147428*
X148052Y409370*
X148365Y409057*
X148678Y408432*
X149612Y360069D02*
X150550D01*
Y359757*
X150237Y359132*
X149924Y358819*
X149300Y358507*
X148674*
X148050Y358819*
X147737Y359132*
X147424Y359757*
Y361007*
X147737Y361632*
X148050Y361944*
X148674Y362257*
X149300*
X149924Y361944*
X150237Y361632*
X150550Y361007*
X147924Y73058D02*
X149486Y76808D01*
X151049Y73058*
X148549Y74621D02*
X150424D01*
X147924Y113058D02*
X149486Y116808D01*
X151049Y113058*
X148549Y114621D02*
X150424D01*
X149098Y19167D02*
Y22917D01*
X150973*
X151598Y22605*
X151910Y22292*
X152223Y21667*
Y20417*
X151910Y19792*
X151598Y19480*
X150973Y19167*
X149098*
X149639Y276611D02*
Y280361D01*
X152765*
X152139Y278487D02*
X149639D01*
Y276611D02*
X152765D01*
X149639Y307611D02*
Y311361D01*
X152765*
X152139Y309487D02*
X149639D01*
Y307611D02*
X152765D01*
X152482Y50932D02*
X153420D01*
Y50619*
X153107Y49994*
X152795Y49682*
X152170Y49369*
X151545*
X150920Y49682*
X150607Y49994*
X150295Y50619*
Y51869*
X150607Y52494*
X150920Y52807*
X151545Y53119*
X152170*
X152795Y52807*
X153107Y52494*
X153420Y51869*
X153118Y450861D02*
Y454611D01*
X154993*
X155618Y454299*
X155931Y453986*
X156243Y453361*
Y452111*
X155931Y451486*
X155618Y451174*
X154993Y450861*
X153118*
X155583Y252489D02*
X156520D01*
Y252176*
X156208Y251552*
X155895Y251239*
X155270Y250926*
X154645*
X154020Y251239*
X153708Y251552*
X153395Y252176*
Y253426*
X153708Y254052*
X154020Y254364*
X154645Y254676*
X155270*
X155895Y254364*
X156208Y254052*
X156520Y253426*
X156351Y136429D02*
X157289D01*
Y136117*
X156976Y135492*
X156664Y135179*
X156039Y134867*
X155414*
X154789Y135179*
X154476Y135492*
X154164Y136117*
Y137367*
X154476Y137992*
X154789Y138304*
X155414Y138617*
X156039*
X156664Y138304*
X156976Y137992*
X157289Y137367*
X159970Y246623D02*
X160908D01*
Y246311*
X160596Y245686*
X160283Y245373*
X159658Y245061*
X159033*
X158408Y245373*
X158096Y245686*
X157783Y246311*
Y247561*
X158096Y248186*
X158408Y248498*
X159033Y248811*
X159658*
X160283Y248498*
X160596Y248186*
X160908Y247561*
X160594Y352831D02*
X161532D01*
Y352518*
X161220Y351893*
X160907Y351581*
X160282Y351268*
X159657*
X159032Y351581*
X158720Y351893*
X158407Y352518*
Y353768*
X158720Y354393*
X159032Y354706*
X159657Y355018*
X160282*
X160907Y354706*
X161220Y354393*
X161532Y353768*
X158940Y19167D02*
Y22917D01*
X160815*
X161440Y22605*
X161753Y22292*
X162065Y21667*
Y20417*
X161753Y19792*
X161440Y19480*
X160815Y19167*
X158940*
X161718Y39325D02*
X162656D01*
Y39013*
X162343Y38388*
X162030Y38075*
X161406Y37763*
X160780*
X160156Y38075*
X159843Y38388*
X159530Y39013*
Y40263*
X159843Y40888*
X160156Y41200*
X160780Y41513*
X161406*
X162030Y41200*
X162343Y40888*
X162656Y40263*
X161718Y51431D02*
X162656D01*
Y51119*
X162343Y50494*
X162030Y50181*
X161406Y49869*
X160780*
X160156Y50181*
X159843Y50494*
X159530Y51119*
Y52369*
X159843Y52994*
X160156Y53306*
X160780Y53619*
X161406*
X162030Y53306*
X162343Y52994*
X162656Y52369*
X159639Y276611D02*
Y280361D01*
X162765*
X162139Y278487D02*
X159639D01*
Y276611D02*
X162765D01*
X159639Y307611D02*
Y311361D01*
X162765*
X162139Y309487D02*
X159639D01*
Y307611D02*
X162765D01*
X164838Y242380D02*
X165776D01*
Y242067*
X165463Y241443*
X165150Y241130*
X164526Y240817*
X163900*
X163276Y241130*
X162963Y241443*
X162650Y242067*
Y243317*
X162963Y243943*
X163276Y244255*
X163900Y244567*
X164526*
X165150Y244255*
X165463Y243943*
X165776Y243317*
X163118Y450861D02*
Y454611D01*
X164993*
X165618Y454299*
X165931Y453986*
X166243Y453361*
Y452111*
X165931Y451486*
X165618Y451174*
X164993Y450861*
X163118*
X164013Y72660D02*
X165576Y76410D01*
X167139Y72660*
X164639Y74223D02*
X166513D01*
X164013Y112660D02*
X165576Y116410D01*
X167139Y112660*
X164639Y114223D02*
X166513D01*
X166211Y378665D02*
X167148D01*
Y378352*
X166836Y377728*
X166523Y377415*
X165898Y377102*
X165273*
X164648Y377415*
X164336Y377728*
X164023Y378352*
Y379602*
X164336Y380228*
X164648Y380540*
X165273Y380852*
X165898*
X166523Y380540*
X166836Y380228*
X167148Y379602*
X166211Y397261D02*
X167148D01*
Y396948*
X166836Y396323*
X166523Y396011*
X165898Y395698*
X165273*
X164648Y396011*
X164336Y396323*
X164023Y396948*
Y398198*
X164336Y398823*
X164648Y399136*
X165273Y399448*
X165898*
X166523Y399136*
X166836Y398823*
X167148Y398198*
X166460Y378415D02*
X167398D01*
Y378103*
X167085Y377478*
X166773Y377165*
X166148Y376853*
X165523*
X164898Y377165*
X164585Y377478*
X164273Y378103*
Y379353*
X164585Y379978*
X164898Y380291*
X165523Y380603*
X166148*
X166773Y380291*
X167085Y379978*
X167398Y379353*
X169456Y230648D02*
X170393D01*
Y230336*
X170081Y229711*
X169768Y229398*
X169143Y229086*
X168518*
X167893Y229398*
X167581Y229711*
X167268Y230336*
Y231586*
X167581Y232211*
X167893Y232524*
X168518Y232836*
X169143*
X169768Y232524*
X170081Y232211*
X170393Y231586*
X170329Y136304D02*
X171267D01*
Y135992*
X170954Y135367*
X170642Y135054*
X170017Y134742*
X169392*
X168767Y135054*
X168454Y135367*
X168142Y135992*
Y137242*
X168454Y137867*
X168767Y138180*
X169392Y138492*
X170017*
X170642Y138180*
X170954Y137867*
X171267Y137242*
X168783Y19167D02*
Y22917D01*
X170658*
X171283Y22605*
X171595Y22292*
X171908Y21667*
Y20417*
X171595Y19792*
X171283Y19480*
X170658Y19167*
X168783*
X169639Y276611D02*
Y280361D01*
X172765*
X172139Y278487D02*
X169639D01*
Y276611D02*
X172765D01*
X169639Y307611D02*
Y311361D01*
X172765*
X172139Y309487D02*
X169639D01*
Y307611D02*
X172765D01*
X172700Y425965D02*
X173638D01*
Y425653*
X173326Y425028*
X173013Y424715*
X172388Y424403*
X171763*
X171138Y424715*
X170826Y425028*
X170513Y425653*
Y426903*
X170826Y427528*
X171138Y427841*
X171763Y428153*
X172388*
X173013Y427841*
X173326Y427528*
X173638Y426903*
X172825Y434702D02*
X173763D01*
Y434389*
X173450Y433764*
X173138Y433452*
X172513Y433139*
X171888*
X171263Y433452*
X170950Y433764*
X170638Y434389*
Y435639*
X170950Y436264*
X171263Y436577*
X171888Y436889*
X172513*
X173138Y436577*
X173450Y436264*
X173763Y435639*
X173118Y450861D02*
Y454611D01*
X174993*
X175618Y454299*
X175931Y453986*
X176243Y453361*
Y452111*
X175931Y451486*
X175618Y451174*
X174993Y450861*
X173118*
X177318Y291677D02*
X178256D01*
Y291365*
X177943Y290740*
X177631Y290427*
X177006Y290115*
X176381*
X175756Y290427*
X175443Y290740*
X175131Y291365*
Y292615*
X175443Y293240*
X175756Y293552*
X176381Y293865*
X177006*
X177631Y293552*
X177943Y293240*
X178256Y292615*
X176615Y71709D02*
X178177Y75459D01*
X179740Y71709*
X177240Y73272D02*
X179115D01*
X176615Y111709D02*
X178177Y115459D01*
X179740Y111709*
X177240Y113272D02*
X179115D01*
X179939Y208933D02*
X180877D01*
Y208620*
X180564Y207995*
X180252Y207683*
X179627Y207370*
X179002*
X178377Y207683*
X178064Y207995*
X177752Y208620*
Y209870*
X178064Y210495*
X178377Y210808*
X179002Y211120*
X179627*
X180252Y210808*
X180564Y210495*
X180877Y209870*
X178625Y19167D02*
Y22917D01*
X180500*
X181125Y22605*
X181438Y22292*
X181750Y21667*
Y20417*
X181438Y19792*
X181125Y19480*
X180500Y19167*
X178625*
X181686Y258604D02*
X182624D01*
Y258292*
X182311Y257667*
X181999Y257354*
X181374Y257042*
X180749*
X180124Y257354*
X179811Y257667*
X179499Y258292*
Y259542*
X179811Y260167*
X180124Y260480*
X180749Y260792*
X181374*
X181999Y260480*
X182311Y260167*
X182624Y259542*
X179639Y276611D02*
Y280361D01*
X182765*
X182139Y278487D02*
X179639D01*
Y276611D02*
X182765D01*
X179639Y307611D02*
Y311361D01*
X182765*
X182139Y309487D02*
X179639D01*
Y307611D02*
X182765D01*
X184681Y136055D02*
X185619D01*
Y135742*
X185307Y135117*
X184994Y134805*
X184369Y134492*
X183744*
X183119Y134805*
X182807Y135117*
X182494Y135742*
Y136992*
X182807Y137617*
X183119Y137930*
X183744Y138242*
X184369*
X184994Y137930*
X185307Y137617*
X185619Y136992*
X183118Y450861D02*
Y454611D01*
X184993*
X185618Y454299*
X185931Y453986*
X186243Y453361*
Y452111*
X185931Y451486*
X185618Y451174*
X184993Y450861*
X183118*
X187552Y335109D02*
X188490D01*
Y334796*
X188177Y334171*
X187865Y333859*
X187240Y333546*
X186615*
X185990Y333859*
X185677Y334171*
X185365Y334796*
Y336046*
X185677Y336671*
X185990Y336984*
X186615Y337296*
X187240*
X187865Y336984*
X188177Y336671*
X188490Y336046*
X190298Y426340D02*
X191235D01*
Y426027*
X190923Y425402*
X190610Y425090*
X189985Y424777*
X189360*
X188735Y425090*
X188423Y425402*
X188110Y426027*
Y427277*
X188423Y427902*
X188735Y428215*
X189360Y428527*
X189985*
X190610Y428215*
X190923Y427902*
X191235Y427277*
X189639Y276611D02*
Y280361D01*
X192765*
X192139Y278487D02*
X189639D01*
Y276611D02*
X192765D01*
X189639Y307611D02*
Y311361D01*
X192765*
X192139Y309487D02*
X189639D01*
Y307611D02*
X192765D01*
X192045Y378415D02*
X192983D01*
Y378103*
X192670Y377478*
X192357Y377165*
X191733Y376853*
X191107*
X190483Y377165*
X190170Y377478*
X189857Y378103*
Y379353*
X190170Y379978*
X190483Y380291*
X191107Y380603*
X191733*
X192357Y380291*
X192670Y379978*
X192983Y379353*
X198035Y18358D02*
X198973D01*
Y18046*
X198661Y17421*
X198348Y17108*
X197723Y16796*
X197098*
X196473Y17108*
X196161Y17421*
X195848Y18046*
Y19296*
X196161Y19921*
X196473Y20233*
X197098Y20546*
X197723*
X198348Y20233*
X198661Y19921*
X198973Y19296*
X198035Y327121D02*
X198973D01*
Y326809*
X198661Y326184*
X198348Y325871*
X197723Y325559*
X197098*
X196473Y325871*
X196161Y326184*
X195848Y326809*
Y328059*
X196161Y328684*
X196473Y328996*
X197098Y329309*
X197723*
X198348Y328996*
X198661Y328684*
X198973Y328059*
X198035Y400880D02*
X198973D01*
Y400567*
X198661Y399943*
X198348Y399630*
X197723Y399317*
X197098*
X196473Y399630*
X196161Y399943*
X195848Y400567*
Y401817*
X196161Y402443*
X196473Y402755*
X197098Y403067*
X197723*
X198348Y402755*
X198661Y402443*
X198973Y401817*
X199639Y276611D02*
Y280361D01*
X202765*
X202139Y278487D02*
X199639D01*
Y276611D02*
X202765D01*
X199639Y307611D02*
Y311361D01*
X202765*
X202139Y309487D02*
X199639D01*
Y307611D02*
X202765D01*
X204276Y29965D02*
X205213D01*
Y29652*
X204901Y29028*
X204588Y28715*
X203963Y28402*
X203338*
X202713Y28715*
X202401Y29028*
X202088Y29652*
Y30902*
X202401Y31528*
X202713Y31840*
X203338Y32152*
X203963*
X204588Y31840*
X204901Y31528*
X205213Y30902*
X213885Y251865D02*
X214823D01*
Y251552*
X214511Y250928*
X214198Y250615*
X213573Y250302*
X212948*
X212323Y250615*
X212011Y250928*
X211698Y251552*
Y252802*
X212011Y253428*
X212323Y253740*
X212948Y254052*
X213573*
X214198Y253740*
X214511Y253428*
X214823Y252802*
X214010Y419600D02*
X214948D01*
Y419288*
X214635Y418663*
X214323Y418350*
X213698Y418038*
X213073*
X212448Y418350*
X212135Y418663*
X211823Y419288*
Y420538*
X212135Y421163*
X212448Y421476*
X213073Y421788*
X213698*
X214323Y421476*
X214635Y421163*
X214948Y420538*
X215508Y66033D02*
X216446D01*
Y65720*
X216133Y65096*
X215820Y64783*
X215196Y64470*
X214570*
X213946Y64783*
X213633Y65096*
X213320Y65720*
Y66970*
X213633Y67596*
X213946Y67908*
X214570Y68220*
X215196*
X215820Y67908*
X216133Y67596*
X216446Y66970*
X219876Y197825D02*
X220814D01*
Y197513*
X220501Y196888*
X220189Y196575*
X219564Y196263*
X218939*
X218314Y196575*
X218001Y196888*
X217689Y197513*
Y198763*
X218001Y199388*
X218314Y199700*
X218939Y200013*
X219564*
X220189Y199700*
X220501Y199388*
X220814Y198763*
X220625Y257856D02*
X221563D01*
Y257543*
X221250Y256918*
X220937Y256606*
X220313Y256293*
X219687*
X219063Y256606*
X218750Y256918*
X218437Y257543*
Y258793*
X218750Y259418*
X219063Y259731*
X219687Y260043*
X220313*
X220937Y259731*
X221250Y259418*
X221563Y258793*
X220625Y293674D02*
X221563D01*
Y293361*
X221250Y292737*
X220937Y292424*
X220313Y292111*
X219687*
X219063Y292424*
X218750Y292737*
X218437Y293361*
Y294611*
X218750Y295237*
X219063Y295549*
X219687Y295861*
X220313*
X220937Y295549*
X221250Y295237*
X221563Y294611*
X220999Y18233D02*
X221937D01*
Y17921*
X221624Y17296*
X221312Y16983*
X220687Y16671*
X220062*
X219437Y16983*
X219124Y17296*
X218812Y17921*
Y19171*
X219124Y19796*
X219437Y20109*
X220062Y20421*
X220687*
X221312Y20109*
X221624Y19796*
X221937Y19171*
X221873Y379164D02*
X222811D01*
Y378852*
X222498Y378227*
X222185Y377914*
X221561Y377602*
X220935*
X220311Y377914*
X219998Y378227*
X219685Y378852*
Y380102*
X219998Y380727*
X220311Y381039*
X220935Y381352*
X221561*
X222185Y381039*
X222498Y380727*
X222811Y380102*
X224369Y131437D02*
X225307D01*
Y131124*
X224994Y130500*
X224681Y130187*
X224057Y129874*
X223431*
X222807Y130187*
X222494Y130500*
X222181Y131124*
Y132374*
X222494Y133000*
X222807Y133312*
X223431Y133624*
X224057*
X224681Y133312*
X224994Y133000*
X225307Y132374*
X226491Y29965D02*
X227428D01*
Y29652*
X227116Y29028*
X226803Y28715*
X226178Y28402*
X225553*
X224928Y28715*
X224616Y29028*
X224303Y29652*
Y30902*
X224616Y31528*
X224928Y31840*
X225553Y32152*
X226178*
X226803Y31840*
X227116Y31528*
X227428Y30902*
X228612Y360444D02*
X229550D01*
Y360131*
X229237Y359506*
X228925Y359194*
X228300Y358881*
X227675*
X227050Y359194*
X226737Y359506*
X226425Y360131*
Y361381*
X226737Y362006*
X227050Y362319*
X227675Y362631*
X228300*
X228925Y362319*
X229237Y362006*
X229550Y361381*
X232415Y65719D02*
X233978Y69469D01*
X235541Y65719*
X233041Y67281D02*
X234915D01*
X232415Y105719D02*
X233978Y109469D01*
X235541Y105719*
X233041Y107281D02*
X234915D01*
X235726Y242380D02*
X236664D01*
Y242067*
X236351Y241443*
X236039Y241130*
X235414Y240817*
X234789*
X234164Y241130*
X233851Y241443*
X233539Y242067*
Y243317*
X233851Y243943*
X234164Y244255*
X234789Y244567*
X235414*
X236039Y244255*
X236351Y243943*
X236664Y243317*
X239011Y266606D02*
X238699Y266293D01*
X238074Y265980*
X237136*
X236511Y266293*
X236199Y266606*
X235886Y267230*
Y268480*
X236199Y269106*
X236511Y269418*
X237136Y269730*
X238074*
X238699Y269418*
X239011Y269106*
Y276606D02*
X238699Y276293D01*
X238074Y275980*
X237136*
X236511Y276293*
X236199Y276606*
X235886Y277230*
Y278480*
X236199Y279106*
X236511Y279418*
X237136Y279730*
X238074*
X238699Y279418*
X239011Y279106*
Y286606D02*
X238699Y286293D01*
X238074Y285980*
X237136*
X236511Y286293*
X236199Y286606*
X235886Y287230*
Y288480*
X236199Y289106*
X236511Y289418*
X237136Y289730*
X238074*
X238699Y289418*
X239011Y289106*
Y296606D02*
X238699Y296293D01*
X238074Y295980*
X237136*
X236511Y296293*
X236199Y296606*
X235886Y297230*
Y298480*
X236199Y299106*
X236511Y299418*
X237136Y299730*
X238074*
X238699Y299418*
X239011Y299106*
Y306606D02*
X238699Y306293D01*
X238074Y305980*
X237136*
X236511Y306293*
X236199Y306606*
X235886Y307230*
Y308480*
X236199Y309106*
X236511Y309418*
X237136Y309730*
X238074*
X238699Y309418*
X239011Y309106*
Y316606D02*
X238699Y316293D01*
X238074Y315980*
X237136*
X236511Y316293*
X236199Y316606*
X235886Y317230*
Y318480*
X236199Y319106*
X236511Y319418*
X237136Y319730*
X238074*
X238699Y319418*
X239011Y319106*
Y326606D02*
X238699Y326293D01*
X238074Y325980*
X237136*
X236511Y326293*
X236199Y326606*
X235886Y327230*
Y328480*
X236199Y329106*
X236511Y329418*
X237136Y329730*
X238074*
X238699Y329418*
X239011Y329106*
X239595Y129440D02*
X240533D01*
Y129128*
X240220Y128503*
X239907Y128190*
X239283Y127878*
X238657*
X238033Y128190*
X237720Y128503*
X237407Y129128*
Y130378*
X237720Y131003*
X238033Y131315*
X238657Y131628*
X239283*
X239907Y131315*
X240220Y131003*
X240533Y130378*
X237809Y19417D02*
Y23167D01*
X239685*
X240309Y22854*
X240622Y22542*
X240935Y21917*
Y20667*
X240622Y20042*
X240309Y19729*
X239685Y19417*
X237809*
X243214Y230648D02*
X244152D01*
Y230336*
X243839Y229711*
X243527Y229398*
X242902Y229086*
X242277*
X241652Y229398*
X241339Y229711*
X241027Y230336*
Y231586*
X241339Y232211*
X241652Y232524*
X242277Y232836*
X242902*
X243527Y232524*
X243839Y232211*
X244152Y231586*
X245395Y65469D02*
X246957Y69219D01*
X248520Y65469*
X246020Y67031D02*
X247895D01*
X245395Y105469D02*
X246957Y109219D01*
X248520Y105469*
X246020Y107031D02*
X247895D01*
X248206Y287543D02*
X249144D01*
Y287230*
X248831Y286606*
X248519Y286293*
X247894Y285980*
X247269*
X246644Y286293*
X246331Y286606*
X246019Y287230*
Y288480*
X246331Y289106*
X246644Y289418*
X247269Y289730*
X247894*
X248519Y289418*
X248831Y289106*
X249144Y288480*
X248206Y297676D02*
X249144D01*
Y297363*
X248831Y296738*
X248519Y296426*
X247894Y296113*
X247269*
X246644Y296426*
X246331Y296738*
X246019Y297363*
Y298613*
X246331Y299238*
X246644Y299551*
X247269Y299863*
X247894*
X248519Y299551*
X248831Y299238*
X249144Y298613*
X249080Y209432D02*
X250018D01*
Y209119*
X249705Y208494*
X249393Y208182*
X248768Y207869*
X248143*
X247518Y208182*
X247205Y208494*
X246893Y209119*
Y210369*
X247205Y210994*
X247518Y211307*
X248143Y211619*
X248768*
X249393Y211307*
X249705Y210994*
X250018Y210369*
X247652Y19417D02*
Y23167D01*
X249527*
X250152Y22854*
X250465Y22542*
X250777Y21917*
Y20667*
X250465Y20042*
X250152Y19729*
X249527Y19417*
X247652*
X249954Y237388D02*
X250891D01*
Y237075*
X250579Y236450*
X250266Y236138*
X249641Y235825*
X249016*
X248391Y236138*
X248079Y236450*
X247766Y237075*
Y238325*
X248079Y238950*
X248391Y239263*
X249016Y239575*
X249641*
X250266Y239263*
X250579Y238950*
X250891Y238325*
X251940Y250617D02*
X252878D01*
Y250304*
X252565Y249680*
X252252Y249367*
X251628Y249054*
X251002*
X250378Y249367*
X250065Y249680*
X249752Y250304*
Y251554*
X250065Y252180*
X250378Y252492*
X251002Y252804*
X251628*
X252252Y252492*
X252565Y252180*
X252878Y251554*
X252949Y271209D02*
X253887D01*
Y270897*
X253574Y270272*
X253261Y269959*
X252637Y269647*
X252011*
X251387Y269959*
X251074Y270272*
X250761Y270897*
Y272147*
X251074Y272772*
X251387Y273085*
X252011Y273397*
X252637*
X253261Y273085*
X253574Y272772*
X253887Y272147*
X252949Y374297D02*
X253887D01*
Y373984*
X253574Y373359*
X253261Y373047*
X252637Y372734*
X252011*
X251387Y373047*
X251074Y373359*
X250761Y373984*
Y375234*
X251074Y375859*
X251387Y376172*
X252011Y376484*
X252637*
X253261Y376172*
X253574Y375859*
X253887Y375234*
X254821Y129440D02*
X255759D01*
Y129128*
X255446Y128503*
X255133Y128190*
X254509Y127878*
X253883*
X253259Y128190*
X252946Y128503*
X252633Y129128*
Y130378*
X252946Y131003*
X253259Y131315*
X253883Y131628*
X254509*
X255133Y131315*
X255446Y131003*
X255759Y130378*
X257494Y19417D02*
Y23167D01*
X259370*
X259994Y22854*
X260307Y22542*
X260620Y21917*
Y20667*
X260307Y20042*
X259994Y19729*
X259370Y19417*
X257494*
X260246Y65719D02*
X261809Y69469D01*
X263372Y65719*
X260872Y67281D02*
X262746D01*
X260246Y105719D02*
X261809Y109469D01*
X263372Y105719*
X260872Y107281D02*
X262746D01*
X265804Y226031D02*
X266741D01*
Y225718*
X266429Y225093*
X266116Y224781*
X265491Y224468*
X264866*
X264241Y224781*
X263929Y225093*
X263616Y225718*
Y226968*
X263929Y227593*
X264241Y227906*
X264866Y228218*
X265491*
X266116Y227906*
X266429Y227593*
X266741Y226968*
X269011Y266606D02*
X268699Y266293D01*
X268074Y265980*
X267136*
X266511Y266293*
X266199Y266606*
X265886Y267230*
Y268480*
X266199Y269106*
X266511Y269418*
X267136Y269730*
X268074*
X268699Y269418*
X269011Y269106*
Y276606D02*
X268699Y276293D01*
X268074Y275980*
X267136*
X266511Y276293*
X266199Y276606*
X265886Y277230*
Y278480*
X266199Y279106*
X266511Y279418*
X267136Y279730*
X268074*
X268699Y279418*
X269011Y279106*
Y286606D02*
X268699Y286293D01*
X268074Y285980*
X267136*
X266511Y286293*
X266199Y286606*
X265886Y287230*
Y288480*
X266199Y289106*
X266511Y289418*
X267136Y289730*
X268074*
X268699Y289418*
X269011Y289106*
Y296606D02*
X268699Y296293D01*
X268074Y295980*
X267136*
X266511Y296293*
X266199Y296606*
X265886Y297230*
Y298480*
X266199Y299106*
X266511Y299418*
X267136Y299730*
X268074*
X268699Y299418*
X269011Y299106*
Y306606D02*
X268699Y306293D01*
X268074Y305980*
X267136*
X266511Y306293*
X266199Y306606*
X265886Y307230*
Y308480*
X266199Y309106*
X266511Y309418*
X267136Y309730*
X268074*
X268699Y309418*
X269011Y309106*
Y316606D02*
X268699Y316293D01*
X268074Y315980*
X267136*
X266511Y316293*
X266199Y316606*
X265886Y317230*
Y318480*
X266199Y319106*
X266511Y319418*
X267136Y319730*
X268074*
X268699Y319418*
X269011Y319106*
Y326606D02*
X268699Y326293D01*
X268074Y325980*
X267136*
X266511Y326293*
X266199Y326606*
X265886Y327230*
Y328480*
X266199Y329106*
X266511Y329418*
X267136Y329730*
X268074*
X268699Y329418*
X269011Y329106*
X268424Y237388D02*
X269362D01*
Y237075*
X269050Y236450*
X268737Y236138*
X268112Y235825*
X267487*
X266862Y236138*
X266550Y236450*
X266237Y237075*
Y238325*
X266550Y238950*
X266862Y239263*
X267487Y239575*
X268112*
X268737Y239263*
X269050Y238950*
X269362Y238325*
X269173Y345967D02*
X270111D01*
Y345654*
X269798Y345029*
X269486Y344717*
X268861Y344404*
X268236*
X267611Y344717*
X267298Y345029*
X266986Y345654*
Y346904*
X267298Y347529*
X267611Y347842*
X268236Y348154*
X268861*
X269486Y347842*
X269798Y347529*
X270111Y346904*
X267337Y19417D02*
Y23167D01*
X269212*
X269837Y22854*
X270150Y22542*
X270462Y21917*
Y20667*
X270150Y20042*
X269837Y19729*
X269212Y19417*
X267337*
X269548Y129565D02*
X270485D01*
Y129252*
X270173Y128628*
X269860Y128315*
X269235Y128002*
X268610*
X267985Y128315*
X267673Y128628*
X267360Y129252*
Y130502*
X267673Y131128*
X267985Y131440*
X268610Y131752*
X269235*
X269860Y131440*
X270173Y131128*
X270485Y130502*
X271919Y201320D02*
X272857D01*
Y201007*
X272544Y200382*
X272231Y200070*
X271607Y199757*
X270981*
X270357Y200070*
X270044Y200382*
X269731Y201007*
Y202257*
X270044Y202882*
X270357Y203195*
X270981Y203507*
X271607*
X272231Y203195*
X272544Y202882*
X272857Y202257*
X272044Y211803D02*
X272981D01*
Y211491*
X272669Y210866*
X272356Y210553*
X271731Y210241*
X271106*
X270481Y210553*
X270169Y210866*
X269856Y211491*
Y212741*
X270169Y213366*
X270481Y213678*
X271106Y213991*
X271731*
X272356Y213678*
X272669Y213366*
X272981Y212741*
X273752Y376185D02*
Y379935D01*
X276877*
X276252Y378060D02*
X273752D01*
Y395398D02*
Y399148D01*
X276877*
X276252Y397273D02*
X273752D01*
X276096Y65968D02*
X277659Y69718D01*
X279222Y65968*
X276722Y67531D02*
X278596D01*
X276096Y105968D02*
X277659Y109718D01*
X279222Y105968*
X276722Y107531D02*
X278596D01*
X277180Y19417D02*
Y23167D01*
X279055*
X279680Y22854*
X279992Y22542*
X280305Y21917*
Y20667*
X279992Y20042*
X279680Y19729*
X279055Y19417*
X277180*
X279906Y251116D02*
X280844D01*
Y250804*
X280531Y250179*
X280219Y249866*
X279594Y249554*
X278969*
X278344Y249866*
X278031Y250179*
X277719Y250804*
Y252054*
X278031Y252679*
X278344Y252991*
X278969Y253304*
X279594*
X280219Y252991*
X280531Y252679*
X280844Y252054*
X289017Y286669D02*
X289955D01*
Y286357*
X289642Y285732*
X289330Y285419*
X288705Y285107*
X288080*
X287455Y285419*
X287142Y285732*
X286830Y286357*
Y287607*
X287142Y288232*
X287455Y288544*
X288080Y288857*
X288705*
X289330Y288544*
X289642Y288232*
X289955Y287607*
X289017Y326622D02*
X289955D01*
Y326309*
X289642Y325685*
X289330Y325372*
X288705Y325059*
X288080*
X287455Y325372*
X287142Y325685*
X286830Y326309*
Y327559*
X287142Y328185*
X287455Y328497*
X288080Y328809*
X288705*
X289330Y328497*
X289642Y328185*
X289955Y327559*
X287022Y19417D02*
Y23167D01*
X288897*
X289522Y22854*
X289835Y22542*
X290147Y21917*
Y20667*
X289835Y20042*
X289522Y19729*
X288897Y19417*
X287022*
X293635Y244252D02*
X294572D01*
Y243939*
X294260Y243315*
X293947Y243002*
X293322Y242689*
X292697*
X292072Y243002*
X291760Y243315*
X291447Y243939*
Y245189*
X291760Y245815*
X292072Y246127*
X292697Y246439*
X293322*
X293947Y246127*
X294260Y245815*
X294572Y245189*
X295382Y340600D02*
X296320D01*
Y340287*
X296007Y339663*
X295694Y339350*
X295070Y339037*
X294444*
X293820Y339350*
X293507Y339663*
X293194Y340287*
Y341537*
X293507Y342163*
X293820Y342475*
X294444Y342787*
X295070*
X295694Y342475*
X296007Y342163*
X296320Y341537*
X297753Y225656D02*
X298691D01*
Y225344*
X298378Y224719*
X298066Y224406*
X297441Y224094*
X296816*
X296191Y224406*
X295878Y224719*
X295566Y225344*
Y226594*
X295878Y227219*
X296191Y227531*
X296816Y227844*
X297441*
X298066Y227531*
X298378Y227219*
X298691Y226594*
X298003Y119948D02*
X298941D01*
Y119635*
X298628Y119011*
X298315Y118698*
X297691Y118385*
X297065*
X296441Y118698*
X296128Y119011*
X295815Y119635*
Y120885*
X296128Y121511*
X296441Y121823*
X297065Y122135*
X297691*
X298315Y121823*
X298628Y121511*
X298941Y120885*
X296865Y19417D02*
Y23167D01*
X298740*
X299365Y22854*
X299677Y22542*
X299990Y21917*
Y20667*
X299677Y20042*
X299365Y19729*
X298740Y19417*
X296865*
X304408Y265732D02*
X304096Y265419D01*
X303470Y265107*
X302533*
X301908Y265419*
X301596Y265732*
X301283Y266357*
Y267607*
X301596Y268232*
X301908Y268544*
X302533Y268857*
X303470*
X304096Y268544*
X304408Y268232*
Y275732D02*
X304096Y275419D01*
X303470Y275107*
X302533*
X301908Y275419*
X301596Y275732*
X301283Y276357*
Y277607*
X301596Y278232*
X301908Y278544*
X302533Y278857*
X303470*
X304096Y278544*
X304408Y278232*
Y285732D02*
X304096Y285419D01*
X303470Y285107*
X302533*
X301908Y285419*
X301596Y285732*
X301283Y286357*
Y287607*
X301596Y288232*
X301908Y288544*
X302533Y288857*
X303470*
X304096Y288544*
X304408Y288232*
Y295732D02*
X304096Y295419D01*
X303470Y295107*
X302533*
X301908Y295419*
X301596Y295732*
X301283Y296357*
Y297607*
X301596Y298232*
X301908Y298544*
X302533Y298857*
X303470*
X304096Y298544*
X304408Y298232*
Y305732D02*
X304096Y305419D01*
X303470Y305107*
X302533*
X301908Y305419*
X301596Y305732*
X301283Y306357*
Y307607*
X301596Y308232*
X301908Y308544*
X302533Y308857*
X303470*
X304096Y308544*
X304408Y308232*
Y315732D02*
X304096Y315419D01*
X303470Y315107*
X302533*
X301908Y315419*
X301596Y315732*
X301283Y316357*
Y317607*
X301596Y318232*
X301908Y318544*
X302533Y318857*
X303470*
X304096Y318544*
X304408Y318232*
Y325732D02*
X304096Y325419D01*
X303470Y325107*
X302533*
X301908Y325419*
X301596Y325732*
X301283Y326357*
Y327607*
X301596Y328232*
X301908Y328544*
X302533Y328857*
X303470*
X304096Y328544*
X304408Y328232*
X306707Y19417D02*
Y23167D01*
X308582*
X309207Y22854*
X309520Y22542*
X309832Y21917*
Y20667*
X309520Y20042*
X309207Y19729*
X308582Y19417*
X306707*
X309110Y232520D02*
X310048D01*
Y232208*
X309735Y231583*
X309423Y231270*
X308798Y230958*
X308173*
X307548Y231270*
X307235Y231583*
X306923Y232208*
Y233458*
X307235Y234083*
X307548Y234396*
X308173Y234708*
X308798*
X309423Y234396*
X309735Y234083*
X310048Y233458*
X309360Y226280D02*
X310298D01*
Y225968*
X309985Y225343*
X309672Y225030*
X309048Y224718*
X308422*
X307798Y225030*
X307485Y225343*
X307172Y225968*
Y227218*
X307485Y227843*
X307798Y228156*
X308422Y228468*
X309048*
X309672Y228156*
X309985Y227843*
X310298Y227218*
X307935Y63573D02*
X309498Y67323D01*
X311060Y63573*
X308560Y65136D02*
X310435D01*
X307935Y103573D02*
X309498Y107323D01*
X311060Y103573*
X308560Y105136D02*
X310435D01*
X314261Y439070D02*
X315199D01*
Y438757*
X314886Y438132*
X314574Y437820*
X313949Y437507*
X313324*
X312699Y437820*
X312386Y438132*
X312074Y438757*
Y440007*
X312386Y440632*
X312699Y440945*
X313324Y441257*
X313949*
X314574Y440945*
X314886Y440632*
X315199Y440007*
X315475Y231409D02*
X316413D01*
Y231096*
X316100Y230472*
X315788Y230159*
X315163Y229846*
X314538*
X313913Y230159*
X313600Y230472*
X313288Y231096*
Y232346*
X313600Y232972*
X313913Y233284*
X314538Y233596*
X315163*
X315788Y233284*
X316100Y232972*
X316413Y232346*
X318595Y166250D02*
X319533D01*
Y165937*
X319220Y165313*
X318908Y165000*
X318283Y164687*
X317658*
X317033Y165000*
X316720Y165313*
X316408Y165937*
Y167187*
X316720Y167813*
X317033Y168125*
X317658Y168437*
X318283*
X318908Y168125*
X319220Y167813*
X319533Y167187*
X316550Y19417D02*
Y23167D01*
X318425*
X319050Y22854*
X319362Y22542*
X319675Y21917*
Y20667*
X319362Y20042*
X319050Y19729*
X318425Y19417*
X316550*
X320842Y388150D02*
X321780D01*
Y387837*
X321467Y387213*
X321154Y386900*
X320530Y386587*
X319904*
X319280Y386900*
X318967Y387213*
X318654Y387837*
Y389087*
X318967Y389713*
X319280Y390025*
X319904Y390337*
X320530*
X321154Y390025*
X321467Y389713*
X321780Y389087*
X318793Y62325D02*
X320356Y66075D01*
X321918Y62325*
X319418Y63888D02*
X321293D01*
X318793Y102325D02*
X320356Y106075D01*
X321918Y102325*
X319418Y103888D02*
X321293D01*
X322215Y227154D02*
X323152D01*
Y226841*
X322840Y226217*
X322527Y225904*
X321902Y225591*
X321277*
X320652Y225904*
X320340Y226217*
X320027Y226841*
Y228091*
X320340Y228717*
X320652Y229029*
X321277Y229341*
X321902*
X322527Y229029*
X322840Y228717*
X323152Y228091*
X322589Y287551D02*
X323527D01*
Y287238*
X323214Y286613*
X322902Y286301*
X322277Y285988*
X321652*
X321027Y286301*
X320714Y286613*
X320402Y287238*
Y288488*
X320714Y289113*
X321027Y289426*
X321652Y289738*
X322277*
X322902Y289426*
X323214Y289113*
X323527Y288488*
X323962Y144409D02*
X324900D01*
Y144097*
X324587Y143472*
X324274Y143159*
X323650Y142847*
X323024*
X322400Y143159*
X322087Y143472*
X321774Y144097*
Y145347*
X322087Y145972*
X322400Y146285*
X323024Y146597*
X323650*
X324274Y146285*
X324587Y145972*
X324900Y145347*
X326458Y360444D02*
X327396D01*
Y360131*
X327083Y359506*
X326770Y359194*
X326146Y358881*
X325520*
X324896Y359194*
X324583Y359506*
X324270Y360131*
Y361381*
X324583Y362006*
X324896Y362319*
X325520Y362631*
X326146*
X326770Y362319*
X327083Y362006*
X327396Y361381*
X326392Y19417D02*
Y23167D01*
X328267*
X328892Y22854*
X329205Y22542*
X329517Y21917*
Y20667*
X329205Y20042*
X328892Y19729*
X328267Y19417*
X326392*
X330649Y62076D02*
X332212Y65826D01*
X333774Y62076*
X331274Y63638D02*
X333149D01*
X330649Y102076D02*
X332212Y105826D01*
X333774Y102076*
X331274Y103638D02*
X333149D01*
X334408Y265732D02*
X334096Y265419D01*
X333470Y265107*
X332533*
X331908Y265419*
X331596Y265732*
X331283Y266357*
Y267607*
X331596Y268232*
X331908Y268544*
X332533Y268857*
X333470*
X334096Y268544*
X334408Y268232*
Y275732D02*
X334096Y275419D01*
X333470Y275107*
X332533*
X331908Y275419*
X331596Y275732*
X331283Y276357*
Y277607*
X331596Y278232*
X331908Y278544*
X332533Y278857*
X333470*
X334096Y278544*
X334408Y278232*
Y285732D02*
X334096Y285419D01*
X333470Y285107*
X332533*
X331908Y285419*
X331596Y285732*
X331283Y286357*
Y287607*
X331596Y288232*
X331908Y288544*
X332533Y288857*
X333470*
X334096Y288544*
X334408Y288232*
Y295732D02*
X334096Y295419D01*
X333470Y295107*
X332533*
X331908Y295419*
X331596Y295732*
X331283Y296357*
Y297607*
X331596Y298232*
X331908Y298544*
X332533Y298857*
X333470*
X334096Y298544*
X334408Y298232*
Y305732D02*
X334096Y305419D01*
X333470Y305107*
X332533*
X331908Y305419*
X331596Y305732*
X331283Y306357*
Y307607*
X331596Y308232*
X331908Y308544*
X332533Y308857*
X333470*
X334096Y308544*
X334408Y308232*
Y315732D02*
X334096Y315419D01*
X333470Y315107*
X332533*
X331908Y315419*
X331596Y315732*
X331283Y316357*
Y317607*
X331596Y318232*
X331908Y318544*
X332533Y318857*
X333470*
X334096Y318544*
X334408Y318232*
Y325732D02*
X334096Y325419D01*
X333470Y325107*
X332533*
X331908Y325419*
X331596Y325732*
X331283Y326357*
Y327607*
X331596Y328232*
X331908Y328544*
X332533Y328857*
X333470*
X334096Y328544*
X334408Y328232*
X334695Y46564D02*
X335633D01*
Y46251*
X335320Y45626*
X335007Y45314*
X334383Y45001*
X333757*
X333133Y45314*
X332820Y45626*
X332507Y46251*
Y47501*
X332820Y48126*
X333133Y48439*
X333757Y48751*
X334383*
X335007Y48439*
X335320Y48126*
X335633Y47501*
X334820Y147030D02*
X335757D01*
Y146718*
X335445Y146093*
X335132Y145780*
X334507Y145468*
X333882*
X333257Y145780*
X332945Y146093*
X332632Y146718*
Y147968*
X332945Y148593*
X333257Y148906*
X333882Y149218*
X334507*
X335132Y148906*
X335445Y148593*
X335757Y147968*
X344180Y144784D02*
X345118D01*
Y144471*
X344805Y143846*
X344493Y143534*
X343868Y143221*
X343243*
X342618Y143534*
X342305Y143846*
X341993Y144471*
Y145721*
X342305Y146346*
X342618Y146659*
X343243Y146971*
X343868*
X344493Y146659*
X344805Y146346*
X345118Y145721*
X344554Y315639D02*
X345492D01*
Y315327*
X345180Y314702*
X344867Y314389*
X344242Y314077*
X343617*
X342992Y314389*
X342680Y314702*
X342367Y315327*
Y316577*
X342680Y317202*
X342992Y317515*
X343617Y317827*
X344242*
X344867Y317515*
X345180Y317202*
X345492Y316577*
X347179Y227154D02*
X348117D01*
Y226841*
X347804Y226217*
X347491Y225904*
X346867Y225591*
X346241*
X345617Y225904*
X345304Y226217*
X344991Y226841*
Y228091*
X345304Y228717*
X345617Y229029*
X346241Y229341*
X346867*
X347491Y229029*
X347804Y228717*
X348117Y228091*
X345113Y61226D02*
X346675Y64976D01*
X348238Y61226*
X345738Y62788D02*
X347613D01*
X345113Y101226D02*
X346675Y104976D01*
X348238Y101226*
X345738Y102788D02*
X347613D01*
X347074Y245899D02*
X348637Y249649D01*
X350199Y245899*
X347699Y247461D02*
X349574D01*
X349730Y409676D02*
X351293Y413426D01*
X352856Y409676*
X350356Y411239D02*
X352230D01*
X350854Y339287D02*
X352416Y343037D01*
X353979Y339287*
X351479Y340850D02*
X353354D01*
X351478Y374481D02*
X353040Y378231D01*
X354603Y374481*
X352103Y376044D02*
X353978D01*
X355163Y331864D02*
X356100D01*
Y331551*
X355788Y330926*
X355475Y330614*
X354850Y330301*
X354225*
X353600Y330614*
X353288Y330926*
X352975Y331551*
Y332801*
X353288Y333426*
X353600Y333739*
X354225Y334051*
X354850*
X355475Y333739*
X355788Y333426*
X356100Y332801*
X357534Y46564D02*
X358472D01*
Y46251*
X358159Y45626*
X357846Y45314*
X357222Y45001*
X356596*
X355972Y45314*
X355659Y45626*
X355346Y46251*
Y47501*
X355659Y48126*
X355972Y48439*
X356596Y48751*
X357222*
X357846Y48439*
X358159Y48126*
X358472Y47501*
X358657Y259977D02*
X359595D01*
Y259665*
X359282Y259040*
X358970Y258727*
X358345Y258415*
X357720*
X357095Y258727*
X356782Y259040*
X356470Y259665*
Y260915*
X356782Y261540*
X357095Y261852*
X357720Y262165*
X358345*
X358970Y261852*
X359282Y261540*
X359595Y260915*
X365771Y399257D02*
X366709D01*
Y398945*
X366396Y398320*
X366083Y398007*
X365459Y397695*
X364833*
X364209Y398007*
X363896Y398320*
X363583Y398945*
Y400195*
X363896Y400820*
X364209Y401133*
X364833Y401445*
X365459*
X366083Y401133*
X366396Y400820*
X366709Y400195*
X369141Y440817D02*
X370078D01*
Y440504*
X369766Y439880*
X369453Y439567*
X368828Y439254*
X368203*
X367578Y439567*
X367266Y439880*
X366953Y440504*
Y441754*
X367266Y442380*
X367578Y442692*
X368203Y443004*
X368828*
X369453Y442692*
X369766Y442380*
X370078Y441754*
X367203Y203380D02*
Y207130D01*
X370328*
X369703Y205255D02*
X367203D01*
Y222593D02*
Y226343D01*
X370328*
X369703Y224468D02*
X367203D01*
X371696Y357134D02*
X373258Y360884D01*
X374821Y357134*
X372321Y358696D02*
X374196D01*
X371696Y425651D02*
X373258Y429401D01*
X374821Y425651*
X372321Y427213D02*
X374196D01*
X372320Y390831D02*
X373882Y394581D01*
X375445Y390831*
X372945Y392393D02*
X374820D01*
X383368Y385030D02*
X384306D01*
Y384717*
X383993Y384093*
X383681Y383780*
X383056Y383467*
X382431*
X381806Y383780*
X381493Y384093*
X381181Y384717*
Y385967*
X381493Y386593*
X381806Y386905*
X382431Y387217*
X383056*
X383681Y386905*
X383993Y386593*
X384306Y385967*
X389730Y409676D02*
X391293Y413426D01*
X392856Y409676*
X390356Y411239D02*
X392230D01*
X390854Y339287D02*
X392416Y343037D01*
X393979Y339287*
X391479Y340850D02*
X393354D01*
X391478Y374481D02*
X393040Y378231D01*
X394603Y374481*
X392103Y376044D02*
X393978D01*
X409511Y257167D02*
Y260917D01*
X411386*
X412011Y260604*
X412324Y260292*
X412636Y259667*
Y258417*
X412324Y257792*
X412011Y257479*
X411386Y257167*
X409511*
Y267167D02*
Y270917D01*
X411386*
X412011Y270604*
X412324Y270292*
X412636Y269667*
Y268417*
X412324Y267792*
X412011Y267479*
X411386Y267167*
X409511*
Y277167D02*
Y280917D01*
X411386*
X412011Y280604*
X412324Y280292*
X412636Y279667*
Y278417*
X412324Y277792*
X412011Y277479*
X411386Y277167*
X409511*
Y287167D02*
Y290917D01*
X411386*
X412011Y290604*
X412324Y290292*
X412636Y289667*
Y288417*
X412324Y287792*
X412011Y287479*
X411386Y287167*
X409511*
Y297167D02*
Y300917D01*
X411386*
X412011Y300604*
X412324Y300292*
X412636Y299667*
Y298417*
X412324Y297792*
X412011Y297479*
X411386Y297167*
X409511*
Y307167D02*
Y310917D01*
X411386*
X412011Y310604*
X412324Y310292*
X412636Y309667*
Y308417*
X412324Y307792*
X412011Y307479*
X411386Y307167*
X409511*
Y317167D02*
Y320917D01*
X411386*
X412011Y320604*
X412324Y320292*
X412636Y319667*
Y318417*
X412324Y317792*
X412011Y317479*
X411386Y317167*
X409511*
Y327167D02*
Y330917D01*
X411386*
X412011Y330604*
X412324Y330292*
X412636Y329667*
Y328417*
X412324Y327792*
X412011Y327479*
X411386Y327167*
X409511*
X411696Y357134D02*
X413258Y360884D01*
X414821Y357134*
X412321Y358696D02*
X414196D01*
X411696Y425651D02*
X413258Y429401D01*
X414821Y425651*
X412321Y427213D02*
X414196D01*
X412320Y390831D02*
X413882Y394581D01*
X415445Y390831*
X412945Y392393D02*
X414820D01*
X0Y0D02*
M02*
