G04 EasyPC Gerber Version 21.0.3 Build 4286 *
G04 #@! TF.Part,Single*
G04 #@! TF.FileFunction,Soldermask,Bot *
G04 #@! TF.FilePolarity,Negative *
%FSLAX35Y35*%
%MOIN*%
G04 #@! TA.AperFunction,ComponentPad*
%ADD10R,0.08677X0.08677*%
%ADD13R,0.09091X0.09091*%
%ADD12C,0.07000*%
%ADD11C,0.08677*%
%ADD14C,0.09091*%
%ADD15R,0.09000X0.07000*%
X0Y0D02*
D02*
D10*
X20250Y30250D03*
X505250Y90250D03*
D02*
D11*
X20250Y49935D03*
Y69620D03*
Y89305D03*
X524935Y90250D03*
X544620D03*
X564305D03*
D02*
D12*
X125250Y70250D03*
Y85250D03*
X135250Y35250D03*
X175250D03*
X195250Y40250D03*
Y80250D03*
X220250Y45250D03*
Y60250D03*
X255250D03*
Y100250D03*
X280250Y40250D03*
X285250Y60250D03*
Y70250D03*
X290250Y65250D03*
X305250D03*
X310250Y95250D03*
X320250Y40250D03*
X340250Y95250D03*
X345250Y65250D03*
X360250D03*
Y95250D03*
X375250Y55250D03*
Y95250D03*
X400250Y30250D03*
Y45250D03*
Y75250D03*
Y90250D03*
X465250Y15250D03*
Y30250D03*
Y70250D03*
Y85250D03*
D02*
D13*
X160250Y65250D03*
X430250Y35250D03*
Y90250D03*
D02*
D14*
X160250Y75230D03*
Y85211D03*
X430250Y15289D03*
Y25270D03*
Y70289D03*
Y80270D03*
D02*
D15*
X255250Y20250D03*
Y30250D03*
X280250Y20250D03*
Y30250D03*
X0Y0D02*
M02*
