G04 EasyPC Gerber Version 21.0.3 Build 4286 *
G04 #@! TF.Part,Single*
G04 #@! TF.FileFunction,Drillmap *
G04 #@! TF.FilePolarity,Positive *
%FSLAX35Y35*%
%MOIN*%
%ADD17C,0.00500*%
G04 #@! TA.AperFunction,ComponentPad*
%ADD16C,0.10000*%
X0Y0D02*
D02*
D16*
X20250Y30250D03*
Y49935D03*
Y69620D03*
Y89305D03*
X55250Y62376D03*
X80250Y48124D03*
X110250Y54750D03*
X125250Y70250D03*
Y85250D03*
X135250Y35250D03*
X160250Y65250D03*
Y75230D03*
Y85211D03*
X175250Y35250D03*
X195250Y40250D03*
Y80250D03*
X220250Y45250D03*
Y60250D03*
X255250Y20250D03*
Y30250D03*
Y60250D03*
Y100250D03*
X280250Y20250D03*
Y30250D03*
Y40250D03*
X285250Y60250D03*
Y70250D03*
X290250Y65250D03*
X305250D03*
X310250Y95250D03*
X320250Y40250D03*
X340250Y95250D03*
X345250Y65250D03*
X360250D03*
Y95250D03*
X370250Y35250D03*
X375250Y55250D03*
Y95250D03*
X400250Y30250D03*
Y45250D03*
Y75250D03*
Y90250D03*
X430250Y15289D03*
Y25270D03*
Y35250D03*
Y70289D03*
Y80270D03*
Y90250D03*
X465250Y15250D03*
Y30250D03*
Y70250D03*
Y85250D03*
X505250Y90250D03*
X524935D03*
X544620D03*
X564305D03*
D02*
D17*
X30250Y36187D02*
X31813Y39937D01*
X33375Y36187*
X30875Y37750D02*
X32750D01*
X30250Y55872D02*
X31813Y59622D01*
X33375Y55872*
X30875Y57435D02*
X32750D01*
X30250Y75557D02*
X31813Y79307D01*
X33375Y75557*
X30875Y77120D02*
X32750D01*
X30250Y95243D02*
X31813Y98993D01*
X33375Y95243*
X30875Y96805D02*
X32750D01*
X65250Y68313D02*
Y72063D01*
X68375*
X67750Y70189D02*
X65250D01*
Y68313D02*
X68375D01*
X90250Y54061D02*
Y57811D01*
X93375*
X92750Y55937D02*
X90250D01*
Y54061D02*
X93375D01*
X120250Y60687D02*
Y64437D01*
X123375*
X122750Y62563D02*
X120250D01*
Y60687D02*
X123375D01*
X137437Y78063D02*
X138063Y77750D01*
X138375Y77125*
X138063Y76500*
X137437Y76187*
X135250*
Y79937*
X137437*
X138063Y79625*
X138375Y79000*
X138063Y78375*
X137437Y78063*
X135250*
X137437Y93063D02*
X138063Y92750D01*
X138375Y92125*
X138063Y91500*
X137437Y91187*
X135250*
Y94937*
X137437*
X138063Y94625*
X138375Y94000*
X138063Y93375*
X137437Y93063*
X135250*
X147437Y43063D02*
X148063Y42750D01*
X148375Y42125*
X148063Y41500*
X147437Y41187*
X145250*
Y44937*
X147437*
X148063Y44625*
X148375Y44000*
X148063Y43375*
X147437Y43063*
X145250*
X173375Y71813D02*
X173063Y71500D01*
X172437Y71187*
X171500*
X170875Y71500*
X170563Y71813*
X170250Y72437*
Y73687*
X170563Y74313*
X170875Y74625*
X171500Y74937*
X172437*
X173063Y74625*
X173375Y74313*
Y81793D02*
X173063Y81480D01*
X172437Y81168*
X171500*
X170875Y81480*
X170563Y81793*
X170250Y82418*
Y83668*
X170563Y84293*
X170875Y84606*
X171500Y84918*
X172437*
X173063Y84606*
X173375Y84293*
Y91773D02*
X173063Y91461D01*
X172437Y91148*
X171500*
X170875Y91461*
X170563Y91773*
X170250Y92398*
Y93648*
X170563Y94273*
X170875Y94586*
X171500Y94898*
X172437*
X173063Y94586*
X173375Y94273*
X187437Y43063D02*
X188063Y42750D01*
X188375Y42125*
X188063Y41500*
X187437Y41187*
X185250*
Y44937*
X187437*
X188063Y44625*
X188375Y44000*
X188063Y43375*
X187437Y43063*
X185250*
X207437Y48063D02*
X208063Y47750D01*
X208375Y47125*
X208063Y46500*
X207437Y46187*
X205250*
Y49937*
X207437*
X208063Y49625*
X208375Y49000*
X208063Y48375*
X207437Y48063*
X205250*
X207437Y88063D02*
X208063Y87750D01*
X208375Y87125*
X208063Y86500*
X207437Y86187*
X205250*
Y89937*
X207437*
X208063Y89625*
X208375Y89000*
X208063Y88375*
X207437Y88063*
X205250*
X232437Y53063D02*
X233063Y52750D01*
X233375Y52125*
X233063Y51500*
X232437Y51187*
X230250*
Y54937*
X232437*
X233063Y54625*
X233375Y54000*
X233063Y53375*
X232437Y53063*
X230250*
X232437Y68063D02*
X233063Y67750D01*
X233375Y67125*
X233063Y66500*
X232437Y66187*
X230250*
Y69937*
X232437*
X233063Y69625*
X233375Y69000*
X233063Y68375*
X232437Y68063*
X230250*
X265250Y26187D02*
Y29937D01*
X267125*
X267750Y29625*
X268063Y29313*
X268375Y28687*
Y27437*
X268063Y26813*
X267750Y26500*
X267125Y26187*
X265250*
Y36187D02*
Y39937D01*
X267125*
X267750Y39625*
X268063Y39313*
X268375Y38687*
Y37437*
X268063Y36813*
X267750Y36500*
X267125Y36187*
X265250*
X267437Y68063D02*
X268063Y67750D01*
X268375Y67125*
X268063Y66500*
X267437Y66187*
X265250*
Y69937*
X267437*
X268063Y69625*
X268375Y69000*
X268063Y68375*
X267437Y68063*
X265250*
X267437Y108063D02*
X268063Y107750D01*
X268375Y107125*
X268063Y106500*
X267437Y106187*
X265250*
Y109937*
X267437*
X268063Y109625*
X268375Y109000*
X268063Y108375*
X267437Y108063*
X265250*
X290250Y26187D02*
Y29937D01*
X292125*
X292750Y29625*
X293063Y29313*
X293375Y28687*
Y27437*
X293063Y26813*
X292750Y26500*
X292125Y26187*
X290250*
Y36187D02*
Y39937D01*
X292125*
X292750Y39625*
X293063Y39313*
X293375Y38687*
Y37437*
X293063Y36813*
X292750Y36500*
X292125Y36187*
X290250*
X292437Y48063D02*
X293063Y47750D01*
X293375Y47125*
X293063Y46500*
X292437Y46187*
X290250*
Y49937*
X292437*
X293063Y49625*
X293375Y49000*
X293063Y48375*
X292437Y48063*
X290250*
X297437Y68063D02*
X298063Y67750D01*
X298375Y67125*
X298063Y66500*
X297437Y66187*
X295250*
Y69937*
X297437*
X298063Y69625*
X298375Y69000*
X298063Y68375*
X297437Y68063*
X295250*
X297437Y78063D02*
X298063Y77750D01*
X298375Y77125*
X298063Y76500*
X297437Y76187*
X295250*
Y79937*
X297437*
X298063Y79625*
X298375Y79000*
X298063Y78375*
X297437Y78063*
X295250*
X302437Y73063D02*
X303063Y72750D01*
X303375Y72125*
X303063Y71500*
X302437Y71187*
X300250*
Y74937*
X302437*
X303063Y74625*
X303375Y74000*
X303063Y73375*
X302437Y73063*
X300250*
X317437D02*
X318063Y72750D01*
X318375Y72125*
X318063Y71500*
X317437Y71187*
X315250*
Y74937*
X317437*
X318063Y74625*
X318375Y74000*
X318063Y73375*
X317437Y73063*
X315250*
X322437Y103063D02*
X323063Y102750D01*
X323375Y102125*
X323063Y101500*
X322437Y101187*
X320250*
Y104937*
X322437*
X323063Y104625*
X323375Y104000*
X323063Y103375*
X322437Y103063*
X320250*
X332437Y48063D02*
X333063Y47750D01*
X333375Y47125*
X333063Y46500*
X332437Y46187*
X330250*
Y49937*
X332437*
X333063Y49625*
X333375Y49000*
X333063Y48375*
X332437Y48063*
X330250*
X352437Y103063D02*
X353063Y102750D01*
X353375Y102125*
X353063Y101500*
X352437Y101187*
X350250*
Y104937*
X352437*
X353063Y104625*
X353375Y104000*
X353063Y103375*
X352437Y103063*
X350250*
X357437Y73063D02*
X358063Y72750D01*
X358375Y72125*
X358063Y71500*
X357437Y71187*
X355250*
Y74937*
X357437*
X358063Y74625*
X358375Y74000*
X358063Y73375*
X357437Y73063*
X355250*
X372437D02*
X373063Y72750D01*
X373375Y72125*
X373063Y71500*
X372437Y71187*
X370250*
Y74937*
X372437*
X373063Y74625*
X373375Y74000*
X373063Y73375*
X372437Y73063*
X370250*
X372437Y103063D02*
X373063Y102750D01*
X373375Y102125*
X373063Y101500*
X372437Y101187*
X370250*
Y104937*
X372437*
X373063Y104625*
X373375Y104000*
X373063Y103375*
X372437Y103063*
X370250*
X380250Y41187D02*
Y44937D01*
X383375*
X382750Y43063D02*
X380250D01*
Y41187D02*
X383375D01*
X387437Y63063D02*
X388063Y62750D01*
X388375Y62125*
X388063Y61500*
X387437Y61187*
X385250*
Y64937*
X387437*
X388063Y64625*
X388375Y64000*
X388063Y63375*
X387437Y63063*
X385250*
X387437Y103063D02*
X388063Y102750D01*
X388375Y102125*
X388063Y101500*
X387437Y101187*
X385250*
Y104937*
X387437*
X388063Y104625*
X388375Y104000*
X388063Y103375*
X387437Y103063*
X385250*
X412437Y38063D02*
X413063Y37750D01*
X413375Y37125*
X413063Y36500*
X412437Y36187*
X410250*
Y39937*
X412437*
X413063Y39625*
X413375Y39000*
X413063Y38375*
X412437Y38063*
X410250*
X412437Y53063D02*
X413063Y52750D01*
X413375Y52125*
X413063Y51500*
X412437Y51187*
X410250*
Y54937*
X412437*
X413063Y54625*
X413375Y54000*
X413063Y53375*
X412437Y53063*
X410250*
X412437Y83063D02*
X413063Y82750D01*
X413375Y82125*
X413063Y81500*
X412437Y81187*
X410250*
Y84937*
X412437*
X413063Y84625*
X413375Y84000*
X413063Y83375*
X412437Y83063*
X410250*
X412437Y98063D02*
X413063Y97750D01*
X413375Y97125*
X413063Y96500*
X412437Y96187*
X410250*
Y99937*
X412437*
X413063Y99625*
X413375Y99000*
X413063Y98375*
X412437Y98063*
X410250*
X443375Y21852D02*
X443063Y21539D01*
X442437Y21227*
X441500*
X440875Y21539*
X440563Y21852*
X440250Y22477*
Y23727*
X440563Y24352*
X440875Y24665*
X441500Y24977*
X442437*
X443063Y24665*
X443375Y24352*
Y31832D02*
X443063Y31520D01*
X442437Y31207*
X441500*
X440875Y31520*
X440563Y31832*
X440250Y32457*
Y33707*
X440563Y34332*
X440875Y34645*
X441500Y34957*
X442437*
X443063Y34645*
X443375Y34332*
Y41813D02*
X443063Y41500D01*
X442437Y41187*
X441500*
X440875Y41500*
X440563Y41813*
X440250Y42437*
Y43687*
X440563Y44313*
X440875Y44625*
X441500Y44937*
X442437*
X443063Y44625*
X443375Y44313*
Y76852D02*
X443063Y76539D01*
X442437Y76227*
X441500*
X440875Y76539*
X440563Y76852*
X440250Y77477*
Y78727*
X440563Y79352*
X440875Y79665*
X441500Y79977*
X442437*
X443063Y79665*
X443375Y79352*
Y86832D02*
X443063Y86520D01*
X442437Y86207*
X441500*
X440875Y86520*
X440563Y86832*
X440250Y87457*
Y88707*
X440563Y89332*
X440875Y89645*
X441500Y89957*
X442437*
X443063Y89645*
X443375Y89332*
Y96813D02*
X443063Y96500D01*
X442437Y96187*
X441500*
X440875Y96500*
X440563Y96813*
X440250Y97437*
Y98687*
X440563Y99313*
X440875Y99625*
X441500Y99937*
X442437*
X443063Y99625*
X443375Y99313*
X477437Y23063D02*
X478063Y22750D01*
X478375Y22125*
X478063Y21500*
X477437Y21187*
X475250*
Y24937*
X477437*
X478063Y24625*
X478375Y24000*
X478063Y23375*
X477437Y23063*
X475250*
X477437Y38063D02*
X478063Y37750D01*
X478375Y37125*
X478063Y36500*
X477437Y36187*
X475250*
Y39937*
X477437*
X478063Y39625*
X478375Y39000*
X478063Y38375*
X477437Y38063*
X475250*
X477437Y78063D02*
X478063Y77750D01*
X478375Y77125*
X478063Y76500*
X477437Y76187*
X475250*
Y79937*
X477437*
X478063Y79625*
X478375Y79000*
X478063Y78375*
X477437Y78063*
X475250*
X477437Y93063D02*
X478063Y92750D01*
X478375Y92125*
X478063Y91500*
X477437Y91187*
X475250*
Y94937*
X477437*
X478063Y94625*
X478375Y94000*
X478063Y93375*
X477437Y93063*
X475250*
X515250Y96187D02*
X516813Y99937D01*
X518375Y96187*
X515875Y97750D02*
X517750D01*
X534935Y96187D02*
X536498Y99937D01*
X538060Y96187*
X535560Y97750D02*
X537435D01*
X554620Y96187D02*
X556183Y99937D01*
X557745Y96187*
X555245Y97750D02*
X557120D01*
X574305Y96187D02*
X575868Y99937D01*
X577430Y96187*
X574930Y97750D02*
X576805D01*
X0Y0D02*
M02*
