G04 EasyPC Gerber Version 21.0.3 Build 4286 *
G04 #@! TF.Part,Single*
G04 #@! TF.FileFunction,Copper,L1,Top *
G04 #@! TF.FilePolarity,Positive *
%FSLAX35Y35*%
%MOIN*%
G04 #@! TA.AperFunction,SMDPad*
%ADD22R,0.05500X0.06000*%
%ADD21R,0.06299X0.08858*%
G04 #@! TA.AperFunction,ComponentPad*
%ADD71R,0.07677X0.07677*%
%ADD24R,0.08091X0.08091*%
G04 #@! TD.AperFunction*
%ADD27C,0.01500*%
G04 #@! TA.AperFunction,ViaPad*
%ADD28C,0.04800*%
G04 #@! TA.AperFunction,ComponentPad*
%ADD23C,0.06000*%
%ADD20C,0.07677*%
%ADD25C,0.08091*%
%ADD26R,0.08000X0.06000*%
X0Y0D02*
D02*
D71*
X20250Y30250D03*
X505250Y90250D03*
D02*
D20*
X20250Y49935D03*
Y69620D03*
Y89305D03*
X524935Y90250D03*
X544620D03*
X564305D03*
D02*
D21*
X55250Y32376D03*
Y48124D03*
Y62376D03*
Y78124D03*
X80250Y32376D03*
Y48124D03*
Y62376D03*
Y78124D03*
D02*
D22*
X110250Y45750D03*
Y54750D03*
D02*
D23*
X125250Y70250D03*
Y85250D03*
X135250Y35250D03*
X175250D03*
X195250Y40250D03*
Y80250D03*
X220250Y45250D03*
Y60250D03*
X255250D03*
Y100250D03*
X280250Y40250D03*
X285250Y60250D03*
Y70250D03*
X290250Y65250D03*
X305250D03*
X310250Y95250D03*
X320250Y40250D03*
X340250Y95250D03*
X345250Y65250D03*
X360250D03*
Y95250D03*
X375250Y55250D03*
Y95250D03*
X400250Y30250D03*
Y45250D03*
Y75250D03*
Y90250D03*
X465250Y15250D03*
Y30250D03*
Y70250D03*
Y85250D03*
D02*
D24*
X160250Y65250D03*
X430250Y35250D03*
Y90250D03*
D02*
D25*
X160250Y75230D03*
Y85211D03*
X430250Y15289D03*
Y25270D03*
Y70289D03*
Y80270D03*
D02*
D26*
X255250Y20250D03*
Y30250D03*
X280250Y20250D03*
Y30250D03*
D02*
D27*
X20250D02*
X53124D01*
X55250Y32376*
X80250*
X55250Y48124D02*
Y62376D01*
Y78124D02*
X48439D01*
X20250Y49935*
X80250Y48124D02*
Y62376D01*
Y78124D02*
X55250D01*
X110250Y45750D02*
X124750D01*
X135250Y35250*
X110250Y45750D02*
X104750D01*
X100250Y50250*
Y85250*
X95250Y90250*
X21195*
X20250Y89305*
X110250Y54750D02*
Y70250D01*
X125250Y85250*
X110250Y54750D02*
X125250Y70250*
Y60750D01*
X110250Y45750*
X125250Y85250D02*
X160211D01*
X160250Y85211*
Y65250D02*
X190250Y35250D01*
X175250D02*
X190250D01*
X195250Y40250*
Y80250D02*
X165270D01*
X160250Y75230*
X215250Y30250D02*
X210250Y25250D01*
X145250*
X135250Y35250*
X220250Y45250D02*
Y35250D01*
X215250Y30250*
X220250Y60250D02*
X215250D01*
X195250Y80250*
X255250Y20250D02*
X225250D01*
X215250Y30250*
X255250D02*
Y60250D01*
Y100250D02*
X220250Y65250D01*
Y60250*
X280250Y20250D02*
X330250D01*
X280250D02*
X255250D01*
X280250Y30250D02*
Y40250D01*
X285250Y70250D02*
X255250Y100250D01*
X290250Y65250D02*
X305250D01*
X310250Y95250D02*
X285250Y70250D01*
X320250Y40250D02*
Y50250D01*
X315250Y55250*
X290250*
X285250Y60250*
X330250Y20250D02*
X390250D01*
X400250Y30250*
X345250Y65250D02*
X360250D01*
Y95250D02*
X375250D01*
X360250D02*
X340250D01*
X370250Y35250D02*
X340250D01*
X330250Y25250*
Y20250*
X375250Y55250D02*
X380250D01*
X390250Y65250*
Y80250*
X400250Y90250*
Y45250D02*
X385250D01*
X375250Y55250*
X400250Y90250D02*
X430250D01*
Y25270D02*
X460270D01*
X465250Y30250*
X430250Y25270D02*
X405230D01*
X400250Y30250*
X430250Y35250D02*
X410250D01*
X400250Y45250*
X430250Y80270D02*
X460270D01*
X465250Y85250*
X430250Y80270D02*
X405270D01*
X400250Y75250*
X465250Y15250D02*
X495250D01*
X505250Y25250*
Y90250*
X465250Y15250D02*
X430289D01*
X430250Y15289*
X465250Y70250D02*
X430289D01*
X430250Y70289*
X544620Y90250D02*
X564305D01*
D02*
D28*
X55250Y62376D03*
X80250Y48124D03*
X110250Y54750D03*
X370250Y35250D03*
X0Y0D02*
M02*
