G04 EasyPC Gerber Version 21.0.3 Build 4286 *
G04 #@! TF.Part,Single*
G04 #@! TF.FileFunction,Copper,L2,Bot *
G04 #@! TF.FilePolarity,Positive *
%FSLAX35Y35*%
%MOIN*%
G04 #@! TA.AperFunction,ComponentPad*
%ADD71R,0.07677X0.07677*%
%ADD24R,0.08091X0.08091*%
G04 #@! TD.AperFunction*
%ADD27C,0.01500*%
G04 #@! TA.AperFunction,ViaPad*
%ADD28C,0.04800*%
G04 #@! TA.AperFunction,ComponentPad*
%ADD23C,0.06000*%
%ADD20C,0.07677*%
%ADD25C,0.08091*%
%ADD26R,0.08000X0.06000*%
X0Y0D02*
D02*
D71*
X20250Y30250D03*
X505250Y90250D03*
D02*
D20*
X20250Y49935D03*
Y69620D03*
Y89305D03*
X524935Y90250D03*
X544620D03*
X564305D03*
D02*
D23*
X125250Y70250D03*
Y85250D03*
X135250Y35250D03*
X175250D03*
X195250Y40250D03*
Y80250D03*
X220250Y45250D03*
Y60250D03*
X255250D03*
Y100250D03*
X280250Y40250D03*
X285250Y60250D03*
Y70250D03*
X290250Y65250D03*
X305250D03*
X310250Y95250D03*
X320250Y40250D03*
X340250Y95250D03*
X345250Y65250D03*
X360250D03*
Y95250D03*
X375250Y55250D03*
Y95250D03*
X400250Y30250D03*
Y45250D03*
Y75250D03*
Y90250D03*
X465250Y15250D03*
Y30250D03*
Y70250D03*
Y85250D03*
D02*
D24*
X160250Y65250D03*
X430250Y35250D03*
Y90250D03*
D02*
D25*
X160250Y75230D03*
Y85211D03*
X430250Y15289D03*
Y25270D03*
Y70289D03*
Y80270D03*
D02*
D26*
X255250Y20250D03*
Y30250D03*
X280250Y20250D03*
Y30250D03*
D02*
D27*
X20250Y89305D02*
X28321D01*
X55250Y62376*
X110250Y54750D02*
X86876D01*
X80250Y48124*
X375250Y55250D02*
X350250D01*
X305250Y10250*
X55250*
X40250Y25250*
Y49620*
X20250Y69620*
X400250Y75250D02*
Y65250D01*
X370250Y35250*
X465250Y30250D02*
X530250D01*
X565250Y65250*
Y89305*
X564305Y90250*
X465250Y70250D02*
X504935D01*
X524935Y90250*
D02*
D28*
X55250Y62376D03*
X80250Y48124D03*
X110250Y54750D03*
X370250Y35250D03*
X0Y0D02*
M02*
