G04 EasyPC Gerber Version 21.0.3 Build 4286 *
G04 #@! TF.Part,Single*
G04 #@! TF.FileFunction,Other,TFG_RubenGarciaSegovia_1 - Top Documentation *
G04 #@! TF.FilePolarity,Positive *
%FSLAX35Y35*%
%MOIN*%
%ADD18C,0.00197*%
%ADD17C,0.00500*%
X0Y0D02*
D02*
D17*
X16333Y476028D02*
Y141382D01*
X87199*
Y476028*
X16333*
X51766Y176470D02*
G75*
G03Y148911J-13780D01*
G01*
G75*
G03Y176470J13780*
G01*
X50828Y308360D02*
X47078D01*
Y310548*
X47391Y311173*
X48016Y311485*
X48641Y311173*
X48953Y310548*
Y308360*
Y310548D02*
X50828Y311485D01*
X50516Y313673D02*
X50828Y314298D01*
Y314923*
X50516Y315548*
X49891Y315860*
X49266Y315548*
X48953Y314923*
Y314298*
Y314923D02*
X48641Y315548D01*
X48016Y315860*
X47391Y315548*
X47078Y314923*
Y314298*
X47391Y313673*
X51766Y440250D02*
G75*
G03Y467809J13780D01*
G01*
G75*
G03Y440250J-13780*
G01*
X75388Y301116D02*
X86904D01*
X75388D02*
X16333D01*
Y315604*
X87199*
Y301116*
X185112Y314384D02*
X173596D01*
X185112D02*
X244167D01*
Y299896*
X173301*
Y314384*
X208734Y175250D02*
G75*
G03Y147691J-13780D01*
G01*
G75*
G03Y175250J13780*
G01*
X209672Y307140D02*
X213422D01*
Y304952*
X213109Y304327*
X212484Y304015*
X211859Y304327*
X211547Y304952*
Y307140*
Y304952D02*
X209672Y304015D01*
X210609Y302140D02*
X211234Y301827D01*
X211547Y301202*
Y300577*
X211234Y299952*
X210609Y299640*
X209984Y299952*
X209672Y300577*
Y301202*
X209984Y301827*
X210609Y302140*
X211547*
X212484Y301827*
X213109Y301202*
X213422Y300577*
X208734Y439030D02*
G75*
G03Y466589J13780D01*
G01*
G75*
G03Y439030J-13780*
G01*
X244167Y139472D02*
Y474118D01*
X173301*
Y139472*
X244167*
X330112Y314384D02*
X318596D01*
X330112D02*
X389167D01*
Y299896*
X318301*
Y314384*
X353734Y175250D02*
G75*
G03Y147691J-13780D01*
G01*
G75*
G03Y175250J13780*
G01*
X354672Y307140D02*
X358422D01*
Y304952*
X358109Y304327*
X357484Y304015*
X356859Y304327*
X356547Y304952*
Y307140*
Y304952D02*
X354672Y304015D01*
Y301202D02*
X354984Y300577D01*
X355609Y299952*
X356547Y299640*
X357484*
X358109Y299952*
X358422Y300577*
Y301202*
X358109Y301827*
X357484Y302140*
X356859Y301827*
X356547Y301202*
Y300577*
X356859Y299952*
X357484Y299640*
X353734Y439030D02*
G75*
G03Y466589J13780D01*
G01*
G75*
G03Y439030J-13780*
G01*
X389167Y139472D02*
Y474118D01*
X318301*
Y139472*
X389167*
X465112Y314384D02*
X453596D01*
X465112D02*
X524167D01*
Y299896*
X453301*
Y314384*
X488734Y175250D02*
G75*
G03Y147691J-13780D01*
G01*
G75*
G03Y175250J13780*
G01*
X489672Y307140D02*
X493422D01*
Y304952*
X493109Y304327*
X492484Y304015*
X491859Y304327*
X491547Y304952*
Y307140*
Y304952D02*
X489672Y304015D01*
Y301515D02*
Y300265D01*
Y300890D02*
X493422D01*
X492797Y301515*
X489672Y294640D02*
Y297140D01*
X491859Y294952*
X492484Y294640*
X493109Y294952*
X493422Y295577*
Y296515*
X493109Y297140*
X488734Y439030D02*
G75*
G03Y466589J13780D01*
G01*
G75*
G03Y439030J-13780*
G01*
X524167Y139472D02*
Y474118D01*
X453301*
Y139472*
X524167*
D02*
D18*
X136923Y573321D02*
Y607179D01*
X217632*
Y573321*
X136923*
X236923Y2967D02*
Y19896D01*
X347159*
Y2967*
X236923*
X251923Y573321D02*
Y607179D01*
X332632*
Y573321*
X251923*
X356923D02*
Y607179D01*
X437632*
Y573321*
X356923*
X585033Y394423D02*
X568104D01*
Y504659*
X585033*
Y394423*
X0Y0D02*
M02*
