G04 EasyPC Gerber Version 21.0.3 Build 4286 *
G04 #@! TF.Part,Single*
G04 #@! TF.FileFunction,Soldermask,Bot *
G04 #@! TF.FilePolarity,Negative *
%FSLAX35Y35*%
%MOIN*%
G04 #@! TA.AperFunction,ComponentPad*
%ADD112R,0.07496X0.07496*%
%ADD10R,0.08677X0.08677*%
%ADD12C,0.07000*%
%ADD113C,0.07496*%
%ADD11C,0.08677*%
X0Y0D02*
D02*
D10*
X147750Y590250D03*
X262750D03*
X367750D03*
D02*
D11*
X167435D03*
X187120D03*
X206805D03*
X282435D03*
X302120D03*
X321805D03*
X387435D03*
X407120D03*
X426805D03*
D02*
D12*
X12750Y60250D03*
Y100250D03*
X87750Y55250D03*
Y95250D03*
X177750Y56500D03*
Y96500D03*
X242750Y56500D03*
Y96500D03*
X322750Y65250D03*
Y105250D03*
X402750Y60250D03*
Y100250D03*
X457750Y50250D03*
Y90250D03*
X530250Y45250D03*
Y85250D03*
X627750Y536500D03*
X632750Y390250D03*
Y436500D03*
Y481500D03*
X667750Y536500D03*
X672750Y390250D03*
Y436500D03*
Y481500D03*
X687750Y535250D03*
X697750Y480250D03*
X702750Y390250D03*
Y435250D03*
X727750Y535250D03*
X737750Y480250D03*
X742750Y390250D03*
Y435250D03*
D02*
D112*
X247750Y10250D03*
X577750Y405250D03*
D02*
D113*
X257593Y10250D03*
X267435D03*
X277278D03*
X287120D03*
X296963D03*
X306805D03*
X316648D03*
X326490D03*
X336333D03*
X577750Y415093D03*
Y424935D03*
Y434778D03*
Y444620D03*
Y454463D03*
Y464305D03*
Y474148D03*
Y483990D03*
Y493833D03*
X0Y0D02*
M02*
