G04 EasyPC Gerber Version 21.0.3 Build 4286 *
G04 #@! TF.Part,Single*
G04 #@! TF.FileFunction,Legend,Top *
G04 #@! TF.FilePolarity,Positive *
%FSLAX35Y35*%
%MOIN*%
%ADD17C,0.00500*%
%ADD19C,0.00787*%
X0Y0D02*
D02*
D17*
X7750Y90250D02*
X17750D01*
Y70250*
X7750*
Y90250*
X12750Y70250D02*
Y65250D01*
Y95250D02*
Y90250D01*
X21187Y84000D02*
X24937D01*
Y81813*
X24625Y81187*
X24000Y80875*
X23375Y81187*
X23063Y81813*
Y84000*
Y81813D02*
X21187Y80875D01*
X21500Y79000D02*
X21187Y78375D01*
Y77437*
X21500Y76813*
X22125Y76500*
X22437*
X23063Y76813*
X23375Y77437*
Y79000*
X24937*
Y76500*
X82750Y85250D02*
X92750D01*
Y65250*
X82750*
Y85250*
X87750Y65250D02*
Y60250D01*
Y90250D02*
Y85250D01*
X111187Y79000D02*
X114937D01*
Y76813*
X114625Y76187*
X114000Y75875*
X113375Y76187*
X113063Y76813*
Y79000*
Y76813D02*
X111187Y75875D01*
Y72437D02*
X114937D01*
X112437Y74000*
Y71500*
X147750Y591813D02*
X148063Y591500D01*
X148687Y591187*
X149313Y591500*
X149625Y591813*
Y594937*
X150250*
X149625D02*
X148375D01*
X153375Y591187D02*
X154625D01*
X154000D02*
Y594937D01*
X153375Y594313*
X172750Y86500D02*
X182750D01*
Y66500*
X172750*
Y86500*
X177750Y66500D02*
Y61500D01*
Y91500D02*
Y86500D01*
X188687Y80250D02*
X192437D01*
Y78063*
X192125Y77437*
X191500Y77125*
X190875Y77437*
X190563Y78063*
Y80250*
Y78063D02*
X188687Y77125D01*
Y75250D02*
X192437Y72750D01*
Y75250*
X237750Y86500D02*
X247750D01*
Y66500*
X237750*
Y86500*
X242750Y66500D02*
Y61500D01*
Y91500D02*
Y86500D01*
X247750Y11813D02*
X248063Y11500D01*
X248687Y11187*
X249313Y11500*
X249625Y11813*
Y14937*
X250250*
X249625D02*
X248375D01*
X255250Y11187D02*
X252750D01*
X254937Y13375*
X255250Y14000*
X254937Y14625*
X254313Y14937*
X253375*
X252750Y14625*
X251187Y80250D02*
X254937D01*
Y78063*
X254625Y77437*
X254000Y77125*
X253375Y77437*
X253063Y78063*
Y80250*
Y78063D02*
X251187Y77125D01*
X253063Y74313D02*
Y73687D01*
X253375Y73063*
X254000Y72750*
X254625Y73063*
X254937Y73687*
Y74313*
X254625Y74937*
X254000Y75250*
X253375Y74937*
X253063Y74313*
X252750Y74937*
X252125Y75250*
X251500Y74937*
X251187Y74313*
Y73687*
X251500Y73063*
X252125Y72750*
X252750Y73063*
X253063Y73687*
X262750Y591813D02*
X263063Y591500D01*
X263687Y591187*
X264313Y591500*
X264625Y591813*
Y594937*
X265250*
X264625D02*
X263375D01*
X268063Y591500D02*
X268687Y591187D01*
X269313*
X269937Y591500*
X270250Y592125*
X269937Y592750*
X269313Y593063*
X268687*
X269313D02*
X269937Y593375D01*
X270250Y594000*
X269937Y594625*
X269313Y594937*
X268687*
X268063Y594625*
X317750Y95250D02*
X327750D01*
Y75250*
X317750*
Y95250*
X322750Y75250D02*
Y70250D01*
Y100250D02*
Y95250D01*
X333687Y89000D02*
X337437D01*
Y86813*
X337125Y86187*
X336500Y85875*
X335875Y86187*
X335563Y86813*
Y89000*
Y86813D02*
X333687Y85875D01*
Y83375D02*
Y82125D01*
Y82750D02*
X337437D01*
X336813Y83375*
X333687Y78375D02*
Y77125D01*
Y77750D02*
X337437D01*
X336813Y78375*
X367750Y591813D02*
X368063Y591500D01*
X368687Y591187*
X369313Y591500*
X369625Y591813*
Y594937*
X370250*
X369625D02*
X368375D01*
X374313Y591187D02*
Y594937D01*
X372750Y592437*
X375250*
X397750Y90250D02*
X407750D01*
Y70250*
X397750*
Y90250*
X402750Y70250D02*
Y65250D01*
Y95250D02*
Y90250D01*
X411187Y84000D02*
X414937D01*
Y81813*
X414625Y81187*
X414000Y80875*
X413375Y81187*
X413063Y81813*
Y84000*
Y81813D02*
X411187Y80875D01*
Y78375D02*
Y77125D01*
Y77750D02*
X414937D01*
X414313Y78375*
X411500Y73687D02*
X411187Y73063D01*
Y72437*
X411500Y71813*
X412125Y71500*
X414000*
X414625Y71813*
X414937Y72437*
Y73063*
X414625Y73687*
X414000Y74000*
X412125*
X411500Y73687*
X414625Y71813*
X452750Y80250D02*
X462750D01*
Y60250*
X452750*
Y80250*
X457750Y60250D02*
Y55250D01*
Y85250D02*
Y80250D01*
X473687Y75250D02*
X477437D01*
Y73063*
X477125Y72437*
X476500Y72125*
X475875Y72437*
X475563Y73063*
Y75250*
Y73063D02*
X473687Y72125D01*
Y69625D02*
Y68375D01*
Y69000D02*
X477437D01*
X476813Y69625*
X474000Y64937D02*
X473687Y64313D01*
Y63687*
X474000Y63063*
X474625Y62750*
X475250Y63063*
X475563Y63687*
Y64313*
Y63687D02*
X475875Y63063D01*
X476500Y62750*
X477125Y63063*
X477437Y63687*
Y64313*
X477125Y64937*
X525250Y75250D02*
X535250D01*
Y55250*
X525250*
Y75250*
X530250Y55250D02*
Y50250D01*
Y80250D02*
Y75250D01*
X538687Y69000D02*
X542437D01*
Y66813*
X542125Y66187*
X541500Y65875*
X540875Y66187*
X540563Y66813*
Y69000*
Y66813D02*
X538687Y65875D01*
Y63375D02*
Y62125D01*
Y62750D02*
X542437D01*
X541813Y63375*
X538687Y57437D02*
X542437D01*
X539937Y59000*
Y56500*
X576187Y405250D02*
X576500Y405563D01*
X576813Y406187*
X576500Y406813*
X576187Y407125*
X573063*
Y407750*
Y407125D02*
Y405875D01*
X575875Y410250D02*
X575250Y410563D01*
X574937Y411187*
Y411813*
X575250Y412437*
X575875Y412750*
X576500Y412437*
X576813Y411813*
Y411187*
X576500Y410563*
X575875Y410250*
X574937*
X574000Y410563*
X573375Y411187*
X573063Y411813*
X632750Y536500D02*
X635250D01*
X637750Y541500*
X642750Y531500*
X647750Y541500*
X652750Y531500*
X657750Y541500*
X660250Y536500*
X662750*
X637750Y390250D02*
X640250D01*
X642750Y395250*
X647750Y385250*
X652750Y395250*
X657750Y385250*
X662750Y395250*
X665250Y390250*
X667750*
X637750Y436500D02*
X640250D01*
X642750Y441500*
X647750Y431500*
X652750Y441500*
X657750Y431500*
X662750Y441500*
X665250Y436500*
X667750*
X637750Y481500D02*
X640250D01*
X642750Y486500*
X647750Y476500*
X652750Y486500*
X657750Y476500*
X662750Y486500*
X665250Y481500*
X667750*
X642750Y546187D02*
Y549937D01*
X644937*
X645563Y549625*
X645875Y549000*
X645563Y548375*
X644937Y548063*
X642750*
X644937D02*
X645875Y546187D01*
X650250D02*
X647750D01*
X649937Y548375*
X650250Y549000*
X649937Y549625*
X649313Y549937*
X648375*
X647750Y549625*
X653063Y546500D02*
X653687Y546187D01*
X654313*
X654937Y546500*
X655250Y547125*
Y549000*
X654937Y549625*
X654313Y549937*
X653687*
X653063Y549625*
X652750Y549000*
Y547125*
X653063Y546500*
X654937Y549625*
X647750Y536187D02*
Y539937D01*
X649937*
X650563Y539625*
X650875Y539000*
X650563Y538375*
X649937Y538063*
X647750*
X649937D02*
X650875Y536187D01*
X653375D02*
X654625D01*
X654000D02*
Y539937D01*
X653375Y539313*
X658687Y538063D02*
X659313D01*
X659937Y538375*
X660250Y539000*
X659937Y539625*
X659313Y539937*
X658687*
X658063Y539625*
X657750Y539000*
X658063Y538375*
X658687Y538063*
X658063Y537750*
X657750Y537125*
X658063Y536500*
X658687Y536187*
X659313*
X659937Y536500*
X660250Y537125*
X659937Y537750*
X659313Y538063*
X692750Y535250D02*
X695250D01*
X697750Y540250*
X702750Y530250*
X707750Y540250*
X712750Y530250*
X717750Y540250*
X720250Y535250*
X722750*
X702750Y480250D02*
X705250D01*
X707750Y485250*
X712750Y475250*
X717750Y485250*
X722750Y475250*
X727750Y485250*
X730250Y480250*
X732750*
X702750Y544937D02*
Y548687D01*
X704937*
X705563Y548375*
X705875Y547750*
X705563Y547125*
X704937Y546813*
X702750*
X704937D02*
X705875Y544937D01*
X708375D02*
X709625D01*
X709000D02*
Y548687D01*
X708375Y548063*
X713687Y544937D02*
X714313Y545250D01*
X714937Y545875*
X715250Y546813*
Y547750*
X714937Y548375*
X714313Y548687*
X713687*
X713063Y548375*
X712750Y547750*
X713063Y547125*
X713687Y546813*
X714313*
X714937Y547125*
X715250Y547750*
X707750Y390250D02*
X710250D01*
X712750Y395250*
X717750Y385250*
X722750Y395250*
X727750Y385250*
X732750Y395250*
X735250Y390250*
X737750*
X707750Y435250D02*
X710250D01*
X712750Y440250*
X717750Y430250*
X722750Y440250*
X727750Y430250*
X732750Y440250*
X735250Y435250*
X737750*
X712750Y534937D02*
Y538687D01*
X714937*
X715563Y538375*
X715875Y537750*
X715563Y537125*
X714937Y536813*
X712750*
X714937D02*
X715875Y534937D01*
X718375D02*
X719625D01*
X719000D02*
Y538687D01*
X718375Y538063*
X722750Y534937D02*
X725250Y538687D01*
X722750*
X717750Y399937D02*
Y403687D01*
X719937*
X720563Y403375*
X720875Y402750*
X720563Y402125*
X719937Y401813*
X717750*
X719937D02*
X720875Y399937D01*
X723375D02*
X724625D01*
X724000D02*
Y403687D01*
X723375Y403063*
X717750Y444937D02*
Y448687D01*
X719937*
X720563Y448375*
X720875Y447750*
X720563Y447125*
X719937Y446813*
X717750*
X719937D02*
X720875Y444937D01*
X723375D02*
X724625D01*
X724000D02*
Y448687D01*
X723375Y448063*
X727750Y445250D02*
X728375Y444937D01*
X729313*
X729937Y445250*
X730250Y445875*
Y446187*
X729937Y446813*
X729313Y447125*
X727750*
Y448687*
X730250*
X717750Y479937D02*
Y483687D01*
X719937*
X720563Y483375*
X720875Y482750*
X720563Y482125*
X719937Y481813*
X717750*
X719937D02*
X720875Y479937D01*
X723375D02*
X724625D01*
X724000D02*
Y483687D01*
X723375Y483063*
X727750Y480875D02*
X728063Y481500D01*
X728687Y481813*
X729313*
X729937Y481500*
X730250Y480875*
X729937Y480250*
X729313Y479937*
X728687*
X728063Y480250*
X727750Y480875*
Y481813*
X728063Y482750*
X728687Y483375*
X729313Y483687*
X722750Y418687D02*
Y422437D01*
X724937*
X725563Y422125*
X725875Y421500*
X725563Y420875*
X724937Y420563*
X722750*
X724937D02*
X725875Y418687D01*
X730250D02*
X727750D01*
X729937Y420875*
X730250Y421500*
X729937Y422125*
X729313Y422437*
X728375*
X727750Y422125*
D02*
D19*
X147750Y574305D02*
X216648D01*
Y606195*
X137907*
Y590250*
X247750Y3951D02*
X346175D01*
Y18911*
X237907*
Y10250*
X262750Y574305D02*
X331648D01*
Y606195*
X252907*
Y590250*
X367750Y574305D02*
X436648D01*
Y606195*
X357907*
Y590250*
X584049Y405250D02*
Y503675D01*
X569089*
Y395407*
X577750*
X0Y0D02*
M02*
