G04 EasyPC Gerber Version 21.0.3 Build 4286 *
G04 #@! TF.Part,Single*
G04 #@! TF.FileFunction,Drillmap *
G04 #@! TF.FilePolarity,Positive *
%FSLAX35Y35*%
%MOIN*%
%ADD17C,0.00500*%
G04 #@! TA.AperFunction,ComponentPad*
%ADD16C,0.10000*%
X0Y0D02*
D02*
D16*
X12750Y60250D03*
Y100250D03*
X87750Y55250D03*
Y95250D03*
X147750Y515250D03*
Y590250D03*
X167435D03*
X177750Y56500D03*
Y96500D03*
X187120Y540250D03*
Y590250D03*
X206805D03*
X215624Y377376D03*
X242750Y56500D03*
Y96500D03*
Y540250D03*
X247750Y10250D03*
X257593D03*
X262750Y590250D03*
X267435Y10250D03*
X277278D03*
X282435Y590250D03*
X287120Y10250D03*
X296963D03*
X302120Y590250D03*
X306805Y10250D03*
X316648D03*
X321805Y590250D03*
X322750Y65250D03*
Y105250D03*
X326490Y10250D03*
X336333D03*
X367750Y590250D03*
X387435D03*
X395880Y237120D03*
X402750Y60250D03*
Y100250D03*
X407120Y590250D03*
X426805D03*
X457750Y50250D03*
Y90250D03*
X467750Y540250D03*
X530250Y45250D03*
Y85250D03*
X534620Y237120D03*
X537750Y404620D03*
X562750Y140250D03*
X577750Y405250D03*
Y415093D03*
Y424935D03*
Y434778D03*
Y444620D03*
Y454463D03*
Y464305D03*
Y474148D03*
Y483990D03*
Y493833D03*
X582750Y285250D03*
X612750Y455250D03*
X617120Y444620D03*
X617750Y435250D03*
X627750Y536500D03*
X632750Y390250D03*
Y436500D03*
Y481500D03*
X637750Y465250D03*
X657750Y415250D03*
X667750Y470250D03*
Y536500D03*
X672750Y390250D03*
Y436500D03*
Y481500D03*
X687750Y535250D03*
X697750Y480250D03*
X702750Y390250D03*
Y435250D03*
X727750Y405250D03*
Y535250D03*
X737750Y480250D03*
X742750Y390250D03*
Y435250D03*
D02*
D17*
X22750Y66187D02*
X24313Y69937D01*
X25875Y66187*
X23375Y67750D02*
X25250D01*
X22750Y106187D02*
X24313Y109937D01*
X25875Y106187*
X23375Y107750D02*
X25250D01*
X97750Y61187D02*
X99313Y64937D01*
X100875Y61187*
X98375Y62750D02*
X100250D01*
X97750Y101187D02*
X99313Y104937D01*
X100875Y101187*
X98375Y102750D02*
X100250D01*
X157750Y521187D02*
Y524937D01*
X159625*
X160250Y524625*
X160563Y524313*
X160875Y523687*
Y522437*
X160563Y521813*
X160250Y521500*
X159625Y521187*
X157750*
X160875Y596813D02*
X160563Y596500D01*
X159937Y596187*
X159000*
X158375Y596500*
X158063Y596813*
X157750Y597437*
Y598687*
X158063Y599313*
X158375Y599625*
X159000Y599937*
X159937*
X160563Y599625*
X160875Y599313*
X180560Y596813D02*
X180248Y596500D01*
X179622Y596187*
X178685*
X178060Y596500*
X177748Y596813*
X177435Y597437*
Y598687*
X177748Y599313*
X178060Y599625*
X178685Y599937*
X179622*
X180248Y599625*
X180560Y599313*
X187750Y62437D02*
X189313Y66187D01*
X190875Y62437*
X188375Y64000D02*
X190250D01*
X187750Y102437D02*
X189313Y106187D01*
X190875Y102437*
X188375Y104000D02*
X190250D01*
X197120Y546187D02*
Y549937D01*
X198995*
X199620Y549625*
X199933Y549313*
X200245Y548687*
Y547437*
X199933Y546813*
X199620Y546500*
X198995Y546187*
X197120*
X200245Y596813D02*
X199933Y596500D01*
X199307Y596187*
X198370*
X197745Y596500*
X197433Y596813*
X197120Y597437*
Y598687*
X197433Y599313*
X197745Y599625*
X198370Y599937*
X199307*
X199933Y599625*
X200245Y599313*
X219930Y596813D02*
X219618Y596500D01*
X218993Y596187*
X218055*
X217430Y596500*
X217118Y596813*
X216805Y597437*
Y598687*
X217118Y599313*
X217430Y599625*
X218055Y599937*
X218993*
X219618Y599625*
X219930Y599313*
X225624Y383313D02*
Y387063D01*
X227499*
X228124Y386751*
X228437Y386439*
X228749Y385813*
Y384563*
X228437Y383939*
X228124Y383626*
X227499Y383313*
X225624*
X252750Y62437D02*
X254313Y66187D01*
X255875Y62437*
X253375Y64000D02*
X255250D01*
X252750Y102437D02*
X254313Y106187D01*
X255875Y102437*
X253375Y104000D02*
X255250D01*
X252750Y546187D02*
Y549937D01*
X254625*
X255250Y549625*
X255563Y549313*
X255875Y548687*
Y547437*
X255563Y546813*
X255250Y546500*
X254625Y546187*
X252750*
X259937Y18063D02*
X260563Y17750D01*
X260875Y17125*
X260563Y16500*
X259937Y16187*
X257750*
Y19937*
X259937*
X260563Y19625*
X260875Y19000*
X260563Y18375*
X259937Y18063*
X257750*
X269780D02*
X270405Y17750D01*
X270718Y17125*
X270405Y16500*
X269780Y16187*
X267593*
Y19937*
X269780*
X270405Y19625*
X270718Y19000*
X270405Y18375*
X269780Y18063*
X267593*
X275875Y596813D02*
X275563Y596500D01*
X274937Y596187*
X274000*
X273375Y596500*
X273063Y596813*
X272750Y597437*
Y598687*
X273063Y599313*
X273375Y599625*
X274000Y599937*
X274937*
X275563Y599625*
X275875Y599313*
X279622Y18063D02*
X280248Y17750D01*
X280560Y17125*
X280248Y16500*
X279622Y16187*
X277435*
Y19937*
X279622*
X280248Y19625*
X280560Y19000*
X280248Y18375*
X279622Y18063*
X277435*
X289465D02*
X290090Y17750D01*
X290403Y17125*
X290090Y16500*
X289465Y16187*
X287278*
Y19937*
X289465*
X290090Y19625*
X290403Y19000*
X290090Y18375*
X289465Y18063*
X287278*
X295560Y596813D02*
X295248Y596500D01*
X294622Y596187*
X293685*
X293060Y596500*
X292748Y596813*
X292435Y597437*
Y598687*
X292748Y599313*
X293060Y599625*
X293685Y599937*
X294622*
X295248Y599625*
X295560Y599313*
X299307Y18063D02*
X299933Y17750D01*
X300245Y17125*
X299933Y16500*
X299307Y16187*
X297120*
Y19937*
X299307*
X299933Y19625*
X300245Y19000*
X299933Y18375*
X299307Y18063*
X297120*
X309150D02*
X309775Y17750D01*
X310088Y17125*
X309775Y16500*
X309150Y16187*
X306963*
Y19937*
X309150*
X309775Y19625*
X310088Y19000*
X309775Y18375*
X309150Y18063*
X306963*
X315245Y596813D02*
X314933Y596500D01*
X314307Y596187*
X313370*
X312745Y596500*
X312433Y596813*
X312120Y597437*
Y598687*
X312433Y599313*
X312745Y599625*
X313370Y599937*
X314307*
X314933Y599625*
X315245Y599313*
X318993Y18063D02*
X319618Y17750D01*
X319930Y17125*
X319618Y16500*
X318993Y16187*
X316805*
Y19937*
X318993*
X319618Y19625*
X319930Y19000*
X319618Y18375*
X318993Y18063*
X316805*
X328835D02*
X329460Y17750D01*
X329773Y17125*
X329460Y16500*
X328835Y16187*
X326648*
Y19937*
X328835*
X329460Y19625*
X329773Y19000*
X329460Y18375*
X328835Y18063*
X326648*
X334930Y596813D02*
X334618Y596500D01*
X333993Y596187*
X333055*
X332430Y596500*
X332118Y596813*
X331805Y597437*
Y598687*
X332118Y599313*
X332430Y599625*
X333055Y599937*
X333993*
X334618Y599625*
X334930Y599313*
X332750Y71187D02*
X334313Y74937D01*
X335875Y71187*
X333375Y72750D02*
X335250D01*
X332750Y111187D02*
X334313Y114937D01*
X335875Y111187*
X333375Y112750D02*
X335250D01*
X338678Y18063D02*
X339303Y17750D01*
X339615Y17125*
X339303Y16500*
X338678Y16187*
X336490*
Y19937*
X338678*
X339303Y19625*
X339615Y19000*
X339303Y18375*
X338678Y18063*
X336490*
X348520D02*
X349145Y17750D01*
X349458Y17125*
X349145Y16500*
X348520Y16187*
X346333*
Y19937*
X348520*
X349145Y19625*
X349458Y19000*
X349145Y18375*
X348520Y18063*
X346333*
X380875Y596813D02*
X380563Y596500D01*
X379937Y596187*
X379000*
X378375Y596500*
X378063Y596813*
X377750Y597437*
Y598687*
X378063Y599313*
X378375Y599625*
X379000Y599937*
X379937*
X380563Y599625*
X380875Y599313*
X400560Y596813D02*
X400248Y596500D01*
X399622Y596187*
X398685*
X398060Y596500*
X397748Y596813*
X397435Y597437*
Y598687*
X397748Y599313*
X398060Y599625*
X398685Y599937*
X399622*
X400248Y599625*
X400560Y599313*
X405880Y243057D02*
Y246807D01*
X407755*
X408380Y246495*
X408693Y246183*
X409005Y245557*
Y244307*
X408693Y243683*
X408380Y243370*
X407755Y243057*
X405880*
X412750Y66187D02*
X414313Y69937D01*
X415875Y66187*
X413375Y67750D02*
X415250D01*
X412750Y106187D02*
X414313Y109937D01*
X415875Y106187*
X413375Y107750D02*
X415250D01*
X420245Y596813D02*
X419933Y596500D01*
X419307Y596187*
X418370*
X417745Y596500*
X417433Y596813*
X417120Y597437*
Y598687*
X417433Y599313*
X417745Y599625*
X418370Y599937*
X419307*
X419933Y599625*
X420245Y599313*
X439930Y596813D02*
X439618Y596500D01*
X438993Y596187*
X438055*
X437430Y596500*
X437118Y596813*
X436805Y597437*
Y598687*
X437118Y599313*
X437430Y599625*
X438055Y599937*
X438993*
X439618Y599625*
X439930Y599313*
X467750Y56187D02*
X469313Y59937D01*
X470875Y56187*
X468375Y57750D02*
X470250D01*
X467750Y96187D02*
X469313Y99937D01*
X470875Y96187*
X468375Y97750D02*
X470250D01*
X477750Y546187D02*
Y549937D01*
X479625*
X480250Y549625*
X480563Y549313*
X480875Y548687*
Y547437*
X480563Y546813*
X480250Y546500*
X479625Y546187*
X477750*
X540250Y51187D02*
X541813Y54937D01*
X543375Y51187*
X540875Y52750D02*
X542750D01*
X540250Y91187D02*
X541813Y94937D01*
X543375Y91187*
X540875Y92750D02*
X542750D01*
X544620Y243057D02*
Y246807D01*
X546495*
X547120Y246495*
X547433Y246183*
X547745Y245557*
Y244307*
X547433Y243683*
X547120Y243370*
X546495Y243057*
X544620*
X547750Y410557D02*
Y414307D01*
X549625*
X550250Y413995*
X550563Y413683*
X550875Y413057*
Y411807*
X550563Y411183*
X550250Y410870*
X549625Y410557*
X547750*
X572750Y146187D02*
Y149937D01*
X574625*
X575250Y149625*
X575563Y149313*
X575875Y148687*
Y147437*
X575563Y146813*
X575250Y146500*
X574625Y146187*
X572750*
X589937Y413063D02*
X590563Y412750D01*
X590875Y412125*
X590563Y411500*
X589937Y411187*
X587750*
Y414937*
X589937*
X590563Y414625*
X590875Y414000*
X590563Y413375*
X589937Y413063*
X587750*
X589937Y422905D02*
X590563Y422593D01*
X590875Y421968*
X590563Y421343*
X589937Y421030*
X587750*
Y424780*
X589937*
X590563Y424468*
X590875Y423843*
X590563Y423218*
X589937Y422905*
X587750*
X589937Y432748D02*
X590563Y432435D01*
X590875Y431810*
X590563Y431185*
X589937Y430872*
X587750*
Y434622*
X589937*
X590563Y434310*
X590875Y433685*
X590563Y433060*
X589937Y432748*
X587750*
X589937Y442590D02*
X590563Y442278D01*
X590875Y441653*
X590563Y441028*
X589937Y440715*
X587750*
Y444465*
X589937*
X590563Y444153*
X590875Y443528*
X590563Y442903*
X589937Y442590*
X587750*
X589937Y452433D02*
X590563Y452120D01*
X590875Y451495*
X590563Y450870*
X589937Y450557*
X587750*
Y454307*
X589937*
X590563Y453995*
X590875Y453370*
X590563Y452745*
X589937Y452433*
X587750*
X589937Y462275D02*
X590563Y461963D01*
X590875Y461338*
X590563Y460713*
X589937Y460400*
X587750*
Y464150*
X589937*
X590563Y463838*
X590875Y463213*
X590563Y462588*
X589937Y462275*
X587750*
X589937Y472118D02*
X590563Y471805D01*
X590875Y471180*
X590563Y470555*
X589937Y470243*
X587750*
Y473993*
X589937*
X590563Y473680*
X590875Y473055*
X590563Y472430*
X589937Y472118*
X587750*
X589937Y481960D02*
X590563Y481648D01*
X590875Y481023*
X590563Y480398*
X589937Y480085*
X587750*
Y483835*
X589937*
X590563Y483523*
X590875Y482898*
X590563Y482273*
X589937Y481960*
X587750*
X589937Y491803D02*
X590563Y491490D01*
X590875Y490865*
X590563Y490240*
X589937Y489928*
X587750*
Y493678*
X589937*
X590563Y493365*
X590875Y492740*
X590563Y492115*
X589937Y491803*
X587750*
X589937Y501645D02*
X590563Y501333D01*
X590875Y500708*
X590563Y500083*
X589937Y499770*
X587750*
Y503520*
X589937*
X590563Y503208*
X590875Y502583*
X590563Y501958*
X589937Y501645*
X587750*
X592750Y291187D02*
Y294937D01*
X594625*
X595250Y294625*
X595563Y294313*
X595875Y293687*
Y292437*
X595563Y291813*
X595250Y291500*
X594625Y291187*
X592750*
X622750Y461187D02*
Y464937D01*
X624625*
X625250Y464625*
X625563Y464313*
X625875Y463687*
Y462437*
X625563Y461813*
X625250Y461500*
X624625Y461187*
X622750*
X627120Y450557D02*
Y454307D01*
X628995*
X629620Y453995*
X629933Y453683*
X630245Y453057*
Y451807*
X629933Y451183*
X629620Y450870*
X628995Y450557*
X627120*
X627750Y441187D02*
Y444937D01*
X629625*
X630250Y444625*
X630563Y444313*
X630875Y443687*
Y442437*
X630563Y441813*
X630250Y441500*
X629625Y441187*
X627750*
X637750Y542437D02*
X639313Y546187D01*
X640875Y542437*
X638375Y544000D02*
X640250D01*
X642750Y396187D02*
X644313Y399937D01*
X645875Y396187*
X643375Y397750D02*
X645250D01*
X642750Y442437D02*
X644313Y446187D01*
X645875Y442437*
X643375Y444000D02*
X645250D01*
X642750Y487437D02*
X644313Y491187D01*
X645875Y487437*
X643375Y489000D02*
X645250D01*
X647750Y471187D02*
Y474937D01*
X649625*
X650250Y474625*
X650563Y474313*
X650875Y473687*
Y472437*
X650563Y471813*
X650250Y471500*
X649625Y471187*
X647750*
X667750Y421187D02*
Y424937D01*
X669625*
X670250Y424625*
X670563Y424313*
X670875Y423687*
Y422437*
X670563Y421813*
X670250Y421500*
X669625Y421187*
X667750*
X677750Y476187D02*
Y479937D01*
X679625*
X680250Y479625*
X680563Y479313*
X680875Y478687*
Y477437*
X680563Y476813*
X680250Y476500*
X679625Y476187*
X677750*
Y542437D02*
X679313Y546187D01*
X680875Y542437*
X678375Y544000D02*
X680250D01*
X682750Y396187D02*
X684313Y399937D01*
X685875Y396187*
X683375Y397750D02*
X685250D01*
X682750Y442437D02*
X684313Y446187D01*
X685875Y442437*
X683375Y444000D02*
X685250D01*
X682750Y487437D02*
X684313Y491187D01*
X685875Y487437*
X683375Y489000D02*
X685250D01*
X697750Y541187D02*
X699313Y544937D01*
X700875Y541187*
X698375Y542750D02*
X700250D01*
X707750Y486187D02*
X709313Y489937D01*
X710875Y486187*
X708375Y487750D02*
X710250D01*
X712750Y396187D02*
X714313Y399937D01*
X715875Y396187*
X713375Y397750D02*
X715250D01*
X712750Y441187D02*
X714313Y444937D01*
X715875Y441187*
X713375Y442750D02*
X715250D01*
X737750Y411187D02*
Y414937D01*
X739625*
X740250Y414625*
X740563Y414313*
X740875Y413687*
Y412437*
X740563Y411813*
X740250Y411500*
X739625Y411187*
X737750*
Y541187D02*
X739313Y544937D01*
X740875Y541187*
X738375Y542750D02*
X740250D01*
X747750Y486187D02*
X749313Y489937D01*
X750875Y486187*
X748375Y487750D02*
X750250D01*
X752750Y396187D02*
X754313Y399937D01*
X755875Y396187*
X753375Y397750D02*
X755250D01*
X752750Y441187D02*
X754313Y444937D01*
X755875Y441187*
X753375Y442750D02*
X755250D01*
X0Y0D02*
M02*
