G04 EasyPC Gerber Version 21.0.3 Build 4286 *
G04 #@! TF.Part,Single*
G04 #@! TF.FileFunction,Soldermask,Top *
G04 #@! TF.FilePolarity,Negative *
%FSLAX35Y35*%
%MOIN*%
G04 #@! TA.AperFunction,SMDPad*
%ADD119R,0.59655X1.10836*%
G04 #@! TA.AperFunction,ComponentPad*
%ADD94R,0.07096X0.07096*%
%ADD90R,0.08277X0.08277*%
G04 #@! TA.AperFunction,ViaPad*
%ADD103C,0.05400*%
G04 #@! TA.AperFunction,ComponentPad*
%ADD89C,0.06600*%
%ADD95C,0.07096*%
%ADD91C,0.08277*%
X0Y0D02*
D02*
D89*
X12750Y60250D03*
Y100250D03*
X87750Y55250D03*
Y95250D03*
X177750Y56500D03*
Y96500D03*
X242750Y56500D03*
Y96500D03*
X322750Y65250D03*
Y105250D03*
X402750Y60250D03*
Y100250D03*
X457750Y50250D03*
Y90250D03*
X530250Y45250D03*
Y85250D03*
X627750Y536500D03*
X632750Y390250D03*
Y436500D03*
Y481500D03*
X667750Y536500D03*
X672750Y390250D03*
Y436500D03*
Y481500D03*
X687750Y535250D03*
X697750Y480250D03*
X702750Y390250D03*
Y435250D03*
X727750Y535250D03*
X737750Y480250D03*
X742750Y390250D03*
Y435250D03*
D02*
D90*
X147750Y590250D03*
X262750D03*
X367750D03*
D02*
D91*
X167435D03*
X187120D03*
X206805D03*
X282435D03*
X302120D03*
X321805D03*
X387435D03*
X407120D03*
X426805D03*
D02*
D94*
X247750Y10250D03*
X577750Y405250D03*
D02*
D95*
X257593Y10250D03*
X267435D03*
X277278D03*
X287120D03*
X296963D03*
X306805D03*
X316648D03*
X326490D03*
X336333D03*
X577750Y415093D03*
Y424935D03*
Y434778D03*
Y444620D03*
Y454463D03*
Y464305D03*
Y474148D03*
Y483990D03*
Y493833D03*
D02*
D103*
X147750Y515250D03*
X187120Y540250D03*
X215624Y377376D03*
X242750Y540250D03*
X395880Y237120D03*
X467750Y540250D03*
X534620Y237120D03*
X537750Y404620D03*
X562750Y140250D03*
X582750Y285250D03*
X612750Y455250D03*
X617120Y444620D03*
X617750Y435250D03*
X637750Y465250D03*
X657750Y415250D03*
X667750Y470250D03*
X727750Y405250D03*
D02*
D119*
X51175Y238124D03*
Y378380D03*
X209325Y237120D03*
Y377376D03*
X354325Y237120D03*
Y377376D03*
X489325Y237120D03*
Y377376D03*
X0Y0D02*
M02*
